<svg xmlns="http://www.w3.org/2000/svg" width="250" height="250" fill="none" viewBox="0 0 250 250">
<!-- SVG created with Arrow, by QuiverAI (https://quiver.ai) -->
  <path d="m249.8 0.19h-249.6v249.6h249.6v-249.6z" fill="url(#paint0_linear_1438_31630)"/>
  <path d="m246.5 242.8-2.34 2.34 2.34 2.34 2.34-2.34-2.34-2.34z" stroke="#0B492D" stroke-miterlimit="10" stroke-width="1.2"/>
  <path d="m6.18 242.8-2.34 2.34 2.34 2.34 2.34-2.34-2.34-2.34z" stroke="#0B492D" stroke-miterlimit="10" stroke-width="1.2"/>
  <path d="m242.3 185.8-2.18 2.18 2.18 2.18 2.18-2.18-2.18-2.18z" stroke="#0B492D" stroke-miterlimit="10" stroke-width="1.2"/>
  <path d="m9.08 185.8-2.18 2.18 2.18 2.18 2.18-2.18-2.18-2.18z" stroke="#0B492D" stroke-miterlimit="10" stroke-width="1.2"/>
  <path d="m9.08 60.11-2.18 2.18 2.18 2.18 2.18-2.18-2.18-2.18z" stroke="#0B492D" stroke-miterlimit="10" stroke-width="1.2"/>
  <path d="m62.09 6.03-2.18 2.18 2.18 2.18 2.18-2.18-2.18-2.18z" stroke="#0B492D" stroke-miterlimit="10" stroke-width="1.2"/>
  <path d="m187.9 6.03-2.18 2.18 2.18 2.18 2.18-2.18-2.18-2.18z" stroke="#0B492D" stroke-miterlimit="10" stroke-width="1.2"/>
  <path d="m241.7 59.96-2.18 2.18 2.18 2.18 2.18-2.18-2.18-2.18z" stroke="#0B492D" stroke-miterlimit="10" stroke-width="1.2"/>
  <path d="m61.52 241.1-2.18 2.18 2.18 2.18 2.18-2.18-2.18-2.18z" stroke="#0B492D" stroke-miterlimit="10" stroke-width="1.2"/>
  <path d="m136.6 236.8-2.18 2.18 2.18 2.18 2.18-2.18-2.18-2.18z" stroke="#0B492D" stroke-miterlimit="10" stroke-width="1.2"/>
  <path d="m240.5 112.5-2.18 2.18 2.18 2.18 2.18-2.18-2.18-2.18z" stroke="#0B492D" stroke-miterlimit="10" stroke-width="1.2"/>
  <path d="m9.66 112.1-2.18 2.18 2.18 2.18 2.18-2.18-2.18-2.18z" stroke="#0B492D" stroke-miterlimit="10" stroke-width="1.2"/>
  <path d="m240.5 133.9-2.18 2.18 2.18 2.18 2.18-2.18-2.18-2.18z" stroke="#0B492D" stroke-miterlimit="10" stroke-width="1.2"/>
  <path d="m9.66 133.9-2.18 2.18 2.18 2.18 2.18-2.18-2.18-2.18z" stroke="#0B492D" stroke-miterlimit="10" stroke-width="1.2"/>
  <path d="m188.5 241.1-2.18 2.18 2.18 2.18 2.18-2.18-2.18-2.18z" stroke="#0B492D" stroke-miterlimit="10" stroke-width="1.2"/>
  <path d="m115.5 6.03-2.18 2.18 2.18 2.18 2.18-2.18-2.18-2.18z" stroke="#0B492D" stroke-miterlimit="10" stroke-width="1.2"/>
  <path d="m53.69 248.6v-7.56h-45.03v-45.24l8.26-8.26v-22.26h-6.01l-10.72 11.98" stroke="#0B492D" stroke-miterlimit="10" stroke-width="1.2"/>
  <path d="m242.3 195.2v45.82h-45.82v7.56" stroke="#0B492D" stroke-miterlimit="10" stroke-width="1.2"/>
  <path d="m235.3 151.7h8.13l6.41 7.27" stroke="#0B492D" stroke-miterlimit="10" stroke-width="1.2"/>
  <path d="m235.3 165.3 3.68-0.14 10.86 12.12" stroke="#0B492D" stroke-miterlimit="10" stroke-width="1.2"/>
  <path d="m232.9 124.6h9.33" stroke="#0B492D" stroke-miterlimit="10" stroke-width="1.2"/>
  <path d="m244 114.7h5.83" stroke="#0B492D" stroke-miterlimit="10" stroke-width="1.2"/>
  <path d="m0.19 124.6h13.01" stroke="#0B492D" stroke-miterlimit="10" stroke-width="1.2"/>
  <path d="m0.19 136.7h6.41" stroke="#0B492D" stroke-miterlimit="10" stroke-width="1.2"/>
  <path d="m5.21 150v10.41l-5.02 5.02" stroke="#0B492D" stroke-miterlimit="10" stroke-width="1.2"/>
  <path d="m153.2 221.3v22.59l6.13 5.7" stroke="#0B492D" stroke-miterlimit="10" stroke-width="1.2"/>
  <path d="m135.8 240.8v7.85" stroke="#0B492D" stroke-miterlimit="10" stroke-width="1.2"/>
  <path d="m153.8 1.38v12.73h18.65l10.41-12.73" stroke="#0B492D" stroke-miterlimit="10" stroke-width="1.2"/>
  <path d="m244.6 1.38v5.15h-43.88v-5.74" stroke="#0B492D" stroke-miterlimit="10" stroke-width="1.2"/>
  <path d="m243.4 8.8v87.92h2.82v-7.27l3.59-3.73v-14.12l-14.54 14.55h-4.02v-27.05l9.28-10.41v-12.73l-5.26-4.77v-7.85l8.13-8.67v-5.87h-49.78v-7.42" stroke="#0B492D" stroke-miterlimit="10" stroke-width="1.2"/>
  <path d="m123.3 7.11v7h2.82" stroke="#0B492D" stroke-miterlimit="10" stroke-width="1.2"/>
  <path d="m136.6 1.38v10.97l-3.4 3.73v2.55" stroke="#0B492D" stroke-miterlimit="10" stroke-width="1.2"/>
  <path d="m99.43 1.38v10.12l4.02 3.73v5.43" stroke="#0B492D" stroke-miterlimit="10" stroke-width="1.2"/>
  <path d="m67.22 1.38 12.73 12.12h17.78v7.56" stroke="#0B492D" stroke-miterlimit="10" stroke-width="1.2"/>
  <path d="m7.52 1.38v6.59h43.21v-7.18" stroke="#0B492D" stroke-miterlimit="10" stroke-width="1.2"/>
  <path d="m8.66 8.8v8.96l3.41 5.58h6.12v5.43" stroke="#0B492D" stroke-miterlimit="10" stroke-width="1.2"/>
  <path d="m1.91 195.2h5.32v47.54" stroke="#0B492D" stroke-miterlimit="10" stroke-width="1.2"/>
  <path d="m15.24 86.3-5.44-5.44-1.71-3.13" stroke="#0B492D" stroke-miterlimit="10" stroke-width="1.2"/>
  <path d="m65.51 248.6 21.07-21.08 10.56-0.42v16.22l-6.7 6.27" stroke="#0B492D" stroke-miterlimit="10" stroke-width="1.2"/>
  <path d="m57.37 241.6 4.72-4.81h5.13" stroke="#0B492D" stroke-miterlimit="10" stroke-width="1.2"/>
  <path d="m142 96.14-25.95-0.15-5.73 10.97-8.14-3.73-1.71-9.3-9.28-2.33-11.7 3.15-6.41 10.41-7.55 1.16-2.33 8.42-2.28 5.47-5.58 0.96-0.72-10.98-10.99-5.78-10.41 1.71-12.73 4.63v15.11l2.28 7.27-1.72 10.13 11.59 2.87 3.4 5.73-15.55 2.28v14.12l6.99 4.86 0.58 14.73 6.27 2.27-2.28 5.12-1.71 6.97-1.16 9.63 6.32 5.19 0.54 9.06 7.59 0.82 8.14-6.15 2.85-9.49 4.03-4.02 3.46-2 1.09 9.49 4.62 2.87 2.86 6.68 11.6 2.27 7.59-5.52 7.29-7.47 4.45-6.04 5.07-2.28 2 7.74 6.12 4.9 8.29 8.67 9.85-6.09 6.65-5.19 4.77-7.75 3.41 0.58 3.44 6.63 5.17 6.58 10.41 3.45 8.58-4.59 6.41-6.61 4.02-6.6 3.45-1.72 5.72 5.15 5.73 5.47 9.13 8.66 8.14-4.35 7.59-8.05 4.02-5.16v-8.91l-4.02-6.86-4.72-3.49 0.58-7.61 4.72-3.44 3.44-5.15-2.33-8.05-1.69-4.34-1.71-6.04-8.72-2.87-3.45-4.08 2.86-4.86 7.45-3.99 7-6.58 0.59-9.84-4.02-4.04-2.28-9.3-6.41-2.87-7.59-0.58-5.73-4.04-2.85-6.62h-9.13l-6.33 3.74-8.58 1.16-5.35-2.27-3.98-3.83-8.62 0.62-5.44 1.68-6.04 2.64-5.23-1.01z" fill="url(#paint1_radial_1438_31630)" opacity=".2"/>
  <path d="m21.99 19.07h31.92c2.93 0 4.33 2.14 4.33 4.49v28.71c0 3.04-1.83 4.79-4.64 4.79h-31.33c-2.9 0-4.18-2.17-4.18-4.68v-28.82c0-2.5 1.54-4.49 3.9-4.49z" fill="url(#paint2_linear_1438_31630)" stroke="url(#paint3_linear_1438_31630)" stroke-miterlimit="10" stroke-width="1.2"/>
  <path d="m23.65 21.93h29.66c1.63 0 2.63 1.39 2.63 2.87v26.62c0 1.8-1.39 3.04-2.92 3.04h-29.24c-1.67 0-2.9-1.38-2.9-2.92v-26.89c0-1.54 1.23-2.72 2.77-2.72z" fill="url(#paint4_linear_1438_31630)" stroke="url(#paint5_linear_1438_31630)" stroke-miterlimit="10" stroke-width="1.2"/>
  <path d="m23.42 21.64 15.26 15.26 17.26-14.97" stroke="#0B492D" stroke-miterlimit="10" stroke-width="1.2"/>
  <path d="m55.94 54.75-16.26-16.26-18.51 15.68" stroke="#0B492D" stroke-miterlimit="10" stroke-width="1.2"/>
  <path d="m36.02 17.69 1.89 1.89h1.99l2.14-2.14-0.29 2.7h-8.02l-0.29-2.45h2.58z" fill="#A1FFA1" stroke="#0B492D" stroke-miterlimit="10" stroke-width=".7"/>
  <path d="m36.02 54.17 1.89 1.89h1.99l1.85-1.84-0.29 2.7h-7.54l-0.29-2.75h2.39z" fill="#A1FFA1" stroke="#0B492D" stroke-miterlimit="10" stroke-width=".7"/>
  <path d="m17.71 33.62 3.04 3.28v4.71l-3.19 2.91 0.15-10.9z" fill="#A1FFA1" stroke="#0B492D" stroke-miterlimit="10" stroke-width=".7"/>
  <path d="m57.51 33.62 1.12 1.44v7.12l-2.26 2.34-0.76-2.34v-5.47l1.9-3.09z" fill="#A1FFA1" stroke="#0B492D" stroke-miterlimit="10" stroke-width=".7"/>
  <path d="m36.88 28.3 4.3 8.11 5.44 0.88-5.01 5.08-3.7 5.75-3.89-9.16 2.86-2.55v-8.11z" fill="url(#paint6_linear_1438_31630)"/>
  <path d="m21.41 193.2h30.77c3.23 0 4.53 1.95 4.53 4.53v26.29c0 2.85-1.93 4.95-4.53 4.95h-29.1c-2.87 0-4.45-2.5-4.45-4.81v-27.16c0-2.14 1.44-3.8 2.78-3.8z" fill="url(#paint7_linear_1438_31630)" stroke="url(#paint8_linear_1438_31630)" stroke-miterlimit="10" stroke-width="1.2"/>
  <path d="m24.27 196.1h26.6c1.77 0 2.82 1.49 2.82 2.97v23.43c0 1.8-1.48 3.03-3.02 3.03h-25.82c-1.67 0-2.77-1.51-2.77-2.89v-24c0-1.42 1.14-2.54 2.19-2.54z" fill="url(#paint9_linear_1438_31630)" stroke="url(#paint10_linear_1438_31630)" stroke-miterlimit="10" stroke-width="1.2"/>
  <path d="m24.27 195.8 13.64 13.63 15.5-13.36" stroke="#0B492D" stroke-miterlimit="10" stroke-width="1.2"/>
  <path d="m53.41 225.8-14.73-14.73-16.03 13.88" stroke="#0B492D" stroke-miterlimit="10" stroke-width="1.2"/>
  <path d="m35.63 227.5 2.04 2.04h2.04l2.04-2.04h-6.12z" fill="#A1FFA1" stroke="#0B492D" stroke-miterlimit="10" stroke-width=".7"/>
  <path d="m17.71 206 2.75 2.75v4.56l-2.75 2.45v-9.76z" fill="#A1FFA1" stroke="#0B492D" stroke-miterlimit="10" stroke-width=".7"/>
  <path d="m57.37 206 1.44 1.56v6.04l-2.08 2.16-1.12-2.16v-5.46l1.76-2.14z" fill="#A1FFA1" stroke="#0B492D" stroke-miterlimit="10" stroke-width=".7"/>
  <path d="m37.02 200.2 4.59 9.07 5.44 1.15-6.8 4.86-2.63 6.01-5.59-10.92 4.85-2.29 0.14-7.88z" fill="url(#paint11_linear_1438_31630)"/>
  <path d="m21.99 148.5h30.52c2.9 0 4.57 1.74 4.57 4.94v27.31c0 3.19-1.67 5.09-4.71 5.09h-29.81c-2.49 0-3.93-2.04-3.93-4.59v-28.56c0-2.45 1.15-4.19 3.36-4.19z" fill="url(#paint12_linear_1438_31630)" stroke="url(#paint13_linear_1438_31630)" stroke-miterlimit="10" stroke-width="1.2"/>
  <path d="m24.27 151.6h26.4c1.8 0 3.02 1.48 3.02 2.97v24.58c0 1.8-1.48 3.03-3.02 3.03h-25.54c-1.66 0-2.91-1.48-2.91-3.02v-24.84c0-1.54 1.24-2.72 2.05-2.72z" fill="url(#paint14_linear_1438_31630)" stroke="url(#paint15_linear_1438_31630)" stroke-miterlimit="10" stroke-width="1.2"/>
  <path d="m23.98 151.3 13.93 13.93 15.5-13.06" stroke="#0B492D" stroke-miterlimit="10" stroke-width="1.2"/>
  <path d="m53.41 182.5-14.73-14.73-16.31 13.59" stroke="#0B492D" stroke-miterlimit="10" stroke-width="1.2"/>
  <path d="m35.34 146.7 2.04 2.04h2.04l2.04-2.04h-6.12z" fill="#A1FFA1" stroke="#0B492D" stroke-miterlimit="10" stroke-width=".7"/>
  <path d="m33.73 185.2 2.29 2.28h3.66l2.07-2.28h-8.02z" fill="#A1FFA1" stroke="#0B492D" stroke-miterlimit="10" stroke-width=".7"/>
  <path d="m17.71 163.5 2.41 2.86v4.86l-2.41 2.28v-10z" fill="#A1FFA1" stroke="#0B492D" stroke-miterlimit="10" stroke-width=".7"/>
  <path d="m57.08 164 1.55 1.7v5.78l-2.22 2.23-0.8-2.23v-5.47l1.47-2.01z" fill="#A1FFA1" stroke="#0B492D" stroke-miterlimit="10" stroke-width=".7"/>
  <path d="m37.91 160 8.04 7.7-7.7 8.05-8.54-7.5 8.2-8.25z" stroke="#84FF90" stroke-miterlimit="10" stroke-width=".7"/>
  <path d="m37.33 165.2 1.44-0.57 0.65 10.31-1.51-1.78-0.58-7.96z" fill="#84FF90"/>
  <path d="m35.48 168.3h5.36" stroke="#84FF90" stroke-miterlimit="10" stroke-width=".7"/>
  <path d="m110.1 192.4h29.27c2.8 0 4.39 1.88 4.39 4.58v27.97c0 2.3-1.54 4-4.1 4h-29.42c-2.69 0-4.13-2.14-4.13-4.48v-27.68c0-2.27 1.54-4.39 3.99-4.39z" fill="url(#paint16_linear_1438_31630)" stroke="url(#paint17_linear_1438_31630)" stroke-miterlimit="10" stroke-width="1.2"/>
  <path d="m112.3 195.2h25.11c1.77 0 2.82 1.49 2.82 2.97v23.89c0 1.8-1.48 3.03-3.02 3.03h-24.38c-1.67 0-2.75-1.48-2.75-2.89v-24.47c0-1.41 1.14-2.53 2.22-2.53z" fill="url(#paint18_linear_1438_31630)" stroke="url(#paint19_linear_1438_31630)" stroke-miterlimit="10" stroke-width="1.2"/>
  <path d="m120.9 227.5 2.18 2.18h2.75l1.9-2.18h-6.83z" fill="#A1FFA1" stroke="#0B492D" stroke-miterlimit="10" stroke-width=".7"/>
  <path d="m100.1 205.2 2.28 2.71v5.17l-2.86 2.18 0.58-10.06z" fill="#A1FFA1" stroke="#0B492D" stroke-miterlimit="10" stroke-width=".7"/>
  <path d="m144 205.2 2.58 2v6.32l-2.25 1.74-0.33-10.06z" fill="#A1FFA1" stroke="#0B492D" stroke-miterlimit="10" stroke-width=".7"/>
  <path d="m132.4 207.1-2.49-1.39-0.58-2.27-2.28 0.58-2.29-2.01-2.58 1.72-2.58-0.58-0.86 2.56-1.44 1.15 1.72 2.28-0.86 3.16 4.02 3.48v-3.14l-1.72-2.59 1.44-2.57 2.86-0.87 2.54 0.87 1.44 2.86-1.72 2.27v3.49l3.74-3.46-0.85-3.5 2.49-2.04z" fill="#84FF90"/>
  <path d="m153.2 193.1h28.36c2.82 0 4.46 1.9 4.46 4.29v26.53c0 2.71-1.99 4.51-4.46 4.51h-28.08c-2.72 0-4.45-2.04-4.45-4.7v-26.19c0-2.34 1.54-4.44 4.17-4.44z" fill="url(#paint20_linear_1438_31630)" stroke="url(#paint21_linear_1438_31630)" stroke-miterlimit="10" stroke-width="1.2"/>
  <path d="m156.1 195.8h23.27c1.77 0 2.82 1.49 2.82 2.97v22.62c0 1.8-1.48 3.03-3.02 3.03h-22.78c-1.67 0-2.79-1.48-2.79-2.93v-23.2c0-1.44 1.28-2.49 2.5-2.49z" fill="url(#paint22_linear_1438_31630)" stroke="url(#paint23_linear_1438_31630)" stroke-miterlimit="10" stroke-width="1.2"/>
  <path d="m164.2 191.6 2.04 2.18h2.33l1.9-2.18h-6.27z" fill="#A1FFA1" stroke="#0B492D" stroke-miterlimit="10" stroke-width=".7"/>
  <path d="m163.6 226.9 2.58 2.28 3.09-2.28h-5.67z" fill="#A1FFA1" stroke="#0B492D" stroke-miterlimit="10" stroke-width=".7"/>
  <path d="m186.4 205.2 2.58 2.56v5.47l-2.29 2.03-0.29-10.06z" fill="#A1FFA1" stroke="#0B492D" stroke-miterlimit="10" stroke-width=".7"/>
  <path d="m161.3 202.4 1.15 6.03 2.58 2.28 2.29-2.86-1.16-1.44 2.58 1.44 5.16-5.16v1.71l-9.45 10.67 2 1.15 7.45-2.32 0.57 1.45-4.33 1.72-3.12 1.15-4.86-1.72v-3.42l3.16-2.86-3.16-3.17-0.86-4.65z" fill="#84FF90"/>
  <path d="m197 192.6h29.23c2.86 0 4.2 2.04 4.2 4.48v26.63c0 2.7-1.99 4.7-4.48 4.7h-28.36c-2.63 0-4.34-2.14-4.34-4.8v-26.48c0-2.56 1.66-4.53 3.75-4.53z" fill="url(#paint24_linear_1438_31630)" stroke="url(#paint25_linear_1438_31630)" stroke-miterlimit="10" stroke-width="1.2"/>
  <path d="m199.2 195.8h24.38c1.77 0 2.99 1.49 2.99 2.97v23.31c0 1.8-1.48 3.03-3.02 3.03h-24.06c-1.67 0-2.82-1.48-2.82-2.89v-23.93c0-1.44 1.29-2.49 2.53-2.49z" fill="url(#paint26_linear_1438_31630)" stroke="url(#paint27_linear_1438_31630)" stroke-miterlimit="10" stroke-width="1.2"/>
  <path d="m207.8 191.4 2.04 2.19h3.04l2.28-2.19h-7.36z" fill="#A1FFA1" stroke="#0B492D" stroke-miterlimit="10" stroke-width=".7"/>
  <path d="m207.5 227.5 2.04 2.28h3.04l2.24-2.28h-7.32z" fill="#A1FFA1" stroke="#0B492D" stroke-miterlimit="10" stroke-width=".7"/>
  <path d="m231 206 1.54 1.99v5.75l-1.83 2.02 0.29-9.76z" fill="#A1FFA1" stroke="#0B492D" stroke-miterlimit="10" stroke-width=".7"/>
  <path d="m210.8 200.2 4.59 9.06 5.44 1.16-8.2 6.3-1.54-2.6-7.84-4.04 4.86-2.3 2.69-7.58z" fill="url(#paint28_linear_1438_31630)"/>
  <path d="m21.99 62.14h30.19c3.23 0 4.53 1.81 4.53 4.47v28.81c0 2.85-1.69 4.47-4.53 4.47h-29.67c-2.49 0-3.88-2.04-3.88-4.28v-29.29c0-2.34 1.44-4.18 3.36-4.18z" fill="url(#paint29_linear_1438_31630)" stroke="url(#paint30_linear_1438_31630)" stroke-miterlimit="10" stroke-width="1.2"/>
  <path d="m24.27 65.27h26.02c1.77 0 3.02 1.49 3.02 2.97v25.74c0 1.8-1.48 3.03-3.02 3.03h-25.44c-1.67 0-2.77-1.48-2.77-2.93v-26.29c0-1.49 1.14-2.52 2.19-2.52z" fill="url(#paint31_linear_1438_31630)" stroke="url(#paint32_linear_1438_31630)" stroke-miterlimit="10" stroke-width="1.2"/>
  <path d="m34.02 59.8 2.28 2.28h3.38l2.07-2.28h-7.73z" fill="#A1FFA1" stroke="#0B492D" stroke-miterlimit="10" stroke-width=".7"/>
  <path d="m17.42 77.2 2.29 2.55v5.16l-2.29 2.18v-9.89z" fill="#A1FFA1" stroke="#0B492D" stroke-miterlimit="10" stroke-width=".7"/>
  <path d="m56.79 77.2 1.84 1.99v5.47l-2.22 2.04-0.8-2.04v-5.47l1.18-1.99z" fill="#A1FFA1" stroke="#0B492D" stroke-miterlimit="10" stroke-width=".7"/>
  <path d="m36.74 72.18 8.87 7.74-7.84 9.2-8.86-8.57 7.83-8.37z" stroke="#84FF90" stroke-miterlimit="10" stroke-width=".7"/>
  <path d="m36.88 74.73 1.03-0.57 0.77 13.57-1.35-1.17-0.45-11.83z" fill="#84FF90"/>
  <path d="m66.65 19.07h29.91c2.58 0 4.02 1.7 4.02 4.25v27.97c0 2.85-1.92 4.65-4.31 4.65h-29.62c-2.58 0-4.02-2.18-4.02-4.52v-28.19c0-2.27 1.67-4.16 4.02-4.16z" fill="url(#paint33_linear_1438_31630)" stroke="url(#paint34_linear_1438_31630)" stroke-miterlimit="10" stroke-width="1.2"/>
  <path d="m68.37 21.93h26.35c1.77 0 2.86 1.49 2.86 2.97v24.43c0 1.8-1.48 3.03-3.02 3.03h-25.35c-1.67 0-2.79-1.48-2.79-2.93v-24.84c0-1.54 1.24-2.66 1.95-2.66z" fill="url(#paint35_linear_1438_31630)" stroke="url(#paint36_linear_1438_31630)" stroke-miterlimit="10" stroke-width="1.2"/>
  <path d="m78.22 17.69 1.73 2.03h4.02l2.28-2.03h-8.03z" fill="#A1FFA1" stroke="#0B492D" stroke-miterlimit="10" stroke-width=".7"/>
  <path d="m78.22 54.75 2.04 2.28h3.62l2.08-2.28h-7.74z" fill="#A1FFA1" stroke="#0B492D" stroke-miterlimit="10" stroke-width=".7"/>
  <path d="m61.21 33.62 1.97 2.55v5.16l-1.97 2.18v-9.89z" fill="#A1FFA1" stroke="#0B492D" stroke-miterlimit="10" stroke-width=".7"/>
  <path d="m110.1 18.63h29.27c2.8 0 4.39 1.85 4.39 4.45v27.97c0 2.85-1.54 4.55-4.1 4.55h-29.42c-2.69 0-4.13-2.14-4.13-4.48v-28.28c0-2.45 1.54-4.21 3.99-4.21z" fill="url(#paint37_linear_1438_31630)" stroke="url(#paint38_linear_1438_31630)" stroke-miterlimit="10" stroke-width="1.2"/>
  <path d="m112.3 21.39h24.53c1.77 0 2.82 1.49 2.82 2.97v24.48c0 1.8-1.48 3.03-3.02 3.03h-24.38c-1.67 0-2.75-1.48-2.75-2.93v-25.02c0-1.44 1.18-2.53 2.8-2.53z" fill="url(#paint39_linear_1438_31630)" stroke="url(#paint40_linear_1438_31630)" stroke-miterlimit="10" stroke-width="1.2"/>
  <path d="m120.6 17.69 2.04 2.18h3.04l2.28-2.18h-7.36z" fill="#A1FFA1" stroke="#0B492D" stroke-miterlimit="10" stroke-width=".7"/>
  <path d="m120 54.17 2.28 2.28h3.7l2.14-2.28h-8.12z" fill="#A1FFA1" stroke="#0B492D" stroke-miterlimit="10" stroke-width=".7"/>
  <path d="m102.2 32.79 2.58 2.55v5.47l-2.58 2.28v-10.3z" fill="#A1FFA1" stroke="#0B492D" stroke-miterlimit="10" stroke-width=".7"/>
  <path d="m143.1 32.79 2.29 2.27v6.03l-2 2-0.29-10.3z" fill="#A1FFA1" stroke="#0B492D" stroke-miterlimit="10" stroke-width=".7"/>
  <path d="m153.2 18.63h29.29c2.82 0 4.41 2.04 4.41 4.39v27.79c0 2.85-1.99 4.65-4.46 4.65h-28.96c-2.72 0-4.16-2.14-4.16-4.49v-27.94c0-2.45 1.54-4.4 3.88-4.4z" fill="url(#paint41_linear_1438_31630)" stroke="url(#paint42_linear_1438_31630)" stroke-miterlimit="10" stroke-width="1.2"/>
  <path d="m155.5 21.39h24.33c1.77 0 3.02 1.49 3.02 2.97v24.48c0 1.8-1.48 3.03-3.02 3.03h-24.14c-1.67 0-2.81-1.48-2.81-2.93v-25.02c0-1.44 1.28-2.53 2.62-2.53z" fill="url(#paint43_linear_1438_31630)" stroke="url(#paint44_linear_1438_31630)" stroke-miterlimit="10" stroke-width="1.2"/>
  <path d="m164.2 17.69 2.04 2.45h3.04l2.04-2.45h-7.12z" fill="#A1FFA1" stroke="#0B492D" stroke-miterlimit="10" stroke-width=".7"/>
  <path d="m163.6 54.17 2.29 2.55h3.38l2.04-2.55h-7.71z" fill="#A1FFA1" stroke="#0B492D" stroke-miterlimit="10" stroke-width=".7"/>
  <path d="m147.9 33.62 2.29 2.55v5.16l-2.29 2.18v-9.89z" fill="#A1FFA1" stroke="#0B492D" stroke-miterlimit="10" stroke-width=".7"/>
  <path d="m196.4 18.63h30.72c2.58 0 4.17 2.04 4.17 4.39v28.56c0 2.85-1.99 4.6-4.46 4.6h-29.75c-2.58 0-4.03-2.28-4.03-4.62v-28.82c0-2.21 1.67-4.11 3.35-4.11z" fill="url(#paint45_linear_1438_31630)" stroke="url(#paint46_linear_1438_31630)" stroke-miterlimit="10" stroke-width="1.2"/>
  <path d="m198.7 21.93h25.82c1.77 0 3.02 1.49 3.02 2.97v25.16c0 1.8-1.48 3.03-3.02 3.03h-25.44c-1.67 0-2.81-1.48-2.81-2.93v-25.85c0-1.45 1.24-2.38 2.43-2.38z" fill="url(#paint47_linear_1438_31630)" stroke="url(#paint48_linear_1438_31630)" stroke-miterlimit="10" stroke-width="1.2"/>
  <path d="m208.2 17.69 2.28 2.28h3.7l2.14-2.28h-8.12z" fill="#A1FFA1" stroke="#0B492D" stroke-miterlimit="10" stroke-width=".7"/>
  <path d="m208.2 54.17 2.28 2.28h3.7l2.14-2.28h-8.12z" fill="#A1FFA1" stroke="#0B492D" stroke-miterlimit="10" stroke-width=".7"/>
  <path d="m189.2 32.79 2.29 2.55v5.47l-2.29 2.28v-10.3z" fill="#A1FFA1" stroke="#0B492D" stroke-miterlimit="10" stroke-width=".7"/>
  <path d="m231 33.08 1.83 2.55v6.04l-2.12 1.42 0.29-10.01z" fill="#A1FFA1" stroke="#0B492D" stroke-miterlimit="10" stroke-width=".7"/>
  <defs>
    <linearGradient id="paint0_linear_1438_31630" x1="125" x2="125" y1=".1875" y2="249.8" gradientUnits="userSpaceOnUse">
      <stop stop-color="#033623" offset="0"/>
      <stop stop-color="#072A1B" offset="1"/>
    </linearGradient>
    <radialGradient id="paint1_radial_1438_31630" cx="0" cy="0" r="1" gradientTransform="translate(125.2 125.4) scale(75.01 74.76)" gradientUnits="userSpaceOnUse">
      <stop stop-color="#84FF90" offset="0"/>
      <stop stop-color="#09592A" stop-opacity=".51" offset=".85"/>
      <stop stop-color="#074924" stop-opacity=".24" offset="1"/>
    </radialGradient>
    <linearGradient id="paint2_linear_1438_31630" x1="38.16" x2="38.16" y1="18.48" y2="57.65" gradientUnits="userSpaceOnUse">
      <stop stop-color="#5F686B" offset="0"/>
      <stop stop-color="#D8E1E1" offset=".502"/>
      <stop stop-color="#565E60" offset="1"/>
    </linearGradient>
    <linearGradient id="paint3_linear_1438_31630" x1="38.16" x2="38.16" y1="18.48" y2="57.65" gradientUnits="userSpaceOnUse">
      <stop stop-color="#1E2425" offset="0"/>
      <stop stop-color="#4A5152" offset="1"/>
    </linearGradient>
    <linearGradient id="paint4_linear_1438_31630" x1="38.41" x2="38.41" y1="21.34" y2="55.05" gradientUnits="userSpaceOnUse">
      <stop stop-color="#217A43" offset="0"/>
      <stop stop-color="#009245" offset=".491"/>
      <stop stop-color="#00472A" offset="1"/>
    </linearGradient>
    <linearGradient id="paint5_linear_1438_31630" x1="38.41" x2="38.41" y1="21.34" y2="55.05" gradientUnits="userSpaceOnUse">
      <stop stop-color="#99C7A2" offset="0"/>
      <stop stop-color="#217843" offset="1"/>
    </linearGradient>
    <linearGradient id="paint6_linear_1438_31630" x1="39.77" x2="39.77" y1="28.3" y2="48.12" gradientUnits="userSpaceOnUse">
      <stop stop-color="#A1FFA1" offset="0"/>
      <stop stop-color="#29CB42" offset="1"/>
    </linearGradient>
    <linearGradient id="paint7_linear_1438_31630" x1="37.67" x2="37.67" y1="192.6" y2="229.6" gradientUnits="userSpaceOnUse">
      <stop stop-color="#5F686B" offset="0"/>
      <stop stop-color="#D8E1E1" offset=".502"/>
      <stop stop-color="#565E60" offset="1"/>
    </linearGradient>
    <linearGradient id="paint8_linear_1438_31630" x1="37.67" x2="37.67" y1="192.6" y2="229.6" gradientUnits="userSpaceOnUse">
      <stop stop-color="#1E2425" offset="0"/>
      <stop stop-color="#4A5152" offset="1"/>
    </linearGradient>
    <linearGradient id="paint9_linear_1438_31630" x1="37.89" x2="37.89" y1="195.5" y2="226.1" gradientUnits="userSpaceOnUse">
      <stop stop-color="#217A43" offset="0"/>
      <stop stop-color="#009245" offset=".491"/>
      <stop stop-color="#00472A" offset="1"/>
    </linearGradient>
    <linearGradient id="paint10_linear_1438_31630" x1="37.89" x2="37.89" y1="195.5" y2="226.1" gradientUnits="userSpaceOnUse">
      <stop stop-color="#99C7A2" offset="0"/>
      <stop stop-color="#217843" offset="1"/>
    </linearGradient>
    <linearGradient id="paint11_linear_1438_31630" x1="39.53" x2="39.53" y1="200.2" y2="221.3" gradientUnits="userSpaceOnUse">
      <stop stop-color="#A1FFA1" offset="0"/>
      <stop stop-color="#29CB42" offset="1"/>
    </linearGradient>
    <linearGradient id="paint12_linear_1438_31630" x1="37.86" x2="37.86" y1="147.9" y2="186.4" gradientUnits="userSpaceOnUse">
      <stop stop-color="#5F686B" offset="0"/>
      <stop stop-color="#D8E1E1" offset=".502"/>
      <stop stop-color="#565E60" offset="1"/>
    </linearGradient>
    <linearGradient id="paint13_linear_1438_31630" x1="37.86" x2="37.86" y1="147.9" y2="186.4" gradientUnits="userSpaceOnUse">
      <stop stop-color="#1E2425" offset="0"/>
      <stop stop-color="#4A5152" offset="1"/>
    </linearGradient>
    <linearGradient id="paint14_linear_1438_31630" x1="37.96" x2="37.96" y1="151" y2="182.8" gradientUnits="userSpaceOnUse">
      <stop stop-color="#217A43" offset="0"/>
      <stop stop-color="#009245" offset=".491"/>
      <stop stop-color="#00472A" offset="1"/>
    </linearGradient>
    <linearGradient id="paint15_linear_1438_31630" x1="37.96" x2="37.96" y1="151" y2="182.8" gradientUnits="userSpaceOnUse">
      <stop stop-color="#99C7A2" offset="0"/>
      <stop stop-color="#217843" offset="1"/>
    </linearGradient>
    <linearGradient id="paint16_linear_1438_31630" x1="124.9" x2="124.9" y1="191.8" y2="229.6" gradientUnits="userSpaceOnUse">
      <stop stop-color="#5F686B" offset="0"/>
      <stop stop-color="#D8E1E1" offset=".502"/>
      <stop stop-color="#565E60" offset="1"/>
    </linearGradient>
    <linearGradient id="paint17_linear_1438_31630" x1="124.9" x2="124.9" y1="191.8" y2="229.6" gradientUnits="userSpaceOnUse">
      <stop stop-color="#1E2425" offset="0"/>
      <stop stop-color="#4A5152" offset="1"/>
    </linearGradient>
    <linearGradient id="paint18_linear_1438_31630" x1="125.2" x2="125.2" y1="194.7" y2="225.7" gradientUnits="userSpaceOnUse">
      <stop stop-color="#217A43" offset="0"/>
      <stop stop-color="#009245" offset=".491"/>
      <stop stop-color="#00472A" offset="1"/>
    </linearGradient>
    <linearGradient id="paint19_linear_1438_31630" x1="125.2" x2="125.2" y1="194.7" y2="225.7" gradientUnits="userSpaceOnUse">
      <stop stop-color="#99C7A2" offset="0"/>
      <stop stop-color="#217843" offset="1"/>
    </linearGradient>
    <linearGradient id="paint20_linear_1438_31630" x1="167.6" x2="167.6" y1="192.5" y2="229" gradientUnits="userSpaceOnUse">
      <stop stop-color="#5F686B" offset="0"/>
      <stop stop-color="#D8E1E1" offset=".502"/>
      <stop stop-color="#565E60" offset="1"/>
    </linearGradient>
    <linearGradient id="paint21_linear_1438_31630" x1="167.6" x2="167.6" y1="192.5" y2="229" gradientUnits="userSpaceOnUse">
      <stop stop-color="#1E2425" offset="0"/>
      <stop stop-color="#4A5152" offset="1"/>
    </linearGradient>
    <linearGradient id="paint22_linear_1438_31630" x1="167.9" x2="167.9" y1="195.2" y2="225.1" gradientUnits="userSpaceOnUse">
      <stop stop-color="#217A43" offset="0"/>
      <stop stop-color="#009245" offset=".491"/>
      <stop stop-color="#00472A" offset="1"/>
    </linearGradient>
    <linearGradient id="paint23_linear_1438_31630" x1="167.9" x2="167.9" y1="195.2" y2="225.1" gradientUnits="userSpaceOnUse">
      <stop stop-color="#99C7A2" offset="0"/>
      <stop stop-color="#217843" offset="1"/>
    </linearGradient>
    <linearGradient id="paint24_linear_1438_31630" x1="211.8" x2="211.8" y1="192" y2="229" gradientUnits="userSpaceOnUse">
      <stop stop-color="#5F686B" offset="0"/>
      <stop stop-color="#D8E1E1" offset=".502"/>
      <stop stop-color="#565E60" offset="1"/>
    </linearGradient>
    <linearGradient id="paint25_linear_1438_31630" x1="211.8" x2="211.8" y1="192" y2="229" gradientUnits="userSpaceOnUse">
      <stop stop-color="#1E2425" offset="0"/>
      <stop stop-color="#4A5152" offset="1"/>
    </linearGradient>
    <linearGradient id="paint26_linear_1438_31630" x1="211.7" x2="211.7" y1="195.2" y2="225.9" gradientUnits="userSpaceOnUse">
      <stop stop-color="#217A43" offset="0"/>
      <stop stop-color="#009245" offset=".491"/>
      <stop stop-color="#00472A" offset="1"/>
    </linearGradient>
    <linearGradient id="paint27_linear_1438_31630" x1="211.7" x2="211.7" y1="195.2" y2="225.9" gradientUnits="userSpaceOnUse">
      <stop stop-color="#99C7A2" offset="0"/>
      <stop stop-color="#217843" offset="1"/>
    </linearGradient>
    <linearGradient id="paint28_linear_1438_31630" x1="211.8" x2="211.8" y1="200.2" y2="216.7" gradientUnits="userSpaceOnUse">
      <stop stop-color="#A1FFA1" offset="0"/>
      <stop stop-color="#29CB42" offset="1"/>
    </linearGradient>
  </defs>
</svg>