<svg xmlns="http://www.w3.org/2000/svg" width="250" height="250" fill="none" viewBox="0 0 250 250">
<!-- SVG created with Arrow, by QuiverAI (https://quiver.ai) -->
  <path d="m249.9 0h-249.9v249.9h249.9v-249.9z" fill="#282315"/>
  <path d="m249.9 238.9h-5.11l-4.41 4.41-0.7 6.56h10.22v-10.97z" fill="#F9CB7B" opacity=".2"/>
  <path d="m0.01 241.1 4.98 0.09 4.41 4.41 1.04 4.34h-10.43v-8.84z" fill="#F9CB7B" opacity=".2"/>
  <path d="m249.9 11.11-5.88-0.27-4.95-4.95-0.27-5.89h11.1v11.11z" fill="#F9CB7B" opacity=".2"/>
  <path d="m0.01 10.51 5.88-0.27 4.95-4.95 0.27-5.29h-11.1v10.51z" fill="#F9CB7B" opacity=".2"/>
  <path d="m249.9 92.81v-8.62l-4.01-0.97c-0.29-0.89-0.72-1.73-1.2-2.53l2.3-3.46-6.3-6.31-3.47 2.3c-0.8-0.47-1.63-0.85-2.53-1.15l-0.97-4.01h-1.52v10.27c1.59-2.24 4.19-3.69 7.12-3.69 4.95 0 8.91 4.17 8.41 9.22-0.41 4.17-3.99 7.4-8.18 7.35-2.85-0.04-5.38-1.54-6.86-3.88v10h1.34l0.97-4.01c0.89-0.29 1.73-0.67 2.53-1.15l3.46 2.3 4.95-4.95 1.05-0.59v5.13l-1.05 2.01-2.3 2.3c-0.8-0.48-1.64-0.91-2.53-1.2l-1.85 2.74-2.55 0.32-1.51 2.01 0.79 3.46 2.8 2.8 3.46-0.79 2.3-4.1-0.79-2.3 2.95-2.3 1.01 0.53v12.28l2.18-2.55v-16.46z" fill="#F9CB7B" opacity=".15"/>
  <path d="m249.9 53.11-2.21-1.07-2.52 0.58-2.01-2.55-4.95 1.01v4.63c-1.52 0.45-2.97 1.07-4.3 1.87l-1.72-1.16v6.79l1.25-0.89c2.24-2.41 5.45-3.89 8.98-3.76 2.93 0.11 5.55 1.4 7.47 3.45v-8.9h0.01z" fill="#F9CB7B" opacity=".15"/>
  <path d="m16.07 47.52-4.15-4.15v-9.06l-0.9-0.63 1.07-1.67-0.17-2.05v-11.97l4.77-4.77h16.27l2.35 2.35h-14.41l-4.83 4.83v11.25l2.35 2.35v10.91l-2.35 2.61z" fill="#F9CB7B" opacity=".15"/>
  <path d="m238.1 16.74-5.18-4.56h-15.33l-2.8 3.39h15.67l5.18 5.18v10.96l2.46 2.3v-17.27z" fill="#F9CB7B" opacity=".15"/>
  <path d="m237.9 218.1-2.95-1.73v-195.6l-5.18-5.18h-12.65l-1.73 2.42h-181.5l-2.11-4.77h-15.07l-4.6 4.83v13.6l2.29 1.78v183.3l-2.29 1.38v14.83l5.53 5.04h15.07l2.62-4.83h180l2.95 4.66h14.53l5.08-5.65v-14.05zm-5.67 9.2-3.79 5.18h-9.81l-2.95-4.01h-182l-2.01 4.67h-11.42l-4.14-4.67v-11.25l2.35-2.01v-182.4l-2.35-2.35v-10.91l4.83-4.83h13.41l1.95 3.28h180l2.06-3.28h11.42l4.83 4.83v198.1l3.36 1.73v7.93z" fill="#F9CB7B" opacity=".15"/>
  <path d="m208.2 9.11c0.33-1.12 0.55-2.3 0.66-3.49l-2.95-1.73-3.46-3.89h-4.51l-4.95 4.95-0.17 0.28c-1.78-1.12-3.85-1.77-6.09-1.77-1.54 0-3.01 0.35-4.37 0.93l-4.29-4.39h-11.48l-1.67 5.18-2.55 2.01v4.26l-0.48-0.34h0.11l0.11-0.05-0.05-0.06 0.31-0.11 0.23-0.17-0.6 0.22-0.17 0.06-0.06 0.06 0.12 0.05h-0.23l0.23 0.12-0.12 0.11 0.12-0.06 0.05 0.79-0.17 0.06v1.09l1.12 1.49h3.7l1.48-1.49c1.35 0.54 2.8 0.87 4.34 0.87 0.79 0 1.53-0.11 2.26-0.28-0.44-1.49-0.55-3.09-0.22-4.76 0.59-2.56 2.65-3.93 4.72-4.99l0.9 0.74c-1.24 1.36-2.03 3.14-2.03 5.15 0 2.29 1.06 4.36 2.69 5.78h9.87c1.4-1.25 2.3-3.15 2.3-5.22 0-1.68-0.59-3.22-1.6-4.46l1.63-0.93 3.77-1.01 3.12 1.01 1.45 2.01 0.43 3.1-0.74 2.9-1.79 2.6h8.05l2.29-2.51v-1.94l-1.31-2.17zm-21.75 6.62c-3.66 0-5.55-4.62-2.88-7.63 3-2.69 7.62-0.8 7.62 2.87 0 2.63-2.16 4.76-4.74 4.76z" fill="#F9CB7B" opacity=".15"/>
  <path d="m73.04 234.1-0.74 3.65h-4.3c-0.79-4.18-4.39-7.36-8.74-7.36-4.83 0-8.71 4.18-8.17 9.28 0.45 4.05 3.92 7.23 7.99 7.17 3.96-0.05 7.28-3.17 7.78-7.28h4.9l1.28 4.11 2.56 0.34 0.85 4.05 2.18 1.81h3.01l-1.73-2.3-1.01-4.18 1.85-1.48v-3.29l-3.46-0.74-0.23-3.78h-4.02zm-14.42 10.91c-4.21 0.28-7.32-4.13-5.31-8.44 2.41-4.46 8.4-4.29 10.52-0.17 1.78 3.78-0.9 8.34-5.21 8.61z" fill="#F9CB7B" opacity=".15"/>
  <path d="m60.78 247.6-2.07 2.3h8.38l1.07-2.3h-7.38z" fill="#F9CB7B" opacity=".15"/>
  <path d="m91.62 238.6-2.61-1.59-1.29 2.3 2.01 2.01 0.48 4.37 2.67 4.22h5.03l-1.9-4.22-4.39-7.09z" fill="#F9CB7B" opacity=".15"/>
  <path d="m189.1 237.1-3.06 2.13-3.01-2.13-4.41 2.96 0.45 3.01-2.9 2.01-0.17 2.3 1.9 2.51h4.71l3.37-5.86 3.12-1.39 3.28 1.39 2.07-4.28-5.35-2.65z" fill="#F9CB7B" opacity=".15"/>
  <path d="m33.35 244.6 2.3 2.9 0.58 2.39h7.83l-2.41-3.45-2.61-1.84-0.89-4.28 2.5-2.3 0.54-3.85h-4.78l-1.39 3.46-3.46 0.95-0.54 4.55 2.33 1.47z" fill="#F9CB7B" opacity=".15"/>
  <path d="m50.75 0 2.5 3.18 0.64 3.73 2.56 3.24 2.45-1.1 1.12-3.01-2.84-1.84 1.67-2.55 2.56 0.48 0.74 2.96 2.4 2.07-1.54 2.74 1.84 2.23 2.4-1.84 1.06-3.18-2.29-2.45 1.4-2.61 2.79 1.07 0.85 3.12 4.05 1.9-1.9 3.68-4.05 1.23-0.85 2.18 1.12 2.76h3.56l0.53-3.28 3.66-2.64v-4.66l-3.66-2.18-1.73-5.23h-21.04z" fill="#F9CB7B" opacity=".15"/>
  <path d="m10.14 52.51-4.95 4.61-5.19-0.39v13.35l4.06 1.53c0.17 1.12 0.45 2.19 0.84 3.2l-3.18 3.35 6.3 6.95 4.3-2.18c1.01 0.69 2.13 1.26 3.31 1.69v5.41h2.06v-18.59c-2.5 2.61-6.08 3.78-9.84 2.61-3.62-1.54-5.74-5.55-4.95-9.44 0.85-3.68 4.12-6.48 7.95-6.37 2.68 0.06 5.14 1.5 6.67 3.8v-9.53h-7.38z" fill="#F9CB7B" opacity=".15"/>
  <path d="m10.19 161.3v-3.4h3.12l1.35 1.35v3.95c2.56 0.85 4.85 2.34 6.69 4.35l1.84-1.01v7.06l-1.34-0.53c-1.54 3.07-4.49 5.47-8.01 6.26v4.36l3.71 1.73 0.9 2.61-1.18 2.01-3.22 0.89-2.95-1.78-1.01-3.13 0.73-2.01-3.46-2.3-7.35 8.27v7l8-9.18 3.28 1.01 1.73 3.07-0.9 3.12 2.01 2.85 3.23-0.28 1.34 1.43-1.34 3.12-3.72 0.9-2.29-2.3-0.74-3.68-3.12-0.85-7.48 7.41v6.51l1.44 2.01 2.3-1.13 2.61 2.01 1.07 3.73 3.91-0.79 0.85-4.95 5.03-1.48v-7.42l2.95-2.01 2.74-2.74 0.28-4.27v-4.67l-2.07-1.72c0.59-1.34 1.02-2.83 1.19-4.37l2.56-1.48v-7.42l-2.85-1.12c-0.59-1.89-1.6-3.62-2.89-5.06l1.01-2.4-2.79-2.55-3.52-0.34-3.64-0.64z" fill="#F9CB7B" opacity=".15"/>
  <path d="m218.3 13.22-2.9 4.77h-181.5l-2.11-4.77h-15.07l-4.6 5.4v13.03l2.29 2.3v182.7l-2.29 1.95v14.08l5.53 5.22h15.07l2.62-4.78h180l2.95 4.66h14.53l5.08-5.98v-12.79l-2.95-1.96v-185l3.18-2.61v-12.13l-5.18-4.07h-14.66z" stroke="#604A2E" stroke-miterlimit="10" stroke-width="2"/>
  <path d="m227.6 21.67v34.74c0 1.77-1.44 3.21-3.21 3.21h-30.22c-1.77 0-3.21-1.44-3.21-3.21v-32.23c0-2.35 1.89-4.31 4.23-4.31h29.2c1.77 0 3.21 1.44 3.21 3.21v-1.41z" fill="url(#paint0_linear_111_2691)" stroke="url(#paint1_linear_111_2691)" stroke-miterlimit="10" stroke-width="2"/>
  <path d="m225.2 23.16v12.45l-2.4 2.5v6.8l2.4 2.24v9.69h-10.28l-2.3-3.01h-4.29l-1.68 3.01h-13.19v-10.09l3.61-2.5v-6.31l-3.61-2.8v-11.98h13.88l2.01 2.75h3.27l2.67-2.75h9.91z" fill="url(#paint2_linear_111_2691)" stroke="url(#paint3_linear_111_2691)" stroke-miterlimit="10" stroke-width="2"/>
  <path d="m220.2 27.11v16.09l-6.3 6.31h-16.08v-22.4h22.38z" fill="url(#paint4_linear_111_2691)"/>
  <path d="m184.2 23.45v31.71c0 2.13-1.35 3.46-3.19 3.46h-29.26c-2.06 0-3.29-1.28-3.29-3.11v-30.7c0-2.01 1.39-3.63 3.29-3.63h29.43c1.78 0 3.02 1.23 3.02 2.27z" fill="url(#paint5_linear_111_2691)" stroke="url(#paint6_linear_111_2691)" stroke-miterlimit="10" stroke-width="2"/>
  <path d="m182 23.62v11.8l-3.33 2.8v6.09l3.33 2.75v-37.17 45.72h-10.62l-2.3-3.57h-4.05l-1.84 3.57h-12.71v-11.25l3.12-2.56v-4.6l-3.4-2.55v-11.03h12.65l2.01 2.5h3.4l2.3-2.5h11.44z" fill="url(#paint7_linear_111_2691)" stroke="url(#paint8_linear_111_2691)" stroke-miterlimit="10" stroke-width="2"/>
  <path d="m177.2 27.84v21.89h-20.09l-1.84-1.84v-20.05h21.93z" fill="url(#paint9_linear_111_2691)"/>
  <path d="m142.5 23.45v32.16c0 1.73-1.23 3.01-3.07 3.01h-29.67c-1.73 0-3.02-1.23-3.02-3.06v-31.44c0-1.67 1.29-2.94 2.91-2.94h30.01c1.61 0 2.84 1.17 2.84 2.27z" fill="url(#paint10_linear_111_2691)" stroke="url(#paint11_linear_111_2691)" stroke-miterlimit="10" stroke-width="2"/>
  <path d="m140.3 23.56v11.75l-2.62 2.61v6.39l2.62 2.4v8.9h-12.1l-1.95-3.01h-3.78l-1.73 3.01h-11.7v-11.47l2.06-2.23v-14.8l-1.89-3.55h11.87l1.53 2.18h4.24l1.9-2.18h11.55z" fill="url(#paint12_linear_111_2691)" stroke="url(#paint13_linear_111_2691)" stroke-miterlimit="10" stroke-width="2"/>
  <path d="m135 28.55v14.05l-7.95 7.36h-13.3v-18.53l2.4-2.88h18.85z" fill="url(#paint14_linear_111_2691)"/>
  <path d="m101 23.95v31.21c0 2.07-1.29 3.46-3.19 3.46h-29.95c-1.84 0-3.07-1.28-3.07-3.11v-14.41l3.51-2.45-3.06-2.5v-12.03c0-1.72 1.49-2.94 2.97-2.94h11.13l2.72 3.45h3.12l1.84-3.45h10.9c1.84 0 3.08 1.34 3.08 2.77z" fill="url(#paint15_linear_111_2691)" stroke="url(#paint16_linear_111_2691)" stroke-miterlimit="10" stroke-width="2"/>
  <path d="m98.62 23.62v11.46l-3.28 2.75v5.54l3.28 2.61v9.63h-11.81l-1.68-3.29h-4.52l-1.73 3.29h-11.54v-11.87l3.17-2.45v-4.55l-3.4-2.5v-10.62h11.6l2.4 3.12h4.83l2.12-3.12h10.56z" fill="url(#paint17_linear_111_2691)" stroke="url(#paint18_linear_111_2691)" stroke-miterlimit="10" stroke-width="2"/>
  <path d="m93.09 28.12v20.32h-21.48v-20.32h21.48z" fill="url(#paint19_linear_111_2691)"/>
  <path d="m57.77 23.22v32.73c0 1.56-1.23 2.67-2.62 2.67h-12.09l-1.64-3.01h-2.66l-1.84 3.01h-13.36c-1.39 0-2.45-1.17-2.45-2.5v-14.8l2.62-2.61v-3.57l-2.62-2.45v-9.07c0-1.39 1.17-2.44 2.45-2.44h11.55l2.07 2.44h2.74l1.62-2.44h13.41c1.57 0 2.82 1.17 2.82 2.04z" fill="url(#paint20_linear_111_2691)" stroke="url(#paint21_linear_111_2691)" stroke-miterlimit="10" stroke-width="2"/>
  <path d="m54.92 23.62v11.2l-2.55 3.12v5.91l2.55 2.3v9.46h-11.32l-1.89-2.7h-3.78l-1.84 2.7h-11.87v-11.36l2.4-2.61v-5.49l-2.4-2.75v-9.78h10.84l2.34 2.4h4.65l1.9-2.4h10.97z" fill="url(#paint22_linear_111_2691)" stroke="url(#paint23_linear_111_2691)" stroke-miterlimit="10" stroke-width="2"/>
  <path d="m49.89 28.12v19.6l-3.57 2.5h-16.08v-17.1l5.79-5h13.86z" fill="url(#paint24_linear_111_2691)"/>
  <path d="m227.4 67.23v9.29l-2.8 2.8v3.73l2.8 2.45v13.31c0 1.67-1.34 2.94-2.82 2.94h-11.13l-2.73-3.45h-2.67l-1.84 3.45h-12.41c-1.58 0-2.76-1.38-2.76-2.82v-12.31l3.51-2.8v-2.85l-3.51-2.07v-11.67c0-1.28 1.12-2.39 2.51-2.39h11.55l2.29 2.39h3.06l2.56-2.39h11.81c1.53 0 2.58 1.06 2.58 2.39z" fill="url(#paint25_linear_111_2691)" stroke="url(#paint26_linear_111_2691)" stroke-miterlimit="10" stroke-width="2"/>
  <path d="m224.9 67.51v10.03l-2.85 2.51v6.57l2.85 2.39v9.4h-11.87l-2.4-3.01h-4l-2.12 3.01h-10.9v-10.91l3.28-2.75v-14.84l0.43-2.4h10.74l1.78 2.12h4.66l2.4-2.12h8z" fill="url(#paint27_linear_111_2691)" stroke="url(#paint28_linear_111_2691)" stroke-miterlimit="10" stroke-width="2"/>
  <path d="m220.2 70.74v16.98h-19.88l-2.5-2.5v-14.48h22.38z" fill="url(#paint29_linear_111_2691)"/>
  <path d="m183.7 67.23v11.3l-3.28 2.69v3.84l3.28 2.8v10.55c0 1.84-1.43 3.34-3.33 3.34h-12.47l-2.01-3.34h-2.29l-2.56 3.34h-9.86c-1.78 0-2.96-1.44-2.96-2.93v-11.97l3.17-2.4v-3.34l-2.67-2.07v-11.81c0-1.33 1.11-2.39 2.29-2.39h12.3l2.12 2.8h2.67l2.18-2.8h10.96c1.39 0 2.46 1.11 2.46 2.39z" fill="url(#paint30_linear_111_2691)" stroke="url(#paint31_linear_111_2691)" stroke-miterlimit="10" stroke-width="2"/>
  <path d="m181.3 67.51v10.09l-2.9 2.45v6.09l2.9 2.75v9.52h-12.16l-2.45-3.01h-3.78l-2.4 3.01h-9.39v-11.36l3.17-3.01v-4.89l-2.29-2.5v-9.14h11.54l2.12 2.49h3.34l2.3-2.49h10z" fill="url(#paint32_linear_111_2691)" stroke="url(#paint33_linear_111_2691)" stroke-miterlimit="10" stroke-width="2"/>
  <path d="m176.7 70.74v18.78l-3.67 3.63h-16.56v-18.24l4.46-4.17h15.77z" fill="url(#paint34_linear_111_2691)"/>
  <defs>
    <linearGradient id="paint0_linear_111_2691" x1="209.3" x2="209.3" y1="19.87" y2="59.62" gradientUnits="userSpaceOnUse">
      <stop stop-color="#822C1F" offset="0"/>
      <stop stop-color="#701B16" offset=".5104"/>
      <stop stop-color="#591E1E" offset="1"/>
    </linearGradient>
    <linearGradient id="paint1_linear_111_2691" x1="209.3" x2="209.3" y1="19.87" y2="59.62" gradientUnits="userSpaceOnUse">
      <stop stop-color="#F9CB7B" offset="0"/>
      <stop stop-color="#B88140" offset=".5156"/>
      <stop stop-color="#825A24" offset="1"/>
    </linearGradient>
    <linearGradient id="paint2_linear_111_2691" x1="209.3" x2="209.3" y1="23.16" y2="56.84" gradientUnits="userSpaceOnUse">
      <stop stop-color="#82092A" offset="0"/>
      <stop stop-color="#821236" offset=".5104"/>
      <stop stop-color="#922242" offset="1"/>
    </linearGradient>
    <linearGradient id="paint3_linear_111_2691" x1="209.3" x2="209.3" y1="23.16" y2="56.84" gradientUnits="userSpaceOnUse">
      <stop stop-color="#F9CB7B" offset="0"/>
      <stop stop-color="#B88140" offset=".5156"/>
      <stop stop-color="#825A24" offset="1"/>
    </linearGradient>
    <linearGradient id="paint4_linear_111_2691" x1="209" x2="209" y1="27.11" y2="49.51" gradientUnits="userSpaceOnUse">
      <stop stop-color="#82092A" offset="0"/>
      <stop stop-color="#821236" offset=".5104"/>
      <stop stop-color="#922242" offset="1"/>
    </linearGradient>
    <linearGradient id="paint5_linear_111_2691" x1="166.3" x2="166.3" y1="21.18" y2="58.62" gradientUnits="userSpaceOnUse">
      <stop stop-color="#822C1F" offset="0"/>
      <stop stop-color="#701B16" offset=".5104"/>
      <stop stop-color="#591E1E" offset="1"/>
    </linearGradient>
    <linearGradient id="paint6_linear_111_2691" x1="166.3" x2="166.3" y1="21.18" y2="58.62" gradientUnits="userSpaceOnUse">
      <stop stop-color="#F9CB7B" offset="0"/>
      <stop stop-color="#B88140" offset=".5156"/>
      <stop stop-color="#825A24" offset="1"/>
    </linearGradient>
    <linearGradient id="paint7_linear_111_2691" x1="166.3" x2="166.3" y1="23.62" y2="55.61" gradientUnits="userSpaceOnUse">
      <stop stop-color="#82092A" offset="0"/>
      <stop stop-color="#821236" offset=".5104"/>
      <stop stop-color="#922242" offset="1"/>
    </linearGradient>
    <linearGradient id="paint8_linear_111_2691" x1="166.3" x2="166.3" y1="23.62" y2="55.61" gradientUnits="userSpaceOnUse">
      <stop stop-color="#F9CB7B" offset="0"/>
      <stop stop-color="#B88140" offset=".5156"/>
      <stop stop-color="#825A24" offset="1"/>
    </linearGradient>
    <linearGradient id="paint9_linear_111_2691" x1="166.3" x2="166.3" y1="27.84" y2="49.73" gradientUnits="userSpaceOnUse">
      <stop stop-color="#82092A" offset="0"/>
      <stop stop-color="#821236" offset=".5104"/>
      <stop stop-color="#922242" offset="1"/>
    </linearGradient>
    <linearGradient id="paint10_linear_111_2691" x1="124.6" x2="124.6" y1="21.18" y2="58.62" gradientUnits="userSpaceOnUse">
      <stop stop-color="#822C1F" offset="0"/>
      <stop stop-color="#701B16" offset=".5104"/>
      <stop stop-color="#591E1E" offset="1"/>
    </linearGradient>
    <linearGradient id="paint11_linear_111_2691" x1="124.6" x2="124.6" y1="21.18" y2="58.62" gradientUnits="userSpaceOnUse">
      <stop stop-color="#F9CB7B" offset="0"/>
      <stop stop-color="#B88140" offset=".5156"/>
      <stop stop-color="#825A24" offset="1"/>
    </linearGradient>
    <linearGradient id="paint12_linear_111_2691" x1="124.7" x2="124.7" y1="23.56" y2="55.61" gradientUnits="userSpaceOnUse">
      <stop stop-color="#82092A" offset="0"/>
      <stop stop-color="#821236" offset=".5104"/>
      <stop stop-color="#922242" offset="1"/>
    </linearGradient>
    <linearGradient id="paint13_linear_111_2691" x1="124.7" x2="124.7" y1="23.56" y2="55.61" gradientUnits="userSpaceOnUse">
      <stop stop-color="#F9CB7B" offset="0"/>
      <stop stop-color="#B88140" offset=".5156"/>
      <stop stop-color="#825A24" offset="1"/>
    </linearGradient>
    <linearGradient id="paint14_linear_111_2691" x1="124.3" x2="124.3" y1="28.55" y2="49.96" gradientUnits="userSpaceOnUse">
      <stop stop-color="#82092A" offset="0"/>
      <stop stop-color="#821236" offset=".5104"/>
      <stop stop-color="#922242" offset="1"/>
    </linearGradient>
    <linearGradient id="paint15_linear_111_2691" x1="83.14" x2="83.14" y1="21.18" y2="58.62" gradientUnits="userSpaceOnUse">
      <stop stop-color="#822C1F" offset="0"/>
      <stop stop-color="#701B16" offset=".5104"/>
      <stop stop-color="#591E1E" offset="1"/>
    </linearGradient>
    <linearGradient id="paint16_linear_111_2691" x1="83.14" x2="83.14" y1="21.18" y2="58.62" gradientUnits="userSpaceOnUse">
      <stop stop-color="#F9CB7B" offset="0"/>
      <stop stop-color="#B88140" offset=".5156"/>
      <stop stop-color="#825A24" offset="1"/>
    </linearGradient>
    <linearGradient id="paint17_linear_111_2691" x1="82.97" x2="82.97" y1="23.62" y2="55.61" gradientUnits="userSpaceOnUse">
      <stop stop-color="#82092A" offset="0"/>
      <stop stop-color="#821236" offset=".5104"/>
      <stop stop-color="#922242" offset="1"/>
    </linearGradient>
    <linearGradient id="paint18_linear_111_2691" x1="82.97" x2="82.97" y1="23.62" y2="55.61" gradientUnits="userSpaceOnUse">
      <stop stop-color="#F9CB7B" offset="0"/>
      <stop stop-color="#B88140" offset=".5156"/>
      <stop stop-color="#825A24" offset="1"/>
    </linearGradient>
    <linearGradient id="paint19_linear_111_2691" x1="82.35" x2="82.35" y1="28.12" y2="48.44" gradientUnits="userSpaceOnUse">
      <stop stop-color="#82092A" offset="0"/>
      <stop stop-color="#821236" offset=".5104"/>
      <stop stop-color="#922242" offset="1"/>
    </linearGradient>
    <linearGradient id="paint20_linear_111_2691" x1="39.44" x2="39.44" y1="21.18" y2="58.62" gradientUnits="userSpaceOnUse">
      <stop stop-color="#822C1F" offset="0"/>
      <stop stop-color="#701B16" offset=".5104"/>
      <stop stop-color="#591E1E" offset="1"/>
    </linearGradient>
    <linearGradient id="paint21_linear_111_2691" x1="39.44" x2="39.44" y1="21.18" y2="58.62" gradientUnits="userSpaceOnUse">
      <stop stop-color="#F9CB7B" offset="0"/>
      <stop stop-color="#B88140" offset=".5156"/>
      <stop stop-color="#825A24" offset="1"/>
    </linearGradient>
    <linearGradient id="paint22_linear_111_2691" x1="39.56" x2="39.56" y1="23.62" y2="55.61" gradientUnits="userSpaceOnUse">
      <stop stop-color="#82092A" offset="0"/>
      <stop stop-color="#821236" offset=".5104"/>
      <stop stop-color="#922242" offset="1"/>
    </linearGradient>
    <linearGradient id="paint23_linear_111_2691" x1="39.56" x2="39.56" y1="23.62" y2="55.61" gradientUnits="userSpaceOnUse">
      <stop stop-color="#F9CB7B" offset="0"/>
      <stop stop-color="#B88140" offset=".5156"/>
      <stop stop-color="#825A24" offset="1"/>
    </linearGradient>
    <linearGradient id="paint24_linear_111_2691" x1="39.56" x2="39.56" y1="28.12" y2="50.22" gradientUnits="userSpaceOnUse">
      <stop stop-color="#82092A" offset="0"/>
      <stop stop-color="#821236" offset=".5104"/>
      <stop stop-color="#922242" offset="1"/>
    </linearGradient>
    <linearGradient id="paint25_linear_111_2691" x1="209.2" x2="209.2" y1="64.84" y2="101.8" gradientUnits="userSpaceOnUse">
      <stop stop-color="#822C1F" offset="0"/>
      <stop stop-color="#701B16" offset=".5104"/>
      <stop stop-color="#591E1E" offset="1"/>
    </linearGradient>
    <linearGradient id="paint26_linear_111_2691" x1="209.2" x2="209.2" y1="64.84" y2="101.8" gradientUnits="userSpaceOnUse">
      <stop stop-color="#F9CB7B" offset="0"/>
      <stop stop-color="#B88140" offset=".5156"/>
      <stop stop-color="#825A24" offset="1"/>
    </linearGradient>
    <linearGradient id="paint27_linear_111_2691" x1="209.3" x2="209.3" y1="67.51" y2="98.41" gradientUnits="userSpaceOnUse">
      <stop stop-color="#82092A" offset="0"/>
      <stop stop-color="#821236" offset=".5104"/>
      <stop stop-color="#922242" offset="1"/>
    </linearGradient>
    <linearGradient id="paint28_linear_111_2691" x1="209.3" x2="209.3" y1="67.51" y2="98.41" gradientUnits="userSpaceOnUse">
      <stop stop-color="#F9CB7B" offset="0"/>
      <stop stop-color="#B88140" offset=".5156"/>
      <stop stop-color="#825A24" offset="1"/>
    </linearGradient>
    <linearGradient id="paint29_linear_111_2691" x1="209" x2="209" y1="70.74" y2="87.72" gradientUnits="userSpaceOnUse">
      <stop stop-color="#82092A" offset="0"/>
      <stop stop-color="#821236" offset=".5104"/>
      <stop stop-color="#922242" offset="1"/>
    </linearGradient>
    <linearGradient id="paint30_linear_111_2691" x1="166" x2="166" y1="64.84" y2="101.8" gradientUnits="userSpaceOnUse">
      <stop stop-color="#822C1F" offset="0"/>
      <stop stop-color="#701B16" offset=".5104"/>
      <stop stop-color="#591E1E" offset="1"/>
    </linearGradient>
    <linearGradient id="paint31_linear_111_2691" x1="166" x2="166" y1="64.84" y2="101.8" gradientUnits="userSpaceOnUse">
      <stop stop-color="#F9CB7B" offset="0"/>
      <stop stop-color="#B88140" offset=".5156"/>
      <stop stop-color="#825A24" offset="1"/>
    </linearGradient>
    <linearGradient id="paint32_linear_111_2691" x1="166.2" x2="166.2" y1="67.51" y2="98.41" gradientUnits="userSpaceOnUse">
      <stop stop-color="#82092A" offset="0"/>
      <stop stop-color="#821236" offset=".5104"/>
      <stop stop-color="#922242" offset="1"/>
    </linearGradient>
    <linearGradient id="paint33_linear_111_2691" x1="166.2" x2="166.2" y1="67.51" y2="98.41" gradientUnits="userSpaceOnUse">
      <stop stop-color="#F9CB7B" offset="0"/>
      <stop stop-color="#B88140" offset=".5156"/>
      <stop stop-color="#825A24" offset="1"/>
    </linearGradient>
    <linearGradient id="paint34_linear_111_2691" x1="166.6" x2="166.6" y1="70.74" y2="93.15" gradientUnits="userSpaceOnUse">
      <stop stop-color="#82092A" offset="0"/>
      <stop stop-color="#821236" offset=".5104"/>
      <stop stop-color="#922242" offset="1"/>
    </linearGradient>
  </defs>
</svg>