<svg xmlns="http://www.w3.org/2000/svg" width="256" height="256" fill="none" viewBox="0 0 256 256">
<!-- SVG created with Arrow, by QuiverAI (https://quiver.ai) -->
  <path d="m127.8 255.5c66.46 0 127.3-52.86 127.3-127.5 0-68.86-60.56-127.9-127.3-127.9-67.6 0-126.8 55.12-126.8 128.1 0 72.96 59.71 127.4 126.8 127.4z" fill="url(#paint0_radial_3103_6472)"/>
  <path d="m127.6 14.05c-60.93 0-113 51.14-113 114.1 0 61.9 51.54 111.8 113 111.8 62.49 0 113.2-51.14 113.2-111.8 0-61.09-51.54-114.1-113.2-114.1z" fill="url(#paint1_linear_3103_6472)"/>
  <path d="m127.6 18.72c-58.97 0-108.7 50.4-108.7 108.6 0 58.79 49.87 108.3 108.7 108.3 60.27 0 109.7-49.89 109.7-108.3 0-57.64-49.32-108.6-109.7-108.6z" fill="url(#paint2_linear_3103_6472)"/>
  <path d="m127.4 223.5c53.96 0 96.02-46.17 96.02-95.86 0-50.39-42.65-97.66-96.02-97.66s-96.51 46.47-96.51 97.17c0 52.04 44.06 96.35 96.51 96.35z" fill="url(#paint3_linear_3103_6472)"/>
  <path d="m127 26.73c-45.24 0-73.38 30.97-73.38 56.31 0 23.77 30.21 49.27 73.38 49.27 42.09 0 71.83-26.16 71.83-52.4 0-24.99-29.65-53.18-71.83-53.18z" fill="url(#paint4_linear_3103_6472)" opacity=".7"/>
  <path d="m127.9 56.98c-40.69 0-69.6 32.73-69.6 71.09 0 39.69 31.3 69.15 69.51 69.15 39.32 0 69.53-31.31 69.53-68.84 0-38.4-30.21-71.4-69.44-71.4z" fill="url(#paint5_linear_3103_6472)" opacity=".5"/>
  <path d="m127.5 59.13c-8.12 0-8.44 3.76-8.44 7.81 0 3.98 3.61 6.56 3.61 11.02 0 6.86-3.2 5.89-4.65 6.86-1.82 1.22 0.58 10.73 0.58 14.12 0 6.33-4.9 9.12-9.44 10.94-10.65 4.28-24.32 16.39-24.32 36.25 0 13.93 14.15 27.11 35.37 27.11 24.61 0 40.65-17.63 40.65-36.87 0-15.2-10-25.36-14.69-30.73-2.88-3.37-1.97-10.43 1.08-9.21 6.12 2.51 9.27 12.03 9.84 14.78 1.01 4.94 7.97 8.57 7.97 25.9 0 11.38-6.12 22.76-8.36 26.81-0.91 1.83 6.24 0.09 9.39-2.05 6.88-4.3 12.63-10.27 12.63-27.17 0-16.57-11.72-46.49-31.92-49.6-4.63-0.73-9.27-1.24-9.27-2.9 0-2.77 5.52-8.38 5.52-17.18 0-4.37-8.3-5.89-15.55-5.89z" fill="url(#paint6_linear_3103_6472)" opacity=".5"/>
  <path d="m126.7 57.06c-38.52 0-66.65 31.75-66.65 60.98 0 15.06 5.04 19.87 8.01 21.01 2.88 1.14 6.87-0.08 8.32 6.08 1.1 5.11-0.35 9.66 3.26 13.63 2.97 3.36 8.1 2.22 8.1-2.24 0-3.61-2.88-6.28-2.88-16.9 0-14.94 12.28-28.7 23.21-33.72 6.61-3.11 9.76-2.22 11.58-7.5 2.15-6.49-1.73-10.55 0.66-13.71 2.07-2.94 5.39 0.24 7.21-5.56 2.06-6.78 1.4-10.01 1.4-13.73 0-5.24 0.08-8.34-2.22-8.34z" fill="url(#paint7_linear_3103_6472)" opacity=".3"/>
  <path d="m139.7 179.4c6.71-2.3 16.01-6.36 17.55-9.29 1.55-2.94-2.56-1.97-3.66-1.2-2.58 1.82-4.89 6.11-20.21 9.23-5.44 1.15-5.62 6.84-9.7 9.06-2.48 1.31-8.6 2.46-9.78 1.8-1.73-1.06 3.44-0.73 6.32-3.16 2.97-2.59 3.05-6.87 8.89-7.53 6.12-0.75 7.48 2.19 10.59 1.09z" fill="url(#paint8_linear_3103_6472)" opacity=".7"/>
  <path d="m94.41 39.29c-9.63 0-24.4 12.28-24.4 21.04 0 5.45 4.72 7.59 9 7.59 11.29 0 25.61-12.59 25.61-20.55 0-5.36-4.45-8.08-10.21-8.08z" fill="#fff" opacity=".8"/>
  <path d="m60.56 93.08-11.29-8.6 7.7-3.12 1.45 10.88" stroke="#58C197" stroke-miterlimit="10" stroke-width="1.5"/>
  <path d="m44.01 100 12.6 3.89-0.74 1.38-15.5 1.5 6.79-7.47-0.74-0.25" stroke="#58C197" stroke-miterlimit="10" stroke-width="1.5"/>
  <path d="m37.98 131.5 14.85-0.16-1.97-2.86-7.78-2.51 1.73-3.12 5.45 2.23-0.45 0.85" stroke="#58C197" stroke-miterlimit="10" stroke-width="1.5"/>
  <path d="m42.18 153.9 2.79-8.1 3.06 2.43 0.74 3.97 5.44-8.34 0.46-0.33-1.01 6.24" stroke="#58C197" stroke-miterlimit="10" stroke-width="1.5"/>
  <path d="m51.91 168.8 2.06 5.96 10.01-5.54" stroke="#58C197" stroke-miterlimit="10" stroke-width="1.5"/>
  <path d="m62.76 188.9 10.19-0.76-1.63-3.89-4.29-1.9 3.24-0.65 5.76 0.89" stroke="#58C197" stroke-miterlimit="10" stroke-width="1.5"/>
  <path d="m81.78 198 3.15 5.89 6.29-10.77" stroke="#58C197" stroke-miterlimit="10" stroke-width="1.5"/>
  <path d="m100.8 209.2 1.97-10.61 4.45 14.61 4.1-13.02" stroke="#58C197" stroke-miterlimit="10" stroke-width="1.5"/>
  <path d="m121.6 202.8 6.12 6.24-4.54 2.68 8.38 4.12 0.18-14" stroke="#58C197" stroke-miterlimit="10" stroke-width="1.5"/>
  <path d="m143.4 201.1 9.13 5.11 1.36-0.08 0.83 5.58-8.55-2.68 6.96-7.14" stroke="#58C197" stroke-miterlimit="10" stroke-width="1.5"/>
  <path d="m167.4 191.4 8.03 7.79-5.36-1.51-1.28 6.41" stroke="#58C197" stroke-miterlimit="10" stroke-width="1.5"/>
  <path d="m182.9 178.9-0.26 8.85 5.26-1.91 1.1-1.82 0.17 6.86" stroke="#58C197" stroke-miterlimit="10" stroke-width="1.5"/>
  <path d="m193.2 164.7 11.21 5.69-6.29 3.81-1.1-6.63" stroke="#58C197" stroke-miterlimit="10" stroke-width="1.5"/>
  <path d="m200 144 14.01 4.21-4.45 7.47 0.35 0.5" stroke="#58C197" stroke-miterlimit="10" stroke-width="1.5"/>
  <path d="m202 123.6 14.37 0.54-5.26 9-5.05-3.81" stroke="#58C197" stroke-miterlimit="10" stroke-width="1.5"/>
  <path d="m201.2 102.1 7.93 7.64 3.52-8.37-1.87-0.57" stroke="#58C197" stroke-miterlimit="10" stroke-width="1.5"/>
  <path d="m202 80.06-11.21 7.06 1.73 1.14 9.74-0.49-0.74-7.06" stroke="#58C197" stroke-miterlimit="10" stroke-width="1.5"/>
  <path d="m191.7 65.11-9.47 1.51 6.71 6.79-9.13-0.33" stroke="#58C197" stroke-miterlimit="10" stroke-width="1.5"/>
  <path d="m170.9 49.43-6.87 12.51 9.64-5.61-1.96-6.9" stroke="#58C197" stroke-miterlimit="10" stroke-width="1.5"/>
  <path d="m147.9 40.08-3.24 13.84 2.58-5.44 5.76-3.45-0.36 11.13 1.19-2.15 0.92-6.49" stroke="#58C197" stroke-miterlimit="10" stroke-width="1.5"/>
  <path d="m124.1 38.66-0.55 14.08 1.73-10.87 6.7 1.05-4.72 4.21 5.64 5.61-3.61-8.34" stroke="#58C197" stroke-miterlimit="10" stroke-width="1.5"/>
  <path d="m102.8 45.72 8.03 5.61-4.1 2.51" stroke="#58C197" stroke-miterlimit="10" stroke-width="1.5"/>
  <path d="m65.36 60.97 0.55 11.94 7.04-4.71-0.26 8.34" stroke="#58C197" stroke-miterlimit="10" stroke-width="1.5"/>
  <defs>
    <radialGradient id="paint0_radial_3103_6472" cx="0" cy="0" r="1" gradientTransform="translate(128 127.8) scale(146.2 145.9)" gradientUnits="userSpaceOnUse">
      <stop stop-color="#08FF00" stop-opacity=".6" offset="0"/>
      <stop stop-color="#09FF00" stop-opacity=".3576" offset=".4806"/>
      <stop stop-color="#0BFF00" stop-opacity=".02353" offset=".949"/>
      <stop stop-color="#0BFF00" stop-opacity="0" offset="1"/>
    </radialGradient>
    <linearGradient id="paint1_linear_3103_6472" x1="127.7" x2="127.7" y1="13.96" y2="240" gradientUnits="userSpaceOnUse">
      <stop stop-color="#00472A" offset="0"/>
      <stop stop-color="#00341B" offset="1"/>
    </linearGradient>
    <linearGradient id="paint2_linear_3103_6472" x1="128.1" x2="128.1" y1="18.72" y2="235.5" gradientUnits="userSpaceOnUse">
      <stop stop-color="#13824B" offset="0"/>
      <stop stop-color="#39EBA4" offset=".2702"/>
      <stop stop-color="#1F9951" offset=".6667"/>
      <stop stop-color="#64C688" offset="1"/>
    </linearGradient>
    <linearGradient id="paint3_linear_3103_6472" x1="127.1" x2="127.1" y1="29.96" y2="223.5" gradientUnits="userSpaceOnUse">
      <stop stop-color="#98B8B1" offset="0"/>
      <stop stop-color="#005E3A" offset="1"/>
    </linearGradient>
    <linearGradient id="paint4_linear_3103_6472" x1="126.3" x2="126.3" y1="26.73" y2="132.3" gradientUnits="userSpaceOnUse">
      <stop stop-color="#D8F6FD" offset="0"/>
      <stop stop-color="#D8F6FD" stop-opacity=".12" offset="1"/>
    </linearGradient>
    <linearGradient id="paint5_linear_3103_6472" x1="127.8" x2="127.8" y1="56.98" y2="197.2" gradientUnits="userSpaceOnUse">
      <stop stop-color="#6F9383" offset="0"/>
      <stop stop-color="#24DF86" offset="1"/>
    </linearGradient>
    <linearGradient id="paint6_linear_3103_6472" x1="125.8" x2="125.8" y1="59.13" y2="173.2" gradientUnits="userSpaceOnUse">
      <stop stop-color="#114E2C" offset="0"/>
      <stop stop-color="#16A65B" offset="1"/>
    </linearGradient>
    <linearGradient id="paint7_linear_3103_6472" x1="93.47" x2="93.47" y1="57.06" y2="160.4" gradientUnits="userSpaceOnUse">
      <stop stop-color="#84FFCC" offset="0"/>
      <stop stop-color="#44E99D" offset=".6197"/>
      <stop stop-color="#18A357" offset="1"/>
    </linearGradient>
    <linearGradient id="paint8_linear_3103_6472" x1="135.6" x2="135.6" y1="167.6" y2="189.2" gradientUnits="userSpaceOnUse">
      <stop stop-color="#48E491" offset="0"/>
      <stop stop-color="#20AA61" offset="1"/>
    </linearGradient>
  </defs>
</svg>