<svg xmlns="http://www.w3.org/2000/svg" width="250" height="250" fill="none" viewBox="0 0 250 250">
<!-- SVG created with Arrow, by QuiverAI (https://quiver.ai) -->
  <path d="m73.2 35.52c-8.29 0-15.16 11.06-15.46 17.42-0.05 1.03-0.45 1.92-0.65 2.4-3.28 7.96 0.76 24.58 10.82 27.93 2.71 0.94 5.93 0.61 8.05 0.16l-2.27 8.04c-0.43 1.59 0.15 2.93 1.07 4.12l-3.99 3.16c-6.89 11.41-11.55 31.24-13.03 45.74-10.4-1.1-20.32 11.23-20.32 25.54 0 10.18 6.75 22.91 18.41 23.09 20.96-0.83 38.33-0.34 62.78 2.55l-0.12 11.41c0 2.84 2.38 4.14 4.33 3.54 3.49-1.14 6.34-3.54 8.68-5.31 4.78 4.91 9.44 7.65 12.59 7.65 4.1 0 4.86-2.25 4.86-4.68v-8.58c4.78 0.48 16.84 2.75 27.26 3.95 12.71 1.51 22.57-9.7 23.61-24.72 0.9-13.32-6.06-21.26-11.14-22.42l-14.67-1.43 1.8-8.8c0.51-2.6-0.25-4.26-1.43-6.21l3.25-2.14 7.36-25.64c0.69-2.51 0.13-4.03-1.46-5.54l3.28-1.73 6.26-11.89c10.77-4.45 17.57-15.14 17.92-27.41 0.43-13.22-6.02-27.51-18.96-27.51-12.52 0-23.9 1.55-43.84 1.75-24.48 0.28-42.66-2.2-74.99-4.44z" fill="url(#paint0_linear_102_13272)"/>
  <path d="m192 40.44c-9.21 0-18.47 2.46-44.28 2.71-24.49 0.26-41.43-1.98-66.52-4.49-3.71-0.37-5.41-1.05-8.26 0-6.71 2.6-11.79 9.38-12.14 13.16l7.44 6.25-8.77-1.49c-1.53 6.9 1.33 19.21 9.95 23.19 2.54 1.17 6.42 0.46 9.7-0.25 25.53-4.33 61.82-1.71 97.57 5.65 5.9 1.29 10.13 2.7 15.53 1.29 8.98-2.51 15.57-14.3 15.57-24.67 0-10.38-5.78-21.35-15.79-21.35z" fill="url(#paint1_linear_102_13272)"/>
  <path d="m195.2 43.44c-7.46 0-12.53 7.84-14.2 12.57l-10.97 4.7 6.99-0.6c-0.15 7.15 0.2 19.72 8.62 24.8 1.36 0.83 5.94 0.14 7.07-0.45 6.16-3.32 10.06-13.38 9.51-20.98-0.55-7.62-4.49-8.47-7.14-8.47-2.19 0-6.05 0.51-7.05-0.12 0.63-2.52 4.89-7.63 9.7-7.63 5.25 0 7.95 8.75 7.95 16.79 0 9.06-5.08 19.88-15.51 25.03l-8.28 14.73-6.97 2.41 3.83 4.14c-2.63 6.67-5.8 18.89-6.1 24.24l-7.98 4.5 4.58 5.03c-2.48 11.51-8.11 35.85 2.8 49.87 1.65 2.25 5.29 3.06 7.72 3.06 9.4 0 16.86-10.8 16.86-20.08 0-6.37-2.58-12.49-6.46-12.49-5.12 0-9.06 5.33-9.06 10.17l5.01 1.25-1.79 7.46-11.46-1.03c-2.05-9.73 1.51-19.81 3.13-22.03l10.87-0.31-13.25-3.36 2.15-11.62c0.51-2.6-0.12-3.81-1.43-5.92l3.25-1.89 6.74-25.09c0.95-3.53-0.11-4.21-1.42-5.46l3.86-2.55 6.81-13.89c10.33-4.14 15.04-15.24 15.04-25.76 0-9.51-4.57-21.02-13.42-21.02z" fill="url(#paint2_linear_102_13272)"/>
  <path d="m183.9 55.21c-1.85 4.86-2.61 11.6-1.56 16.63l10.12 0.87-3.2-3.6c-0.99-2.87-0.19-10.07 4.69-13.1-2.09-0.94-6.6-1.3-10.05-0.8z" fill="url(#paint3_linear_102_13272)"/>
  <path d="m43.81 168.2 5.15 2.57-5.68 2.12c-0.47 6.36 4 14.93 12.95 15.91 16.75-0.51 42.51-0.54 63.52 2.14l5.4-32.88-70.04-9.27c-6.55 0-11.45 10.12-11.3 19.41z" fill="url(#paint4_linear_102_13272)"/>
  <path d="m171.9 159.3 16.93 1.09c-5.22 2.73-10.93 6.69-11.21 17.71-0.11 4.08 2.18 5.95 4.82 5.95 3.08 0 4.92-5.65 4.92-8.28l-5.01-1.9v-1.85c2.57 0 7.45 0.65 7.45 6.46 0 6.94-4.07 13.59-9.5 13.59-7.03 0-10.24-10.23-10.24-18.6 0-5.5 0.63-9.17 1.84-14.17z" fill="url(#paint5_linear_102_13272)"/>
  <path d="m122.8 185.2-1.05 20.52 10.13-6.26c4.56 5.11 7.49 8.22 12.74 10.47l1.12-22.84-3-0.86-13.72-1.26-6.22 0.23z" fill="url(#paint6_linear_102_13272)"/>
  <path d="m128.8 143.4c-1.98 2.17-5.77 2.54-8.47 3.48-7.18 2.68-8.51 11.51-5.97 20.22-1.61 7.59-1.1 14.53 6.83 17.89 3.12 0.8 5.32 2.12 7.84 3.61 6.08 3.19 12.8 1.18 17.8-4.53 2.15-2.98 5.08-2.38 9.3-6.5 4.13-4.13 2.92-9.7 1.97-12.53-0.8-2.55 2.58-7.81-0.8-11.93-3.01-3.67-4.88-3.67-7.9-5.94-2.45-3.12-4.15-5.92-9.75-5.92-4.34 0-7.55-0.59-10.85 2.15z" fill="url(#paint7_linear_102_13272)" stroke="#7A3416" stroke-miterlimit="10" stroke-width="2"/>
  <path d="m124.9 148.7c-6.71 1.25-8.81 4.47-8.81 12.75 0 3.22 1 5.36 1 8.62 0 4.13-1.93 5.48 0.33 8.11 1.75 2.24 4.72 2.24 7.37 3.29 3.25 1.25 4.35 4.18 9.43 4.78 5.22 0.65 8.58-3.04 11.97-7.79 2.17-2.61 6.07-3.31 8.57-6.36 3.13-3.84 1.13-6.35 0.53-9.16-0.76-3.58 1.6-6.74-1.82-10.37-2.78-3.07-5.38-3.47-7.5-5.34-3.9-3.77-9.71-4.07-21.07 1.47z" fill="url(#paint8_linear_102_13272)"/>
  <path d="m136.1 150.1c-9.01 0-15.94 7.21-15.94 16.25 0 7.91 6.64 12.97 14.1 12.97 8.98 0 15.69-7.94 15.69-15.33 0-8.48-6.01-13.89-13.85-13.89z" fill="url(#paint9_linear_102_13272)" stroke="#9E221B" stroke-miterlimit="10" stroke-width="1.2"/>
  <path d="m190.2 56.01c2.75-0.83 7.27-1 7.68 7.02 0.3 6.24-2.65 13.96-6.73 16.74" stroke="#823A1A" stroke-miterlimit="10" stroke-width="2"/>
  <path d="m62.92 49.96c1.8-4.45 7.39-9.64 11.7-9.64 3.79 0 27.3 4.71 57.4 5.81 17.69 0.68 41.99-0.82 59.14-3.79l2.03 0.55c-6 2.14-10.01 7.22-12.15 12.75l-10.97 5.07 8.64-2c-0.7 2.75-1.45 3.57-1.65 5l-7.94-0.49c-1.94-0.27-3.03-2.9-3.03-6.84l-5.4 6.36-10.43-3.58-2.55 0.95c-6.9 0.77-11.84 1.6-18.72 0.6-5.88-0.83-11.48-2.58-13.78-3.58-3.28-0.55-12.69 0.75-22.16 2.03l-0.88-1.09c-5.76-2.06-13.9-2.86-18.97-2.06l-3-1.04-7.28-5.01z" fill="url(#paint10_linear_102_13272)"/>
  <path d="m44.77 162.5c1.36-5.78 4.02-9.23 10.19-9.83l61.15 7.34 0.57 2.88-50.76 10.79-13.85-6.57-7.3-1.11v-3.5z" fill="url(#paint11_linear_102_13272)"/>
  <path d="m65.92 126.2 8.21-23.05c2.03-4.22 4.08-3.39 8.86-5.9l-3.77-4.53 4.29-12.23 5.9-1.15c18.8-1.51 38.2-0.51 49.67 1.15 13.85 1.73 32 5.34 43.37 7.2l-3.74 3.06-9.97 2.63 12.22 2.78-6.95 8.46 4.05 3.81-7.99 21-9.51 6.81 2.26 3.58 7.25-3.58-1.94 7.2-5.31 24.8 1.31 12.87 5.16 12.86-4.23 1.25-15.05-2.08-2.3-3 1.24-6.95 7.26-5.58 2.44-6.21-2.44-8.48 1.2-6.99-3.99-5.81-7.21-4.59-6.6-4.24-8.42 2.15-8.42 3.77-7.56 2.91-1.67 5.81-0.73 1.34-48.73-9.04 1.84-22.03z" fill="url(#paint12_linear_102_13272)"/>
  <path d="m84.18 115.7c2.89-2.55 5.54-4.85 8.09-4.29 1.15 0.28 1.58 1.84 0.92 3.76 3.25-1.02 5.07-3.94 6.62-3.77 1.41 0.17 1.18 2.03 1.91 3.65 1.39 3.3 7.64 1.27 11.65-0.6 4.12-1.88 10.66-3.2 12.24 0.94 1.55 4.14-1.58 4.9-3.5 4.66-1.94-0.24-2.77-2.93-0.15-3.35 3.87-0.6 7.2 0.65 11.35 0.54" stroke="#B38A2D" stroke-linecap="round" stroke-linejoin="round" stroke-width="1.2"/>
  <path d="m134.8 112.8c3.42 0.67 7.39 0.92 10.12-1.39 3.2-2.73 3.47-0.63 3.17 0.66-0.59 2.65-4.49 3.3-6.07 4.1-2.16 1.08-2.93 6.79-0.77 7.06 2.97 0.4 5.07-3.21 6.47-4.61 1.1 1.4 1 2.54 2.7 2.54s4.71-1.14 6.28-1.43" stroke="#B38A2D" stroke-linecap="round" stroke-linejoin="round" stroke-width="1.2"/>
  <path d="m156.2 114.3c0 2-3.1 3.94-4.31 4.64" stroke="#B38A2D" stroke-linecap="round" stroke-linejoin="round" stroke-width="1.2"/>
  <path d="m141.2 133.5c4.97-2.24 8.12-2.24 11.37-0.49" stroke="#B38A2D" stroke-linecap="round" stroke-linejoin="round" stroke-width="1.2"/>
  <path d="m133.7 133h1.21" stroke="#B38A2D" stroke-linecap="round" stroke-linejoin="round" stroke-width="2"/>
  <path d="m129 128.9-1.21 1.19" stroke="#B38A2D" stroke-linecap="round" stroke-linejoin="round" stroke-width="1.2"/>
  <path d="m81.22 127.1c2.73 0 3.49-1.15 4.97-2.66 2.48-2.51 4.53-1.86 4.53-0.61 0 2.2-4.71 4.95-5.71 4.95 0 1.9 1.3 2.7 3.31 2.7 4.12 0 8.83-5.7 9.56-5.45 1 0.35-1.27 3.78-0.67 4.28 1.6 1.32 5.76-2.56 7.27-2.56 2.16 0 2.64 2.06 4.43 2.06 2.01 0 3.52-2.71 4.31-2.71 0.6 0-1.11 3.85-1.11 4.38 0 1.6-7.2 4-6.9 4.71 0 0.94 2.1 0 3.9-1 1.7-0.94 3.25-3.71 5.41-3.71 1.33 0 1.09 1.47 2.51 1.47 3.98 0 8.12-2.89 9.6-2.89" stroke="#B38A2D" stroke-linecap="round" stroke-linejoin="round" stroke-width="1.2"/>
  <path d="m93.19 97.23c0-3.1 2.85-5.35 4.36-5.35 2.13 0 2.67 1.63 2.67 2.93 0 1.35-1.48 1.87-1.48 1.87s1.48 0.43 2.53 0c2.06-0.89 4.22-6 6.84-6 2.2 0 1.63 3.94-2.9 8.23-2.1 2.01-3.94 3.6-8 3.6-3.25 0-4.02-3.36-4.02-5.28z" stroke="#B38A2D" stroke-linecap="round" stroke-linejoin="round" stroke-width="1.2"/>
  <path d="m109.1 98.43c-1.23 1.31-2.03 3.03-2.9 3.03" stroke="#B38A2D" stroke-linecap="round" stroke-linejoin="round" stroke-width="1.2"/>
  <path d="m110.3 98.43c-0.7 1.25-1.4 3.83 0.61 3.83 2 0 5.56-3.35 6.29-3.35 0.7 0-0.18 2.55 1.62 2.55 1.79 0 7.34-3.03 8.78-3.03 1.38 0 0.17 4.31 0.68 4.31" stroke="#B38A2D" stroke-linecap="round" stroke-linejoin="round" stroke-width="2"/>
  <path d="m134.8 101.9c1.8 1.21 3.35 1.36 5.48 0.82 3.94-1.08 6.89-2.46 8.68-1.82 1.31 0.49-0.64 2.8 0 3.19 0.98 0.6 3.12-1.85 4.16-1.85 1.55 0 1.9 1.85 4.63 1.85 2.48 0 4.37-1.37 5.17-2.19" stroke="#B38A2D" stroke-linecap="round" stroke-linejoin="round" stroke-width="1.2"/>
  <path d="m156.2 97.81 0.48 0.3" stroke="#B38A2D" stroke-linecap="round" stroke-linejoin="round" stroke-width="2"/>
  <defs>
    <linearGradient id="paint0_linear_102_13272" x1="124.2" x2="124.2" y1="35.52" y2="213" gradientUnits="userSpaceOnUse">
      <stop stop-color="#974D22" offset="0"/>
      <stop stop-color="#70331A" offset="1"/>
    </linearGradient>
    <linearGradient id="paint1_linear_102_13272" x1="134" x2="134" y1="39.6" y2="86.72" gradientUnits="userSpaceOnUse">
      <stop stop-color="#FDEBC1" offset="0"/>
      <stop stop-color="#F8D59A" offset=".4896"/>
      <stop stop-color="#C38050" offset="1"/>
    </linearGradient>
    <linearGradient id="paint2_linear_102_13272" x1="185.8" x2="185.8" y1="42.14" y2="197.1" gradientUnits="userSpaceOnUse">
      <stop stop-color="#B06631" offset="0"/>
      <stop stop-color="#D2A36A" offset="1"/>
    </linearGradient>
    <linearGradient id="paint3_linear_102_13272" x1="187.6" x2="187.6" y1="54.71" y2="72.71" gradientUnits="userSpaceOnUse">
      <stop stop-color="#B06631" offset="0"/>
      <stop stop-color="#D2A36A" offset="1"/>
    </linearGradient>
    <linearGradient id="paint4_linear_102_13272" x1="81.75" x2="81.75" y1="148.8" y2="191.2" gradientUnits="userSpaceOnUse">
      <stop stop-color="#FDEBC1" offset="0"/>
      <stop stop-color="#F8D59A" offset=".4896"/>
      <stop stop-color="#C38050" offset="1"/>
    </linearGradient>
    <linearGradient id="paint5_linear_102_13272" x1="180" x2="180" y1="159.3" y2="192.1" gradientUnits="userSpaceOnUse">
      <stop stop-color="#B06631" offset="0"/>
      <stop stop-color="#915231" offset="1"/>
    </linearGradient>
    <linearGradient id="paint6_linear_102_13272" x1="133.7" x2="133.7" y1="185" y2="210" gradientUnits="userSpaceOnUse">
      <stop stop-color="#D79E57" offset="0"/>
      <stop stop-color="#FEF6C6" offset="1"/>
    </linearGradient>
    <linearGradient id="paint7_linear_102_13272" x1="136.2" x2="136.2" y1="140.9" y2="190.5" gradientUnits="userSpaceOnUse">
      <stop stop-color="#8A0000" offset="0"/>
      <stop stop-color="#5A0000" offset="1"/>
    </linearGradient>
    <linearGradient id="paint8_linear_102_13272" x1="135.9" x2="135.9" y1="143.7" y2="186.4" gradientUnits="userSpaceOnUse">
      <stop stop-color="#C13838" offset="0"/>
      <stop stop-color="#B0321C" offset="1"/>
    </linearGradient>
    <linearGradient id="paint9_linear_102_13272" x1="135" x2="135" y1="150.1" y2="179.3" gradientUnits="userSpaceOnUse">
      <stop stop-color="#9E1717" offset="0"/>
      <stop stop-color="#B53525" offset="1"/>
    </linearGradient>
    <linearGradient id="paint10_linear_102_13272" x1="128.1" x2="128.1" y1="40.32" y2="63.65" gradientUnits="userSpaceOnUse">
      <stop stop-color="#FDEBC1" offset="0"/>
      <stop stop-color="#F8D59A" stop-opacity=".35" offset="1"/>
    </linearGradient>
    <linearGradient id="paint11_linear_102_13272" x1="80.72" x2="80.72" y1="152.7" y2="173.7" gradientUnits="userSpaceOnUse">
      <stop stop-color="#FEF6C6" offset="0"/>
      <stop stop-color="#FEF6C6" stop-opacity=".35" offset="1"/>
    </linearGradient>
    <linearGradient id="paint12_linear_102_13272" x1="123.3" x2="123.3" y1="79.32" y2="195.2" gradientUnits="userSpaceOnUse">
      <stop stop-color="#D79E57" offset="0"/>
      <stop stop-color="#FEF6C6" offset="1"/>
    </linearGradient>
  </defs>
</svg>