<svg xmlns="http://www.w3.org/2000/svg" width="256" height="256" fill="none" viewBox="0 0 256 256">
<!-- SVG created with Arrow, by QuiverAI (https://quiver.ai) -->
  <path d="m127.6 255.1c69.79 0 126.5-56.48 126.5-126.6 0-70.14-56.7-126.6-126.5-126.6s-126.5 56.48-126.5 126.6c0 70.13 56.7 126.6 126.5 126.6z" fill="url(#paint0_radial_1020_9500)"/>
  <path d="m127.3 240.4c62.86 0 113.4-52.13 113.4-112 0-61.47-50.52-113.6-113.4-113.6s-112.8 52.13-112.8 113.6c0 59.91 49.93 112 112.8 112z" fill="url(#paint1_linear_1020_9500)"/>
  <path d="m127.3 236.5c60.62 0 109.3-50.37 109.3-108.5 0-60.62-48.65-109.6-109.3-109.6-60.61 0-108.6 48.99-108.6 109.6 0 58.16 48.03 108.5 108.6 108.5z" fill="url(#paint2_radial_1020_9500)"/>
  <path d="m127.1 233.9c58.47 0 107.2-47.94 107.2-105.7s-48.76-107.4-107.2-107.4c-50.14 0-74.37 32.83-74.37 62.93 0 18.27 12.32 29.73 22.17 37.54 12.55 10.28 23.05 13.62 25.99 23.84 3.51 12.5 4.74 17.94-0.61 25.51-6.01 8.49-11.14 14.13-8.95 19.17 2.63 6.1 32.4 14.82 35.64 19.41 2.33 3.44-17.13-3.41-25.62-7.7-7.11-3.61-14.12-7.84-14.89-11.66-1.08-5.24-2.25-18.25-7.55-33.08-3.08-8.54-15.81-11.99-25.31-6.26-5.72 3.56-5.67 5.39-5.67 2.24 0-9.02 8.79-20.33 21.25-30.95 11.12-9.86 16.25-20.63 33.61-23.92 8.42-1.68 20.15-0.71 20.46 0.46 0.82 2.88-19.08 6.92-26.84 24.71-7.27 16.95-3.87 36.13 9.22 54.25 13.9 19.98 33.42 30.4 48.62 36.81 13.85-5.13 23.48-15.95 30.48-30.94 3.4-7.26 13.75-15.17 22.07-24.77 10.55-12.5 13.14-25.93 11.1-45.3-1.07-9.96-3.76-21.49-7.11-30.93 5.35 9.49 11.12 21.89 8.14 27.02-5.87 13.23-16.8 22.72-31.33 33.2-8.49 6.26-12.35 20.62-35.97 26.22-13.95 3.61-23.85 1.4-35.47-4.91-5.23-3.05-8.02-2.64-6.81 2.09 1.78 7.42 16.64 23.96 37.3 33.56 6.69 3.15 16.38 5.93 21.61 4.05 8.11-2.92 15.66-19.21 20.07-24.29-6.95 9.44-10.3 17.4-18.79 23.97-7.6 6.1-17.6 4.01-25.61 0.15-16.63-8.33-31.78-21.2-40.78-36.93-9-15.3-12.45-35.26-2.35-49.52 6.33-9.7 17.03-13.89 19.04-15.06 3.4-1.99 4.33-3.94-2.12-4.76-7.95-1.12-19.42 0.21-30.12 10.22-8.47 8.22-11.49 13.95-17.36 19.44-9.06 7.91-18.8 13.14-23.16 28.87-3.91 13.81 10 32.59 22.2 42.14 7.9 6.41 18.25 11.85 24.68 14.01 6.79 2.46 16.13 5.47 23.89 5.47-13.64 0-23.2-3.67-33.4-8.95-13.09-7.16-28.24-17.23-38.94-35.12-8.48-14.74-8.73-24.81 2.32-40.49 8.26-10.34 15.48-15.37 21.81-23.86 10.11-12.75 25.51-21.99 42.6-22.6 11.06-0.36 21.01 1.63 29.96 7.13 4.07 2.42 4.12 0.25 2.29-4.43-4.61-11.17-16.71-20.61-21.32-24.43-3.96-3.1-3.86-6.76-2.53-10.32 1.53-4.88-3.5-7.98-6.53-10.71-3.18-2.83 2.83-6.7 7.86-6.19 14.63 1.38 26.14 9 34.25 15.83 7.05 6.1 16.39 11.18 12.48 16.16-3.4 4.44 0.89 17.98 4.47 28.55 3.4 8.88 13 10.71 18.76 8.83 5.28-1.73 11.87-4.66 13.9-5.33 3.71-1.33 1.32 7.52-3.09 14.63-7.11 11.22-15.65 15.8-25.1 27.02-8.9 10.37-19.5 14.76-29.5 16.34-7.59 1.17-16.54 0-17-1.27-1.23-2.41 3.23-1.9 8.31-5.15 9.44-5.78 20.19-15.54 23.38-30.05 2.44-14.99-7.76-36.82-24.7-52.23-5.62-5.34-9.48-8.37-12.06-11.42 1.96-0.72 10.7 3.2 17.14 6.3 7.05 3.39 13.53 1.4 19.91 8.37 5.28 5.24 4.65 16.21 12.19 27.08 5.72 7.91 14.61 6.79 18.63 2.92 6.9-6.56 7.31-16.11 6.39-24.65-3.59-22.87-24.1-52.03-73.23-52.64" fill="url(#paint3_radial_1020_9500)"/>
  <path d="m103.7 44.43c3.37 7.48-3.34 16.33-13.91 21.15-10.01 4.73-16.68 2.86-19.69-2.61-3.2-6.35 3.86-15.88 14.06-20.79 8.01-4.45 16.42-4.55 19.54 2.25z" fill="#D0F9FF"/>
  <defs>
    <radialGradient id="paint0_radial_1020_9500" cx="0" cy="0" r="1" gradientTransform="translate(127.6 128.5) scale(155.1 155.5)" gradientUnits="userSpaceOnUse">
      <stop stop-color="#0180FF" stop-opacity=".6" offset="0"/>
      <stop stop-color="#017FFA" stop-opacity=".47" offset=".48"/>
      <stop stop-color="#0179EB" stop-opacity=".17" offset=".86"/>
      <stop stop-color="#0176E5" stop-opacity=".1" offset="1"/>
    </radialGradient>
    <linearGradient id="paint1_linear_1020_9500" x1="127.6" x2="127.6" y1="14.73" y2="240.4" gradientUnits="userSpaceOnUse">
      <stop stop-color="#023B76" offset="0"/>
      <stop stop-color="#295182" offset="1"/>
    </linearGradient>
    <radialGradient id="paint2_radial_1020_9500" cx="0" cy="0" r="1" gradientTransform="translate(127.5 127.9) scale(138.6 138.8)" gradientUnits="userSpaceOnUse">
      <stop stop-color="#1B4875" offset="0"/>
      <stop stop-color="#295A9F" offset=".26"/>
      <stop stop-color="#3A6DC6" offset=".56"/>
      <stop stop-color="#4278D4" offset=".71"/>
      <stop stop-color="#4894E1" offset=".84"/>
      <stop stop-color="#A8E7FF" offset="1"/>
    </radialGradient>
    <radialGradient id="paint3_radial_1020_9500" cx="0" cy="0" r="1" gradientTransform="translate(129.5 128) scale(118.3 118.1)" gradientUnits="userSpaceOnUse">
      <stop stop-color="#E5B059" offset="0"/>
      <stop stop-color="#DFAF65" stop-opacity=".76" offset=".24"/>
      <stop stop-color="#D1AE78" stop-opacity=".48" offset=".52"/>
      <stop stop-color="#BBA998" stop-opacity=".17" offset=".83"/>
      <stop stop-color="#AFA7AA" stop-opacity=".1" offset="1"/>
    </radialGradient>
  </defs>
</svg>