<svg xmlns="http://www.w3.org/2000/svg" width="256" height="256" fill="none" viewBox="0 0 256 256">
<!-- SVG created with Arrow, by QuiverAI (https://quiver.ai) -->
  <path d="m127.8 0c-64.57 0-126.8 51.71-126.8 128 0 71.07 59.04 127.4 126.7 127.4 68.91 0 127.3-55.53 127.3-127.1 0-69.56-55.93-128.2-127.2-128.2z" fill="url(#paint0_radial_1342_1588)" opacity=".25"/>
  <path d="m127.4 19.71c-57.23 0-105.3 49.28-105.3 108.2 0 58.27 48.03 105.8 105.4 105.8 59.18 0 105.7-47.83 105.7-105.6 0-57.61-46.13-108.4-105.9-108.4z" fill="url(#paint1_radial_1342_1588)" opacity=".5"/>
  <path d="m127.3 22.23c-55.4 0-104.9 46.66-104.9 105.7 0 57.23 48.03 105.1 105 105.4 57.51 0.29 105.6-46.13 105.6-105.2 0-57.9-46.8-105.9-105.7-105.9z" fill="url(#paint2_linear_1342_1588)"/>
  <path d="m127.1 224.1c52.81 0 94.11-43.85 94.11-97.99 0-19.76-4.61-33.11-9.93-43.49 5.02 10.48 5.76 17.16 5.76 23.43 0 51.5-40.74 117.7-93.26 117.7-46.07 0-88.64-47.11-88.64-114.2 0-14.79 3.51-25.26 6.91-32.72-6.65 11.52-9.95 25.07-9.95 40.25 0 57.52 42.19 107.1 95 107.1z" fill="url(#paint3_radial_1342_1588)" opacity=".5"/>
  <path d="m127.1 29.18c-37.39 0-62.98 25.6-62.98 46.73s23.63 42.41 63.66 42.41c33.43 0 62.92-21.33 62.92-41.91 0-20.59-20.78-47.23-63.6-47.23z" fill="url(#paint4_linear_1342_1588)"/>
  <path d="m127.4 52.07c-40.43 0-75.45 32.64-75.45 76.12 0 41.79 34.68 75.62 75.73 75.62 42.08 0 75.22-34.07 75.22-75.4 0-40.55-32.55-76.34-75.5-76.34z" fill="url(#paint5_radial_1342_1588)"/>
  <path d="m127.2 35.05c-13.95 0-21.41 6.96-21.41 12.96 0 7.2 8.12 15.5 22.39 15.5 13.2 0 20.46-7.8 20.46-15.4 0-6.39-7.46-13.06-21.44-13.06z" fill="url(#paint6_radial_1342_1588)" opacity=".7"/>
  <path d="m127.4 79.4c-27.39 0-47.97 22.71-47.97 48.51 0 26.99 20.58 49.04 47.87 49.04 26.5 0 48.5-22.24 48.5-49.24 0-25.5-20.49-48.31-48.4-48.31z" fill="url(#paint7_radial_1342_1588)"/>
  <path d="m128.5 81.44c-8.46 0-12.36 4.36-12.36 8.53 0 6.09 6.28 11.2 12.95 11.2 8.76 0 13.22-5.5 13.22-10.56 0-4.7-5.7-9.17-13.81-9.17z" fill="url(#paint8_radial_1342_1588)" opacity=".6"/>
  <defs>
    <radialGradient id="paint0_radial_1342_1588" cx="0" cy="0" r="1" gradientTransform="translate(128 127.7) scale(158.2)" gradientUnits="userSpaceOnUse">
      <stop stop-color="#5200A3" offset="0"/>
      <stop stop-color="#5202A4" stop-opacity=".8622" offset=".1378"/>
      <stop stop-color="#5109A9" stop-opacity=".7308" offset=".2692"/>
      <stop stop-color="#4F15B0" stop-opacity=".602" offset=".398"/>
      <stop stop-color="#4D27BB" stop-opacity=".4748" offset=".5252"/>
      <stop stop-color="#4A3FCB" stop-opacity=".3491" offset=".6509"/>
      <stop stop-color="#475FDE" stop-opacity=".2245" offset=".7755"/>
      <stop stop-color="#4388F6" stop-opacity=".1021" offset=".8979"/>
      <stop stop-color="#40B2FF" stop-opacity="0" offset="1"/>
    </radialGradient>
    <radialGradient id="paint1_radial_1342_1588" cx="0" cy="0" r="1" gradientTransform="translate(128.2 128) scale(134.5)" gradientUnits="userSpaceOnUse">
      <stop stop-color="#001CB0" offset="0"/>
      <stop stop-color="#021DB1" stop-opacity=".8196" offset=".1804"/>
      <stop stop-color="#0922B3" stop-opacity=".6819" offset=".3181"/>
      <stop stop-color="#142AB7" stop-opacity=".5579" offset=".4421"/>
      <stop stop-color="#2538BD" stop-opacity=".4422" offset=".5578"/>
      <stop stop-color="#3B4AC5" stop-opacity=".3321" offset=".6679"/>
      <stop stop-color="#5762D0" stop-opacity=".2258" offset=".7742"/>
      <stop stop-color="#7780DD" stop-opacity=".1228" offset=".8772"/>
      <stop stop-color="#9DAFF0" stop-opacity=".2455" offset=".9754"/>
      <stop stop-color="#A7B9F5" stop-opacity=".2" offset="1"/>
    </radialGradient>
    <linearGradient id="paint2_linear_1342_1588" x1="38.06" x2="210.3" y1="62.96" y2="198.3" gradientUnits="userSpaceOnUse">
      <stop stop-color="#40B1FF" offset="0"/>
      <stop stop-color="#4198F2" offset=".1413"/>
      <stop stop-color="#445CC3" offset=".4348"/>
      <stop stop-color="#490092" offset=".8754"/>
      <stop stop-color="#7139E7" offset=".9944"/>
    </linearGradient>
    <radialGradient id="paint3_radial_1342_1588" cx="0" cy="0" r="1" gradientTransform="translate(126.7 153.4) scale(95.35)" gradientUnits="userSpaceOnUse">
      <stop stop-color="#2B00B2" offset="0"/>
      <stop stop-color="#3404B6" stop-opacity=".7861" offset=".2139"/>
      <stop stop-color="#4D0FC1" stop-opacity=".4277" offset=".5723"/>
      <stop stop-color="#7320D2" stop-opacity=".005582" offset=".9944"/>
      <stop stop-color="#7320D2" stop-opacity="0" offset="1"/>
    </radialGradient>
    <linearGradient id="paint4_linear_1342_1588" x1="127.4" x2="127.4" y1="29.18" y2="118.3" gradientUnits="userSpaceOnUse">
      <stop stop-color="#F6FDFF" offset="0"/>
      <stop stop-color="#B3DDF2" stop-opacity=".52" offset="1"/>
    </linearGradient>
    <radialGradient id="paint5_radial_1342_1588" cx="0" cy="0" r="1" gradientTransform="translate(127.4 127.9) scale(87.6)" gradientUnits="userSpaceOnUse">
      <stop stop-color="#31B2E6" offset="0"/>
      <stop stop-color="#4495DE" offset=".1202"/>
      <stop stop-color="#5C76D5" offset=".2911"/>
      <stop stop-color="#6F5FD0" offset=".4666"/>
      <stop stop-color="#7C50CC" offset=".6463"/>
      <stop stop-color="#8547C9" offset=".8341"/>
      <stop stop-color="#8844C8" offset="1"/>
    </radialGradient>
    <radialGradient id="paint6_radial_1342_1588" cx="0" cy="0" r="1" gradientTransform="translate(127.2 49.28) scale(21.44 14.22)" gradientUnits="userSpaceOnUse">
      <stop stop-color="#FEFFFE" offset="0"/>
      <stop stop-color="#F9FDFF" stop-opacity=".7084" offset=".2916"/>
      <stop stop-color="#EAF6FF" stop-opacity=".3387" offset=".6613"/>
      <stop stop-color="#D3EAFF" stop-opacity="0" offset="1"/>
    </radialGradient>
    <radialGradient id="paint7_radial_1342_1588" cx="0" cy="0" r="1" gradientTransform="translate(127.6 128.2) scale(52.55 55.59)" gradientUnits="userSpaceOnUse">
      <stop stop-color="#6757D7" offset="0"/>
      <stop stop-color="#655BD8" stop-opacity=".7334" offset=".2666"/>
      <stop stop-color="#6068DD" stop-opacity=".5095" offset=".4905"/>
      <stop stop-color="#597DE5" stop-opacity=".3006" offset=".6994"/>
      <stop stop-color="#4EA4F0" stop-opacity=".1" offset=".9"/>
      <stop stop-color="#49B9F7" stop-opacity=".02" offset="1"/>
    </radialGradient>
    <radialGradient id="paint8_radial_1342_1588" cx="0" cy="0" r="1" gradientTransform="translate(129.2 89.23) scale(14.12 11.01)" gradientUnits="userSpaceOnUse">
      <stop stop-color="#FEFFFE" offset="0"/>
      <stop stop-color="#F9FDFF" stop-opacity=".7084" offset=".2916"/>
      <stop stop-color="#EAF6FF" stop-opacity=".3387" offset=".6613"/>
      <stop stop-color="#D3EAFF" stop-opacity="0" offset="1"/>
    </radialGradient>
  </defs>
</svg>