<svg xmlns="http://www.w3.org/2000/svg" width="250" height="250" fill="none" viewBox="0 0 250 250">
<!-- SVG created with Arrow, by QuiverAI (https://quiver.ai) -->
  <path d="m124.2 242.6c65.99 0 119.5-51.55 119.5-117.6 0-66.1-53.48-117.6-119.5-117.6-65.98 0-119.5 51.54-119.5 117.6 0 66.09 53.49 117.6 119.5 117.6z" fill="url(#paint0_angular_5_2824)"/>
  <path d="m123.3 235.5c62.68 0 112.6-51.2 112.6-110.6 0-60.86-49.93-111.2-112.6-111.2-61.91 0-110 50.08-110 111.2 0 60.42 48.57 110.6 110 110.6z" fill="url(#paint1_radial_5_2824)"/>
  <path d="m123.6 234.2c60.62 0 111.4-49 111.4-109.6 0-58.47-49.89-110.9-111-110.9-60.62 0-110.4 50.6-110.4 111.4 0 59.83 50.07 109.2 110 109.2z" fill="url(#paint2_linear_5_2824)"/>
  <path d="m123.9 230.6c58.88 0 106.8-49.46 106.8-107.2 0-56.47-47.26-105.4-106.6-105.4-58.88 0-106.3 48.6-106.3 106.9 0 58.27 47.69 105.6 106.1 105.6z" fill="url(#paint3_radial_5_2824)"/>
  <path d="m123.1 24.81c-44.15 0-71.91 29.64-71.91 54.52 0 19.98 10.94 33.8 35.63 45.03l37.34 73.92 56.04-28.79 23.75-54.79-23.87-41.51-7.58-29.31c-13.56-13.03-31.1-19.07-49.4-19.07z" fill="url(#paint4_linear_5_2824)"/>
  <path d="m124.1 24.84c39.82 0 69.74 25.72 69.74 52.92 0 17.49-12.1 33.46-31.71 46.92l-37.49-71.06-23.13-11.41-20.61 0.2c11.18-11.18 23.94-17.57 43.2-17.57z" fill="url(#paint5_linear_5_2824)"/>
  <path d="m124.6 53.62 50.6 19.29-2.76-29.03-41.15-8.77-6.69 18.51z" fill="url(#paint6_linear_5_2824)"/>
  <path d="m175.2 72.91 34.95 12.8 3.76 39.87-5.62 27.54-4.7-39.14-28.39-41.07z" fill="url(#paint7_linear_5_2824)"/>
  <path d="m162.1 124.7 10.21 31-10.31 27.31-38.42 15.29 38.52-73.6z" fill="url(#paint8_linear_5_2824)"/>
  <path d="m162.1 124.7 9.47 10.8 32.03-21.5-23.45 55.51-18.15 13.5 0.1-58.31z" fill="url(#paint9_linear_5_2824)"/>
  <path d="m180.2 169.5-18.15 39.4-36.99 9.37-39.01-10.53-17.15-34.57 17.92-48.8 37.3 73.92 56.08-28.79z" fill="url(#paint10_linear_5_2824)"/>
  <path d="m86.8 124.4-45.84-40.24 27.52-4.66 10.61 27.31 7.71 17.59z" fill="url(#paint11_linear_5_2824)"/>
  <path d="m68.48 79.46 1.63-17.53 32.07-18.21 22.44 9.9-56.14 25.84z" fill="url(#paint12_linear_5_2824)"/>
  <path d="m68.48 79.46-10.92 2.74-12.31 1.87-4.29 0.05 12.46 42.89 14.83-13.1 10.84-7.14-10.61-27.31z" fill="url(#paint13_linear_5_2824)"/>
  <path d="m55.09 127-11.38 41.89-13.71-41.89 10.96-42.89 5.86 1.59 8.27 41.3z" fill="url(#paint14_linear_5_2824)"/>
  <path d="m55.09 127 13.77 46.15-9.44 16.65-15.71-20.91 11.38-41.89z" fill="url(#paint15_linear_5_2824)"/>
  <path d="m68.86 173.2 17.15 34.57-14.64-9.99-11.95-7.93 9.44-16.65z" fill="url(#paint16_linear_5_2824)"/>
  <path d="m123.6 198.3 38.42 10.61-36.99 9.37-39.01-10.53 37.58-9.45z" fill="url(#paint17_linear_5_2824)"/>
  <path d="m86.78 124.4 37.84-70.74 37.49 71.06-8.63 14.23-7.99-1.32-21.78-15.87-2.62 6.68-34.31-4.04z" fill="url(#paint18_linear_5_2824)"/>
  <path d="m124.6 53.62 50.6 19.29-2.32 10.37-40.81-12.84-7.47-16.82z" fill="url(#paint19_linear_5_2824)"/>
  <path d="m101.3 43.88c2.97 6.61-3.48 14.26-9.53 18.45-6.84 4.84-16.57 6.08-20.65 2.21-5.97-5.56-1.06-15.39 8.78-21.84 8.32-5.61 17.92-6.41 21.4 1.18z" fill="#FEF7FF"/>
  <defs>
    <radialGradient id="paint0_angular_5_2824" cx="0" cy="0" r="1" gradientTransform="translate(124.2 125) scale(120.2 119)" gradientUnits="userSpaceOnUse">
      <stop stop-color="#8A00A3" offset="0"/>
      <stop stop-color="#A945C2" offset=".224"/>
      <stop stop-color="#D999F0" offset=".4792"/>
      <stop stop-color="#F3C4FF" offset=".7083"/>
      <stop stop-color="#F3C4FF" stop-opacity=".18" offset="1"/>
    </radialGradient>
    <radialGradient id="paint1_radial_5_2824" cx="0" cy="0" r="1" gradientTransform="translate(124.6 124.6) scale(112.5 111.3)" gradientUnits="userSpaceOnUse">
      <stop stop-color="#8A00A3" offset="0"/>
      <stop stop-color="#A945C2" offset=".224"/>
      <stop stop-color="#D999F0" offset=".4792"/>
      <stop stop-color="#F3C4FF" offset=".7083"/>
      <stop stop-color="#F3C4FF" stop-opacity=".18" offset="1"/>
    </radialGradient>
    <linearGradient id="paint2_linear_5_2824" x1="124.3" x2="124.3" y1="13.71" y2="235.5" gradientUnits="userSpaceOnUse">
      <stop stop-color="#230043" offset="0"/>
      <stop stop-color="#230043" stop-opacity=".77" offset="1"/>
    </linearGradient>
    <radialGradient id="paint3_radial_5_2824" cx="0" cy="0" r="1" gradientTransform="translate(124.3 124.3) scale(108.1 106.9)" gradientUnits="userSpaceOnUse">
      <stop stop-color="#8A00A3" offset="0"/>
      <stop stop-color="#A945C2" offset=".224"/>
      <stop stop-color="#D999F0" offset=".4792"/>
      <stop stop-color="#F3C4FF" offset=".7083"/>
      <stop stop-color="#F3C4FF" stop-opacity=".18" offset="1"/>
    </radialGradient>
    <linearGradient id="paint4_linear_5_2824" x1="79" x2="161.2" y1="24.81" y2="201.1" gradientUnits="userSpaceOnUse">
      <stop stop-color="#B068A8" offset="0"/>
      <stop stop-color="#923699" offset=".3229"/>
      <stop stop-color="#A02A9A" offset=".6406"/>
      <stop stop-color="#5E1794" offset="1"/>
    </linearGradient>
    <linearGradient id="paint5_linear_5_2824" x1="126.1" x2="160.7" y1="24.84" y2="109.5" gradientUnits="userSpaceOnUse">
      <stop stop-color="#B487B9" offset="0"/>
      <stop stop-color="#A069A4" offset="1"/>
    </linearGradient>
    <linearGradient id="paint6_linear_5_2824" x1="142.1" x2="169.2" y1="33.53" y2="72.01" gradientUnits="userSpaceOnUse">
      <stop stop-color="#9B649F" offset="0"/>
      <stop stop-color="#936199" offset="1"/>
    </linearGradient>
    <linearGradient id="paint7_linear_5_2824" x1="193.1" x2="208.4" y1="79.73" y2="140.4" gradientUnits="userSpaceOnUse">
      <stop stop-color="#7D2782" offset="0"/>
      <stop stop-color="#5A2484" offset=".6823"/>
      <stop stop-color="#4A1E71" offset="1"/>
    </linearGradient>
    <linearGradient id="paint8_linear_5_2824" x1="142.8" x2="163.5" y1="124.7" y2="180.8" gradientUnits="userSpaceOnUse">
      <stop stop-color="#7236A1" offset="0"/>
      <stop stop-color="#A74AC4" offset=".5156"/>
      <stop stop-color="#D064E0" offset="1"/>
    </linearGradient>
    <linearGradient id="paint9_linear_5_2824" x1="178.3" x2="187.7" y1="114" y2="168.8" gradientUnits="userSpaceOnUse">
      <stop stop-color="#6B1885" offset="0"/>
      <stop stop-color="#9136B6" offset=".5104"/>
      <stop stop-color="#6A2596" offset="1"/>
    </linearGradient>
    <linearGradient id="paint10_linear_5_2824" x1="116.8" x2="121.2" y1="140.4" y2="207.4" gradientUnits="userSpaceOnUse">
      <stop stop-color="#99259D" offset="0"/>
      <stop stop-color="#862799" offset=".4948"/>
      <stop stop-color="#5E2695" offset=".8281"/>
      <stop stop-color="#51258F" offset="1"/>
    </linearGradient>
    <linearGradient id="paint11_linear_5_2824" x1="63.88" x2="72.97" y1="81.37" y2="122.2" gradientUnits="userSpaceOnUse">
      <stop stop-color="#B053B0" offset="0"/>
      <stop stop-color="#9E3B9E" offset=".4948"/>
      <stop stop-color="#822D8A" offset=".8281"/>
      <stop stop-color="#74267F" offset="1"/>
    </linearGradient>
    <linearGradient id="paint12_linear_5_2824" x1="91.12" x2="96.15" y1="40.07" y2="70.14" gradientUnits="userSpaceOnUse">
      <stop stop-color="#C585CC" offset="0"/>
      <stop stop-color="#D080D3" offset="1"/>
    </linearGradient>
    <linearGradient id="paint13_linear_5_2824" x1="60.1" x2="66.14" y1="80.05" y2="115.4" gradientUnits="userSpaceOnUse">
      <stop stop-color="#802780" offset="0"/>
      <stop stop-color="#6D257A" offset=".4948"/>
      <stop stop-color="#54216D" offset=".8281"/>
      <stop stop-color="#481D66" offset="1"/>
    </linearGradient>
    <linearGradient id="paint14_linear_5_2824" x1="42.53" x2="42.53" y1="84.12" y2="168.9" gradientUnits="userSpaceOnUse">
      <stop stop-color="#511A68" offset="0"/>
      <stop stop-color="#592072" offset=".4948"/>
      <stop stop-color="#45195D" offset=".8281"/>
      <stop stop-color="#38144F" offset="1"/>
    </linearGradient>
    <linearGradient id="paint15_linear_5_2824" x1="56.29" x2="56.29" y1="127" y2="189.8" gradientUnits="userSpaceOnUse">
      <stop stop-color="#52186E" offset="0"/>
      <stop stop-color="#50176B" offset=".4948"/>
      <stop stop-color="#391253" offset=".8281"/>
      <stop stop-color="#2D0E45" offset="1"/>
    </linearGradient>
    <linearGradient id="paint16_linear_5_2824" x1="72.72" x2="72.72" y1="173.2" y2="207.7" gradientUnits="userSpaceOnUse">
      <stop stop-color="#B03699" offset="0"/>
      <stop stop-color="#90308A" offset=".4948"/>
      <stop stop-color="#702878" offset=".8281"/>
      <stop stop-color="#61246F" offset="1"/>
    </linearGradient>
    <linearGradient id="paint17_linear_5_2824" x1="124" x2="124" y1="198.3" y2="218.3" gradientUnits="userSpaceOnUse">
      <stop stop-color="#511971" offset="0"/>
      <stop stop-color="#55207A" offset=".4948"/>
      <stop stop-color="#582480" offset=".8281"/>
      <stop stop-color="#592581" offset="1"/>
    </linearGradient>
    <linearGradient id="paint18_linear_5_2824" x1="121.1" x2="135.9" y1="53.62" y2="135.5" gradientUnits="userSpaceOnUse">
      <stop stop-color="#803681" offset="0"/>
      <stop stop-color="#9D3696" offset=".4948"/>
      <stop stop-color="#A73699" offset=".8281"/>
      <stop stop-color="#B03699" offset="1"/>
    </linearGradient>
    <linearGradient id="paint19_linear_5_2824" x1="144.2" x2="156.6" y1="51.12" y2="79.82" gradientUnits="userSpaceOnUse">
      <stop stop-color="#804481" offset="0"/>
      <stop stop-color="#803679" offset=".4948"/>
      <stop stop-color="#703071" offset=".8281"/>
      <stop stop-color="#662C6D" offset="1"/>
    </linearGradient>
  </defs>
</svg>