<svg xmlns="http://www.w3.org/2000/svg" width="228" height="228" fill="none" viewBox="0 0 228 228">
<!-- SVG created with Arrow, by QuiverAI (https://quiver.ai) -->
  <path d="m113.8 227.9c62.8 0 113.6-50.53 113.6-113.9 0-63.41-50.79-113.9-113.6-113.9-62.81 0-113.6 50.53-113.6 113.9 0 63.4 50.79 113.9 113.6 113.9z" fill="url(#paint0_radial_1_23772)"/>
  <path d="m112.8 12.79c-54.59 0-99.92 45.66-99.92 100.7 0 55.07 45.33 99.87 99.92 99.87 55.4 0 101.8-44.8 101.8-99.87 0-55.06-45.36-100.7-101.8-100.7z" fill="url(#paint1_linear_1_23772)"/>
  <path d="m112.8 16.08c-52.24 0-95.43 44.52-95.43 97.43 0 53.2 43.53 96.28 95.43 96.28 53.22 0 97.32-43.77 97.32-96.28 0-52.91-42.89-97.43-97.32-97.43z" fill="url(#paint2_linear_1_23772)"/>
  <path d="m113.7 17.35c-48.02 0-89.87 41.73-89.87 90.66 0 49.32 42.42 89.8 89.87 89.8 48.72 0 90.23-41.41 90.23-89.82 0-48.91-41.01-90.64-90.23-90.64z" fill="url(#paint3_radial_1_23772)"/>
  <path d="m112.8 23.45c-38.75 0-65.5 28.16-65.5 51.98s25.39 41.38 25.39 41.38 7.81 27.02 28.83 31.23c21.03 4.2 12.08 1.69 12.08 1.69s7.4-9.44 18.68-12.54c8.23-0.88 12.67 2.04 17.7 0s13-8.08 14.87-12.47c3.19-7.91-0.48-16.27-0.48-16.27s14.93-16.26 14.93-35.34c0-24.18-24.13-49.66-66.5-49.66z" fill="url(#paint4_linear_1_23772)"/>
  <path d="m115.7 36.16c-17.95 0-25.09 1.81-25.09 1.81s10.54-0.79 12.41 10.97c0.65 4.19 15.58 9.87 17.29 9.42-8.23 0-19.77 11.55-19.07 17.07 0.62 4.83 3.88 5.95 3.88 5.95s9.79-6.65 22.62-7.41c10.3-0.64 25.03 8.49 28.98 10.88 6.07 3.51 18.43 4.24 20.02-2.16 2.12-8.88-13.61-29.96-18.9-33.75-8.68-6.15-18.9-11.53-30.64-9.85-4.02 0.57-11.5-2.93-11.5-2.93z" fill="url(#paint5_linear_1_23772)"/>
  <path d="m176 56.13c3.73 5.95 11.96 6.63 15.91 12.41 8.81 13.01 11.79 37.42 4.12 51.62-0.66-15.34-7.1-36.75-17.05-42.06 5.42 9.36-2.59 15.27-2.59 15.27 6.68 2.74 12.66 9.74 12.55 25.42-0.14 20.05-7.16 40.22-14.01 51.18 12.1-8.25 21.1-23.61 23.27-35.15 5.03-26.21-5.67-58.11-22.2-78.69z" fill="url(#paint6_linear_1_23772)"/>
  <path d="m48.78 79.11c-10.97 5.17-18.49 23.8-20.36 36.69-1.43 13.24 10.59 34.19 26.36 44.41-2.77-3.12-4.48-5.16-5.36-8.29 2.22 2.79 7.29 10.09 11.49 6.89-8.95-5.72-20.69-18.59-20.16-29.55 0.53-9.51 2.97-19.18 6.23-23.21 1.79 4.11 5.79 7.84 5.79 7.84-1.06-11.83 1.54-23.84 8.84-32.85-5.6-1.93-7.3-3.01-12.83-1.93z" fill="url(#paint7_linear_1_23772)"/>
  <path d="m157.8 67.78c8.23 2.92 18.02 5.2 19.89 21.45-6.07-9.01-16.45-16.17-19.89-21.45z" fill="url(#paint8_linear_1_23772)"/>
  <path d="m131.6 62.76c4.54-1.42 10.61 1.85 13.26 10.37 1.25 4.35 10.11 7.02 12.88 13.78-6.07-2.43-20.08-10.63-22.92-10.63 2.69-1.95 4.39-2.1 5.58-2.1-2.56-1.5-8.8-3.09-8.8-11.42z" fill="url(#paint9_linear_1_23772)"/>
  <path d="m95.61 66.83c-6.13 2.28-8.2 8.04-6.9 13.79 2.38-2.91 6.5-9.92 6.9-13.79z" fill="url(#paint10_linear_1_23772)"/>
  <path d="m171.6 103.3c3.4 4.39 4.89 7.68 3.8 14.76-1.25 8.6-2.2 19.72-8.7 24.74 3.4-8.76 2.21-11.19 2.21-11.19-2.3 10.29-11.41 21.6-20.64 26.43-2.21-2.92-1.6-7.83 0.27-10.88-4.7 0.88-7.54 2.98-9.92 2.98-1.87-2.74-1.07-11.04-9.62-12.09 5.03-0.81 6.9-1.75 7.7-3.16-2.5-7.58-9.4-13.79-16-12.09-7.49 2.04-6.94 11.32-1.91 14.52 2.21 1.41 7.65 0.27 9.36-0.61-5.11 3.07-11.67 11.17-18.1 12.06-8.23 1.05-17.37-2-21.09-5.27 3.19 5.35 9.26 9.6 14.29 10.65 5.79 1.3 8.98 2.72 8.98 2.72-3.95 4.91-11.62 7.06-19.11 4.14-3.44-1.34-5.31-2.82-5.31-2.82 2.21 4.11 5.94 6.54 5.94 6.54-12.1-0.47-19.35-5.85-22.75-12.53-0.34-4.2 0.2-5.2-1.67-8.04-2.33-1.81-5.93-3.33-4.22-5.36 3.28-2.75-0.24-10.17-4.86-9.62-5.53 0.95-6.5 9.55-2.55 15.92 4.7 7.83 11.32 21.8 28.46 31.55-14.01-2.04-22.02-2.6-33.76-10.5 4.12 6.29 13.91 10.9 16.19 12.95 0.88 9.8 8.55 14.9 18.11 16.86 8.23 1.74 17.09-0.76 21.61-2.03-5.93-1.49-23.5-6.85-35.24-14.27 9.93 3 24.76 10.08 37.71 15.46 7.25 3.21 12.28 4.88 19.3 2.58 16.87-5.65 38.73-20.41 47.1-35.6 2.65-4.65 4.02-12.55 0-14.14-3.35-0.8-7.68 0.69-10.97 2.97-7.49 4.91-15.92 20.02-32.26 26.12-12.67 4.85-30.55 3.8-35.25 1.98 10.45-0.4 21.26-3.38 21.4-6.3 0.14-3.43-10.3-3.43-19.86-5.78 8.23 0 20.36-0.95 26.43-3.95 6.73-3.33 11.68-6.84 13.2-7.8 2.5 2.74 3.38 5.74 3.38 5.74 8.46-3.33 22.12-15.23 24.89-22.31 4.78-11.47 6.21-22.6 3.46-35.33z" fill="url(#paint11_linear_1_23772)"/>
  <path d="m73.96 79.5c-6.82 9.18-9.88 19.47-3.88 21.06 5.79 1.66 6.98 0.7 13.05-6.72-7.09 14.13-11.38 26.88-0.41 39.87 3.4 3.9 7.06 7.57 10.25 9.07-9.4-9.07-12.8-17.52-8.6-32.77 3.4-12.58 10.65-22.38 15.26-26.6-10.22 0-8.01-10.2-6.14-13.19-3.8 2.12-5.32 7.61-6.12 10.04-2.21-2.59-5.13-3.98-13.41-0.76z" fill="url(#paint12_linear_1_23772)"/>
  <path d="m145.9 94.48c3.19 6.44 4.66 12.94 3.61 19.53-0.8 5.15-5.75 5.82-9.48 5.82 0.88 4.91 7.03 8.28 11.18 5.28 5.71-3.92 5.15-14.29 2.5-22.36-1.79-4.14-6.25-6.72-7.81-8.27z" fill="url(#paint13_linear_1_23772)"/>
  <path d="m183.9 112c2.14 4.7 1.51 13.03 0 17.07-0.98-4.12-1.93-7.04-1.93-7.04 0.95-4.46 0.95-6.27 1.93-10.03z" fill="url(#paint14_linear_1_23772)"/>
  <path d="m130.2 127.8c-3.6-3.25-8.12-2.92-10.89-0.16-2.06 2.04-2.06 5.96-0.63 5.96 1.59 0 1.92-3.92 6.62-3.45 3.4 0.35 3.93 3.69 3.93 3.69l3.4-1.49s-0.23-2.51-2.43-4.55z" fill="url(#paint15_linear_1_23772)"/>
  <path d="m67.01 145.7c-0.34 3.35 2.85 6.02 5.61 6.81 1.59-3.26-0.35-7.41-5.61-6.81z" fill="url(#paint16_linear_1_23772)"/>
  <path d="m150.7 102.1c-1.87 0.55-2.16 3.3-0.57 3.94 1.87 0.72 2.67-2.62 0.57-3.94z" fill="url(#paint17_linear_1_23772)"/>
  <path d="m60.86 64.01c-7.14-0.72-12.09 8.49-9.75 13.4 1.87 0.88 6.49 0.81 8.08 1.28 2.42-5.28 6.88-9.66 8.76-11.54-1.88-1.42-2.21-2.74-7.09-3.14z" fill="url(#paint18_linear_1_23772)"/>
  <path d="m85.09 34.96c-10.18 0-22.08 10.12-22.78 18.25-0.47 5.28 3.16 8.13 6.2 7.88 10.18-0.71 21.15-9.55 24.5-16.31 1.06-4.77-1.59-9.82-7.92-9.82z" fill="#FEFFFE"/>
  <defs>
    <radialGradient id="paint0_radial_1_23772" cx="0" cy="0" r="1" gradientTransform="translate(113.8 113.9) scale(113.6 113.9)" gradientUnits="userSpaceOnUse">
      <stop stop-color="#FDE09B" offset="0"/>
      <stop stop-color="#F4791A" stop-opacity=".82" offset=".474"/>
      <stop stop-color="#FDE09B" stop-opacity=".18" offset="1"/>
    </radialGradient>
    <linearGradient id="paint1_linear_1_23772" x1="113.8" x2="113.8" y1="12.79" y2="213.4" gradientUnits="userSpaceOnUse">
      <stop stop-color="#8F3900" offset="0"/>
      <stop stop-color="#540A02" offset="1"/>
    </linearGradient>
    <linearGradient id="paint2_linear_1_23772" x1="113.8" x2="113.8" y1="16.08" y2="209.8" gradientUnits="userSpaceOnUse">
      <stop stop-color="#F89B32" offset="0"/>
      <stop stop-color="#FDC351" offset=".276"/>
      <stop stop-color="#A73A13" offset=".6406"/>
      <stop stop-color="#C85C30" offset="1"/>
    </linearGradient>
    <radialGradient id="paint3_radial_1_23772" cx="0" cy="0" r="1" gradientTransform="translate(113.9 107.6) scale(97.63 97.92)" gradientUnits="userSpaceOnUse">
      <stop stop-color="#F6931D" offset="0"/>
      <stop stop-color="#B83001" stop-opacity=".76" offset=".5364"/>
      <stop stop-color="#B03810" stop-opacity=".29" offset="1"/>
    </radialGradient>
    <linearGradient id="paint4_linear_1_23772" x1="110.9" x2="110.9" y1="23.45" y2="149.7" gradientUnits="userSpaceOnUse">
      <stop stop-color="#F0B49A" offset="0"/>
      <stop stop-color="#F0B49A" stop-opacity=".12" offset="1"/>
    </linearGradient>
    <linearGradient id="paint5_linear_1_23772" x1="129.3" x2="129.3" y1="36.16" y2="84.98" gradientUnits="userSpaceOnUse">
      <stop stop-color="#B85030" offset="0"/>
      <stop stop-color="#B83001" stop-opacity=".63" offset="1"/>
    </linearGradient>
    <linearGradient id="paint6_linear_1_23772" x1="187.2" x2="187.2" y1="56.13" y2="170" gradientUnits="userSpaceOnUse">
      <stop stop-color="#892002" offset="0"/>
      <stop stop-color="#B83810" stop-opacity=".41" offset="1"/>
    </linearGradient>
    <linearGradient id="paint7_linear_1_23772" x1="45.61" x2="45.61" y1="78.56" y2="160.2" gradientUnits="userSpaceOnUse">
      <stop stop-color="#F37021" offset="0"/>
      <stop stop-color="#A60800" stop-opacity=".78" offset="1"/>
    </linearGradient>
    <linearGradient id="paint8_linear_1_23772" x1="167.7" x2="167.7" y1="67.78" y2="89.48" gradientUnits="userSpaceOnUse">
      <stop stop-color="#B84210" offset="0"/>
      <stop stop-color="#B83810" stop-opacity=".29" offset="1"/>
    </linearGradient>
    <linearGradient id="paint9_linear_1_23772" x1="144.7" x2="144.7" y1="62.22" y2="86.91" gradientUnits="userSpaceOnUse">
      <stop stop-color="#F6984F" offset="0"/>
      <stop stop-color="#FFC845" offset="1"/>
    </linearGradient>
    <linearGradient id="paint10_linear_1_23772" x1="91.66" x2="91.66" y1="66.83" y2="80.62" gradientUnits="userSpaceOnUse">
      <stop stop-color="#F6984F" offset="0"/>
      <stop stop-color="#FFC845" offset="1"/>
    </linearGradient>
    <linearGradient id="paint11_linear_1_23772" x1="115.9" x2="115.9" y1="103.3" y2="197.8" gradientUnits="userSpaceOnUse">
      <stop stop-color="#F37021" offset="0"/>
      <stop stop-color="#A60800" stop-opacity=".78" offset="1"/>
    </linearGradient>
    <linearGradient id="paint12_linear_1_23772" x1="85.37" x2="85.37" y1="77.67" y2="142.8" gradientUnits="userSpaceOnUse">
      <stop stop-color="#FFEF96" offset="0"/>
      <stop stop-color="#F69200" offset=".5104"/>
      <stop stop-color="#A60800" stop-opacity=".43" offset="1"/>
    </linearGradient>
    <linearGradient id="paint13_linear_1_23772" x1="147.7" x2="147.7" y1="94.48" y2="126.7" gradientUnits="userSpaceOnUse">
      <stop stop-color="#F69200" offset="0"/>
      <stop stop-color="#A60800" stop-opacity=".43" offset="1"/>
    </linearGradient>
    <linearGradient id="paint14_linear_1_23772" x1="183.8" x2="183.8" y1="112" y2="129.1" gradientUnits="userSpaceOnUse">
      <stop stop-color="#FFEF96" offset="0"/>
      <stop stop-color="#F69200" offset=".5104"/>
      <stop stop-color="#A60800" stop-opacity=".43" offset="1"/>
    </linearGradient>
    <linearGradient id="paint15_linear_1_23772" x1="125" x2="125" y1="125.3" y2="133.9" gradientUnits="userSpaceOnUse">
      <stop stop-color="#FEF69A" offset="0"/>
      <stop stop-color="#FEF69A" stop-opacity=".21" offset="1"/>
    </linearGradient>
    <linearGradient id="paint16_linear_1_23772" x1="69.7" x2="69.7" y1="145.6" y2="152.5" gradientUnits="userSpaceOnUse">
      <stop stop-color="#FEF69A" offset="0"/>
      <stop stop-color="#FEF69A" stop-opacity=".21" offset="1"/>
    </linearGradient>
    <linearGradient id="paint17_linear_1_23772" x1="150.2" x2="150.2" y1="102.1" y2="106.3" gradientUnits="userSpaceOnUse">
      <stop stop-color="#FEF69A" offset="0"/>
      <stop stop-color="#FEF69A" stop-opacity=".21" offset="1"/>
    </linearGradient>
    <linearGradient id="paint18_linear_1_23772" x1="57.81" x2="57.81" y1="63.91" y2="78.91" gradientUnits="userSpaceOnUse">
      <stop stop-color="#FEF69A" offset="0"/>
      <stop stop-color="#FEF69A" stop-opacity=".21" offset="1"/>
    </linearGradient>
  </defs>
</svg>