<svg xmlns="http://www.w3.org/2000/svg" width="250" height="250" fill="none" viewBox="0 0 250 250">
<!-- SVG created with Arrow, by QuiverAI (https://quiver.ai) -->
  <path d="m125.1 230.3c30.84 0 55.88-25.27 55.88-56.38 0-31.1-25.04-56.37-55.88-56.37-30.83 0-55.87 25.27-55.87 56.37 0 31.11 25.04 56.38 55.87 56.38z" fill="url(#paint0_radial_2344_32485)"/>
  <path d="m124.9 121.7c37.18 0 67.19-30.25 67.19-67.75 0-37.49-30.01-36.97-67.19-36.97s-67.19-0.52-67.19 36.97c0 37.5 30.01 67.75 67.19 67.75z" fill="url(#paint1_radial_2344_32485)"/>
  <path d="m213 83.18c-6.01-12.55-16.74-14.72-25.11-13.17 0.81-6.03 1.06-10.98-0.07-16-3.06-13.97-35.55-15.89-62.43-15.72-26.87-0.17-59.36 1.75-62.42 15.72-1.02 4.62-0.58 9.2 0.12 14.6-8.43-1.6-19.83 0.41-26.12 12.42-7.09 13.65-2.59 35.19 14.88 48.27 6.93 5.19 12.12 8.24 16.44 10.71-1.38 3.07-2.14 7 0.18 11.02 3.48 6.1 10.5 7.35 16.18 5.28 3.2-1.17 4.68-3.13 5.65-5.06 4.77 4.26 9.9 7.32 14.21 9.1-0.27 5.9 2.65 9.67 6.95 11.73-1.26 6.88-3.5 10.2-8.31 12.35-9.75 1.72-13.96 9.48-14.74 16.79-0.77 7.31 3.89 11.54 33.08 12.49l3.11 0.02 3.12-0.02c29.19-0.95 34.06-5.18 33.29-12.49s-5.24-15.07-14.99-16.79c-4.45-1.96-6.3-4.99-7.23-12.11 4.41-2.04 7.43-5.85 7.3-11.56 4.08-1.88 8.86-4.95 13.59-9.39 1.01 1.87 2.51 3.75 5.63 4.94 5.68 2.07 12.7 0.82 16.18-5.28 2.15-3.75 1.58-7.44 0.37-10.4 4.51-2.87 9.83-5.86 15.98-10.81 12.07-9.86 22.06-32.11 15.16-46.64zm-155 27.41c-7.13-7.93-8.02-16.9-5.1-21.06 3.2-4.05 8.16-2.56 11.85 0.09l5.66 31.25c-3.24-1.8-7.51-4.84-12.41-10.28zm121.7 9.5 5.92-31.1c3.63-2.95 7.46-2.94 9.89-0.18 3.53 4.07 2.86 15-5.68 24.44-3.66 3.94-6.87 5.83-10.13 6.84z" fill="url(#paint2_linear_2344_32485)" stroke="#823603" stroke-miterlimit="10" stroke-width="4"/>
  <path d="m185.8 73.64c7.32-2.93 18.24-0.68 23.23 10.52 5.69 12.92-1.98 30.94-14.21 40.96-7.8 6.49-13.72 9.49-19.63 13.64-2.57 1.86-2.57 4 0.35 5.76 2.58 1.49 2.58 4.6 0.72 7.18-2.58 3.68-11.12 3.86-12.98-2.41-1.21-4.05 0.64-5.44 3.57-10.02 7.8-12.74 9.98-16.02 16.63-48.96l2.32-16.67z" fill="url(#paint3_linear_2344_32485)" stroke="#F79433" stroke-miterlimit="10" stroke-width="2"/>
  <path d="m183.6 81.74c7.67-3.89 14.97-2.13 18.07 5.56 4.06 10.36-2.02 22.48-10.14 30.32-7.13 6.96-17.71 10.63-19.5 10.45l4.87-9.15c4.32-1.76 9.18-4.61 14.14-10.81 6.92-8.43 7.26-17.2 3.57-20.7-3.53-3.32-8.49-1.65-12.02 2.24l1.01-7.91z" fill="url(#paint4_linear_2344_32485)"/>
  <path d="m64.03 73.48c-8.21-3.07-19.47-0.44-24.09 10.15-6.22 14.28 1.9 31.98 15.5 42.98 6.8 5.7 11.49 8.31 17.17 11.8 3.2 2.05 3.61 3.68 0.69 5.61-2.93 1.93-2.89 5.27-0.65 8.03 3.96 4.84 12.5 2.98 14.27-2.21 1.13-3.49-0.64-4.18-4.01-9.65-7.3-12.03-8.2-14.27-15.23-51.03l-3.65-15.68z" fill="url(#paint5_linear_2344_32485)" stroke="#F79433" stroke-miterlimit="10" stroke-width="2"/>
  <path d="m109.1 159.2c-0.85 6.6 3.05 11.49 15.19 11.31 12.54-0.19 17.14-3.6 17.14-12.35l-3.66 0.53-12.14 2.33-13.48-2.33-3.05 0.51z" fill="url(#paint6_linear_2344_32485)" stroke="#843502" stroke-miterlimit="10" stroke-width="3"/>
  <path d="m106.6 186.1c-0.93 1.59-1.23 3.35 1.45 4.64 5.32 2.57 20.14 2.97 29.39 0 4.21-1.34 6.51-3.31 4.34-5.03-5.69-3.68-6.46-8.73-6.54-15.27l-8.99 1.14-10.17-1.14c0.17 6.71-2.71 11.77-9.48 15.66z" fill="url(#paint7_linear_2344_32485)" stroke="#843502" stroke-miterlimit="10" stroke-width="3"/>
  <path d="m91.19 201.1c0.77-7.16 5.43-13.26 12.82-13.9 0.6 1.5 0.47 2.84 3.31 4.18 6.86 3.23 22.12 2.78 30.42 0 3.69-1.25 4.33-2.33 4.78-4.27 8.82 0.96 14.29 5.53 15.42 14.08 0.85 5.91-4.93 9.4-31.81 9.49-24.35-0.09-35.71-3.23-34.94-9.58z" fill="url(#paint8_linear_2344_32485)" stroke="#843502" stroke-miterlimit="10" stroke-width="4"/>
  <path d="m124.2 41.15c-25.92 0-59.88 4.46-59.44 16.86 0.26 7.42 1.86 16.75 3.95 30.16 4.73 29.85 10.15 73.54 53.93 73.54h1.34c34.73 0 51.83-30.45 56.88-61.7 2.93-17.9 4.86-29.05 3.62-42.93-1.13-11.81-29.74-15.93-60.28-15.93z" fill="url(#paint9_linear_2344_32485)" stroke="#A54911" stroke-miterlimit="10" stroke-width="3"/>
  <path d="m124.8 40.71c-29.1 0-59.97 5.67-59.97 17.11 0 9.34 22.82 15.01 58.92 15.01 29.96 0 60.55-6.78 60.55-15.54 0-8.93-24.6-16.58-59.5-16.58z" fill="url(#paint10_linear_2344_32485)"/>
  <path d="m124.7 47.12c-24.95 0-49.89 4.24-49.89 8.79 0 5.33 17.31 9.13 49.06 9.13 23.9 0 49.78-3.53 49.78-9.39 0-4.84-22.95-8.53-48.95-8.53z" fill="url(#paint11_linear_2344_32485)" stroke="#913907" stroke-miterlimit="10" stroke-width="3"/>
  <path d="m146.4 67.32c3.37-1.84 7.64-1.71 9.88-0.21 2.5 1.6-0.71 3.85-5.02 3.94-4.95 0.09-7.53-2.34-4.86-3.73z" fill="#fff"/>
  <path d="m168.8 68.11 7.3 0.85-4.51 7.05c-4.31 27.8-7.65 60.25-33.49 67.75-17.64 5.58-33.24-3.75-42.49-15.1-10.3-12.92-14.61-31.49-17.54-56.25l-4.87-5.3c7.8 5.04 20.6 7.61 47.21 7.7 19.65 0.08 37.15-2.07 40.89-4.55 1.59-1.04 4.52-1.89 7.5-2.15z" fill="url(#paint12_linear_2344_32485)" opacity=".3"/>
  <path d="m121.6 85.22-6.76 10.72-10.92 2.42c-4.13 0.97-4.08 5.56-0.72 8.96l7.01 7.41-1.86 10.36c-0.85 4.75 1.39 6.82 5.61 4.66l10.68-5.33 11.17 5.59c3.95 2.06 5.54-1.09 4.51-6.85l-1.47-8.43 8.12-8.77c3.05-3.33 1.8-6.2-2.16-7.15l-11.26-2.15-5.68-10.84c-1.38-2.24-4.58-3-6.27-0.6z" fill="url(#paint13_linear_2344_32485)" stroke="#913907" stroke-miterlimit="10" stroke-width="3"/>
  <path d="m123.9 86.08-6.86 12.37-12.14 2.47c-2.33 0.49-2.68 1.83-0.6 3.89l8.44 8.53 11.7-5.58 21.13-5.86c2.24-0.76 1.9-2.01-0.9-2.58l-13.03-2.24-5.5-10.34c-0.65-1.16-1.67-1.65-2.24-0.66z" fill="url(#paint14_linear_2344_32485)"/>
  <path d="m90.52 124.2c2.28 0 2.82-1.47 2.59-3.2-0.34-2.24-1.87-2.41-2.81-2.24-1.86 0.34-2.39 1.58-2.04 3.35 0.26 1.25 1.12 2.09 2.26 2.09z" fill="#FFEC99"/>
  <path d="m98.11 193.6c6 4.14 14.08 5.09 25.17 5.09 10.3 0 19.46-1.59 26.13-3.83 2.85-0.61 4.4 2.33 4.84 7.37-7.38 3.89-16.08 3.97-28.13 3.89-11.09-0.17-22.49-0.26-30.94-3.93 0.35-3.33 1.28-6.73 2.93-8.59z" fill="url(#paint15_linear_2344_32485)"/>
  <defs>
    <radialGradient id="paint0_radial_2344_32485" cx="0" cy="0" r="1" gradientTransform="translate(124.9 173.9) scale(48.82 49.24)" gradientUnits="userSpaceOnUse">
      <stop stop-color="#F79433" offset="0"/>
      <stop stop-color="#F79635" stop-opacity=".6826" offset=".3207"/>
      <stop stop-color="#F89E3B" stop-opacity=".547" offset=".4971"/>
      <stop stop-color="#F9A945" stop-opacity=".4355" offset=".6408"/>
      <stop stop-color="#FBBB54" stop-opacity=".3386" offset=".7665"/>
      <stop stop-color="#FFD36A" stop-opacity=".2507" offset=".8801"/>
      <stop stop-color="#FFEF84" stop-opacity=".1714" offset=".984"/>
      <stop stop-color="#FFF68A" stop-opacity=".15" offset="1"/>
    </radialGradient>
    <radialGradient id="paint1_radial_2344_32485" cx="0" cy="0" r="1" gradientTransform="translate(125.1 56) scale(59.21 59.73)" gradientUnits="userSpaceOnUse">
      <stop stop-color="#F79433" offset="0"/>
      <stop stop-color="#F79635" stop-opacity=".6826" offset=".3207"/>
      <stop stop-color="#F89E3B" stop-opacity=".547" offset=".4971"/>
      <stop stop-color="#F9A945" stop-opacity=".4355" offset=".6408"/>
      <stop stop-color="#FBBB54" stop-opacity=".3386" offset=".7665"/>
      <stop stop-color="#FFD36A" stop-opacity=".2507" offset=".8801"/>
      <stop stop-color="#FFEF84" stop-opacity=".1714" offset=".984"/>
      <stop stop-color="#FFF68A" stop-opacity=".15" offset="1"/>
    </radialGradient>
    <linearGradient id="paint2_linear_2344_32485" x1="33.77" x2="214.9" y1="125.9" y2="125.9" gradientUnits="userSpaceOnUse">
      <stop stop-color="#F37021" offset="0"/>
      <stop stop-color="#FFD451" offset=".6091"/>
      <stop stop-color="#F15A22" offset="1"/>
    </linearGradient>
    <linearGradient id="paint3_linear_2344_32485" x1="176" x2="208.8" y1="112.2" y2="101.9" gradientUnits="userSpaceOnUse">
      <stop stop-color="#E0681A" offset="0"/>
      <stop stop-color="#FFD451" offset=".6091"/>
      <stop stop-color="#FFF68A" offset="1"/>
    </linearGradient>
    <linearGradient id="paint4_linear_2344_32485" x1="184.8" x2="199.1" y1="105.5" y2="96.06" gradientUnits="userSpaceOnUse">
      <stop stop-color="#E0681A" offset="0"/>
      <stop stop-color="#FFD451" offset=".6091"/>
      <stop stop-color="#FFF68A" offset="1"/>
    </linearGradient>
    <linearGradient id="paint5_linear_2344_32485" x1="63.98" x2="43.24" y1="110.1" y2="100.8" gradientUnits="userSpaceOnUse">
      <stop stop-color="#E0681A" offset="0"/>
      <stop stop-color="#FFD451" offset=".6091"/>
      <stop stop-color="#FFF68A" offset="1"/>
    </linearGradient>
    <linearGradient id="paint6_linear_2344_32485" x1="125.3" x2="125.3" y1="157.6" y2="169.9" gradientUnits="userSpaceOnUse">
      <stop stop-color="#D35A18" offset="0"/>
      <stop stop-color="#FFD451" offset=".6091"/>
      <stop stop-color="#F15A22" offset="1"/>
    </linearGradient>
    <linearGradient id="paint7_linear_2344_32485" x1="125.5" x2="125.5" y1="172.9" y2="192" gradientUnits="userSpaceOnUse">
      <stop stop-color="#D35A18" offset="0"/>
      <stop stop-color="#FFD451" offset=".6091"/>
      <stop stop-color="#F15A22" offset="1"/>
    </linearGradient>
    <linearGradient id="paint8_linear_2344_32485" x1="124.6" x2="124.6" y1="187.1" y2="210.7" gradientUnits="userSpaceOnUse">
      <stop stop-color="#D35A18" offset="0"/>
      <stop stop-color="#FFD451" offset=".6091"/>
      <stop stop-color="#F15A22" offset="1"/>
    </linearGradient>
    <linearGradient id="paint9_linear_2344_32485" x1="124" x2="124" y1="42.19" y2="161.7" gradientUnits="userSpaceOnUse">
      <stop stop-color="#FFF68A" offset="0"/>
      <stop stop-color="#FFD451" offset=".3909"/>
      <stop stop-color="#F15A22" offset="1"/>
    </linearGradient>
    <linearGradient id="paint10_linear_2344_32485" x1="64.84" x2="184.3" y1="56.77" y2="56.77" gradientUnits="userSpaceOnUse">
      <stop stop-color="#FFF68A" offset="0"/>
      <stop stop-color="#FFFCB2" offset=".3909"/>
      <stop stop-color="#FFF68A" offset="1"/>
    </linearGradient>
    <linearGradient id="paint11_linear_2344_32485" x1="74.83" x2="173.7" y1="56.08" y2="56.08" gradientUnits="userSpaceOnUse">
      <stop stop-color="#D35A18" offset="0"/>
      <stop stop-color="#D37228" offset=".6091"/>
      <stop stop-color="#D16320" offset="1"/>
    </linearGradient>
    <linearGradient id="paint12_linear_2344_32485" x1="123.6" x2="123.6" y1="68.09" y2="146.1" gradientUnits="userSpaceOnUse">
      <stop stop-color="#FFF68A" offset="0"/>
      <stop stop-color="#FFFCB2" offset=".3909"/>
      <stop stop-color="#FFF68A" stop-opacity=".15" offset="1"/>
    </linearGradient>
    <linearGradient id="paint13_linear_2344_32485" x1="124.6" x2="124.6" y1="83.37" y2="130.8" gradientUnits="userSpaceOnUse">
      <stop stop-color="#F79433" offset="0"/>
      <stop stop-color="#FFD451" offset=".6091"/>
      <stop stop-color="#F15A22" offset="1"/>
    </linearGradient>
    <linearGradient id="paint14_linear_2344_32485" x1="125" x2="125" y1="85.41" y2="113.3" gradientUnits="userSpaceOnUse">
      <stop stop-color="#ffc" offset="0"/>
      <stop stop-color="#ff9" offset="1"/>
    </linearGradient>
    <linearGradient id="paint15_linear_2344_32485" x1="124.7" x2="124.7" y1="193.5" y2="206.2" gradientUnits="userSpaceOnUse">
      <stop stop-color="#FFF68A" offset="0"/>
      <stop stop-color="#FFF9BD" offset=".3909"/>
      <stop stop-color="#FFF68A" offset="1"/>
    </linearGradient>
  </defs>
</svg>