<svg xmlns="http://www.w3.org/2000/svg" width="250" height="250" fill="none" viewBox="0 0 250 250">
<!-- SVG created with Arrow, by QuiverAI (https://quiver.ai) -->
  <path d="m124.7 35c-4.39 0-9.73 0.41-9.73 0.41-7.15 0-7.9 7.51-8.97 12.13l-1.2 5.25c-6.22 1.67-9.94 3.54-15.73 6.54l-7.89-5.93c-1.81-1.01-3.2-1.33-5.31-1.33-4.35 0-7.22 2.89-9.87 5.61-3 3.08-8.54 8.43-10.72 12.14-4.22 7.3-0.11 10.76 5.13 19.12-3.16 5.44-4.5 9.01-6.64 15.03l-10.64 2.91c-6.33 1.93-7.77 5.48-8.13 12.18-0.23 4.5-0.39 10.8 0.43 15.51 1.27 7.36 6.37 7.8 17.38 10.52 1.57 5.43 3.71 10.02 6.86 15.02l-5.27 8.82c-3.2 5.71-1.7 9.13 3.35 14.52 3.15 3.39 8.19 8.61 12.25 11.58 2.5 1.85 5.68 1.65 7.7 0.9 3.3-1.27 6.6-3.15 11.07-6.75 6.07 3.23 10.03 4.8 16.57 6.65l1.87 8.65c1.71 6.59 5 8.71 11.39 8.99 4.8 0.21 10.05 0.24 15.41-0.52 7.73-1.09 8.8-6.84 10.47-16.94 6.86-2.19 10.68-3.76 16.7-7.12l7.82 5.81c5.88 3.11 10.06 1.08 15.9-4.68 3.21-3.18 7.08-6.95 9.77-11.11 2.47-3.89 1.15-7.75-0.77-10.51l-4.93-7.58c3.51-5.44 4.79-8.14 6.98-15.41l9.16-2.48c6.27-1.86 7.8-4.85 8.32-11.12 0.31-4.99-0.05-11.75-0.75-17.48-0.64-4.34-4.25-7.11-8.38-8.02l-9.15-2.34c-1.87-5.55-3.15-8.84-5.98-14.28l5.55-8.65c2.34-4.05 2.29-8.2-0.86-12.42-3.96-5.1-8.36-9.96-13.7-14.3-3.2-2.24-7.16-2.61-11.21-0.05l-7.98 5.64c-6.17-3.1-9.85-4.77-16.44-6.8l-2.24-9.93c-1.77-5.29-4.29-7.77-10.13-7.77 0 0-3.91-0.41-7.46-0.41zm-0.76 88.06 0.4 0.29-0.46-0.09 0.06-0.2z" fill="url(#paint0_linear_2616_17502)"/>
  <path d="m115.7 39.72c-5.49 0.59-5.49 4.86-7.11 11.29l-1.66 6.22c-8.13 1.72-10.65 3.24-17.9 7.14l-10.28-6.93c-2.79-1.87-4.87-1.66-8.07 0.72-4.29 3.1-8.42 8.1-11.93 12.25-2.99 3.77-1.47 6.29 1.99 11.83l4.51 6.68c-5.29 7.36-6.72 10.92-8.86 18.84l-11.43 2.87c-4.06 1.12-4.97 2.5-5.44 7.09-0.7 6.37-0.44 10.41 0.37 15.6 0.59 3.91 2.46 4.61 7.29 5.93l10.54 2.76c1.98 7.98 3.15 11.34 8.2 18.92l-6.64 10.03c-2.14 3.46-2.04 4.97 1.21 8.69 3.3 3.86 6.6 6.95 9.9 9.37 3.51 2.57 5.3 1.24 8.3-0.57l9.96-6.16c8.6 5.23 12.47 6.57 20.14 8.33l2.41 10.6c1.18 5.19 2.51 6.41 7.7 6.67 4.86 0.26 8.68 0.05 13.44-0.58 4.4-0.59 4.72-2.5 6.1-7.79l2.14-9.3c8.38-2.19 12.29-4.01 20.61-8.16l10.07 6.96c3.77 2.42 5.85 0.99 9.36-2.21 3.77-3.34 7.33-6.59 10.07-10.45 2.03-3.04 1.21-5.23-1.58-9.14l-5.79-7.21c5.55-9.04 6.47-11.23 8.5-19.88l12.12-3.24c4.25-1.18 4.56-3.15 4.87-7.16 0.36-5 0.1-8.81-0.82-14.64-0.64-3.25-2.51-3.99-6.33-4.86l-10.97-2.62c-2.14-8.93-3.57-11.89-7.96-18.82l7.05-10.75c1.87-3.09 1.27-4.66-1.07-7.76-3.5-4.49-6.8-7.84-11.09-11.23-2.14-1.57-3.9-2.04-7.25 0.05l-9.97 6.86c-7.72-4.55-12.72-6.79-20.8-8.76l-2.88-13.04c-0.92-3.51-2.5-4.43-7.1-4.69-4.44-0.31-8.83-0.21-13.92 0.25z" stroke="url(#paint1_linear_2616_17502)" stroke-linecap="round" stroke-linejoin="round" stroke-miterlimit="10" stroke-width="4.442"/>
  <path d="m123.9 182c32.04 0 57.97-27.18 57.97-58.05 0-31.56-26.62-57.38-57.97-57.38-32.09 0-56.76 26.68-56.76 55.77 0 30.71 24.67 59.66 56.76 59.66z" fill="url(#paint2_linear_2616_17502)"/>
  <path d="m123.9 178.8c29.22 0 54.24-24.9 54.24-54.21 0-30.2-24.5-54.19-54.24-54.19-30.11 0-53.35 24.9-53.35 53.13 0 29.14 23.24 55.27 53.35 55.27z" fill="url(#paint3_linear_2616_17502)" stroke="url(#paint4_linear_2616_17502)" stroke-linecap="round" stroke-linejoin="round" stroke-miterlimit="10" stroke-width="2.5"/>
  <path d="m172.8 60.11-12.37 8.65-1.33-1.57c-7.15-4.6-12.14-6.89-20.8-9.13l-3.4-13.9c-1.02-3.25-2.5-3.89-7.44-4.15-4.6-0.26-7.43-0.26-12.52 0.33-4.55 0.41-4.7 2.89-6.13 8.67l-1.77 8.32c-8.32 1.87-10.61 2.73-18.18 7.97l-11.17-7.6c-2.52-1.62-4.5-1.2-7.7 1.51-3.87 3.24-7.69 7.46-10.89 11.51-2.62 3.46-1 5.49 2.72 10.93l4.65 6.68c-5.89 7.87-7.65 12.52-8.73 20.45l-12.22 3.14c-3.61 0.97-4.42 1.77-4.94 6.11-0.76 5.88-0.56 9.59 0.31 14.64 0.64 3.86 1.87 4.07 6.82 5.45l10.54 2.99c1.87 8.14 3.59 11.8 8.84 18.9l-7.02 9.68c-2.57 3.72-2.41 5.43 0.63 8.78 3.25 3.61 5.89 6.37 9.19 8.94 3.2 2.42 4.91 1.35 8.47-1.02l9.97-6.58c8.66 5.39 12.47 7.31 21.13 9.23l2.74 11.77c1.22 4.95 2.09 5.54 7.33 5.91 5.1 0.31 8.2 0.1 12.85-0.66 4.35-0.77 4.09-2.29 5.61-8.12l1.98-8.28c8.95-2.47 12.26-4.19 20.63-8.98l11.32 7.72c3.25 1.92 4.64 0.85 8.41-2.61 3.96-3.66 6.7-6.18 9.64-10.04 2.33-3.25 0.76-5.33-2.44-9.62l-5.74-7.01c5.9-9.04 7.38-12.7 8.9-19.96l12.58-3.29c4.44-1.33 4.85-2.25 5.32-6.95 0.46-4.9 0.15-8.81-0.82-14.41-0.64-3.25-1.97-3.5-6.37-4.68l-11.33-2.76c-2.48-9.98-3.65-12.9-8.64-20.26l7.47-11.01c1.97-3.09 1.61-4.31-1.27-7.97-3.3-4.14-6.5-7.28-10.46-10.04-1.87-1.38-2.28 0.32-4.37 2.32z" fill="url(#paint5_linear_2616_17502)"/>
  <path d="m165.7 84.72 18.13-17.94c-3-3.39-4.57-5.32-7.57-7.56-1.76-1.32-2.47-1.53-5.87 0.5l-9.97 6.86-1.48-1.07c-6.69-4.15-11.98-6.29-20.36-8.53l-3.19-13.19c-0.97-3.14-3.06-3.6-7.3-3.86-4.55-0.26-7.7-0.21-12.3 0.26-4.44 0.36-4.9 2.7-6.28 8.92l-1.87 8.38c-8.66 1.92-11.45 3.35-18.59 7.64l-11.59-7.97c-2.33-1.43-4.3-0.84-7.14 1.68-4.17 3.51-7.47 6.9-10.87 11.35-2.48 3.3-1.3 5.16 2.31 10.21l5.09 7.36c-6.49 8.26-7.97 11.72-9.59 20.66l-12.89 3.14c-3.4 0.97-3.71 2.69-4.12 6.88-0.64 5.88-0.49 9.54 0.43 14.93 0.7 3.82 2.17 4.02 7.06 5.35l10.97 2.99c1.92 8.32 3.54 11.78 8.93 19.14l-7.15 10.03c-2.62 3.76-2.57 5.14 0.48 8.54 3.3 3.77 5.67 6.09 9.13 8.71 3.35 2.52 4.87 0.89 8.43-1.58l9.72-6.64c9.01 5.83 13.2 7.65 22 9.78l2.94 11.77c1.33 4.95 2.3 5.26 7.7 5.52 5.24 0.26 8.07 0.05 12.84-0.87 4.12-0.86 3.76-3.05 5.43-9.33l1.66-7.36c9.16-2.38 13.34-4.57 20.87-9.26l11.32 7.72c3.61 2.24 4.58 0.86 8.69-2.75 3.96-3.56 6.3-5.75 9.09-9.31 2.57-3.4 0.28-6.44-2.92-10.44l-5.74-7.58c6.64-10.39 7.28-13.01 8.94-20.69l12.69-3.56c4.24-1.43 4.6-2.24 5.07-7.09 0.41-4.55 0.05-8.69-0.87-13.64-0.64-2.99-2.83-3.4-7.17-4.52l-10.59-2.62c-2.25-9.66-3.97-13.66-9.36-21.58l6.12-8.99c2.03-3.09 1.92-4.21-1.07-7.61l-3.61-3.95-16.58 21.17z" fill="url(#paint6_linear_2616_17502)" fill-opacity=".58"/>
  <path d="m164.6 117.2-6.81-1.86c-1.12-3.51-2.09-6.03-4.01-9.07l4.83-7.07c0.59-1.27 0.28-2.5-0.74-3.46l-6.27-5.94c-1.48-1.27-3.2-0.96-4.77 0.11l-5.69 3.96c-2.84-1.62-5.03-2.59-7.97-3.66l-2.24-7.36c-0.52-1.47-1.54-2.05-3.12-2.05h-6.8c-2.24 0-3.11 0.81-3.75 2.79l-2.34 7.07c-3.87 0.97-5.63 1.73-8.42 3.3l-4.84-3.86c-1.67-1.27-3.33-1.16-4.77 0.51l-5.74 6.21c-1.52 1.67-1.16 2.99 0.17 4.96l3.67 5.1c-1.87 3.34-2.64 5.32-3.76 8.61l-7.34 2.14c-1.52 0.59-1.78 2.31-1.88 4.5-0.21 2.34-0.21 4.81 0.1 7.1 0.31 1.92 1.28 2.07 3.8 2.83l5.84 1.66c1.07 3.46 1.84 5.38 3.51 8.33l-3.72 5.68c-1.23 1.97-0.97 3.14 0.8 5.06l4.65 4.8c1.77 1.81 3.25 1.5 5.12 0.22l5.35-3.91c3.1 1.97 5.13 2.94 8.74 4.01l1.97 7.46c0.52 1.67 1.28 1.93 3.75 2.04h5.35c2.62 0 3.13-1.07 3.84-3.5l1.92-6.53c3.67-1.02 5.49-1.89 8.18-3.41l6.48 4.24c2.08 1.33 3.21 0.62 4.92-1.41l4.75-5.19c1.67-1.97 1.21-3.49-0.31-5.96l-2.69-4.55c1.77-3.19 2.48-4.91 3.45-8.1l7.2-2.08c1.82-0.64 2.13-2.02 2.23-4.44 0.15-2.58-0.05-4.96-0.51-7.24-0.31-1.33-0.72-1.64-2.13-2.04zm-40.3 22.74c-9.71 0-17.59-8.14-17.59-16.12 0-9.04 7.57-16.06 16.98-16.06 10.11 0 16.96 7.87 16.96 15.55 0 9.33-7.72 16.63-16.35 16.63z" fill="url(#paint7_linear_2616_17502)" stroke="url(#paint8_linear_2616_17502)" stroke-linecap="round" stroke-linejoin="round" stroke-miterlimit="10" stroke-width="3"/>
  <path d="m124.4 143.6c-11.97 0-20.71-9.85-20.71-20.2 0-12.14 9.68-21.19 21.26-21.19 12.63 0 21.43 10.7 21.43 20.99 0 11.82-10.07 20.4-21.98 20.4zm-0.11-33.52c-8.7 0-13.85 7.21-13.85 13.91 0 8.03 6.59 14.26 13.75 14.26 8.7 0 13.9-7.58 13.9-14.28 0-7.31-6.38-13.89-13.8-13.89z" fill="url(#paint9_linear_2616_17502)" stroke="#223E66" stroke-linecap="round" stroke-linejoin="round" stroke-miterlimit="10" stroke-width="4"/>
  <defs>
    <linearGradient id="paint0_linear_2616_17502" x1="124.3" x2="124.3" y1="35" y2="213.7" gradientUnits="userSpaceOnUse">
      <stop stop-color="#487899" offset="0"/>
      <stop stop-color="#142559" offset="1"/>
    </linearGradient>
    <linearGradient id="paint1_linear_2616_17502" x1="124.2" x2="124.2" y1="38.9" y2="209.3" gradientUnits="userSpaceOnUse">
      <stop stop-color="#5082B0" offset="0"/>
      <stop stop-color="#213866" offset="1"/>
    </linearGradient>
    <linearGradient id="paint2_linear_2616_17502" x1="99.91" x2="146.3" y1="75.16" y2="175.3" gradientUnits="userSpaceOnUse">
      <stop stop-color="#385589" offset="0"/>
      <stop stop-color="#94D6F0" offset=".4948"/>
      <stop stop-color="#7C6EB0" offset="1"/>
    </linearGradient>
    <linearGradient id="paint3_linear_2616_17502" x1="106.3" x2="139.8" y1="76.11" y2="173.3" gradientUnits="userSpaceOnUse">
      <stop stop-color="#346599" offset="0"/>
      <stop stop-color="#94B8D9" offset=".5208"/>
      <stop stop-color="#09295B" offset="1"/>
    </linearGradient>
    <linearGradient id="paint4_linear_2616_17502" x1="124.3" x2="124.3" y1="68.67" y2="180.4" gradientUnits="userSpaceOnUse">
      <stop stop-color="#485C94" offset="0"/>
      <stop stop-color="#5474A4" offset=".4948"/>
      <stop stop-color="#E2F3FF" offset="1"/>
    </linearGradient>
    <linearGradient id="paint5_linear_2616_17502" x1="107.7" x2="138.2" y1="45.84" y2="200" gradientUnits="userSpaceOnUse">
      <stop stop-color="#D3F0FC" offset="0"/>
      <stop stop-color="#E8FBFF" offset=".5156"/>
      <stop stop-color="#9082B5" offset="1"/>
    </linearGradient>
    <linearGradient id="paint6_linear_2616_17502" x1="93.5" x2="122.5" y1="60.5" y2="179" gradientUnits="userSpaceOnUse">
      <stop stop-color="#F1FEFF" offset="0"/>
      <stop stop-color="#67B1DF" offset=".474"/>
      <stop stop-color="#6890B2" stop-opacity=".72" offset=".8125"/>
    </linearGradient>
    <linearGradient id="paint7_linear_2616_17502" x1="100.1" x2="138.6" y1="86.87" y2="162.7" gradientUnits="userSpaceOnUse">
      <stop stop-color="#D3F0FC" offset="0"/>
      <stop stop-color="#E8FBFF" offset=".5156"/>
      <stop stop-color="#9082B5" offset="1"/>
    </linearGradient>
    <linearGradient id="paint8_linear_2616_17502" x1="124.6" x2="124.6" y1="80.81" y2="168.4" gradientUnits="userSpaceOnUse">
      <stop stop-color="#365488" offset="0"/>
      <stop stop-color="#122450" offset="1"/>
    </linearGradient>
    <linearGradient id="paint9_linear_2616_17502" x1="116.9" x2="133.9" y1="106.1" y2="139.7" gradientUnits="userSpaceOnUse">
      <stop stop-color="#374469" offset="0"/>
      <stop stop-color="#90D3F0" offset=".5156"/>
      <stop stop-color="#F0FFFE" offset="1"/>
    </linearGradient>
  </defs>
</svg>