<svg xmlns="http://www.w3.org/2000/svg" width="256" height="256" fill="none" viewBox="0 0 256 256">
<!-- SVG created with Arrow, by QuiverAI (https://quiver.ai) -->
  <path d="m127.2 255.1c70.14 0 127.2-56.39 127.9-126.5 0.72-71-57.75-127.6-127.9-127.6-70.84 0-126.2 55.11-126.2 127.1 0 70.7 56.12 127.1 126.2 127.1z" fill="url(#paint0_radial_2_716)"/>
  <path d="m127.2 237.6c62.8 0 111.7-51.58 111.7-110.3 0-58.14-49.01-110.9-112.1-110.9s-110.5 50.7-110.5 111.8c0 58.84 48.63 109.4 110.9 109.4z" fill="url(#paint1_radial_2_716)"/>
  <path d="m34.11 71.6c8.2-12.67 31.24-32.88 41.02-37.28-1.51 6.4-12.22 16.33-18.65 25.6 10.07-6.86 18.71-13.85 27.37-19.48 8.66-5.62 22.27-2.69 32.91-1.58 10.63 1.1 25.23-1.83 32.23 4.36 6.99 6.19 4.69 13.01-4.68 14.8-9.36 1.8-19.22 1.66-21.45 2.08-5.39-3.05-16.43-9.91-28.85-9.91-12.43 0-17.47 3.73-24.75 7.6 7.35-8.06 12.46-13.68 18.65-16.68-13.77 3-26.09 18.11-34.58 24.16s-11.84 13.54-13.25 21.96c-2.97-2.24-7.96-9.66-5.97-15.63z" fill="url(#paint2_linear_2_716)" opacity=".5"/>
  <path d="m40.74 168.3c6.04 7.53 14.32 17.77 21.18 23.53 6.85 5.76 10.9 9.13 11.78 10.79-4.79-3.19-11.09-7.6-16.08-7.32-4.98 0.28-11.31-9.81-13.48-14.65-2.16-4.82-4.73-9.73-3.4-12.35z" fill="url(#paint3_linear_2_716)" opacity=".7"/>
  <path d="m170.8 213.2c5.15 0.81 13.19-1.12 18.65-7.59-1.19 6.68-6.9 10.11-11.75 11.57-4.85 1.45-21.17 4.45-33.05 6.58 5.15-3.3 14.08-7.39 14.08-10.63 0-3.23-10.28-5.82-15.43-6.53s-15.85-2.54-22.64-6.3c-6.79-3.77-3.71-11.19-5.51-14.25s-2.89-6.36-8.8-7.07c-5.9-0.71-9.5-5.33-10-9.39-0.5-4.05-0.03-11.32 4.1-15.44-0.4 3.83-4.93 10.55-0.4 16.91s10.4 5.4 14.6 6.07c3.38 1.72 8.6 12.05 12.33 17.32 3.73 5.26 10.8 6.85 19.53 6.92s12.29-3.53 14.59-7.65c-3.31 2.1-7.35 3.48-9.65-2.57 2.6-2 5.72 0.66 10.94-2.21s9.88-10.18 13.64-10.67c-5.46 5.62-8.25 9.88-11.08 10.98 7.9-0.55 20.49-4.14 24.88-7.27s8.12-6.82 10.06-11.73c0.94 3.9-0.86 10.33-7.89 17.82-4.05 4.55-10.67 4.28-12.93 7.21-1.24 2.41 1.78 4.72 0 6.51-2.97 2.96-8.36 5.2-8.92 7.16-0.7 1.8-1.05 3.66 0.65 4.25z" fill="url(#paint4_linear_2_716)" opacity=".7"/>
  <path d="m132.3 36.81c10.33-0.7 24.65-0.7 32.41 1.53 7.76 2.24 18.09 8.29 14.53 16.47-2.16 3.69 4.56 7.81 9.22 10.29 4.66 2.49 12.35 3.94 17.74 9.56s10.61 11.98 10.97 17.96 0.54 5.34 3.66 12.27c3.11 6.92 3.96 13.22 0 19.2-1.24-5.27-1.94-10.96-2.95-13.08-0.24 7.1-0.74 16.75-7.74 22.73-6.99 5.98-8.9 0.22-8.41-3.19 0.5-3.41 6.2-9.6 6.9-20.16s-6.83-22.58-13.29-24.31c-6.46-1.72-7.1-10.85-11.46-4.48-4.36 6.36-2.2 14.99 4.55 18.32 3.21 1.24 4.2-1.39 6.53 1.24 5.71 6.19 2.72 16.75-2.33 23.11s-11.54 14.99-13.38 18.54c-1.85 3.55-6.31 1.62-9.11 1.27-2.79-0.35-4.03 3.63-5.11 3.35 3.57 2.48 8.36-0.07 10.65-0.78 2.3-0.71 2.27-3.31 4.8-4.02s4.26 0.64 2.95 4.44-9.69 11-17.19 10.29c-2.9 0-5.4-1.31-8.33 2.67-2.93 2.73-9.58-2.42-10.28-3.81s-4.6-3.59-7.39-2.95-11.04 14.74-20.11 11.04c-4.46-2.03-0.24 5.9 7.29 4.73 6.32-1.1 10.85-3.33 14.62-2.98-4.79 3.43-14.26 8.22-14.76 17.35-0.49 9.13 4.56 14.52 10.66 16.24-8.25-1.52-11.81-10.33-13.91-15.03-2.09-4.69-5.09-8.59-10.38-10.24s-10.14-4.25-9.86-10.54c0.29-6.3 4.29-6.09 4.89-10 0.59-3.9 0.17-9.81 0.7-12.43 1.77-2.45 0.8-3.79-2.13-2.4-2.93 1.38-5.09 1.6-7.11-1.81-2.01-3.41-3.99-10.09 5.83-17.96-6.14-0.42-8.6 5.37-9.88 10.1-1.27 4.73 1.66 8.92 4.02 10.31 1.38 1.83 0 10.11-3.92 15.37s-5.03 9.06-5.39 17.37c-4.59 0.77-7.62 6.03-5.85 9.8-4.22-2.24-7.01-5.8-10.12-8.18-6.62-4.9-9.38-16.99-4.62-30.2 1.84-4.16 4.24-1.99 7.9-1.5 3.67 0.5 5.23-2.5 6.14-8.48 1.34-3.62 5.66-2.82 6.7-1.1 0.6-3.95-2.62-6.58-6.62-5.62-2.66 0.96-3.39 4.8-6.39 5.29s-5.79-1.34-5.79-7.81 6.1-12.45 10.19-15.51c4.08-3.06 15.48-11.09 21.59-15.85-5.9-7.07-11.87-3.95-17.33 0-4.05 3.33-8.59 4.88-11.66 7.19s-9.75 6.89-14.7 14.82c-4.12 0.71-5.82 2.23-6.31 4.4-0.84-5.91 4.68-15.63 12.38-22.55 7.69-6.93 14.84-14.61 23.5-15.39s18.17 0.71 23.22 1.34c5.05 0.64 5.78 2.95 5.64 5.18-0.14 2.24 1.87 4.24 5.26 3.67 3.38-0.56 5.01-1.73 7.17-0.7-2.16-3.62-11.84-9.52-18-9.52-6.17 0-16.2-3.48-22.4-1.83s-12.37 6.67-17.16 5.71c-0.98-0.28-5.4 1.17-6.91 2.89 1.91-3.59 3.42-3.59 4.66-5.31-1.51-3.57-4.37-6.12-2.46-10.75 2.39-5.19 10.15-16.36 23.62-16.5 6.29 0.21 10.58 4.44 18.55 4.29-8.17 1.39-10.8 2.77-13.83 5.08 6.76-1.1 14.76-1.24 20.46-0.39s14.36 1.27 19.82 1.27 11.56 0.78 15.32 4.98 3.48 11.12 0.37 14.25c-2.6 2.24-3.23-0.25-2.7-5.15 0.21-3.83-3-8.4-7.39-10.12 5.83-0.85 16.09 5.77 20.85 11.68 4.75 5.91 2.84 13.48 6.76 15.93s8.55 2.87 12.14 3.9c6.83 1.46 12.73 2.77 11.99 11.97-0.63 7.1-7.62 13.95-12.95 17.18-4.46 2.48-7.71-3.03-8.31-9.39-0.59-6.36 0.7-10.84-3.19-14.96s-6.89-1.26-8.1 0.91c-1.7 3.62-1 7.6-0.3 10.8 0.69 3.2-0.11 8.04 0.25 12.87 0.35 4.83-3.54 10.03-7.24 10.03s-6.8-3.5-6.8-6.91c1.38-3.82 9.08-11.62 11.6-14.04 2.53-2.41 0.31-6.25-1.7-8.55-2.01-2.31-2.92-5.44 0.74-9.45 3.67-4.02 6.17-15.9 2.14-23.32-3.1-5.62-6.19-6.72-6.92-8.37s-1.74-8.31 1.64-10.45c3.38-2.13 8.31 0.99 9 5.11 0.7 4.13-2.82 5.41-6.1 4.13-2.02-0.85-2.72 0.97-0.95 2.69 3.7 3.36 14.33 5.98 18.55-2.72 1.7-4.77-0.32-11.97 2.68-15.8-1.77-5.69-3.9-9.67-8.69-11.19s-13.75-5.33-37.84-5.33z" fill="url(#paint5_radial_2_716)" opacity=".8"/>
  <path d="m206.5 60.31c6.69 6.72 11.61 16.91 11.4 27.4-0.21 10.5 9.33 18.36 9.93 27.88 0.59 9.52-4.63 19.11-7.56 22.17s-4.84 16.28-10.16 18-14.45 10.42-22.41 12.59-14.15 1.53-22.4 0c-4.79-1.31-14.6 1.68-19.68 1.68 6.39-3.41 18.02-5.89 24.48-7.13 10.91-1.24 17.11-5.36 24.14-10.79s7.72-7.95 9.03-10.75c-2.96 1.59-6.14 2.8-6.42-2.24s3.11-12.97 6.35-16.99c-2.09 4.02-4.35 8.5-12.84 14.48 8.18-10.39 14.11-18.63 16.14-26.53s-1.99-19.17-8.71-23.44c-4.72-2.66-6.59-5.82-6.03-9.73 7.06 1.1 9.96 4.01 13.34 7.5 1.37-5.26 1.86-12.25 1.4-24.1z" fill="url(#paint6_linear_2_716)" opacity=".5"/>
  <path d="m31.95 155.1c0.7 8.59 7.32 12.64 11.08 16.69s7.59 6 10.88 5.29c-3.29-4.62-9.81-11.19-9.25-26.8 0.56-6.7 1.37-12.61 5.23-12.09 3.86 0.51 4.6-6.13 7.53-8.51 3.49-0.85 5.19 7.96 2.73 10.95s-6.09 2.37-7.14 14.18c-0.97 9.88 3.72 20.22 9.95 22.77 3.76 0.21 7.62 0.07 10.87 2.31s9.58 11.72 15.34 15.31 5.9 8.87 3.34 8.87c-5.15 0-9.77 1.86-15.43-0.38s-11.36-9.2-16.96-10.44-12.39-5.93-15.11-11.84-11.92-11.37-13.06-16.93-0.37-8.28 0-9.38z" fill="url(#paint7_linear_2_716)" opacity=".7"/>
  <path d="m42.23 68.73c3.86-5.91 13.33-10.03 17.55-10.88 3.07 3.06 2.44 7.92-1.95 13.43-4.39 5.52-7.18 10.78-10.81 8.65s-5.5-6.36-4.79-11.2z" fill="url(#paint8_linear_2_716)" opacity=".7"/>
  <path d="m125.7 95.84c8 1.03 10.36 3.05 12.38 0.24s9.12-2.22 12.95-3.46c5.76-1.95 8.38-7.83 6.16-13.95 4.12 3.66 5.61 12.59 0.75 20.39-3.14 3.95-2.78 7.22-0.25 10.77 1.63 2.62 3.14 7-0.36 10.23-3.49 3.23-11.42 14.19-14.21 18.88 3.79 0.71 7.88 1.85 12.89 7.28 3.21 3.69 4.36 8.99 9.16 8.71-2.93 3.06-7.66 5.06-12.91 3.34-4.11-1.31-5.16-7-11.46-8.14-4.72-0.32-9.08 0.71-13.55-1.12-7.09-2.96-10.72-9.22-12.15-16.75-1.42-7.52-2.89-20.71-0.73-28.79 1.51-5.38 1.05-8.19 11.33-7.63z" fill="url(#paint9_angular_2_716)"/>
  <defs>
    <radialGradient id="paint0_radial_2_716" cx="0" cy="0" r="1" gradientTransform="translate(127.3 128) scale(130.1 127.7)" gradientUnits="userSpaceOnUse">
      <stop stop-color="#F6995E" offset="0"/>
      <stop stop-color="#F6995E" stop-opacity=".85" offset=".49"/>
      <stop stop-color="#F6995E" stop-opacity=".33" offset=".78"/>
      <stop stop-color="#F6995E" stop-opacity="0" offset="1"/>
    </radialGradient>
    <radialGradient id="paint1_radial_2_716" cx="0" cy="0" r="1" gradientTransform="translate(127.6 127) scale(115.1 110.6)" gradientUnits="userSpaceOnUse">
      <stop stop-color="#F9F880" offset="0"/>
      <stop stop-color="#F7932A" offset=".21"/>
      <stop stop-color="#A71F16" offset=".51"/>
      <stop stop-color="#420816" offset="1"/>
    </radialGradient>
    <linearGradient id="paint2_linear_2_716" x1="112" x2="112" y1="31.28" y2="60.57" gradientUnits="userSpaceOnUse">
      <stop stop-color="#420816" offset="0"/>
      <stop stop-color="#420816" stop-opacity=".25" offset="1"/>
    </linearGradient>
    <linearGradient id="paint3_linear_2_716" x1="57.27" x2="57.27" y1="168.3" y2="203.5" gradientUnits="userSpaceOnUse">
      <stop stop-color="#420816" offset="0"/>
      <stop stop-color="#420816" stop-opacity=".25" offset="1"/>
    </linearGradient>
    <linearGradient id="paint4_linear_2_716" x1="162.4" x2="162.4" y1="170.2" y2="223.7" gradientUnits="userSpaceOnUse">
      <stop stop-color="#B82025" offset="0"/>
      <stop stop-color="#420816" stop-opacity=".75" offset="1"/>
    </linearGradient>
    <radialGradient id="paint5_radial_2_716" cx="0" cy="0" r="1" gradientTransform="translate(126.7 126.7) scale(98.05 95.97)" gradientUnits="userSpaceOnUse">
      <stop stop-color="#F9F880" offset="0"/>
      <stop stop-color="#F7932A" offset=".31"/>
      <stop stop-color="#A71F16" offset=".56"/>
      <stop stop-color="#420816" offset="1"/>
    </radialGradient>
    <linearGradient id="paint6_linear_2_716" x1="199.8" x2="199.8" y1="60.31" y2="169.2" gradientUnits="userSpaceOnUse">
      <stop stop-color="#420816" offset="0"/>
      <stop stop-color="#420816" stop-opacity=".25" offset="1"/>
    </linearGradient>
    <linearGradient id="paint7_linear_2_716" x1="60.95" x2="60.95" y1="129.5" y2="204.9" gradientUnits="userSpaceOnUse">
      <stop stop-color="#F9F880" offset="0"/>
      <stop stop-color="#F7932A" offset=".31"/>
      <stop stop-color="#A71F16" offset=".56"/>
      <stop stop-color="#420816" offset="1"/>
    </linearGradient>
    <linearGradient id="paint8_linear_2_716" x1="51.93" x2="51.93" y1="57.85" y2="79.93" gradientUnits="userSpaceOnUse">
      <stop stop-color="#B82025" offset="0"/>
      <stop stop-color="#B82025" stop-opacity=".25" offset="1"/>
    </linearGradient>
    <radialGradient id="paint9_angular_2_716" cx="0" cy="0" r="1" gradientTransform="translate(127.4 126.9) rotate(-9.081) scale(34.01 36.38)" gradientUnits="userSpaceOnUse">
      <stop stop-color="#F9F880" offset=".02"/>
      <stop stop-color="#F7932A" stop-opacity=".82" offset=".46"/>
      <stop stop-color="#A71F16" stop-opacity=".36" offset=".81"/>
      <stop stop-color="#420816" stop-opacity=".15" offset="1"/>
    </radialGradient>
  </defs>
</svg>