<svg xmlns="http://www.w3.org/2000/svg" width="200" height="200" fill="none" viewBox="0 0 200 200">
<!-- SVG created with Arrow, by QuiverAI (https://quiver.ai) -->
  <path d="m111.2 5 2.41 3.35c15.5 2.08 29.28 8.48 41.25 17.53l0.03-3.77c-12.63-10.72-26.87-16.07-43.69-17.11z" fill="url(#paint0_linear_138_11909)" stroke="#2E0085" stroke-miterlimit="10" stroke-width="1.2"/>
  <path d="m175.2 43.87 2.64-0.05c9.53 13.62 15.1 27.59 16.86 43.95l-2.81-1.3c-1.76-15.29-7.73-29.1-16.69-42.6z" fill="url(#paint1_linear_138_11909)" stroke="#2E0085" stroke-miterlimit="10" stroke-width="1.2"/>
  <path d="m193.8 112.1-2.46 1.62c-2.07 14.1-7.4 28.73-15.09 41.79l2.54 0.02c9.34-12.56 14.21-27.78 15.96-44.08l-0.95 0.65z" fill="url(#paint2_linear_138_11909)" stroke="#2E0085" stroke-miterlimit="10" stroke-width="1.2"/>
  <path d="m155 173.5c-11.81 10.32-25.84 17.75-42.99 21.25l1.41-3.03c15.3-2.52 29.17-8.87 41.49-18.22v3.68l0.09-0.02v-3.66z" fill="url(#paint3_linear_138_11909)" stroke="#2E0085" stroke-miterlimit="10" stroke-width="1.2"/>
  <path d="m87.5 5.11c-15.78 1.97-30 8.18-43.22 17.34l-0.02 3.43c12.88-10.42 26.99-16.72 41.97-17.72l1.27-3.05z" fill="url(#paint4_linear_138_11909)" stroke="#2E0085" stroke-miterlimit="10" stroke-width="1.2"/>
  <path d="m21.83 43.82 2.85-0.01c-9.79 13.4-16.27 28-18.67 43.53l-0.88 0.02c2.16-15.68 7.78-29.9 16.7-43.54z" fill="url(#paint5_linear_138_11909)" stroke="#2E0085" stroke-miterlimit="10" stroke-width="1.2"/>
  <path d="m5.13 111.6 2.98 1.82c1.9 13.56 7.45 28.33 14.81 41.63l-2.01 0.4c-9.2-12.42-14.38-27.38-15.78-43.85z" fill="url(#paint6_linear_138_11909)" stroke="#2E0085" stroke-miterlimit="10" stroke-width="1.2"/>
  <path d="m44.26 173.5v3.68c12.35 9.22 26.36 15.79 43.23 17.86l-1.44-2.58c-14.83-1.97-28.44-8.45-41.79-18.96z" fill="url(#paint7_linear_138_11909)" stroke="#2E0085" stroke-miterlimit="10" stroke-width="1.2"/>
  <path d="m100 9.73c-47.11 0-90.78 35.99-90.78 90.27 0 49.19 41.59 89.72 90.69 89.72s89.7-40.51 89.7-89.72c0-48.28-41.6-90.27-89.61-90.27z" fill="url(#paint8_radial_138_11909)" stroke="#5200A3" stroke-miterlimit="10" stroke-width="1.2"/>
  <path d="m100 19.12c-45.68 0-81.82 37.07-81.82 80.78s36.14 80.05 81.73 80.05c45.6 0 80.13-36.38 80.13-80.09 0-42.95-36.14-80.74-80.04-80.74z" fill="url(#paint9_radial_138_11909)" stroke="#8627C5" stroke-miterlimit="10" stroke-width="1.2"/>
  <path d="m12.71 76.98 4 5.68c-2.09 7.5-2.88 17.26-1.98 26.95l-2.52 13.41c-3.03-15.56-3.07-30.89 0.5-46.04z" fill="url(#paint10_linear_138_11909)" stroke="#2E0085" stroke-miterlimit="10" stroke-width="1.2"/>
  <path d="m185.9 76.41-3.77 6.25c2.57 10.72 2.92 22.21 1.07 33.43l3.78 6.93c3.55-15.51 3.35-31.46-1.08-46.61z" fill="url(#paint11_linear_138_11909)" stroke="#2E0085" stroke-miterlimit="10" stroke-width="1.2"/>
  <path d="m21.03 144 5.35 0.7 2.36 7.47 1.25 1.56-2.71-0.08-6.25-9.65z" fill="url(#paint12_linear_138_11909)" stroke="#2E0085" stroke-miterlimit="10" stroke-width="1.2"/>
  <path d="m170.2 153.6 2.71-4.42 2.26-5.15 2.71 0.06-6.25 10.37-1.43-0.86z" fill="url(#paint13_linear_138_11909)" stroke="#2E0085" stroke-miterlimit="10" stroke-width="1.2"/>
  <path d="m169.9 45.31 1.54-0.03 7.47 11.25-2.52-0.26-3.4 0.26-5.85-8.37 2.76-2.85z" fill="url(#paint14_linear_138_11909)" stroke="#2E0085" stroke-miterlimit="10" stroke-width="1.2"/>
  <path d="m27.8 45.28 5.11 3.4-4.68 7.44-7.95-0.71 7.52-10.13z" fill="url(#paint15_linear_138_11909)" stroke="#2E0085" stroke-miterlimit="10" stroke-width="1.2"/>
  <path d="m144.2 22.3 8.74 5.61-1.99 4.92-6.37-4.92-0.38-5.61z" fill="url(#paint16_linear_138_11909)" stroke="#2E0085" stroke-miterlimit="10" stroke-width="1.2"/>
  <path d="m45.81 27.91 8.74-5.61 0.64 5-6.8 5.97-2.58-5.36z" fill="url(#paint17_linear_138_11909)" stroke="#2E0085" stroke-miterlimit="10" stroke-width="1.2"/>
  <path d="m152.1 167.8-0.18 0.6-7.8 7.63-0.06-4.58 6.62-5.38 1.42 1.73z" fill="url(#paint18_linear_138_11909)" stroke="#2E0085" stroke-miterlimit="10" stroke-width="1.2"/>
  <path d="m46.71 168.9 7.84 3.78 0.18 4.11-8.44-5.35 0.42-2.54z" fill="url(#paint19_linear_138_11909)" stroke="#2E0085" stroke-miterlimit="10" stroke-width="1.2"/>
  <path d="m76.8 12.09 6.51 4.67 33.55-0.55 5.25-4.12c-14.95-3.48-29.9-3.61-45.31 0z" fill="url(#paint20_linear_138_11909)" stroke="#2E0085" stroke-miterlimit="10" stroke-width="1.2"/>
  <path d="m81.14 183.1 5.72 2.35h25.25l6.71-2.35-4.34-2.95-28.16 0.5-5.18 2.45z" fill="url(#paint21_linear_138_11909)" stroke="#2E0085" stroke-miterlimit="10" stroke-width="1.2"/>
  <path d="m40.75 30.92-9.96 9.69v2.95l3.1 3.78 14.02-12.2-0.85-1.87-6.31-2.35z" fill="url(#paint22_linear_138_11909)" stroke="#2E0085" stroke-miterlimit="10" stroke-width="1.2"/>
  <path d="m156.9 30.74-2.86 1.35-2.7 3.05c5.03 3.77 9.8 8.67 13.88 12.88l3.22-7.01-11.54-10.27z" fill="url(#paint23_linear_138_11909)" stroke="#2E0085" stroke-miterlimit="10" stroke-width="1.2"/>
  <path d="m33.89 153.1-3.1 5.18c3.82 4.87 7.19 8.37 10.05 10.66l2.23-0.71 3.99-3.4c-4.5-3.77-8.98-7.84-13.17-11.73z" fill="url(#paint24_linear_138_11909)" stroke="#2E0085" stroke-miterlimit="10" stroke-width="1.2"/>
  <path d="m164.8 152.1-12.64 12.56 3.54 4.04 1.99-0.6 10.7-9.8-1.44-4.63-2.15-1.57z" fill="url(#paint25_linear_138_11909)" stroke="#2E0085" stroke-miterlimit="10" stroke-width="1.2"/>
  <path d="m18.79 55.96 10.22 0.76-10.83 23.64-4.99-7.43 5.6-16.97z" fill="url(#paint26_linear_138_11909)" stroke="#5200A3" stroke-miterlimit="10" stroke-width="1.2"/>
  <path d="m178.5 55.41 6.71 16.97-5.11 9.23-9.38-25.23 7.78-0.97z" fill="url(#paint27_linear_138_11909)" stroke="#5200A3" stroke-miterlimit="10" stroke-width="1.2"/>
  <path d="m180.1 118.6 5.11 8.01-8.01 16.97-6.64-1.53 9.54-23.45z" fill="url(#paint28_linear_138_11909)" stroke="#5200A3" stroke-miterlimit="10" stroke-width="1.2"/>
  <path d="m18.18 117.6 10.05 23.91-7.95 1.56-7.09-17.5 4.99-7.97z" fill="url(#paint29_linear_138_11909)" stroke="#5200A3" stroke-miterlimit="10" stroke-width="1.2"/>
  <path d="m56.38 20.41 16.82-6.78 7.84 4.19-23.95 11.35-0.71-8.76z" fill="url(#paint30_linear_138_11909)" stroke="#5200A3" stroke-miterlimit="10" stroke-width="1.2"/>
  <path d="m125.8 13.91 16.25 6.5-0.55 8.64-23.64-10.64 7.94-4.5z" fill="url(#paint31_linear_138_11909)" stroke="#5200A3" stroke-miterlimit="10" stroke-width="1.2"/>
  <path d="m56.61 170.6 16 15.14 6.5-4.63-21.85-3.51-0.65-7z" fill="url(#paint32_linear_138_11909)" stroke="#5200A3" stroke-miterlimit="10" stroke-width="1.2"/>
  <path d="m118.6 179.4 7.16 6.35 17.09-7.84-0.49-7.84-23.76 9.33z" fill="url(#paint33_linear_138_11909)" stroke="#5200A3" stroke-miterlimit="10" stroke-width="1.2"/>
  <path d="m115.7 15.08 3.6-2.67c-9.2-1.74-20.2-2.25-31.45-0.93l1.25 1.98 26.6 1.62z" fill="#fff" opacity=".3"/>
  <path d="m130 16.11 7.2 10.63 3.6 1.28-8.7-10.94-2.1-0.97z" fill="#fff" opacity=".3"/>
  <path d="m60.21 27.71 13.4-12.4-3.6 0.8-7.9 9.66-1.9 1.94z" fill="#fff" opacity=".3"/>
  <path d="m132 174.4 4.8-0.2-5.2 7.7-2.4 1 2.8-8.5z" fill="#fff" opacity=".3"/>
  <path d="m62.41 173 9.9 10.9-2.5-0.9-6-8.2-1.4-1.8z" fill="#fff" opacity=".3"/>
  <path d="m87.11 184.8 2 1.6 20-0.4-1.3-1.7-20.7 0.5z" fill="#fff" opacity=".3"/>
  <path d="m100.1 29.91c12.18 0 22.6 3.18 28.2 8.8-5.92-2.63-11.83-3.4-25.2-2.4 15 2 21.97 4.38 28.7 9.6l6.3-3c-6.4-8.1-18-13.7-34-13.3l-4 0.3z" fill="#fff" opacity=".3"/>
  <path d="m98.11 35.41c-12-2-24.5-1-30.1 3.6 4.7-2.6 15.1-2.1 26.1 0.9-11.4 0.5-19.5 5-24 10 8.5-6 17-7.5 23.5-7-9.3 1.7-18.3 7.2-27 17 10.3-9.9 20.5-14 31.5-14l4-0.5c8.5 0.5 18.2 4 30.2 14.5-7-9.8-18-16-29.2-18 6.1-1.3 13 0 20 3-5-5-14-8.5-25-9.5z" fill="#fff" opacity=".3"/>
  <path d="m100.1 164.9c10.6 1 20-2.5 28.5-6-5.5 4-12 9.5-25 11 14 0 26-4 40-17-8.1 2-17.5 9-33.5 5.5 7.5-1.5 14.8-6 17.6-10.5-7 5.5-14.1 8-23.6 8.5 8-1.5 19.5-6 27-18-10 9-22 13-33.5 12-10.5-0.5-20-5-27.5-12.5 6 10 18 16 23.5 17-10 2-19-1.5-28-6 6.5 7.5 14 10 21 11-9.5 1.5-16.5-2.5-25.5-5.5 9.5 10 17.5 14 33.5 14.5-12.5 1-24.5-4-33.5-11.5l-6-4.5c7 10.5 22.5 15 31 15.5 4 1 9.3 1 14-3.5z" fill="#fff" opacity=".3"/>
  <path d="m66.61 32.41c-7 5.5-10 10-12.5 15.5 8.5-5 17.5-9 30.5-9-8.5-1-13.5 0-19.5 2.5 7-7.5 16-10 29-10.5-8-1.5-19-1-27.5 1.5z" fill="#fff" opacity=".3"/>
  <path d="m126.6 47.91c8.5 3.5 18 9.5 24.5 19.5-2.5-7.5-9-15.5-24.5-19.5z" fill="#fff" opacity=".3"/>
  <path d="m137.1 133.9c11.5-9 17-21 15.5-37-1-10.5-6.5-21.5-16-29.5 8.5 5.5 13.5 13 16.5 20.5-0.5-7.5-6-16.5-13-23.5 10.5 8.5 16.5 18.5 16.5 27.5 3-8 4-16.5-2-36.5 9.5 6 15 16 14 38.5-1.5-7-3-14-8.5-23 4.5 11.5 4 20.5 2.5 31l-1.5-3c1 7.5 0.5 12.5-2 19-0.5-5-1.5-9-2-12.5-0.5 6-3 13-8 20.5 4-3 6.5-6 8.5-10.5-2 9.5-7 16.5-13.5 24 3.5-2.5 6-5 8.5-8.5-5 9-16.5 22-31 24.5 7.5-2 14-5 20.5-11.5-7 6-14.5 10-25 11.5 7.5 0.5 15-2 22.5-6.5-3.5 4-7 7-13 10 5.5-1.5 10.5-4 15.5-7-3 5-10.5 11-19 12 6.5-1.5 12-5.5 16.5-10-4 3-11.5 7-22.5 7.5 8.5-1 16-4 20-7.5 3.5-3 5-5 6.5-7.5-3 3-7.5 6.5-13.5 9 3.5-2.5 6-5 7-6.5 9-9.5 14-17.5 16-28-2 5.5-6.5 10-16 13z" fill="#fff" opacity=".3"/>
  <path d="m53.11 57.41c-10 10.5-14 19.5-14 32.5-2-8.5 0-18.5 8-35.5-11 6-18.5 16.5-18 42.5 1-10.5 4.5-19 10.5-26.5-2 7.5-2.5 14 0 26 1.5-8.5 4.5-16 11-23-8.5 13.5-10.5 28.5-1 45-3.5-3.5-5.5-7-7.5-13-2 3.5-3.5 11-2 18-2.5-2.5-5-8.5-5.5-19l-2 2.5c-1-5.5 0-9 1-13-4 11.5-5 32.5 12 46-6-2-10-5.5-14.5-12 3.5 9 7.5 14 15.5 17-5-7-8.5-15.5-8-28.5 2.5 8.5 9 15.5 17.5 18.5-8-7-12.5-17.5-12-29 1 9.5 6.5 20 15 26-11-14-16.5-31.5-6-51.5 3.5-6 6.5-9 9.5-13.5-9.5 8-14 17.5-15.5 26-1-9.5 3-20.5 13.5-30-6 4-10.5 10-14 15 1.5-7 5.5-13.5 12-20-2.5 1-4 2.5-5.5 4 2.5-4.5 6-8.5 11-12.5-3.5 2-7 4.5-11 8z" fill="#fff" opacity=".3"/>
  <path d="m73.11 62.91c8-7.5 16.5-10.5 25.5-10.5s17.5 3 25.5 10.5c-7-5.5-15.5-8.5-25.5-8.5-9 0-17.5 3-25.5 8.5z" opacity=".3" stroke="#5200A3" stroke-miterlimit="10" stroke-width=".75"/>
  <path d="m78.61 63.41c6.6-4.4 13-6 20-6s13.4 1.6 20 6c-6.1-3-12.6-4.5-20-4.5-7 0-13.5 1.5-20 4.5z" opacity=".3" stroke="#5200A3" stroke-miterlimit="10" stroke-width=".75"/>
  <path d="m74.61 137.4c7.5 7 15.5 9.5 24.5 9.5s17-2.5 24.5-9.5c-6.5 6.5-15 9.5-25 9.5-9 0-17.5-3-24-9.5z" opacity=".3" stroke="#5200A3" stroke-miterlimit="10" stroke-width=".75"/>
  <path d="m119.6 135.9c-7 4.5-13.5 5.5-20.5 5.5s-13.5-1.5-19.5-5.5c6.5 3.5 13 4.5 19.5 4.5 7 0 14-1.5 20.5-4.5z" opacity=".3" stroke="#5200A3" stroke-miterlimit="10" stroke-width=".75"/>
  <path d="m135.9 78.11c5.9 7.9 7.2 15.8 7.2 22.3 0 7.5-2.5 15-8 22.5 4.5-8 6.5-15 6-22.5-0.5-6.5-2.5-13.5-7.5-20.5l2.3-1.8z" opacity=".3" stroke="#5200A3" stroke-miterlimit="10" stroke-width=".75"/>
  <path d="m137.1 74.41c7.5 8.5 10 17.5 10 26s-3 17.5-10.5 26.5c7-8 10-17 10-26.5-0.5-9-3.5-18-9.5-26z" opacity=".3" stroke="#5200A3" stroke-miterlimit="10" stroke-width=".75"/>
  <path d="m62.11 77.91c-5.5 8-6.5 16-6.5 22.5 0 7.5 2 14.5 7 21.5-5-6.5-7.5-14-7.5-21.5s2.5-15 7-22.5z" opacity=".3" stroke="#5200A3" stroke-miterlimit="10" stroke-width=".75"/>
  <defs>
    <linearGradient id="paint0_linear_138_11909" x1="111.2" x2="155.2" y1="15.64" y2="15.64" gradientUnits="userSpaceOnUse">
      <stop stop-color="#5700D0" offset="0"/>
      <stop stop-color="#A424F1" offset="1"/>
    </linearGradient>
    <linearGradient id="paint1_linear_138_11909" x1="175.2" x2="194.7" y1="65.8" y2="65.8" gradientUnits="userSpaceOnUse">
      <stop stop-color="#5700D0" offset="0"/>
      <stop stop-color="#A424F1" offset="1"/>
    </linearGradient>
    <linearGradient id="paint2_linear_138_11909" x1="176.2" x2="194.7" y1="133.5" y2="133.5" gradientUnits="userSpaceOnUse">
      <stop stop-color="#5700D0" offset="0"/>
      <stop stop-color="#A424F1" offset="1"/>
    </linearGradient>
    <linearGradient id="paint3_linear_138_11909" x1="112" x2="155.2" y1="184.1" y2="184.1" gradientUnits="userSpaceOnUse">
      <stop stop-color="#5700D0" offset="0"/>
      <stop stop-color="#A424F1" offset="1"/>
    </linearGradient>
    <linearGradient id="paint4_linear_138_11909" x1="44.26" x2="87.5" y1="15.49" y2="15.49" gradientUnits="userSpaceOnUse">
      <stop stop-color="#5700D0" offset="0"/>
      <stop stop-color="#A424F1" offset="1"/>
    </linearGradient>
    <linearGradient id="paint5_linear_138_11909" x1="5.131" x2="24.68" y1="65.59" y2="65.59" gradientUnits="userSpaceOnUse">
      <stop stop-color="#5700D0" offset="0"/>
      <stop stop-color="#A424F1" offset="1"/>
    </linearGradient>
    <linearGradient id="paint6_linear_138_11909" x1="5.341" x2="23.26" y1="133.6" y2="133.6" gradientUnits="userSpaceOnUse">
      <stop stop-color="#5700D0" offset="0"/>
      <stop stop-color="#A424F1" offset="1"/>
    </linearGradient>
    <linearGradient id="paint7_linear_138_11909" x1="44.26" x2="87.49" y1="184.2" y2="184.2" gradientUnits="userSpaceOnUse">
      <stop stop-color="#5700D0" offset="0"/>
      <stop stop-color="#A424F1" offset="1"/>
    </linearGradient>
    <radialGradient id="paint8_radial_138_11909" cx="0" cy="0" r="1" gradientTransform="translate(99.51 99.6) scale(90.54)" gradientUnits="userSpaceOnUse">
      <stop stop-color="#5700B3" offset="0"/>
      <stop stop-color="#A851E2" offset=".6198"/>
      <stop stop-color="#6216C7" offset="1"/>
    </radialGradient>
    <radialGradient id="paint9_radial_138_11909" cx="0" cy="0" r="1" gradientTransform="translate(99.11 99.53) scale(76.56 78.34)" gradientUnits="userSpaceOnUse">
      <stop stop-color="#FCFCFF" offset="0"/>
      <stop stop-color="#F7DDFF" offset=".6042"/>
      <stop stop-color="#8A39C5" offset="1"/>
    </radialGradient>
    <linearGradient id="paint10_linear_138_11909" x1="13.93" x2="13.93" y1="76.98" y2="123" gradientUnits="userSpaceOnUse">
      <stop stop-color="#1875C5" offset="0"/>
      <stop stop-color="#63D5FF" offset=".4844"/>
      <stop stop-color="#AAFFFE" offset="1"/>
    </linearGradient>
    <linearGradient id="paint11_linear_138_11909" x1="185.9" x2="185.9" y1="76.41" y2="123" gradientUnits="userSpaceOnUse">
      <stop stop-color="#1875C5" offset="0"/>
      <stop stop-color="#63D5FF" offset=".4844"/>
      <stop stop-color="#AAFFFE" offset="1"/>
    </linearGradient>
    <linearGradient id="paint12_linear_138_11909" x1="25.51" x2="25.51" y1="144" y2="153.7" gradientUnits="userSpaceOnUse">
      <stop stop-color="#1875C5" offset="0"/>
      <stop stop-color="#63D5FF" offset=".4844"/>
      <stop stop-color="#AAFFFE" offset="1"/>
    </linearGradient>
    <linearGradient id="paint13_linear_138_11909" x1="174.1" x2="174.1" y1="144.1" y2="154.5" gradientUnits="userSpaceOnUse">
      <stop stop-color="#1875C5" offset="0"/>
      <stop stop-color="#63D5FF" offset=".4844"/>
      <stop stop-color="#AAFFFE" offset="1"/>
    </linearGradient>
    <linearGradient id="paint14_linear_138_11909" x1="173.3" x2="173.3" y1="45.28" y2="56.53" gradientUnits="userSpaceOnUse">
      <stop stop-color="#1875C5" offset="0"/>
      <stop stop-color="#63D5FF" offset=".4844"/>
      <stop stop-color="#AAFFFE" offset="1"/>
    </linearGradient>
    <linearGradient id="paint15_linear_138_11909" x1="26.59" x2="26.59" y1="45.28" y2="56.12" gradientUnits="userSpaceOnUse">
      <stop stop-color="#1875C5" offset="0"/>
      <stop stop-color="#63D5FF" offset=".4844"/>
      <stop stop-color="#AAFFFE" offset="1"/>
    </linearGradient>
    <linearGradient id="paint16_linear_138_11909" x1="148.6" x2="148.6" y1="22.3" y2="32.83" gradientUnits="userSpaceOnUse">
      <stop stop-color="#1875C5" offset="0"/>
      <stop stop-color="#63D5FF" offset=".4844"/>
      <stop stop-color="#AAFFFE" offset="1"/>
    </linearGradient>
    <linearGradient id="paint17_linear_138_11909" x1="50.5" x2="50.5" y1="22.3" y2="33.27" gradientUnits="userSpaceOnUse">
      <stop stop-color="#1875C5" offset="0"/>
      <stop stop-color="#63D5FF" offset=".4844"/>
      <stop stop-color="#AAFFFE" offset="1"/>
    </linearGradient>
    <linearGradient id="paint18_linear_138_11909" x1="148.1" x2="148.1" y1="166.1" y2="176" gradientUnits="userSpaceOnUse">
      <stop stop-color="#1875C5" offset="0"/>
      <stop stop-color="#63D5FF" offset=".4844"/>
      <stop stop-color="#AAFFFE" offset="1"/>
    </linearGradient>
    <linearGradient id="paint19_linear_138_11909" x1="50.61" x2="50.61" y1="168.9" y2="176.8" gradientUnits="userSpaceOnUse">
      <stop stop-color="#1875C5" offset="0"/>
      <stop stop-color="#63D5FF" offset=".4844"/>
      <stop stop-color="#AAFFFE" offset="1"/>
    </linearGradient>
    <linearGradient id="paint20_linear_138_11909" x1="99.46" x2="99.46" y1="10.24" y2="17.19" gradientUnits="userSpaceOnUse">
      <stop stop-color="#1875C5" offset="0"/>
      <stop stop-color="#63D5FF" offset=".4844"/>
      <stop stop-color="#AAFFFE" offset="1"/>
    </linearGradient>
    <linearGradient id="paint21_linear_138_11909" x1="99.98" x2="99.98" y1="180.1" y2="186" gradientUnits="userSpaceOnUse">
      <stop stop-color="#1875C5" offset="0"/>
      <stop stop-color="#63D5FF" offset=".4844"/>
      <stop stop-color="#AAFFFE" offset="1"/>
    </linearGradient>
    <linearGradient id="paint22_linear_138_11909" x1="39.35" x2="39.35" y1="30.92" y2="47.34" gradientUnits="userSpaceOnUse">
      <stop stop-color="#1875C5" offset="0"/>
      <stop stop-color="#63D5FF" offset=".4844"/>
      <stop stop-color="#AAFFFE" offset="1"/>
    </linearGradient>
    <linearGradient id="paint23_linear_138_11909" x1="159.9" x2="159.9" y1="30.74" y2="48.02" gradientUnits="userSpaceOnUse">
      <stop stop-color="#1875C5" offset="0"/>
      <stop stop-color="#63D5FF" offset=".4844"/>
      <stop stop-color="#AAFFFE" offset="1"/>
    </linearGradient>
    <linearGradient id="paint24_linear_138_11909" x1="38.92" x2="38.92" y1="153.1" y2="168.9" gradientUnits="userSpaceOnUse">
      <stop stop-color="#1875C5" offset="0"/>
      <stop stop-color="#63D5FF" offset=".4844"/>
      <stop stop-color="#AAFFFE" offset="1"/>
    </linearGradient>
    <linearGradient id="paint25_linear_138_11909" x1="160.3" x2="160.3" y1="152.1" y2="168.7" gradientUnits="userSpaceOnUse">
      <stop stop-color="#1875C5" offset="0"/>
      <stop stop-color="#63D5FF" offset=".4844"/>
      <stop stop-color="#AAFFFE" offset="1"/>
    </linearGradient>
    <linearGradient id="paint26_linear_138_11909" x1="21.1" x2="21.1" y1="55.96" y2="80.36" gradientUnits="userSpaceOnUse">
      <stop stop-color="#9A00BF" offset="0"/>
      <stop stop-color="#CB29F4" offset=".4896"/>
      <stop stop-color="#7000C5" offset="1"/>
    </linearGradient>
    <linearGradient id="paint27_linear_138_11909" x1="177.9" x2="177.9" y1="55.41" y2="81.61" gradientUnits="userSpaceOnUse">
      <stop stop-color="#9A00BF" offset="0"/>
      <stop stop-color="#CB29F4" offset=".4896"/>
      <stop stop-color="#7000C5" offset="1"/>
    </linearGradient>
    <linearGradient id="paint28_linear_138_11909" x1="177.8" x2="177.8" y1="118.6" y2="143.6" gradientUnits="userSpaceOnUse">
      <stop stop-color="#9A00BF" offset="0"/>
      <stop stop-color="#CB29F4" offset=".4896"/>
      <stop stop-color="#7000C5" offset="1"/>
    </linearGradient>
    <linearGradient id="paint29_linear_138_11909" x1="20.71" x2="20.71" y1="117.6" y2="143.1" gradientUnits="userSpaceOnUse">
      <stop stop-color="#9A00BF" offset="0"/>
      <stop stop-color="#CB29F4" offset=".4896"/>
      <stop stop-color="#7000C5" offset="1"/>
    </linearGradient>
    <linearGradient id="paint30_linear_138_11909" x1="68.71" x2="68.71" y1="13.63" y2="29.17" gradientUnits="userSpaceOnUse">
      <stop stop-color="#9A00BF" offset="0"/>
      <stop stop-color="#CB29F4" offset=".4896"/>
      <stop stop-color="#7000C5" offset="1"/>
    </linearGradient>
    <linearGradient id="paint31_linear_138_11909" x1="129.9" x2="129.9" y1="13.91" y2="29.05" gradientUnits="userSpaceOnUse">
      <stop stop-color="#9A00BF" offset="0"/>
      <stop stop-color="#CB29F4" offset=".4896"/>
      <stop stop-color="#7000C5" offset="1"/>
    </linearGradient>
    <linearGradient id="paint32_linear_138_11909" x1="67.86" x2="67.86" y1="170.6" y2="185.8" gradientUnits="userSpaceOnUse">
      <stop stop-color="#9A00BF" offset="0"/>
      <stop stop-color="#CB29F4" offset=".4896"/>
      <stop stop-color="#7000C5" offset="1"/>
    </linearGradient>
    <linearGradient id="paint33_linear_138_11909" x1="130.7" x2="130.7" y1="170.1" y2="185.8" gradientUnits="userSpaceOnUse">
      <stop stop-color="#9A00BF" offset="0"/>
      <stop stop-color="#CB29F4" offset=".4896"/>
      <stop stop-color="#7000C5" offset="1"/>
    </linearGradient>
  </defs>
</svg>