<svg xmlns="http://www.w3.org/2000/svg" width="200" height="200" fill="none" viewBox="0 0 200 200">
<!-- SVG created with Arrow, by QuiverAI (https://quiver.ai) -->
  <path d="m200 72.92-19.26 6.27 0.08-3.13-1.48-6.87 2.74-8.72v-33.53c0-5.97-4.1-9.68-9.74-9.68h-54.23l-5.15 0.85 2.45-13.87-8.37 15.55-6.82 0.3-6.38-2.83h-21.07l-7.66 1.63-6.93-2.31 1.33-9.22-9.64 10.6-22.21-0.7c-6.25 0-9.93 4.95-9.93 10.35v43.19l1.45 4-1.03 9.33-0.62 7.74 0.66 23.89 1.47 5.03-1.93 10.08v41.21c0 6.5 4.38 9.44 9.78 9.25l36.3 0.19 9.67-2.41-3.37 18.67 9.7-19.05 4.3-0.3-0.2 2.05h43.35l3.46-0.8 8.27 17.4-4.28-17.87 37.02 2.31c6.58 0 10.08-5.45 10.08-9.04v-54.18l-1.49-6.22 1.99-20.21-0.62-9.63-1.77-5.38 0.82-5.74 19.26 1.8z" fill="url(#paint0_radial_1701_6905)"/>
  <path d="m18.69 27.61v43.2l1.56 4.1-1.71 15.91v26.15l1.93 4.16-1.93 9.74v41.21c0 5.65 3.94 8.8 9.34 8.65l35.09-0.11 11.74-2.69 9.4 3.2h43.35l3.06-1.45 41.21 1.84c6.58 0 9.29-5.7 9.29-8.69v-53.83l-1.3-7.19 1.67-20.69-0.32-8.88-2.13-7.43 2.34-14.34v-33.53c0-5.65-3.63-9.68-9.75-9.68h-52.62l-8.2 1.63-14.33 0.9-3.35-2.53h-19.46l-8.46 1.63-8.27-1.63h-28.98c-6.25 0-9.17 5.2-9.17 10.35z" fill="url(#paint1_linear_1701_6905)"/>
  <path d="m18.94 46.01 2.07-3.99 6.65-4.39 1.16-5.85 9.7-6.05 5.72-8.03 7.47-0.44 0.55 3.36-2.07 3.56-7.01 2.35-10 5.25-1.76 7.74-9.11 9.64-3.37 4.09v-7.24z" fill="#991212" opacity=".2"/>
  <path d="m113.3 18.11 12.47-14-2.64 16.95-4.19-3.8-5.64 0.85z" fill="#991212" opacity=".2"/>
  <path d="m138.4 1.91-10.46 19.15 7.29-3.8 8.7-3.7c7.01-2.64 7.28-10.38 0.27-10.88l-5.8-0.77z" fill="#991212" opacity=".2"/>
  <path d="m154.1 6.11 9.1 10.34-12.04 4.41-2.34-5.55 5.28-9.2z" fill="#991212" opacity=".2"/>
  <path d="m82.97 0 4.18 7.7c2.76 5.38-2.39 8.69-4.18 9.56l-14.03 0.2 2.67-4.65 11.36-12.81z" fill="#991212" opacity=".2"/>
  <path d="m150.2 22.76c-2.68 2.57-1.34 5.38 0 6.62l8.86 1.25 3.5 1.15 8.13-5.1c2.98-1.45 6.38 1.46 8.17 3.95l2.11 7v-10.34c0-5.95-4.08-9.83-8.81-10.03l-15.5-0.25c-2.88-0.1-4.23 3.5-6.46 5.75z" fill="#991212" opacity=".2"/>
  <path d="m181 105.2-2.76-7.04-7.52-8.04-4.73-2.5-2.13 8.44 4.53 7.99 3.8 3.3 5.7 8.4 3.01 3.34 0.1-5.84v-8.05z" fill="#991212" opacity=".2"/>
  <path d="m181 117.1-2.76 6.59-0.45 5.85-4.99-5.5-2.13-10.84-6.71-10.3-0.61-12.79 1.96 7 4.05 3.7 5.59 7.24 6.05 9.05z" fill="#991212" opacity=".2"/>
  <path d="m20.11 154.9 1.82 12.8c1.49 5.65 7.39 7.34 11.28 7.1l10.01-1.45 6.97-2.9 11.26 2.9 8.66-0.85 13.31-6.2 3.39-4.15-8.51 1.9-11.27-2.75 4.88-3.55 5.7 1 9.45 0.8 3.65-4.4-4.5 0.5-13.79 0.7-10.97 7.7-8.7 0.9-6.3-4.8-9.74 0.8-9.55-3.7-1.94-5.2-5.11 2.85z" fill="#991212" opacity=".2"/>
  <path d="m17.93 143.3 2.98 3.95 6.65 4.1 4.62 5.6 7.88 0.8 7.05-0.8 5.64 4.4 7.16-2.4 7.12-6.1 5.39-1.65-5.39-1.05-10.19 2.5-6.65-0.85 1.03-2.3-6.7-2.75-9.75-0.25-9.26-8.45-6.53 1.25-1.05 4z" fill="#991212" opacity=".2"/>
  <path d="m37.01 136.5 1.87 8.4 8.6 4.85 8.03 4.4 7.46-2.1-5.74-3.1-3.8-4.9-8.26-6.2-8.16-1.35z" fill="#991212" opacity=".2"/>
  <path d="m136.1 170.4 8.65-2.75 6.3-1.4 8.02-8.85 5.7-2.5 2.13 3.8-2.96 6.55-7.87 6.3-3.06 2.25 8.16 1.1 12.46-2.85 5.24-4.4 0.3-12.8-4.73 7.2-9.75 6.85-6.6 2.3-7.04 1.25-10.05 0.5-4.9-2.55z" fill="#991212" opacity=".2"/>
  <path d="m137.5 151.7 2.23 7.75-2.34 6.4 7.72-3.55 4.09-7.2 7.06-5.85 2.86-7.75 2.3-1.65 4.82 5.85-0.92 8.3 4.02 4.7 5.45-4.7 4.18-7.35-1.77-6.8-6.55 3-4.53-9.99-3.5-11.99-6.35-7.79-3.93-1.5-2.03 3.6 5.69 5.39 1.18 7.2-2.76-3.7-6.45-5.7-5.64 3.8-5.29 14.69 1.61 7.14-1.15 7.7z" fill="#991212" opacity=".2"/>
  <path d="m143.9 57.11 3.21 3.85 9.13-3.35c4.53-0.9 4.68-4.65 3.82-7.5l-1.76-4.1-3.25 4.1-6.96 3.4-4.19 3.6z" fill="#991212" opacity=".2"/>
  <path d="m165.2 38.32 5.8-7.84 4.99-1.1 4.81 6.44 0.25 13.29-4.13-2.5-9.45-4.89-2.27-3.4z" fill="#991212" opacity=".2"/>
  <path d="m170.7 46.06 6.25 1.35c3.16 1.05 3.98 4.75 3.73 6.6l-1.66 5.4-4.58 2-10.35-3.8-3.3-2.5 3.8-2.5 1.76-4.4 4.35-2.15z" fill="#991212" opacity=".2"/>
  <path d="m93.03 17.26 7.19 2.83-8.8 2.75-8 9.99-8.03 6.09-12.47-2.8 1.87-12.49 7.98-6.37h20.26z" fill="#991212" opacity=".2"/>
  <path d="m117.4 27.08 12.47 3.55-1.97 7-7.53-1.51-12.78-3.09-5.89 0.9-8.69 0.9 0.76-3.05 7.32-3.65 9.3-1.05h7.01z" fill="#991212" opacity=".2"/>
  <path d="m133 25.73 5.37-8.47h10.45l-3.63 8.47 0.81 7.75 10.7 1.85 2.4 3.59v5.6l-3.6 5.59-8.39 4.3 1.06 9.4-6.6-5-4.09-8.7-5.34-13.99 0.86-10.39z" fill="#991212" opacity=".2"/>
  <path d="m19.96 54.01c0.15-7.45 6.15-11.14 9.06-12.54 2.86-1.35 2.4-9.09 8.14-11.84 3.75-1.77 6.37-2.3 8.48-2.8 3.27-0.8 4.55-1.7 6.07-3.75l2.07-0.99 2.76 4.99-1.03 4.7-8.1 7.44-14.23 12.79-0.45 10.6 4.18 7.75-2.29 12.79 3.5 10.6-6.4-0.95-5.59-11.4-6.02-10.59-0.15-16.8z" fill="url(#paint2_linear_1701_6905)" opacity=".5"/>
  <path d="m52.92 17.26 4.89 3.8c2.91 2.75 1.6 9.02 0 11.77l-7.77 8.89v5.14l-0.76 10.25 1.67 9.1-4.9 13.59-2.29 0.8 1.66-9.39 2.61-5-2.61-10.4 1.59-9.8-13-6.79 7.72-6.39 6.75-5.9 4.53-1.2-0.09-8.47z" fill="url(#paint3_linear_1701_6905)" opacity=".7"/>
  <path d="m38.73 105.2 3.35 6.45 5.03 2.3 1.02 8.19 4.53 1.95 5.65-0.35 5.5 3.8-7.22 4.44-8.46-2.84-4.91 0.2-0.91-5.6-2.96-8.29-6.92-6.2 3.93 1.15 3.34 5.55 0.21 4.19 1.51 1.8 0.2-5.79-2.89-5.5v-5.45z" fill="url(#paint4_linear_1701_6905)" opacity=".7"/>
  <path d="m180.7 60.01-4.89 4.05c-2.11 1.4-5.54-0.85-7.72-1.8-4.39-1.9-9.43 2.7-13.2 2.7-3.21 0-6.81-2.55-9.56-6.15-2.5-3.35 0.81-5.6 2.58-6.75 4.19-2.75-0.5-11.74-2.68-12.84l2.43-3.1 9.24 1.4c2.29 0.7 4.89-1.85 6.96-4.39l2.13-2.5-5.89 4.99c-2.49 1.75-6.94-0.85-9.8-0.85h-6.41c-2.07 0-3.94-1.04-5.12-5.39-0.61-2.45 0.63-2.35 7.02-7.94l0.2-0.4-0.66 0.35-7.17 5.99c-1.61 1.55-0.25 4.3 1.04 6.8 1 2.09-1.59 5.54-4.01 7.54-3.16 2.15-9.97 4.19-13.17 3.44-3.26-0.79-4.42-4.24-10.01-4.54-4.74-0.25-5.85 3.35-12.45 4.19-4.69 0.6-3.98-3.74-7.76-7.54-2.76-2.8 0.2-9.39 4.59-11.14 4.44-1.75 8.52-1.25 11.58-5.84l2.72-2.18-9.75 1.98c-10.75 0.85-13.34 5.64-15.57 9.84-3.11 5.99-11.18 14.29-16.58 15.38-6.8 1.4-15.7 7.75-16.3 13.35-0.6 5.05 2.31 10.05-1.36 18.44-3.34 7.75-2.06 14.6 1.06 18.8 2.86 3.94 2.51 7.49 4.78 11.59 2.76 5.1 5.73 5.22 6.03 2.52 0.6-5.3-1.11-12.34-5.19-19.09-2.76-4.65-0.1-12.84 2.34-16.89 3.35-5.6-0.15-9.94 0.55-15.39 0.81-6.15 6.36-7.45 11.6-9.6 3.77-1.5 4.83 0.65 1.77 4.05-2.86 3.3-5.05 4.4-6.96 6.7-3.01 3.8-6.02 9.59-4.21 18.24 0.81 4 5.8 8.59 5.2 11.89-0.44 2.5-6.14-3.2-8-6.2-1.34-2.4-1.79 2.35 1.71 7.25 3.06 4.35 4.22 5.55 4.82 8.95 0.76 4.54 4.26 6.29 9.4 6.29 4.03 0 5.43 1.2 6.29 1.2l-6.09-0.8c-2.61-0.25-4.24 1.75-2.11 5.55 2.01 3.75 6.7 3.6 8.98 7.44 1.06 1.95 2.58 3.55 4.86 4l-1.87-4.6c-0.96-2.74 1.51-1.69 3.64 0.1 2.44 2.1 8.14 1.05 11.71-1.19 4.34-2.65 9.02-8.4 9.38-12.8 0.5 2.2 2.47 6 1.26 9.4 1.72-2.4 7.11-6.4 8.88-10.6 1.26-3.29 1.16-9.59-4.03-13.79s-8.1-5.8-14.8-2.7c-8.36 3.25-8.92 7.8-8.16 12 1.06 5.99 5.04 5.94 6.76 5.39 3.98-1.35 5.04-4.44 1.88-6.09-1.34-0.7-2.7 0-2.7 0 0.2-1.7 3.86-2.7 6.77-1.9 5.35 1.6 7.91 5.94 8.36 12.09 2.66-3.85 3.77-11.79-1.67-15.59-4.49-3.1-11.09-2-12.76-1.25 2.76-2.45 8.51-3.9 12.59-2.55 4.59 1.5 7.12 3.55 9.09 5.3 2.39 2.15 1.63 9.44 1.48 11.69-0.3 2.5 3.12 1.6 4.18 4.65 0.75 2.35-0.05 4.25-0.86 5.95 1.87-1.1 2.73-4.4 1.57-7.25-0.91-2.45-3.57-1.95-3.57-5.65 0-3.54 0.25-7.19-1.93-11.59-1.16-2.65 1.22-3 3.68-2.2 3.93 1.35 8.76 8.3 9.67 13.39 1.25 7.1-1.41 9.45-1.76 14.2-0.46 5.94-4.35 10.24-7.36 11.09-0.96-2.05-3.57-1.85-5.24-0.85-4.54 2.84-6.4 4.44-13.72 4.79-3.5 0.15-3.7 4.8-0.99 6.75 1.97 1.34 5.85-1.7 8.46-2.85 4.79-2.15 7.9-3.3 8.35-5.85 0.35-1.79-1.26-2.04-1.26-2.04 2.44-0.7 4.4 1.14 3.44 3.64-1.06 3.5-8.22 7.9-10.4 9.59-2.13 1.6-4.79 3.2-6.91 1.75-2.08-1.4-2.33 3.65-5.73 9.1-3.68 5.85-8.46 10.5-14.4 13.9 4.02-4.35 8.71-8.3 8.41-9.9-0.46-2.65-1.72-2.4-5.4-1.3-5.04 1.6-7.21 1.9-11.9-0.55-3.5-1.8-6.8-1.8-10.98 1.85-4.79 4.25-8.72 7.1-16.03 7.5-2.13 0.15-2.79-3.6-9.04-5.35-2.23-0.7-4.77 0.25-8.36-0.15-3.59-0.45-6.89-3.05-8.5-7-1.4-3.6-7-2.85-8.39-8.1v-12.89c0-3.24 3.2-4.54 5.07-4.84 3.88-0.65 6.49 0.95 9.55 3.9 3.67 3.59 6.47 0.94 5.41-2.9-0.96-3.6-6.5-7.5-11.84-9.59-5.19-2-8.1-11.5-8.5-17.09v-10l2.3-7.3c0.8-3.1-1.53-8.09-2.3-10.09l1.67-0.85 6.45 9.65c2.19 3.34 3.29 11.69 9.08 12.29 3.99 0.45 3.79 0.25 6.32 3.7 1.86 2.75 5.36 1.6 5.96 0.5 0.81-1.6-1.37-9.35-5.51-12.8-5.39-4.45-3.68-12.54-1.22-15.79 2.13-2.95 0.77-6.44-4.22-7.24-4.34-0.75-5.09-10.78-0.55-15.58 4.78-5.04 12.5-10.34 14.84-14.08 3.64-5.75 4.09-7.2 1.38-12.99l-1.56-2.78h1.96l4.7 3.8c2.91 2.75 1.8 7.35-0.91 12.35-2.44 4.6-6.08 6.36-6.18 10.76-0.15 3.49 0.35 5.29 1.49 3.44 2.18-3.54 7.87-4.99 8.69-10.69 0.65-4.79 1.87-9.64 4.53-14.03l0.65-0.8-1.87 6.04c-1.29 4.9 0 7.99 1.35 11.64 1.3 3.7 8.36 0 10.79-2.75 4.19-4.59 3.73-10.89 11.4-14.43l5.23-4.48 0.76-0.85 1.86 1.63 11.1 0.15c2.02 0 6.41-1.78 9.82-1.78l10.09 0.05 6.4-0.05-2.24 8.57c-1.66 6.95 2.58 11.29 4.35 13.24 1.96 2.25 1.45 2.9-2.11 4.4-1.71 0.75-0.56 1.69 1.3 2.14 2.77 0.75 5.53 1.7 6.39 2.3 2.02 1.4 2.02-1.75-2.32-4.29-1.96-1.1-0.25-3.85 2.27-6.7 1.51-1.8 7.45-1.8 11.1-0.8 5.5 1.5 6.36 4.1 5.7 8.8-0.76 5.34-7 6.94-10.16 8.79-2.6 1.4-0.58 6.2 1.44 9.5 2.02 3.4 7.06 3.55 9.97 1.9 5.24-2.9 8.25-0.95 11.94 1.25 2.53 1.4 7.27 0.55 8.57-1.25l1.51-5.1z" fill="url(#paint5_linear_1701_6905)"/>
  <path d="m155.9 70.36 3.2 6.94 4.82 5.85 7.78 4.1 6.7 11.69 1.46 2.55 1.1-7.84-4.99-9.1-10.5-8.89-3.88-0.55-2.96-4.75h-2.73z" fill="url(#paint6_linear_1701_6905)"/>
  <path d="m153 71.21 4.27 7.89 7.21 4.6-1.26 3.55 0.05 6.8-3.01-9.8-6.1-3.85-3.2-6.39-11.29-3.65-10.59-3.35 4.08-1.4 8.65 2.8 11.19 2.8z" fill="url(#paint7_linear_1701_6905)"/>
  <path d="m147.1 74.01-1.97 5.04c-1.16 3.15 0.96 6 3.84 8 4.74 3.1 6.92 8.49 4.63 14.04-1.5 3.9-3.47 2.97-3.12 6.42l1.16 3.5 4.59 2.9 2.18 7.19-1.26-2.2c-1.36-2.29-4.57-2.79-7.43-3.29-4.19-0.75-4.49-5.05-6.46-3.45-1.87 1.6-2.07 5.55-4.19 9.94-2.97 6.25-4.93 11.94-6.08 18.69-0.66 4.19 2.81 6.94 3.87 13.34 1.05 6.4 0.35 10.5-4.59 16.9-2.91 3.9-1.5 6.35-0.14 7.4l-2.44-0.5c-1.11-3.15 0.35-5.9 3.41-11 2.66-4.5 2.6-6.25-0.31-11.35-1.87-3.45-5.65-0.5-7.01 2.95-1.15 3.2-5.69 6.4-7.55 6.4 2.66-2.45 5.67-5.75 5.77-8.3 0.1-1.9-3.63 2.45-6.07 2.6-2.66 0.15-3.87-1.8-6.1 0.65-4.74 5.05-7.8 7.2-12.69 8.55 5.64-4.65 7.55-11.3 14.96-16.7 6.6-4.85 9.57-8.05 14.1-8.05 1.87 0 1.57 5.15 1.67 6.45 1.96-3.3 1.26-8.1 0.2-10.34 2.66-3.3 4.63-9.6 3.37-14.04 3.35-3.85 4.27-9.44 3.97-13.74 1.86 0.3 3.48 2 3.73-0.8-1.97-2.3-3.33-4.3-4.08-10.4-0.76-5.64-5.89-10.59-10.07-12.99 3.58-0.4 5.65 1.6 8.05 2.1 3.78 0.8 3.88 0.95 6.45 5.2 2.28 3.85 3.79 7.89 5.61 6.8 1.96-1.2 3.03-5.5 2.47-7.4-1.06-3.5-7.3-5.9-11.69-8.45-4.79-2.75-7.81-4.9-14.56-5.85 5.14-1.4 10.58 0.8 14.04 2.95 2.44 1.45 6.33 1.9 8.78 4.05 2.71 2.45 2.92 0.2 1.36-2.75-1.81-3.55-4.2-5.35-10.49-6.55-6.35-1.3-9.92-1.86-13.21-8.81 6.24 2.4 9.21 3.8 13.56 3.8 6.55 0 8.32-0.4 9.74 1.1z" fill="url(#paint8_linear_1701_6905)"/>
  <path d="m117.6 46.56c2.66 1.65 9.11-0.74 12.57-1.49 3.35-0.8 4.71 1.74 2.59 2.34-3.55 1.05-9.09 1-12.54 2.3-4.54 1.7-6.46 5.6-6.46 7.75s2.18 1.75 3.34 0.65 5.24-0.4 8.84 0.7 5.21 0.6 6.47-1.2 5.55-2.85 7.41-5.3c2.13-2.95-1.66-4.5-5.12-5.35-1.86-0.5-2.77-1.95-0.75-3.04 1.3-0.75 2-2.9-0.28-1.9-3.02 1.35-6.73 2.9-10.45 2.9-3.73 0-5.11-1.05-6.98-1.9-2.23-1.1-2.79 0.9 1.36 3.54z" fill="url(#paint9_linear_1701_6905)"/>
  <path d="m96.71 46.71c1.36 2.15-1.61 7.5-4.86 8.6-4.44 1.5-2.94 10.9-1.79 11.7 2.13-2.75 6.67-4.35 9.78-5.1 4.54-1.15 6.87-3.9 9.26-7.9 1.66-3 6.19-6 7.45-8.75-2.44-1.24-4.11-3.19-8.3-1.84-2.76 0.9-4.43 3.29-11.54 3.29z" fill="url(#paint10_linear_1701_6905)"/>
  <path d="m97.01 73.21c2.12-2 4.09-0.7 6.2 0.3 2.71 1.25 5 0.3 8.01 1.5 2.76 1.1 5.62-0.3 8.97-0.4 2.76-0.1 5.96 2.1 7.73 2.4-3.25-2.75-6.31-4.75-7.83-8.5-1.36-3.6-4.47-4.7-9.46-4-4.69 0.7-10.94 5.5-13.62 8.7z" fill="url(#paint11_linear_1701_6905)"/>
  <path d="m76.2 39.22c1.35 4.2 2.41 4.8 2.97 6.19 1.26 3 0.55 5.65-0.56 7.65l-2.41-3.75-2.06-3.3 2.06-6.79z" fill="url(#paint12_linear_1701_6905)" opacity=".7"/>
  <path d="m113.1 29.18c-2.13 0-2.13 3.6 0 3.6 1.97 0 1.97-3.6 0-3.6z" fill="url(#paint13_linear_1701_6905)"/>
  <path d="m41.68 50.46c-1.3 0-1.3 2.55 0 2.55 1.15 0 1.15-2.55 0-2.55z" fill="url(#paint14_linear_1701_6905)"/>
  <path d="m183.9 105.8c-2.13 0-2.13 2.7 0 2.7 1.81 0 1.81-2.7 0-2.7z" fill="url(#paint15_linear_1701_6905)"/>
  <path d="m78.31 56.21c-4.19 3.85-7.15 11.1-5.03 15.3 1.57 3.3 3.85 2.7 4.51 6.59 0.96 5.65 0 6.8 2.02 8.95-0.7-5.95 1.02-8.95 3.98-14.34 1.92-3.75 0.15-4.6-0.6-3.1-1.81 3.6-3.93 5.1-4.88 5.1-1.87-2.7-4.4-6.3-0.52-13.5 1.36-2.75 2.12-6.2 0.52-5z" fill="url(#paint16_linear_1701_6905)" opacity=".5"/>
  <path d="m96.91 74.81c-7.72 2.45-10.98 10.69-10.12 15.99 0.6 3.65 1.36 5.34 1.81 3.35 0.51-6.95 5.69-10 12.75-11.95 3.78-1.1 5.45-4.15 7.88-4.99-2.53-1.8-5.59-3-12.32-2.4z" fill="url(#paint17_linear_1701_6905)" opacity=".5"/>
  <defs>
    <radialGradient id="paint0_radial_1701_6905" cx="0" cy="0" r="1" gradientTransform="translate(100 99.53) scale(119.8)" gradientUnits="userSpaceOnUse">
      <stop stop-color="#FF3E00" offset="0"/>
      <stop stop-color="#FF3E00" stop-opacity=".56" offset=".5104"/>
      <stop stop-color="#FF3E00" stop-opacity="0" offset="1"/>
    </radialGradient>
    <linearGradient id="paint1_linear_1701_6905" x1="100" x2="100" y1="17.26" y2="181.5" gradientUnits="userSpaceOnUse">
      <stop stop-color="#1F0916" offset="0"/>
      <stop stop-color="#4A090E" offset=".53"/>
      <stop stop-color="#2B0910" offset="1"/>
    </linearGradient>
    <linearGradient id="paint2_linear_1701_6905" x1="36.01" x2="36.01" y1="21.71" y2="93.75" gradientUnits="userSpaceOnUse">
      <stop stop-color="#7F1515" offset="0"/>
      <stop stop-color="#420910" offset="1"/>
    </linearGradient>
    <linearGradient id="paint3_linear_1701_6905" x1="46.79" x2="46.79" y1="17.26" y2="83.15" gradientUnits="userSpaceOnUse">
      <stop stop-color="#841A1A" offset="0"/>
      <stop stop-color="#820908" offset="1"/>
    </linearGradient>
    <linearGradient id="paint4_linear_1701_6905" x1="48.08" x2="48.08" y1="105.2" y2="132.1" gradientUnits="userSpaceOnUse">
      <stop stop-color="#FF9661" offset="0"/>
      <stop stop-color="#822B09" offset="1"/>
    </linearGradient>
    <linearGradient id="paint5_linear_1701_6905" x1="100" x2="100" y1="17.26" y2="178.4" gradientUnits="userSpaceOnUse">
      <stop stop-color="#5E0908" offset="0"/>
      <stop stop-color="#FF5700" offset=".31"/>
      <stop stop-color="#FFD141" offset=".56"/>
      <stop stop-color="#FF5700" offset=".8"/>
      <stop stop-color="#5E0908" offset="1"/>
    </linearGradient>
    <linearGradient id="paint6_linear_1701_6905" x1="168.4" x2="168.4" y1="70.36" y2="101.5" gradientUnits="userSpaceOnUse">
      <stop stop-color="#520908" offset="0"/>
      <stop stop-color="#C71807" offset="1"/>
    </linearGradient>
    <linearGradient id="paint7_linear_1701_6905" x1="151.6" x2="151.6" y1="65.61" y2="94.05" gradientUnits="userSpaceOnUse">
      <stop stop-color="#FF6400" offset="0"/>
      <stop stop-color="#520908" offset="1"/>
    </linearGradient>
    <linearGradient id="paint8_linear_1701_6905" x1="139.8" x2="139.8" y1="71.21" y2="178.4" gradientUnits="userSpaceOnUse">
      <stop stop-color="#520908" offset="0"/>
      <stop stop-color="#D91908" offset=".51"/>
      <stop stop-color="#520908" offset=".86"/>
    </linearGradient>
    <linearGradient id="paint9_linear_1701_6905" x1="125.3" x2="125.3" y1="41.72" y2="59.49" gradientUnits="userSpaceOnUse">
      <stop stop-color="#D91908" offset="0"/>
      <stop stop-color="#520908" offset="1"/>
    </linearGradient>
    <linearGradient id="paint10_linear_1701_6905" x1="105.8" x2="105.8" y1="42.62" y2="67.01" gradientUnits="userSpaceOnUse">
      <stop stop-color="#700908" offset="0"/>
      <stop stop-color="#D91908" offset="1"/>
    </linearGradient>
    <linearGradient id="paint11_linear_1701_6905" x1="112.5" x2="112.5" y1="64.16" y2="77.11" gradientUnits="userSpaceOnUse">
      <stop stop-color="#520908" offset="0"/>
      <stop stop-color="#700908" offset="1"/>
    </linearGradient>
    <linearGradient id="paint12_linear_1701_6905" x1="77.11" x2="77.11" y1="39.22" y2="53.06" gradientUnits="userSpaceOnUse">
      <stop stop-color="#FF9861" offset="0"/>
      <stop stop-color="#822B09" stop-opacity=".25" offset="1"/>
    </linearGradient>
    <linearGradient id="paint13_linear_1701_6905" x1="113.1" x2="113.1" y1="29.18" y2="32.78" gradientUnits="userSpaceOnUse">
      <stop stop-color="#F9B469" offset="0"/>
      <stop stop-color="#FF8200" offset="1"/>
    </linearGradient>
    <linearGradient id="paint14_linear_1701_6905" x1="41.68" x2="41.68" y1="50.46" y2="53.01" gradientUnits="userSpaceOnUse">
      <stop stop-color="#F9B469" offset="0"/>
      <stop stop-color="#FFD141" offset="1"/>
    </linearGradient>
    <linearGradient id="paint15_linear_1701_6905" x1="183.9" x2="183.9" y1="105.8" y2="108.5" gradientUnits="userSpaceOnUse">
      <stop stop-color="#F9B469" offset="0"/>
      <stop stop-color="#FF8200" offset="1"/>
    </linearGradient>
    <linearGradient id="paint16_linear_1701_6905" x1="81.09" x2="81.09" y1="55.86" y2="87.05" gradientUnits="userSpaceOnUse">
      <stop stop-color="#821D17" offset="0"/>
      <stop stop-color="#FF8200" offset="1"/>
    </linearGradient>
    <linearGradient id="paint17_linear_1701_6905" x1="97.58" x2="97.58" y1="74.48" y2="95.01" gradientUnits="userSpaceOnUse">
      <stop stop-color="#520908" offset="0"/>
      <stop stop-color="#D91908" offset="1"/>
    </linearGradient>
  </defs>
</svg>