<svg xmlns="http://www.w3.org/2000/svg" viewBox="0 0 100 100">
<!-- SVG created with Arrow, by QuiverAI (https://quiver.ai) -->
  <style type="text/css">.cls-0 {fill:url(#SVGID_1_);}
.cls-1 {fill:#1A2F1D;}
.cls-2 {fill:#243E22;}
.cls-3 {fill:#36572A;}
.cls-4 {fill:#446E35;}
.cls-5 {fill:#63923E;}
.cls-6 {fill:#81C954;}
.cls-7 {fill:#558034;}
.cls-8 {fill:#99EB71;}
.cls-9 {fill:#C2FF97;}
.cls-10 {fill:#8AE642;}
.cls-11 {fill:#E6FFAA;}
.cls-12 {fill:#78AB35;}
.cls-13 {fill:#467519;}
.cls-14 {fill:#94E651;}
.cls-15 {fill:#BDFF92;}
.cls-16 {fill:#7AF084;}
.cls-17 {fill:#DCFFAD;}
.cls-18 {fill:#B3FF79;}
.cls-19 {fill:#21381F;}
.cls-20 {fill:#1E341C;}
.cls-21 {fill:#345324;}
.cls-22 {fill:#4C6C35;}
.cls-23 {fill:#274121;}
.cls-24 {fill:#314B25;}
.cls-25 {fill:#456131;}
.cls-26 {fill:#4E7536;}
.cls-27 {fill:#578039;}
.cls-28 {fill:#69963E;}
.cls-29 {fill:#5F8436;}
.cls-30 {fill:#3B5624;}</style>
  <radialGradient id="SVGID_1_" cx="50" cy="50" r="49.2" gradientTransform="matrix(1 0 0 -1 0 100)" gradientUnits="userSpaceOnUse">
    <stop stop-color="#6DC6A7" offset="0"/>
    <stop stop-color="#0B3D37" offset="1"/>
  </radialGradient>
  <path class="cls-0" d="m99.2 50c0 27.2-22 49.2-49.2 49.2s-49.2-22-49.2-49.2 22-49.2 49.2-49.2 49.2 22 49.2 49.2z"/>
  <path class="cls-1" d="m96.9 36.1c0.5-2.5 0.8-4.8 0.8-8.1 0-15.7-11-25.6-25.5-25.6-2.5 0-4.9 0.2-8 0.7-3.7-1.9-7.1-3.1-12.2-3.1-5.6 0-11-0.1-18.1 2.6-1.9-0.2-3.4-0.3-5.2-0.3-15.3 0-26 9.6-26 25.3 0 1.9 0.2 3.9 0.5 6-1.9 3.5-3.2 8-3.2 12.7v5.3c0 3.3 0.9 7.2 3.4 12.2-0.4 2.9-0.8 5.7-0.8 8.1 0 12.7 8 26 24.4 26 2.1 0 4.4-0.2 7.1-0.6 4.1 2.3 8.5 3.3 12.5 3.3h6.7c3.3 0 7-1.2 11-3.2 2.4 0.4 4.8 0.7 7.2 0.7 16.3 0 26.3-9.3 26.4-25 0-2.2-0.1-4.6-0.6-7.2 1.7-3.3 3-8 3-12.4v-5.3c-0.4-5.1-2-9-3.4-12.1z"/>
  <path class="cls-2" d="m29 7.1c-2.9 0-6.5 0.4-6.5 0.4-2.8 1.1-3.7 5.9-5.5 6.6 1.9 0 8.4-2.7 8.4-2.7l3.6-4.3z"/>
  <path class="cls-3" d="m26.9 22.9-2.6 0.6-2.4 1.2c-0.5 2.6-2.6 8.6-2.6 8.6l5-3.3 2.6-7.1z"/>
  <path class="cls-4" d="m23 45.9 2.6 6.4 1.5-1.9 0.3-2.3-1.8-3.2-2.6 1z"/>
  <path class="cls-5" d="m23.7 91.9-2.8-0.5c-1.6-2.9-4.3-4.5-5.8-7.5-1.7-3.2-2.4-8.1-3.3-9.5l4.8 3.5c1.2 7 5 10.3 9 13.5l-1.9 0.5z"/>
  <path class="cls-3" d="m28.7 15.4 2.4-3.3 5.1 1.2c2.2 0.4 3.4 0.5 5.7-0.6l5.1-2.6 2.6 1.2-5.2 4.1-6.5 1.5-9.2-1.5z"/>
  <path class="cls-2" d="m54.9 10.4-2.9 2.3 5.1 3.7 2.8-0.3 1.4-1.4-5.1-3.8-1.3-0.5z"/>
  <path class="cls-4" d="m66.4 13.8c-1.3 0.4-3 0.8-5.1 0.9l0.5 3.2 9.2 2.5-1.9-3.4-2.7-3.2z"/>
  <path class="cls-2" d="m74.6 12.1c3.1 0.2 5.3 0.9 7.5 3l0.1 1-7.6-1.4v-2.6z"/>
  <path class="cls-4" d="m77.3 22.9 0.4 3.7 4.2 1.9 3.2-2.4-6-3-1.8-0.2z"/>
  <path class="cls-2" d="m86.7 19.1c2 0.3 3.8 1.5 5.8 3.5l0.2-2.6-1.7-2.1-4.9-1.8 0.6 3z"/>
  <path class="cls-2" d="m86.7 53.9-0.6 4.5 3.5 7.7 3.7-5.2-3.4-6-1.3-3.1-1.9 2.1z"/>
  <path class="cls-3" d="m77.7 68.6 0.4 2.8-2 5.6 3-0.9 1.3-4 0.6-6.5-3.3 3z"/>
  <path class="cls-2" d="m84.1 83.3 7.8-2.4 3.7-5.3-0.5 4-2.2 3-3.3 0.9s-6.3 1.1-6.7 3.4l-1.5 4.5h-1.8l2.8-5 1.7-3.1z"/>
  <path class="cls-2" d="m70.1 92.5 2.6 0.2c2.6 0 6-0.8 6-0.8l1.4 1.6-5 2.1-4.7 0.3-4-0.3 3.7-3.1z"/>
  <path class="cls-2" d="m49.9 89.4 3.5 1.7 8.2 2.2 3.5-1.9-5.7-1.4-4.8-1.6-1.7-0.7-3 1.7z"/>
  <path class="cls-2" d="m35.1 86.4 6 2 3.8-2-4.9-2.3-5.9-2 1 4.3z"/>
  <path class="cls-3" d="m30.1 77.9 2 3.5 5.8 2.1 7 2.9 1.7-1-4.7-2.5-11.8-5z"/>
  <path class="cls-5" d="m30 92.1 3.9-0.7-4.8-6.8-3.8-5-2.2-0.5 2 3c2.3 2.5 4.6 7.5 6 9l-1.1 1z"/>
  <path class="cls-2" d="m7.6 70.6c-0.2 1.9-0.2 3.5-0.2 5.5 0.3 6.4 4.5 13.5 13 15l0.5 2.4-6.5-1.4-6.7-5.5-3.1-6.2-0.5-3.4 0.3-0.1 3 4.2 1 0.8-2.5-5-0.2-3.8 0.4-5.4 1.5 2.9z"/>
  <path class="cls-2" d="m6.6 39.9 1.8 2.7c1.2 1.8 2 5 2 5l1.5-1.7c-0.3-4.3-2.2-6.5-2.4-9.3l0.6-4-3.5 4.3v3z"/>
  <path class="cls-3" d="m8.1 16.9-1 5.5 1.9-2c3.6-3.3 5.1-3.3 8.9-3.8 2-0.2 6-2.2 6-2.2v-1.7l-6.2 1.4-7.3 2-2.3 0.8z"/>
  <path class="cls-2" d="m17.9 7.6c-5.3 1.8-11.5 7.1-12.8 11.8l-1 8.7 1.6-1 1.5-1.5 0.2-4.2c1.5-5.3 4.7-9 10.7-12l-0.2-1.8z"/>
  <path class="cls-21" d="m7.2 27.4c4.7-4.8 9.2-8.3 15.2-9.7l1.5-3.3 4.8-2.5-1 3.8 6.4-1-0.2 0.7-5.2 1c-3.1 0.7-7.6 2.2-10.1 3-4.5 1.7-9.9 7.2-11.4 8.5v-0.5z"/>
  <path class="cls-22" d="m24.1 5.9c2-1.3 5.6-1.3 5.6-1.3l-3.1 2.5 4.3-2.2 3-1.5-6.3-0.3c-3 0.5-5.5 1-8 4.5l-3 4.8 2.1-0.5c1.9-3.2 3.2-5.2 5.4-6z"/>
  <path class="cls-23" d="m22.4 17.6 4-1.5c3-3.7 3.7-6.5 6.3-8.4 4.9-4.1 10.4-6.1 17.3-6.1 4.9 0 9.6 1 14.1 3.8l-3.5 1.7c-3.7-2-6.5 0.3-9.5 0.9-2.7-1.4-6-2.6-9.5-2.9l-5.5 0.8-4.2 2.7-4.2 7.8-5.3 1.2z"/>
  <path class="cls-24" d="m36.1 7.1c4 0 7.5 0.6 10.9 2.8l2.6-1.3c-2.9-2-5.7-2.9-8.7-3.2l-4.8 1.7z"/>
  <path class="cls-25" d="m51.1 8c2.3-1 4.3-2.1 6.5-1.9l4.5 1.6-0.7 2.2c-2.4 0-6 1.2-6 1.2l-2.5-1.2-1.8-1.9z"/>
  <path class="cls-21" d="m66.1 4.1 2.6 3.5 1.4 0.4 1.3-0.1 0.7-1 3-1.3-3.7-2-5.3 0.5z"/>
  <path class="cls-23" d="m64.1 3.1 3.8 3c2.2-0.7 4.2-1.2 5.8-1.2 4.5 0 8.5 2.2 11.2 3.2l5.7 2.5-2.9-3-4.6-2.7-5.4-1.8-4-0.7c-3.1 0-5.8 0-9.6 0.7z"/>
  <path class="cls-26" d="m8.1 30.1c6-5 11.5-8.5 18.8-10.5 5-1.5 8-1 12.5-2.9 5-2.1 12.2-7.7 17.2-8 2.5-0.3 4.3-0.1 6.1 1-6.3-0.1-13.6 4.9-17.6 7.2-8.2 4.5-12.5 4.2-16.1 5.2-9.6 1.8-16.4 6-19.4 8.8l-1.5-0.8z"/>
  <path class="cls-4" d="m7.4 21.9c1-2.3 3.2-4.5 6-5.3 4.5-1.5 8.5-2 12-3.6l1.5-1.9c-3.2 1.3-7.3 2.6-13.2 3.8-2.1 0.5-4.3 1.5-4.8 2.2l-1.5 4.8z"/>
  <path class="cls-4" d="m25.9 23.1c-10 3-15.5 6.3-17.8 9.5l-1.5 1 1.1-3c3.7-4.2 9.2-6.5 17.9-9.2l0.3 1.7z"/>
  <path class="cls-26" d="m6.1 59.4c-2.7-6-3.5-9.8-1.7-15.8 2.2-8 5-12.2 10.3-15.5l6.7-4-0.3 1.3c-8.7 6-10.5 7-13 13.2-3 6.5-3 12-1 18.8l-1 2z"/>
  <path class="cls-26" d="m22.7 76.9c-7.6-2-14-8.2-17.1-13.8l-2.2-6.5 1.7 0.3c2.6 6.5 8.8 12.3 14 15.2l4.8 2.3-1.2 2.5z"/>
  <path class="cls-21" d="m23.9 79.6-4.5-1.7c-5.7-2.3-10-5.5-12.3-8.5l-2-3.8 1.3-1.9c3.2 4.7 9.2 10 14.2 11.7l3.8 1.5-0.5 2.7z"/>
  <path class="cls-27" d="m30.9 94.1v-0.7c6.7 0 13.7-4 18.5-6.5l4.7-2.3 4.5-0.7 0.8 0.5-6 2.5c-5.7 2.7-12.8 7.2-17 8.2l-5.5-1z"/>
  <path class="cls-21" d="m37.1 95.9 4.5-0.3c3.8 1 6.3 2 10 2 5.3 0 9-1.2 13-4l4.3-2 1.2 1.8-5.2 2.7c-3.5 2-8.5 3.9-11.5 3.9-6.8 0-11.5-0.6-16.3-3v-1.1z"/>
  <path class="cls-24" d="m58.4 96.4c4.7-1.7 6.2-4.3 9-6.5 2.3-1.8 4.2-3.5 7.5-5.8l1.2-0.2-5.2 6.5c-3.2 2.7-8.3 5.2-12.5 6z"/>
  <path class="cls-21" d="m75.4 95.6 2-0.5c2.5-2 3.5-4.7 4.7-9 1-3.5 2.5-6.5 5.3-8.2l-0.3 1.2c-2 2.8-3 5.5-4 8.8-1.5 3.7-2.7 6-4 7.2l-3.7 0.5z"/>
  <path class="cls-21" d="m82.6 91.6-0.2-0.7c4.2-2 7.2-4 9-6.5l3.5-3.5-1.3 3.7c-2.7 3.5-6.5 6.3-11 7z"/>
  <path class="cls-24" d="m84.1 84.4-0.5-1c3.3-1.3 6.5-2 8.5-3.8 1.8-1.5 2.8-4.5 3-8l1 3.3c-0.7 6-6.2 8.2-12 9.5z"/>
  <path class="cls-21" d="m74.1 81.9 6.8-2.8 4.2-2.2 2.6 0.1c-3.3 2.9-7.3 4.9-11.6 6.4l-2.2 1 0.2-2.5z"/>
  <path class="cls-21" d="m94.4 41.6 2 3c1 2.5 1 4.5 0.7 8.3-0.5 4-2.7 9-4.7 11.7l-1.5 2.4-0.5-1.6c4-6.3 4.7-11.5 4-17.8l-0.5-2.5 0.5-3.5z"/>
  <path class="cls-27" d="m94.4 25.6 1.7 1.8c0 6.7-2 14.2-5 18.7l-3.2 5-0.5-1 4-6.7c2-4.8 3-10.3 3-14.3v-3.5z"/>
  <path class="cls-26" d="m68.9 6.6c2-0.5 4.7-0.5 5.7-0.5 6.5 0 12.5 2.5 15.5 6.3l3 5 0.3 4-2.3-2.8c-2.7-5.5-8.7-10.7-17.4-10.9l-3.8 0.2-1-1.3z"/>
  <path class="cls-26" d="m74.6 14.1 1 0.8c2.8 0.2 5 1.2 7.3 2.8l2 8.2h1.8l-2.6-8.3c-1.7-2.2-5-3.7-9.5-3.5z"/>
  <path class="cls-21" d="m80.1 8 2.8 1.6 0.7 1.5c0.8 2.8 2.3 5 3.1 6v2l2.9 9-2.9-2.2-2.6-8.3-2-4.2-3-4.3-1.4-1.1h2.4z"/>
  <path class="cls-26" d="m77.4 23.1 0.2 1.5c6 1.8 11 5 13.5 8.5l0.3-2.5-4.3-3.7c-3-2.2-6.5-4-10.2-5.8l0.5 2z"/>
  <path class="cls-28" d="m7.1 56.9c1.3-5.5 4-9.5 6.8-14.2l3.2-5.8c1.5-2.5 2.8-11.3 2.8-11.3l2.5-1.2-2.3 8.7c-2.7 6-8 13.8-9.7 18.3-1 3-1.7 8 0.2 13.2l-3.5-7.7z"/>
  <path class="cls-4" d="m11.9 66.6c-0.8-5 1.2-11.2 2.5-15.2 2.5-5.3 8-12 11-14.5l1 0.7c-4.5 4.8-9.3 11-12 17.3-1.3 4.5-2.8 7.7-2 12.5l-0.5-0.8z"/>
  <path class="cls-28" d="m16.1 48.9 1-1c2 4.5 5.3 8.2 7.8 12.2l0.5 3.3-1.3 0.7-2.2-4-5.8-10.2v-1z"/>
  <path class="cls-28" d="m19.4 51.9-2-1.5c0.7-3.8 3.7-5.8 6-8.3 1.7-2.2 2.2-5.2 2.5-7.5l3.7-2.2c-1 4.7-1.7 7.5-5 11-2.5 2.7-4.5 5.5-5.2 8.5z"/>
  <path class="cls-27" d="m18.1 47.4c1.3-3.3 4.5-4.8 6-7.3 1.3-2.2 1.8-5.2 2.3-7.5l2.7-1.5c-1.2 4-1.5 8-4.5 11-2.2 2-4.5 4.5-5.5 7.3l-1-2z"/>
  <path class="cls-29" d="m11.1 64.6c-1.7-5.7-1-11.2 1-14.5 4.5-6 4.5-6.5 6.5-10.2 2.5-5 6.5-9.3 13.3-12.5 5.7-2.5 11.7-2 15.7-2.8l4-0.9 2 0.9-0.7 1-6.8 1.3-9.2 1.2-6.5 2.8-5.8 3.2-3.5 3c-2.2 2.5-3.2 6.5-5.2 9-3.8 4.8-5.8 8-4.8 18.5z"/>
  <path class="cls-26" d="m13.6 50.1c2-2.2 4.3-4.7 5.5-7.5 2.3-5.2 6-10 11-12.2 5.8-3 12-3.3 17.5-4l6-1.5 2.8 1.2c-4.3 0-8.8 2.3-13 2.3-5.8-0.3-10.8 1.2-15.3 4.2-6 3.3-8.7 9.5-10.7 12.8l-3.8 4.7z"/>
  <path class="cls-4" d="m31.1 28.9 4.8-1.8 5.2-0.5 8.8-1.5 2.7-0.7 3.3 1-5.3 0.7-7 1.3-4.7 0.2-5.8 2-2-0.7z"/>
  <path class="cls-28" d="m29.4 33.1c4.5-1 9-1 12.7-0.5l4.3 1-2.3 0.8c-3 0.2-5.4 3-9 6.5-4.2 4-7.4 9.2-7.2 15.5 0.2 6.2 2.7 12.2 7 16.5l-2.3-1c-3.2-3.5-7.2-9-7.3-12.8-0.2-7.5 0.3-12 5.6-17.2 4.5-4.5 5.7-7.5 8.7-9.3l1-0.5-0.5-0.5-6.5 0.3-4.2 1.2z"/>
  <path class="cls-4" d="m39.6 35.6c-4.5 2.8-7.7 7.5-9.5 11-3 6-3.2 13.3 0.8 22l-1.3-1.5c-3-5.2-4.5-14-1.7-19.5 2.5-5 7-8.5 11.7-12z"/>
  <path class="cls-4" d="m30.6 50.9c0.5 3.2 2.8 5.5 4 6.7l2.8 8-6-7-1.3-1.7 0.5-6z"/>
  <path class="cls-28" d="m29.1 72.1 0.5-1.7c3 2.7 7 4.7 10.5 5.5 4 1 8 3.7 12 5.7l2.5 1.5-2 1.3-3.5-1.5-4.5-2.8c-2.7-2-7-2.2-9.2-3.2-3-1.3-4.8-2.5-6.3-4.8z"/>
  <path class="cls-30" d="m30.1 70.4c2.8 2 5.8 4.5 9.3 5 6.5 1 11.2 5 15.7 7.2l1-1.2-6.2-3.5-5.8-3-5.7-1-3.8-2-4.5-1.5z"/>
  <path class="cls-28" d="m36.6 64.6 4.5 4.5 1.8 4.5-2.8-0.2-2.5-6-1-2.8z"/>
  <path class="cls-28" d="m43.1 73.4 5-1.5 3 0.2-1.5 1.8-4 1.5-2.5-2z"/>
  <path class="cls-26" d="m45.1 74.6 4.8-1c3.7-0.7 5.2 0 9.2 0 3.3 0 7.5-1 10.8-2.5l1 2c-3.5 4-9 6.8-14 7.8l-7-3.9-4.8-2.4z"/>
  <path class="cls-21" d="m45.1 73.6 4-1.5c4-1.5 6.8-1.7 10-1.7 3.8-0.3 7.5-1.3 11.8-3.3l0.5 6c-3.5 1.5-8 3.5-12.7 3.3-3.6 0-4.6-0.8-8.8 0l-2.5 0.6-2.3-1.6v-1.8z"/>
  <path class="cls-28" d="m54.9 65.1 3.7-0.5 7.8 3-2.7 2.5-5-2-5.3-1.5 1.5-1.5z"/>
  <path class="cls-21" d="m66.4 68.6 1.5-4.2c2.2-6.5 5.5-7 8.5-9.8 2.2-1.7 5.2-6.5 5.2-8l1.3 2c-1.3 5.3-7.5 9-10.5 12.5-2 2.5-2.5 7-3.3 8.8l-2.7-1.3z"/>
  <path class="cls-27" d="m66.9 69.1 2.2-0.5c0.8-4.5 1.5-7.2 4.5-9.7 3.3-3 6.3-4.5 8.3-8.8l1-1.5 0.2 1.8c-2.7 5.5-9.7 9.2-11 13l-1.7 5.7h-3.5z"/>
  <path class="cls-21" d="m75.9 45.1 1.2 5c0.3 2.3 0.3 3.5-0.7 5l-2.8 2 0.5-4.2-0.7-3.8 2.5-4z"/>
  <path class="cls-21" d="m77.7 31.1 1.2 4 5.7 8 2.8 4.5-1.3 3.3-3.5-5.5-4.7-7.5-1-6.3 0.8-0.5z"/>
  <path class="cls-21" d="m84.4 29.6 4.7 4 0.5 2.5-0.2 4.5-2 4.3-1.8-1.5 1.8-4.3-0.3-4-2.5-3.5-0.2-2z"/>
  <path class="cls-28" d="m77.4 25.6 0.3 1.3c3.4 1.2 8.7 4.5 10.7 7.2l2.2 3.3 0.8-2.3c-1.3-4.7-6.3-8-11.5-10.2l-2.5-0.8v1.5z"/>
  <path class="cls-4" d="m59.9 18.6 2.5-0.5 3.7 2 4.3 2 1 1-0.5 1.5c-3-0.7-7.5-4.2-11-6z"/>
  <path class="cls-4" d="m27.4 15.9 2.7-4.5c3.5-4.5 10.8-8.3 17.3-9.3 6.5-0.7 11.2 0.5 16.7 3.8l-1.5 0.5c-4.5-2-8.5-3.3-11.7-3.3-8 0-16.3 3.5-19.5 7.8l-2.7 4.5-1.3 0.5z"/>
  <path class="cls-27" d="m6.1 26.6c-1-8 3-14 11.3-19-4.3 1.3-12.5 7.3-13.3 14.8-0.2 2.2 0 6.2 0 6.2l2-2z"/>
  <path class="cls-26" d="m3.9 56.6c-3.3-6.7-1.5-13.5 1.2-20 3.3-7.5 8.3-11.5 16.3-15 6.3-2.7 12.5-3.7 16.2-4.7 5.8-1.5 11.8-7.3 17.3-8.3l2.7 1c-3.5 0.8-7.2 2.8-12.5 5.8-5.2 3.2-8.7 4.2-14.7 5-6.3 1-16.3 4-20.3 8.2-5 5-7.5 13.8-7.5 19.3 0 3.5 0.8 6.5 1.8 9.5l-0.5-0.8z"/>
  <path class="cls-3" d="m44.1 16.9c5.5 0 8.5 2.2 12.5 4.2 3.5 1.8 6.5 1.3 11 7.5 2 3.3 3.3 7 5.8 11l0.2 0.8-0.2 3.2-0.5 1-4.5-8-3.8-7-4.5-3.7-6-2.5-5.7-3.3-6.8-1.2 2.5-2z"/>
  <path class="cls-28" d="m38.4 19.9c4.7 0.2 7 1.2 9.5 2.2l8 3.3 5.2 3c3.5 1.7 5.5 7.2 8.5 12.7 1.5 2.8 1.8 6.5 1.8 6.5l-0.3 1-1.2-5-3.8-7c-2.5-5.2-4-7.5-6.5-8.5l-5.7-2.5-6.8-2.7c-2.7-1.5-6-2.5-8.7-2.5v-0.5z"/>
  <path class="cls-28" d="m30.6 21.6c3.8-0.5 7-1.2 10.3-2.5 4-0.7 7-1.2 12.2 2.5l6 2.5 4.8 3 2.5 3.5 0.5 3.3-3.3-5-2.5-2-7.7-3.5c-4.3-1-6.3-4-10.8-4.3l-3.9 0.8-4.1 1.2-4 0.8v-0.3z"/>
  <path class="cls-28" d="m30.9 31.6c3.7-2 7.7-3.5 11.7-3l5.3 0.8c3.5 0.5 6 0.5 10 3.2l0.8 0.3c2.2 1.7 4.2 4.5 5 7 1.4 4.2 0.4 9-2.1 14-1 2-2.5 3-4 4-2.5 1.7-5.5 2.5-8.2 0.7-2-1-2.3-3.2-2-3.2 2.7 2 4.5 2.5 7.2 1.7 2.8-1 4.5-3.7 5.5-8 1.3-4.5 1-6.5-1.5-9.7-2.5-3.8-6-3.8-10.2-4.5l-4.5-1.3c-3.5-1-9.3-2-13.3-0.5l0.3-1.5z"/>
  <path class="cls-25" d="m42.9 35.4c1-0.3 1.7-1.3 3.5-1.3 2.2 1.5 2.7 2.5 4.7 3.3 2.5 1 4 1 5.5 4 1.5 3.5 1.8 7.2-0.2 9.7l-0.9 0.5c1.4-2.7 0.9-7.2-1.1-9.7-2-2-4.8-2-6.5-3.3l-2.5-2.2-2.5-1z"/>
  <path class="cls-27" d="m33.9 55.4c0-4.3 1.2-7 4-9.8 3-2.7 5.7-3.7 9-3.7 3.5 0 6 2.2 6 4.2-3-2.5-6-2.7-9-1.7-4.3 1.5-6.2 5.2-6.5 9.5-0.3 5.2 1.7 11.2 5.2 13.2l6.3 3.5 1.2 0.8-2 0.7-6.2-3.5c-3.8-2.5-8-8.2-8-13.2z"/>
  <path class="cls-27" d="m36.4 59.6c1.2 4 3.2 7 6.2 8.8 2.5 1.7 6 3.7 7.3 3.7l3-1-2.5-0.7-5.5-3.5c-3.3-2-6.5-4.5-8.5-7.3z"/>
  <path class="cls-4" d="m42.9 35.1c2 0 2.7 0.5 3.7 1.3 3.3 3 5.8 2 8 4.5 2 2.2 2.8 7 1 10.7 1.5-4.2 0.3-8.7-2-10.2-2.2-1.8-4.2-1.3-6.2-3-1.5-1.3-2-2.3-4.5-3v-0.3z"/>
  <path class="cls-8" d="m36.5 54.9c0-4.8 2.9-11.5 10.1-11.8 2.8 0 4.8 1 6 2.5-1.5-1.2-3.2-1.7-5-1.7-6.5 0-10.1 4.5-10.1 10.5 0.1 9 4.4 10.7 8.9 13.5l4.7 3.2-2.2 0.3-5.8-3.5c-4.5-2.5-6.6-7-6.6-13z"/>
  <path class="cls-6" d="m35.4 55.4c0-5 3-11.8 10.5-12.3 2.7-0.2 5.7 0.5 6.7 2.5-1.2-1-3.2-2-5.2-2-6 0-9.8 4-10.3 10.3-0.2 9.2 4 11.7 8.3 14.2l5.2 3.3-1.7 0.2-5.3-3c-4.2-2.2-8.2-7-8.2-13.2z"/>
  <path class="cls-27" d="m41.2 56.1c0-2.7 1.2-8.5 5.5-8.5 1.2 0-1.8 0.8-2.6 2.8-1.5 3.5-0.7 9.5 2.8 11.5 2.2 1.2 5.7 1.5 7.7 1.2 4.5-0.5 7.8-4.2 10.8-7.7 3.3-3.5 6.7-6.8 8-11.8l0.2-3.2 0.5-1.3 2.5 0.5c0 3.5-1 9.5-3 12.8-3.2 5-11.2 12-16 13.2-3.2 1-4.7 1-7.7 0.8-5.8-0.8-8.5-5.5-8.7-10.3z"/>
  <path class="cls-8" d="m42.4 54.4c0-3 1-6 4.2-6.5-2.5 1.2-3.2 3.7-3.2 6.7 0.2 3 1.7 6.5 4 7.8 2.2 1 4.7 1.5 7.2 1.2 4-0.7 7.3-3.5 10-6.7 4.5-5 8.5-8 9-15l0.3-5.5 0.7 0.2c0 10.5-3.2 13-7.2 17.8-3.8 4.2-7.3 9.5-12.8 10-2 0.2-5.5-0.5-7.2-1-3-1.5-5-5.3-5-9z"/>
  <path class="cls-27" d="m47.4 55.4c2.2 2.2 5.2 2.7 7.5 2 3.2-1.3 4.7-4.5 5.7-9 1.3-4.8 0.3-7.8-2.2-10.5-2.5-3-5.5-3-9.8-3.5l-4.7-1.3c-2.8-0.7-5.2-1.2-11.8-1.2l1.5-1 5.8-0.8 4.2 0.5 4.8 1c4 0.5 7 0.5 10.2 3.3 3.5 3 5.5 7 3.8 13.5-0.5 3.7-1.8 7.7-5 9.5-2.8 1.7-5 1.5-7 0.7-1.8-0.7-2.8-1.7-3-3.2z"/>
  <path class="cls-6" d="m47.4 55.4c3.2 2.5 6 2.5 8 1.5 3-1.5 4.5-4.8 5.5-9.3 1.2-4.5 0-7.2-2.5-10.2-2.3-2.5-5.5-3-9.5-3.5l-4.8-1.5c-3.5-1-6.7-1-11.5-0.5l1-0.8c3.5-0.5 6.3-1 10-0.2l4.8 1.5c3.7 0.7 7 0.5 9.7 3 3.3 3 5 7.2 3.5 12.5-0.7 3.7-2.2 7.5-4.7 9.2-2.5 1.8-4.5 1.5-6.5 0.8-1.3-0.5-2.8-1.3-3-2.5z"/>
  <path class="cls-6" d="m29.6 56.4c0-10.3 4.3-13.3 9.8-18.5 2-2 5-3.8 7-4l-1.5-0.3c-2.8 0.5-4.5 1.8-6.2 3.5-5.8 5.5-10.1 9.3-10.6 18.3 0 4.7 1 9.2 3.3 14l1.7 0.5c-2.2-3.8-3.5-8-3.5-13.5z"/>
  <path class="cls-8" d="m30.1 56.1c0-9 3.5-12.5 7.3-16.2l2.2-2.3 1-0.7-0.7 1.2-4.8 5c-3 3.5-5 8.3-5 13z"/>
  <path class="cls-4" d="m59.1 82.9c-7 0.5-13.2 3.5-18 5.7l-5.7 2.3 0.7 1.5c4.3-0.3 7.8-3 12.3-5 2.5-1 6.5-2.3 11-3l-0.3-1.5z"/>
  <path class="cls-21" d="m36.1 92.4 2.3 2c3.2-0.8 7.2-2.8 11-4.5 4.5-2.3 7.5-3.8 13.2-4.3l12.5-1.2-1.7 2-5 1.5c-4.3 0-8.5 2-11 2.5-5.5 1.2-9.8 4-13.5 5.2l-4 1-3.8-1.5v-2.7z"/>
  <path class="cls-24" d="m42.4 95.4c3.2 1 5.5 1.7 8.7 1.7 5.3 0 8.5-0.7 13-3.7l2.8-2.3-0.8-0.5-3.7 1.8c-3.3 1.5-6.3 3-9.8 3-3 0-5.2-0.3-7.2-1l-3 1z"/>
  <path class="cls-26" d="m74.4 77.9c6-2.3 13.3-7.8 16.7-13.3l-0.7-0.2c-3.8 4-8.5 9-14.8 12.2l-1.2 1.3z"/>
  <path class="cls-24" d="m75.6 78.6c5.5-1.2 10.3-5.2 15-10l2.5-2.2-1.5 3-4.9 4.5c-3.6 2.7-7.6 5.5-11.8 6.2l0.7-1.5z"/>
  <path class="cls-28" d="m69.9 82.1 6.7-1.2c6.5-1.5 12.8-6.5 16.5-10.5l2.5-4-0.7-0.5-6 6c-3.5 3.2-7.8 6.5-13.3 7.7l-6 1.5 0.3 1z"/>
  <path class="cls-26" d="m84.1 50.4c2.8-4 5.8-11.8 7-15.8l1-5.5 0.6 2.5c-0.3 6-2.8 11.8-6.6 18.3l-2.2 1.5 0.2-1z"/>
  <path class="cls-27" d="m84.1 51.4 1-0.3c3-5.7 5.5-7.7 7-10.5 1.3-4 2.8-9.7 2.3-14.2l-1-6-1.8-2.8 0.8 4.3c0.7 3.7 0.5 8-0.5 12-1 5-4.3 11.5-7.5 16.5l-0.3 1z"/>
  <path class="cls-28" d="m69.9 18.9-4-6.3-3.3-3 1-1c3.8 2.5 6.3 6.5 7.8 10.8l-1.5-0.5z"/>
  <path class="cls-21" d="m67.4 9.1c5 4 8.2 13.3 8.5 18.5 0.2 5.3 2.2 8.8 4.5 12 2.2 3.3 4 6 5.2 10.3l-0.7 1.5c-1-4-3-6.8-5.3-10.5-2.2-3.3-4.7-6.5-4.7-11.8 0-5.2-3-15-8.3-19.2l0.8-0.8z"/>
  <path class="cls-24" d="m64.1 6.9c6.5 4 11.8 11 12 18.5 0 5.2 0.5 8.7 2.8 11.7 2.5 3.8 5.7 7.8 6.7 12l-0.7 1.3c-1-3.8-3.3-7.5-5.5-10.8-2.5-3.7-4.8-6.7-4.5-12 0.2-6.5-3.3-14.2-9.8-19l-1-1.7z"/>
  <path class="cls-26" d="m39.6 5.4c3.8-0.3 8.8 1.7 11.5 3.2l2-1c-2.7-1.7-7.2-3.2-10.2-3.2l-3.3 1z"/>
  <path class="cls-3" d="m27.4 15.4c3.7-7.5 12-13 20-13.5l5.2-0.3 5.8 0.8 5.7 3.5h-1.5c-3-1.8-6.7-2.8-10.2-3-8.3-0.3-16.3 2.7-21 7.7l-2.8 4.3-1.2 0.5z"/>
  <path class="cls-4" d="m53.9 83.1c-6 1.5-10.8 4.5-14.3 6l-4.2 1.3 0.7 1c3-0.3 6.5-2.3 9.3-4 2-1 4.7-1.8 8.5-2.8v-1.5z"/>
  <path class="cls-23" d="m52.5 83.9 2.6 0.2c3-0.5 6.3-0.7 9.5-1l-2.2 1.3-3.8 0.5c-5.7 1.2-10.7 4.5-15.2 6.7l-5 1.8-2.3-1.5c5.8-1.3 10.5-5.5 16.4-8z"/>
  <path class="cls-29" d="m73.9 63.1c3.5-1.2 6-4.7 7.5-6.2l1 2.2c-2.5 1.3-4.5 4.8-7.3 6.3l-1.2-2.3z"/>
  <path class="cls-26" d="m75.4 64.9c4-3.3 9.7-6 12.2-11.5l0.3 1c-1.8 4.5-5.8 7.7-10.3 11l-2.2 1v-1.5z"/>
  <path class="cls-21" d="m69.9 69.9c3.5-1.3 6.7-3.5 9.5-6 3.5-2.5 6-5.8 8-10l1.7-0.5c-1.7 4.5-3.7 6.5-5.7 9.2-3.3 3.8-7.8 6.8-12.8 9l-0.7-1.7z"/>
  <path class="cls-28" d="m58.6 33.1c2.5 0.3 6.5 2 8 3l1.8 3.8c-2.3-1-3.8-1.5-6-2.3l-1.3-2.2-2.5-2.3z"/>
  <path class="cls-30" d="m58.4 33.1 3.2 2.8c2.3 0.7 4.5 1.7 6.8 3.2l0.7 2.3c-1.7-1.3-4.2-2.5-6.7-3.3l-2-3.2-2-1.8z"/>
</svg>