<svg xmlns="http://www.w3.org/2000/svg" width="250" height="250" fill="none" viewBox="0 0 250 250">
<!-- SVG created with Arrow, by QuiverAI (https://quiver.ai) -->
  <path d="m236.9 127.8c-1.66-6.83-4.81-11.68-4.23-17.88 0.78-8.54 0.66-12.3-1.72-21.05-1.25-4.67 0.97-9.03-0.89-14.24-2.94-8.41-4.66-9.66-7.9-17.67-4.39-11.24-10.09-17.87-19.97-19.96-5.68-1.22-8.15-5.85-13.23-10.11-7.09-5.9-12.99-7.98-22.82-8.65-7.1-0.49-14.65-6.27-22-8.2-6.37-1.72-13.25 0.83-20.95-2.76-5.51-2.62-16.1 2.06-21.78 3.41-5.31 1.34-8.15-0.96-14.41 0.24-6.84 1.34-14.94 6.57-20.9 9.19-5.08 2.35-6.95 8.76-11.23 12.12-4.94 3.84-10.85 10.38-18.67 13.98-7.25 3.37-14.27 16.61-14.75 23.98-0.2 3.22 0.24 8.94-1.4 11.9-3.26 5.89-5.34 7.74-5.16 17.8 0.17 8.82-0.69 13.43-3 21.13-2.7 9.27-3.98 14.55 1.38 22.23 2.5 3.73 4.94 8.06 3.63 13.94-1.66 7.68 6.73 16.22 8.19 22.32 2.65 11.01 11.1 19.48 19.71 25.11 5.04 3.34 11.67 3.62 16.79 8.55 3.94 3.84 6.31 8.54 14.14 10.14 6.15 1.29 11.33 0.51 17.53 3.13 6.38 2.77 14.63 2.95 19.64 6.63 4.57 3.36 16.99 3.74 23.35 2.84 5.97-0.84 11.54-5.6 19.45-4.99 9.01 0.71 16.98 0.54 22.99-8.4 5.21-7.68 13.75-13.96 21.44-15.36 9.61-1.85 13.07-10.45 14.76-18.13 1.46-7.22 4.27-10.41 8.95-15.62 4.39-4.91 2.12-9.95 3.52-15.84 1.01-4.41 4.39-7.53 6.9-12.64 2.6-5.31 4.06-11.01 2.64-17.14z" fill="url(#paint0_angular_503_42644)"/>
  <path d="m231.9 129.1c-1.56-7.13-4.1-10.99-3.72-18.44 0.4-7.64-0.62-13.29-1.2-17.61-0.91-6.92-1.92-8.11-3.58-12.93-1.09-3.3-0.29-8.95-2.93-14.04-2.56-4.95-5.51-7.23-6.86-14.25-1.33-7.03-9.03-11.48-14.11-13.56-4.78-1.95-8.4-1.7-13.33-8.26-4.07-5.44-11.99-4.7-17.07-4.34-7.36 0.54-11.8-2.61-17.39-5.45-8.01-3.95-13.91-2.9-21.94-4.14-4.83-0.73-8.59-1.91-16.5-0.8-5.08 0.68-8.04 3.5-15.46 2.67-6.84-0.77-8.73-1.06-13.95 0.7-5.78 1.97-13.03 3.37-17.66 7.51-4.83 4.26-5.8 8.9-11.61 14.02-4.55 4.14-11.86 5.85-18.43 9.81-7.1 4.32-11.58 16.46-12.46 20.56-0.87 4.26 1.2 7.92-0.03 14.73-0.84 5.02-5.62 6.73-4.84 18.67 0.44 6.05 2.38 9.95 0.62 17.49-1.54 6.94-1.8 16.31 1.15 21.7 2.75 5.11 3.33 9.19 1.4 14.77-1.74 5.39 5.92 13.84 6.44 19.84 0.66 8.05 5.2 16.46 15.51 22.74 3.95 2.53 4.14 5.53 11.25 7.33 5.7 1.51 8.01 3.5 11.97 9.23 3.53 5.12 9.43 5.72 14.83 4.75 5.27-0.98 5.39 1.01 13.17 2.33 6.25 1.06 9.74 2.75 15.65 4.77 6.28 2.22 15.29 1.43 23.21 1.37 7.41-0.07 11.08-4.04 18.24-4.48 5.9-0.38 7.68 1.68 15.19 0.07 7.15-1.56 8.75-5.97 13.14-10.76 4.83-5.21 13.17-8.6 18.38-9.65 7.7-1.6 12.96-7.17 14.62-13.2 1.59-6.03-0.54-8.28 1.64-13.3 2.18-5.3 7.59-7.79 9.67-14.07 1.19-3.9-0.8-6.25 2.26-12.14 3.85-7.55 7.1-13.89 4.73-23.64z" stroke="url(#paint1_angular_503_42644)" stroke-width="2"/>
  <path d="m123.7 226.7c56.9 0 103.2-47.62 103.2-102.1 0-56.36-46.25-104.8-103.2-104.4-57.59 0.35-103.2 46.19-103.2 104.8 0 54.77 45.64 101.7 103.2 101.7z" fill="url(#paint2_linear_503_42644)" stroke="url(#paint3_linear_503_42644)" stroke-width="2"/>
  <path d="m123.7 214c52.28 0 91.54-44.98 91.16-90.29-0.36-50.62-41.66-93.77-92.38-92.27-51.37 1.5-89.71 42.8-89.71 93.36 0 46.24 38.34 89.2 90.93 89.2z" fill="url(#paint4_linear_503_42644)" stroke="url(#paint5_linear_503_42644)" stroke-width="2"/>
  <path d="m123.5 206.1c46.69 0 82.63-39.41 82.63-82.13 0-44.83-35.94-84.24-82.63-83.95-47.24 0.29-80.71 38.4-80.71 84.58 0 43.16 33.47 81.5 80.71 81.5z" fill="url(#paint6_radial_503_42644)" stroke="url(#paint7_linear_503_42644)" stroke-width="2"/>
  <path d="m124.2 55.41-55.85 70.81 4.53 0.09 1.6 0.4 3.46-0.1 4.98 0.98 4.16 2.27 3.15-1.83 1.46-2.25 10.42-0.17v13.29l-1.66 4.32 1.28 1.5 0.19 6.24-1.35 9 1.54 6.29-2.64 4.26 0.14 4.32-4.49 5.12 3.1 7.68 3.95 4.32-0.12 7.89 1.87 1.28 1.24-10.6 2.64-7.54-0.53-7.95 2.79-3.83 8.24-4.26 1.22 4.98-2.79 7.31 4.58 10.95-4.83 14.8h28.62l1.66-4.57 0.57-7.8 2.65-4.86-0.84-4.19 2.5-7.23 3.16-1.18 7.1 6.93-6.2-8.31-0.96-4.85 0.63-2.76-2.24-4.06-4.78-4.85 1.87-4.91-3.46-8.6-0.06-17.64 29.42 0.39 2.95-0.49-7.92-13.87-3.94-6.98-3.46-0.73-9.61-12.31-2.79-13.99-3.26-5.22-6.37-1.06-5.9-6.7-2.6 0.12-9.02-9.85z" fill="url(#paint8_linear_503_42644)"/>
  <path d="m124.2 55.47-52.29 69.18 20.66-0.12 4.07-6.57 8.56 0.23 0.12 13.98 3.68 5.58-1.75 4.36-1.18 1.8 0.24 6.4-2.54 4.58 1.03 3.96 0.37 4.08-2.24 3.36 0.29 25.63 1.49-4.32 0.24-18.64 3.15-1.46 9.61-8.3 7.15-13.08 0.58 2.21 3.8-5.21-1.46-7.68-6.32-12.3 2.24-11.35 2.24-9.85 6.66 0.97 3.46 11.35 2.85 3.6-3.74 7.37 2.24 3.47 7.15 14.31 0.58-20.72 26.34 0.07-43.4-55.24-1.67-3.6-2.45 0.11 0.24-8.16z" fill="url(#paint9_linear_503_42644)" stroke="url(#paint10_linear_503_42644)" stroke-width="2"/>
  <path d="m111.7 66.86-4.12 8.33-0.73 0.41-4.88 2.66-3.5-0.4-6.98 1.8-1.07 7.03-3.04 4.91 3.46-4.19 0.36-6.45 4.88-2.35 2.89 0.65 6.38-2.25 2.7-1.53 1.54-7.88 2.11-0.74z" fill="url(#paint11_linear_503_42644)"/>
  <path d="m134.8 65.71 3.52 6.35 2.79 0.84 6.52 1.02 3.32 4.8 0.23 6.4 5.68 2.71 2.4-0.23 4.01 2.71-4.25-1.99-1.87 0.18-6.38-2.49-2.7-9.91-4.89-2.01-4.43-0.34-3.95-8.04z" fill="url(#paint12_linear_503_42644)"/>
  <path d="m120.1 63.46-9.37 11.52-0.83 8.94-6.2 6.98-3.95 9.31-5.68 0.84-13.16 12.15 2.18-5.44 0.58-1.65 0.35-4.68 9.07-6.34 4.11-1.08 14.69-20.15 8.21-10.4z" fill="url(#paint13_linear_503_42644)" stroke="url(#paint13_linear_503_42644)" stroke-width="2"/>
  <path d="m121.9 64.74-0.12 10.45-3.62 6.82 1.01 5.11 5.96 7.49 2.03 6.82 6.66 1.97 3.32 10.34 4.06 1.19 6.66 4.41h8.56l9.31 5.72 7.58-1.34-3.68-13.08-5.96-5.58-7.15-1.43-6.66-7.22-1.13-3.35-10.2-9.3-1.6-12.04-3.68-4.63-4.2-1.66-7.15-0.69z" fill="url(#paint15_linear_503_42644)" stroke="url(#paint15_linear_503_42644)" stroke-width="2"/>
  <path d="m120.1 86.15-3.01 11.01-3.79 2.76-1.6 5.68 3.8 4.14 0.72 4.41 3.4 3.68 1.72-7.8 2.45-7.05-1.18-7.89-2.51-8.94z" fill="url(#paint17_linear_503_42644)" stroke="url(#paint17_linear_503_42644)" stroke-width="2"/>
  <path d="m109.3 107.3-3.06-0.18-3.11 2.53-4.21 1.39-1.29 6.71-3.21 4.15 2.7-1.29 7.98-0.17 0.12 7.62 3 7.09-2.5 3.95-0.62 3.07 0.87 3.89-2.79 4.96-0.46 6.62 2.24 3.3-0.87 5.17-0.73 5.3 0.63 6.5-0.87 7.17 0.87 10.34 2.73-11.07-0.78-12.88 2.96-2.03 6.02-4.14 5.04-7.41 4.47-4.06 3.69-8.61-4.93-5.89-1.12-4.63 2.79-5.58-4.67-6.66 2.73-10.51-2.18-3.84-2.4-2.08-2.6-3-3.46 0.17-2.98 4.1z" fill="url(#paint19_linear_503_42644)" stroke="url(#paint19_linear_503_42644)" stroke-width="2"/>
  <path d="m144.6 139.6-1.6 5.16 0.92 9.14-0.48 10.06 1.16 6.93v12.19l-1.22 5.9-0.18 9.05 1.5 2.71 1.01-11.18 2.24-3.68-0.64-4.14 2.4-6 4-4.47-1.66-4.01-0.05-4.14-5.26-5.02 2.03-5.1-4.17-13.4z" fill="url(#paint21_linear_503_42644)" stroke="url(#paint21_linear_503_42644)" stroke-width="2"/>
  <path d="m137.8 109.7 0.52 7.03-3.01 7.16 2.11 4.32 4.43 9 1.31 5.27 0.47 9.8-0.42 11.94 0.72 7.89-0.86 15.8-1.56 2.03 0.92 2.89 1.73 1.72 0.63-7.31 1.37-4.5-0.92-4.91 2.75-0.78-0.84-5.83 3.61-2.25 1.99-3.73-1.73-3.03-0.58-2.21-4.78-3.72 2.8-5.33-3.8-7.22-1.82-4.64-1.83-9.06-4.59-5.89 2.56-4.01-1.18-10.43z" fill="url(#paint23_linear_503_42644)" stroke="url(#paint23_linear_503_42644)" stroke-width="2"/>
  <path d="m137.6 81.72 0.58 5.4 1.82 3.78 7.54 3.29 1.56 4.97 4.06 4.75 3.06-0.28-5.13-5.73-0.96-11.58-1.37-0.28-1.6 3.73-1.93 2.57-5.29-3.72-2.34-6.9z" fill="url(#paint25_linear_503_42644)" stroke="url(#paint25_linear_503_42644)" stroke-width="2"/>
  <path d="m133.8 149.9-2.84 2.78-0.18 6.35 1.72 5.02 4.16 2.58-1.6 10.89 1.18 3.36 3.74 3.72 0.18 5.02 2.18 3.2-0.35-6.55-3.89-6.88-2.24-2.35 2.04-6.87-0.93-4.14-4.47-3.2-0.93-4.96 2.23-7.97z" fill="url(#paint27_linear_503_42644)" stroke="url(#paint27_linear_503_42644)" stroke-width="2"/>
  <defs>
    <radialGradient id="paint0_angular_503_42644" cx="0" cy="0" r="1" gradientTransform="translate(125 125) rotate(90) scale(128.3 125)" gradientUnits="userSpaceOnUse">
      <stop stop-color="#8047FF" offset="0"/>
      <stop stop-color="#D094FF" offset=".5781"/>
      <stop stop-color="#F6F1FF" offset="1"/>
    </radialGradient>
    <radialGradient id="paint1_angular_503_42644" cx="0" cy="0" r="1" gradientTransform="translate(125 125) rotate(90) scale(106.7 105.1)" gradientUnits="userSpaceOnUse">
      <stop stop-color="#8047FF" offset="0"/>
      <stop stop-color="#D094FF" offset=".5469"/>
      <stop stop-color="#F6F1FF" offset="1"/>
    </radialGradient>
    <linearGradient id="paint2_linear_503_42644" x1="123.7" x2="123.7" y1="19.08" y2="227.6" gradientUnits="userSpaceOnUse">
      <stop stop-color="#D798F0" offset="0"/>
      <stop stop-color="#F6D7FF" offset=".4792"/>
      <stop stop-color="#8C44B7" offset=".8594"/>
      <stop stop-color="#36086A" offset="1"/>
    </linearGradient>
    <linearGradient id="paint3_linear_503_42644" x1="123.7" x2="123.7" y1="19.08" y2="227.6" gradientUnits="userSpaceOnUse">
      <stop stop-color="#8047FF" offset="0"/>
      <stop stop-color="#F6F1FF" offset=".5104"/>
      <stop stop-color="#8047FF" offset="1"/>
    </linearGradient>
    <linearGradient id="paint4_linear_503_42644" x1="123.8" x2="123.8" y1="30.24" y2="215.1" gradientUnits="userSpaceOnUse">
      <stop stop-color="#35054D" offset="0"/>
      <stop stop-color="#BA82D3" offset=".5052"/>
      <stop stop-color="#8C44B7" offset="1"/>
    </linearGradient>
    <linearGradient id="paint5_linear_503_42644" x1="123.8" x2="123.8" y1="30.24" y2="215.1" gradientUnits="userSpaceOnUse">
      <stop stop-color="#050213" offset="0"/>
      <stop stop-color="#2D0166" offset=".5052"/>
      <stop stop-color="#6221A1" offset="1"/>
    </linearGradient>
    <radialGradient id="paint6_radial_503_42644" cx="0" cy="0" r="1" gradientTransform="translate(124.5 123.1) rotate(90) scale(84.51 83.78)" gradientUnits="userSpaceOnUse">
      <stop stop-color="#521879" offset="0"/>
      <stop stop-color="#351661" offset="1"/>
    </radialGradient>
    <linearGradient id="paint7_linear_503_42644" x1="124.5" x2="124.5" y1="38.93" y2="207.2" gradientUnits="userSpaceOnUse">
      <stop stop-color="#050213" offset="0"/>
      <stop stop-color="#2D0166" offset=".5052"/>
      <stop stop-color="#6221A1" offset="1"/>
    </linearGradient>
    <linearGradient id="paint8_linear_503_42644" x1="123.7" x2="123.7" y1="55.41" y2="205" gradientUnits="userSpaceOnUse">
      <stop stop-color="#C624FF" offset="0"/>
      <stop stop-color="#9735FF" offset=".5156"/>
      <stop stop-color="#521879" offset="1"/>
    </linearGradient>
    <linearGradient id="paint9_linear_503_42644" x1="125.5" x2="125.5" y1="55.47" y2="201.1" gradientUnits="userSpaceOnUse">
      <stop stop-color="#f9f" offset="0"/>
      <stop stop-color="#FFD9FF" offset=".4948"/>
      <stop stop-color="#D174FF" offset="1"/>
    </linearGradient>
    <linearGradient id="paint10_linear_503_42644" x1="125.5" x2="125.5" y1="55.47" y2="201.1" gradientUnits="userSpaceOnUse">
      <stop stop-color="#CC24FF" offset="0"/>
      <stop stop-color="#FFC1FF" offset=".4948"/>
      <stop stop-color="#D488FF" offset="1"/>
    </linearGradient>
    <linearGradient id="paint11_linear_503_42644" x1="99.58" x2="99.58" y1="66.86" y2="91.6" gradientUnits="userSpaceOnUse">
      <stop stop-color="#CC24FF" offset="0"/>
      <stop stop-color="#FFC1FF" offset=".4948"/>
      <stop stop-color="#D488FF" offset="1"/>
    </linearGradient>
    <linearGradient id="paint12_linear_503_42644" x1="149.1" x2="149.1" y1="65.71" y2="90.31" gradientUnits="userSpaceOnUse">
      <stop stop-color="#CC24FF" offset="0"/>
      <stop stop-color="#FFC1FF" offset=".4948"/>
      <stop stop-color="#D488FF" offset="1"/>
    </linearGradient>
    <linearGradient id="paint13_linear_503_42644" x1="100.5" x2="100.5" y1="63.46" y2="113.2" gradientUnits="userSpaceOnUse">
      <stop stop-color="#CC24FF" offset="0"/>
      <stop stop-color="#FFC1FF" offset=".4948"/>
      <stop stop-color="#D488FF" offset="1"/>
    </linearGradient>
    <linearGradient id="paint15_linear_503_42644" x1="147.6" x2="147.6" y1="64.74" y2="125.3" gradientUnits="userSpaceOnUse">
      <stop stop-color="#CC24FF" offset="0"/>
      <stop stop-color="#FFC1FF" offset=".4948"/>
      <stop stop-color="#D488FF" offset="1"/>
    </linearGradient>
    <linearGradient id="paint17_linear_503_42644" x1="117.7" x2="117.7" y1="86.15" y2="117.8" gradientUnits="userSpaceOnUse">
      <stop stop-color="#CC24FF" offset="0"/>
      <stop stop-color="#FFC1FF" offset=".4948"/>
      <stop stop-color="#D488FF" offset="1"/>
    </linearGradient>
    <linearGradient id="paint19_linear_503_42644" x1="111.3" x2="111.3" y1="102.7" y2="195.4" gradientUnits="userSpaceOnUse">
      <stop stop-color="#CC24FF" offset="0"/>
      <stop stop-color="#FFC1FF" offset=".4948"/>
      <stop stop-color="#D488FF" offset="1"/>
    </linearGradient>
    <linearGradient id="paint21_linear_503_42644" x1="146.8" x2="146.8" y1="139.6" y2="200.7" gradientUnits="userSpaceOnUse">
      <stop stop-color="#CC24FF" offset="0"/>
      <stop stop-color="#FFC1FF" offset=".4948"/>
      <stop stop-color="#D488FF" offset="1"/>
    </linearGradient>
    <linearGradient id="paint23_linear_503_42644" x1="142.1" x2="142.1" y1="109.2" y2="194.6" gradientUnits="userSpaceOnUse">
      <stop stop-color="#CC24FF" offset="0"/>
      <stop stop-color="#FFC1FF" offset=".4948"/>
      <stop stop-color="#D488FF" offset="1"/>
    </linearGradient>
    <linearGradient id="paint25_linear_503_42644" x1="146.9" x2="146.9" y1="81.24" y2="104.4" gradientUnits="userSpaceOnUse">
      <stop stop-color="#CC24FF" offset="0"/>
      <stop stop-color="#FFC1FF" offset=".4948"/>
      <stop stop-color="#D488FF" offset="1"/>
    </linearGradient>
    <linearGradient id="paint27_linear_503_42644" x1="136.4" x2="136.4" y1="149.5" y2="193.3" gradientUnits="userSpaceOnUse">
      <stop stop-color="#CC24FF" offset="0"/>
      <stop stop-color="#FFC1FF" offset=".4948"/>
      <stop stop-color="#D488FF" offset="1"/>
    </linearGradient>
  </defs>
</svg>