<svg xmlns="http://www.w3.org/2000/svg" viewBox="0 0 100 100" style="background: transparent;">
<!-- SVG created with Arrow, by QuiverAI (https://quiver.ai) -->
  <style type="text/css">.cls-0 {fill:url(#SVGID_1_);}
.cls-1 {fill:url(#SVGID_2_);}
.cls-2 {fill:url(#SVGID_3_);}
.cls-3 {fill:url(#SVGID_4_);}
.cls-4 {fill:#C18325;}
.cls-5 {fill:url(#SVGID_5_);}
.cls-6 {fill:url(#SVGID_6_);}
.cls-7 {fill:url(#SVGID_7_);}
.cls-8 {fill:url(#SVGID_8_);}
.cls-9 {fill:#A76415;}
.cls-10 {fill:url(#SVGID_9_);}
.cls-11 {fill:url(#SVGID_10_);}
.cls-12 {fill:url(#SVGID_11_);}
.cls-13 {fill:url(#SVGID_12_);}
.cls-14 {fill:url(#SVGID_13_);}
.cls-15 {fill:#FFFAD1;}
.cls-16 {fill:#FFFDE7;}
.cls-17 {fill:#FEF8DF;}
.cls-18 {fill:#FFF9D0;}</style>
  <linearGradient id="SVGID_1_" x1="30.52" x2="35.53" y1="84.7" y2="72.08" gradientUnits="userSpaceOnUse">
    <stop stop-color="#CFC498" stop-opacity=".6" offset="0"/>
    <stop stop-color="#B39037" offset="1"/>
  </linearGradient>
  <path class="cls-0" d="m42.6 97.4-40.3-22c-1.9-1.1-2.9-3.4-0.9-4.6l23.6-11.6 24.1 11.8-1.1 18.9-0.4 7.1c-1.3 0.9-3.4 1.3-5 0.4z"/>
  <linearGradient id="SVGID_2_" x1="36.99" x2="42.28" y1="70.4" y2="81.81" gradientUnits="userSpaceOnUse">
    <stop stop-color="#C8AB65" offset="0"/>
    <stop stop-color="#B39037" offset="1"/>
  </linearGradient>
  <path class="cls-1" d="m45.8 91.2-15.8-8.1c-0.9-0.5-1.3-1.5-1-2.5l3.3-9.2c0.2-0.5 0.6-0.9 1-1.1l12-6 10.3 6-1.8 15.9-8 5z"/>
  <linearGradient id="SVGID_3_" x1="15.09" x2="23.66" y1="61.02" y2="74.97" gradientUnits="userSpaceOnUse">
    <stop stop-color="#C8AB65" offset="0"/>
    <stop stop-color="#9B580F" offset="1"/>
  </linearGradient>
  <path class="cls-2" d="m20.5 82.1-17.9-10.2c-0.6-0.3-0.9-1.3-0.6-2.1l3.2-8.2c0.1-0.6 0.5-1.6 1-3.3l18.3-3.2 8.8 14.5-11 12.1-0.8 0.4c-0.3 0.1-0.7 0.1-1 0z"/>
  <linearGradient id="SVGID_4_" x1="13.68" x2="29.1" y1="40.56" y2="51.43" gradientUnits="userSpaceOnUse">
    <stop stop-color="#C89E47" offset="0"/>
    <stop stop-color="#DFC267" offset="1"/>
  </linearGradient>
  <path class="cls-3" d="m25.6 56.3-14.6-7.8c-0.4-0.2-0.6-0.8-0.4-3.4l14.1-7.6 11.9 5.3-3.3 9.8-7.7 3.7z"/>
  <path class="cls-4" d="m25.3 67.1-17.9-9.9c-0.8-0.6-1.3-1.6-0.8-2.6l3.6-9.8c0.2-0.5 0.5-0.9 0.9-1.1l1.8-0.9c0.4 0.7 0.6 1.3 0.6 1.8l12.3 6.7 3.1 0.4 5.5 2.2-4.1 12-3.2 1.2c-0.5 0.2-1.3 0.3-1.8 0z"/>
  <linearGradient id="SVGID_5_" x1="7.741" x2="25.7" y1="51.6" y2="61.92" gradientUnits="userSpaceOnUse">
    <stop stop-color="#DDBA45" offset="0"/>
    <stop stop-color="#BA7418" offset="1"/>
  </linearGradient>
  <path class="cls-5" d="m24.8 66-17.1-9.3c-0.7-0.4-1-1.1-0.6-1.8l3.4-9.2c0.2-0.9 1.1-1.2 1.9-0.7l12.2 7.1c0.7 0.4 1.1 1.2 1.1 2.1v11.4c0 0.3-0.6 0.6-0.9 0.4z"/>
  <linearGradient id="SVGID_6_" x1="26.61" x2="33.41" y1="52.82" y2="63.54" gradientUnits="userSpaceOnUse">
    <stop stop-color="#9B6718" offset="0"/>
    <stop stop-color="#86470E" offset="1"/>
  </linearGradient>
  <path class="cls-6" d="m27.1 66v-11.5c0-0.8 0.5-1.7 1.3-2.1l5.4-2.7 0.6 5.1-4.5 10.6-2.8 0.6z"/>
  <linearGradient id="SVGID_7_" x1="1.985" x2="20.89" y1="69.48" y2="76.94" gradientUnits="userSpaceOnUse">
    <stop stop-color="#DEBC45" offset="0"/>
    <stop stop-color="#BA771A" offset="1"/>
  </linearGradient>
  <path class="cls-7" d="m19.8 81-16.9-9.7c-0.5-0.2-0.6-0.9-0.4-1.6l3.1-9.6c0.2-0.7 1-1 1.5-0.7l12.4 7.2c0.7 0.4 1 1.2 1 2v11.9c0 0.5-0.2 0.7-0.7 0.5z"/>
  <linearGradient id="SVGID_8_" x1="20.61" x2="24.33" y1="67.3" y2="79.63" gradientUnits="userSpaceOnUse">
    <stop stop-color="#F2E9A3" offset="0"/>
    <stop stop-color="#C99B34" offset="1"/>
  </linearGradient>
  <path class="cls-8" d="m21.8 80.9 0.2-11.9c0-0.7 0.4-1.5 1.1-1.9l1.4-0.7-1-0.7-1.2 0.4c-0.6 0.3-1.2 0.3-1.7 0l-13.1-6.9-0.1-1.1-0.9 0.6c1.6 0.7 1.1 1.8 1.1 1.8l11.7 6.4c0.8 0.4 1.2 1.3 1.2 2.1v12l1.3-0.1z"/>
  <linearGradient id="SVGID_9_" x1="38.29" x2="47.41" y1="36.88" y2="50.49" gradientUnits="userSpaceOnUse">
    <stop stop-color="#C8AB65" offset="0"/>
    <stop stop-color="#C3881E" offset="1"/>
  </linearGradient>
  <path class="cls-10" d="m36.4 45-8.1-4.3 3.2-7.2 11.1 0.4 8 6.1-10.4 5.7-3.8-0.7z"/>
  <linearGradient id="SVGID_10_" x1="42.37" x2="81.8" y1="31.87" y2="38.29" gradientUnits="userSpaceOnUse">
    <stop stop-color="#C69C42" offset="0"/>
    <stop stop-color="#E6CA67" offset=".5056"/>
    <stop stop-color="#CA9E37" offset="1"/>
  </linearGradient>
  <path class="cls-11" d="m40.9 43.1 7 2.8 37.2-19.5-6.7-3.8-16.4 1.4-21.1 12.6v6.5z"/>
  <linearGradient id="SVGID_11_" x1="27.87" x2="46.82" y1="49.06" y2="54.79" gradientUnits="userSpaceOnUse">
    <stop stop-color="#D4A438" offset="0"/>
    <stop stop-color="#D49A24" offset="1"/>
  </linearGradient>
  <path class="cls-12" d="m45.8 60.5-17.1-9.1c-0.5-0.3-0.8-1.3-0.7-1.8l3-8.2 6.8 3.2 9 2.4 0.8 4.9-0.4 8.2-1.4 0.4z"/>
  <linearGradient id="SVGID_12_" x1="46.08" x2="89.93" y1="42.25" y2="46.89" gradientUnits="userSpaceOnUse">
    <stop stop-color="#D4A840" offset="0"/>
    <stop stop-color="#E6CA67" offset=".5056"/>
    <stop stop-color="#B57417" offset="1"/>
  </linearGradient>
  <path class="cls-13" d="m47.6 61.7v-13.8l38.5-20.3 3.5 9.5c0.3 0.8-0.1 2.3-0.7 2.6l-40 21.5-1.3 0.5z"/>
  <linearGradient id="SVGID_13_" x1="22.88" x2="71.39" y1="13.74" y2="15.72" gradientUnits="userSpaceOnUse">
    <stop stop-color="#A96718" offset="0"/>
    <stop stop-color="#DAB955" offset=".4775"/>
    <stop stop-color="#F2E67E" offset=".7692"/>
    <stop stop-color="#CDA43D" offset="1"/>
  </linearGradient>
  <path class="cls-14" d="m35.9 44.4-17.9-9.6c-0.6-0.3-1-1.4-0.8-2.3l3.9-10.2 0.7-0.7 36.2-19c0.7-0.4 1.7-0.4 2.6 0l13.9 7.6 1.3 2.2-0.5 4.1-36.7 28.1-2.7-0.2z"/>
  <path class="cls-4" d="m36.5 45-18.4-10.1c-0.9-0.4-1.3-1.8-0.9-2.7l3.9-9.7 0.7-0.9 1.8-0.2c-0.6 0.6 0 0.9 0 0.9l14.1 7.7-0.3 14.8-0.9 0.2z"/>
  <path class="cls-9" d="m38.1 45.1 40.3-21.7c0.6-0.3 1-1.6 0.7-2.3l-3.8-10.1-3-1.4 0.2 0.9 5.9 10.6c0.2 0.5 0 1.3-0.5 1.5l-39.2 21.3-0.6 1.2z"/>
  <linearGradient id="SVGID_14_" x1="18" x2="36.76" y1="30.4" y2="35.32" gradientUnits="userSpaceOnUse">
    <stop stop-color="#D4AC3E" offset="0"/>
    <stop stop-color="#C48720" offset="1"/>
  </linearGradient>
  <path d="m35.9 43.9-17.4-9.7c-0.6-0.3-0.8-1.3-0.5-1.8l3.5-9c0.3-0.8 1.4-1 2.1-0.5l12.3 6.8c0.7 0.4 0.9 1.1 0.9 1.9v12c0 0.5-0.4 0.5-0.9 0.3z" fill="url(#SVGID_14_)"/>
  <linearGradient id="SVGID_15_" x1="38.16" x2="78.8" y1="24.45" y2="24.45" gradientUnits="userSpaceOnUse">
    <stop stop-color="#A96718" offset="0"/>
    <stop stop-color="#D4A840" offset=".5056"/>
    <stop stop-color="#B57417" offset="1"/>
  </linearGradient>
  <path d="m38.2 43.6v-11.7c0-0.8 0.5-1.6 1.2-1.9l35.3-18.5c0.4-0.3 0.9 0.1 1.1 0.5l2.8 8.9c0.3 0.6 0 1.5-0.7 1.7l-39.2 21.3c-0.2 0.2-0.5 0-0.5-0.3z" fill="url(#SVGID_15_)"/>
  <linearGradient id="SVGID_16_" x1="29.16" x2="46.78" y1="51.51" y2="55.68" gradientUnits="userSpaceOnUse">
    <stop stop-color="#C48720" offset="0"/>
    <stop stop-color="#B56E13" offset="1"/>
  </linearGradient>
  <path d="m45.8 60.4-16.9-9.3-0.5-1.5 1.8-4.6 5.8 2.9c1.1 0.6 2.5 0.7 3.6 0.2l4.8-2.4 2.6 1.5v12.8l-1.2 0.4z" fill="url(#SVGID_16_)"/>
  <linearGradient id="SVGID_17_" x1="48.26" x2="89.8" y1="45.39" y2="45.39" gradientUnits="userSpaceOnUse">
    <stop stop-color="#A05A12" offset="0"/>
    <stop stop-color="#A86817" offset="1"/>
  </linearGradient>
  <path d="m48.2 60.1 0.1-11.3c0-0.7 0.4-1.6 1.1-2l39.2-19.9 1.3 10.1c0.2 0.9-0.3 2.4-1 2.7l-40 20.7-0.7-0.3z" fill="url(#SVGID_17_)"/>
  <path class="cls-9" d="m89.9 37-3.6-9.6-1.2-1-0.5 0.5 4.6 10.5c0.3 0.7-0.2 1.5-0.7 1.6l-39.9 20.9-0.3 1.5 40.7-21.4c0.9-0.3 1.3-2.1 0.9-3z"/>
  <linearGradient id="SVGID_18_" x1="27.92" x2="47.12" y1="59.75" y2="68.15" gradientUnits="userSpaceOnUse">
    <stop stop-color="#E0C04E" offset="0"/>
    <stop stop-color="#C4821E" offset="1"/>
  </linearGradient>
  <path d="m46.1 77-17.2-9.2c-0.7-0.4-1.3-1.7-1-2.3l3.9-9.9c0.3-0.6 1.2-1.5 1.8-1.5l14 7.3 0.3 16.1-1.8-0.5z" fill="url(#SVGID_18_)"/>
  <linearGradient id="SVGID_19_" x1="48.56" x2="91.68" y1="63.78" y2="63.78" gradientUnits="userSpaceOnUse">
    <stop stop-color="#A86817" offset="0"/>
    <stop stop-color="#D4AC40" offset="1"/>
  </linearGradient>
  <path d="m48.6 77.9v-13.1c0-0.8 0.5-1.5 1.2-1.9l37.7-19.4 4.1 9.5-0.5 2-42.5 22.9z" fill="url(#SVGID_19_)"/>
  <linearGradient id="SVGID_20_" x1="24.78" x2="44.72" y1="81.38" y2="88.14" gradientUnits="userSpaceOnUse">
    <stop stop-color="#D4AC40" offset="0"/>
    <stop stop-color="#BA771A" offset="1"/>
  </linearGradient>
  <path d="m43.8 94.5-18.5-9.8c-0.6-0.3-1.1-1.5-0.8-2.2l3.9-10.4 1.5-0.7 15.4 8.5v15l-1.5-0.4z" fill="url(#SVGID_20_)"/>
  <linearGradient id="SVGID_21_" x1="45.32" x2="98.45" y1="75.9" y2="75.9" gradientUnits="userSpaceOnUse">
    <stop stop-color="#A86817" offset="0"/>
    <stop stop-color="#D4AC40" offset=".5056"/>
    <stop stop-color="#B57417" offset="1"/>
  </linearGradient>
  <path d="m45.3 94.4 0.1-12.5 49-27.4 4 9.9c0.2 0.7 0 2-0.8 2.2l-51.8 26.9-0.5 0.9z" fill="url(#SVGID_21_)"/>
  <linearGradient id="SVGID_22_" x1="30.01" x2="46.08" y1="71.87" y2="81" gradientUnits="userSpaceOnUse">
    <stop stop-color="#E8CB4E" offset="0"/>
    <stop stop-color="#CA9B3F" offset="1"/>
  </linearGradient>
  <path d="m45.3 80.4-0.7-1.2-12.5-6.6-2.1-1.2-1.1 0.7 0.7 0.8 13.5 7.3 2.2 1.9v-1.7z" fill="url(#SVGID_22_)"/>
  <linearGradient id="SVGID_23_" x1="45.27" x2="86.95" y1="62.09" y2="40.97" gradientUnits="userSpaceOnUse">
    <stop stop-color="#F2E9A3" offset="0"/>
    <stop stop-color="#FFFFBF" offset=".5056"/>
    <stop stop-color="#E0CA63" offset="1"/>
  </linearGradient>
  <path d="m47.6 61.8c-0.6 0-13.6-6.7-13.6-6.7l-0.4-1 13.6 7.3c0.4 0.3 1.1 0.4 1.7 0l36.6-19.6 0.6 1-37.2 18.9c-0.3 0.1-0.8 0.2-1.3 0.1z" fill="url(#SVGID_23_)"/>
  <linearGradient id="SVGID_24_" x1="46.87" x2="83.66" y1="38.12" y2="38.12" gradientUnits="userSpaceOnUse">
    <stop stop-color="#D9BF71" offset="0"/>
    <stop stop-color="#FFFFBF" offset=".5056"/>
    <stop stop-color="#E0CA63" offset="1"/>
  </linearGradient>
  <path d="m46.9 45.7-5.8-2.9 0.7-0.4 4.6 3c0.8 0.5 1.7 0.5 2.5 0.1l34.8-18.1v1.1l-34.3 17.9c-0.8 0.4-1.8-0.3-2.5-0.7z" fill="url(#SVGID_24_)"/>
  <linearGradient id="SVGID_25_" x1="21.52" x2="36.76" y1="26" y2="28.64" gradientUnits="userSpaceOnUse">
    <stop stop-color="#E0C04E" offset="0"/>
    <stop stop-color="#FFFF9E" offset="1"/>
  </linearGradient>
  <path d="m36.6 30.1-13.1-7.1c-0.6-0.5-1.7-0.5-2.1 0.4l0.4-1.1c0.6-0.5 1.3-0.4 1.8 0l13.8 7.2-0.8 0.6z" fill="url(#SVGID_25_)"/>
  <linearGradient id="SVGID_26_" x1="37.75" x2="72.13" y1="21.4" y2="21.4" gradientUnits="userSpaceOnUse">
    <stop stop-color="#E0CA63" offset="0"/>
    <stop stop-color="#FFFFBF" offset=".5056"/>
    <stop stop-color="#E0CA63" offset="1"/>
  </linearGradient>
  <path d="m37.7 29.5 33.7-17.6 0.7 1.1-33.4 16.9-1-0.4z" fill="url(#SVGID_26_)"/>
  <linearGradient id="SVGID_27_" x1="11.87" x2="28.73" y1="49.02" y2="52.04" gradientUnits="userSpaceOnUse">
    <stop stop-color="#E0C04E" offset="0"/>
    <stop stop-color="#FFFFBD" offset="1"/>
  </linearGradient>
  <path d="m25.6 51.4-12.2-6.6-1-0.2-0.5 0.2 13.2 7.2c0.9 0.4 1.3 1.4 1.3 2.1v13l0.5-0.1 0.2-12.5c0-0.8 0.5-1.5 1.3-1.9l1-0.6-0.8-0.9-0.7 0.3c-0.8 0.3-1.5 0.3-2.3 0z" fill="url(#SVGID_27_)"/>
  <linearGradient id="SVGID_28_" x1="32.73" x2="47.63" y1="59.54" y2="63.7" gradientUnits="userSpaceOnUse">
    <stop stop-color="#E0C04E" offset="0"/>
    <stop stop-color="#FFFFBD" offset="1"/>
  </linearGradient>
  <path d="m45.8 62.6-11.2-6.6c-1-0.6-2.2-0.4-2.5 0.7v-0.3c0.3-1 1.4-1.9 2.3-1.3l12.5 6.8c0.7 0.3 1.2 1 1.2 1.8v14.4l-1.1-0.2v-12.8c0-1.1-0.4-2-1.2-2.5z" fill="url(#SVGID_28_)"/>
  <linearGradient id="SVGID_29_" x1="45.27" x2="94.35" y1="66.26" y2="66.26" gradientUnits="userSpaceOnUse">
    <stop stop-color="#D9BF71" offset="0"/>
    <stop stop-color="#FFFFBF" offset=".5056"/>
    <stop stop-color="#E0CA63" offset="1"/>
  </linearGradient>
  <path d="m93 53.7-1.9-1.1 0.3 1.1 1 0.4c0.2 0.1 0.2 0.5 0 0.5l-44.8 22.9c-0.4 0.2-0.7 0.2-1 0l-1.3-0.6v1l1.3 0.5 45.8-22.4c0.5 0 1.1-1.9 0.6-2.3z" fill="url(#SVGID_29_)"/>
  <path class="cls-4" d="m57.9 2.6-36.1 18.8 0.8 0.7 35.4-18.9c0.6-0.4 1.5-0.4 2.1-0.1l14.4 7.7 0.2-0.7-14.1-7.5c-0.9-0.4-1.9-0.4-2.7 0z"/>
  <path class="cls-4" d="m23 37.4-11.9 6.2 0.8 0.5 11.7-5.9-0.6-0.8z"/>
  <path class="cls-4" d="m6.5 58.1 1.2-0.7 0.4 0.7-1 0.8-0.6-0.8z"/>
  <path class="cls-9" d="m28.7 65.4-1.6 0.6 0.8 1 4.2 2.2 0.4 0.4 0.6-0.6-3.7-1.9c-0.7-0.2-1-1.1-0.7-1.7z"/>
  <path class="cls-9" d="m28.6 51.7 4.8 2.5v-0.7l-4.4-2.4-0.4 0.6z"/>
  <path class="cls-9" d="m2.6 71.9 17.8 10.1 1.1-0.1-19.1-10.8 0.2 0.8z"/>
  <path class="cls-9" d="m43.8 94.5-18.4-9.8-0.9-0.7 0.5 0.9 18.8 9.7v-0.1z"/>
  <path class="cls-9" d="m98.4 64.4-3.8-9.8-0.7-0.7v0.7l4 9.8c0.2 0.5 0 1.3-0.5 1.5l-51.6 27.6-0.5 0.9 52.3-27.5c0.8-0.3 1-1.8 0.8-2.5z"/>
  <linearGradient id="SVGID_30_" x1="44.93" x2="47.48" y1="46.98" y2="61.92" gradientUnits="userSpaceOnUse">
    <stop stop-color="#FFFFBD" offset="0"/>
    <stop stop-color="#CA9B3F" offset="1"/>
  </linearGradient>
  <path d="m45.4 46.6-5.5-2.7 1-0.8 5.2 3c0.9 0.5 1.5 1.5 1.5 2.4v13.2l-0.7-0.3v-12.4c0-1.1-0.5-2-1.5-2.4z" fill="url(#SVGID_30_)"/>
  <linearGradient id="SVGID_31_" x1="29.75" x2="45.32" y1="75.56" y2="83.97" gradientUnits="userSpaceOnUse">
    <stop stop-color="#E8CB4E" offset="0"/>
    <stop stop-color="#F2E2A6" offset="1"/>
  </linearGradient>
  <path d="m43.1 79.9-13.2-7v-1l14 7.3c1 0.5 1.4 1.7 1.4 2.7v13l-1.5-0.4v-11.6c0-1.3 0.3-2.5-0.7-3z" fill="url(#SVGID_31_)"/>
  <linearGradient id="SVGID_32_" x1="45.27" x2="87.33" y1="71.5" y2="51.13" gradientUnits="userSpaceOnUse">
    <stop stop-color="#FFFFCD" offset="0"/>
    <stop stop-color="#E0CA63" offset="1"/>
  </linearGradient>
  <path d="m86.9 42.8-0.8-0.8-0.6 0.8 0.6 0.7c0.4 0.1 0.4 0.6 0 0.6l-37.5 19-1 0.9 0.5 1.1 0.5-0.3c0-0.8 0.5-1.5 1.2-1.9l36.7-19c0.6-0.3 0.5-0.8 0.4-1.1z" fill="url(#SVGID_32_)"/>
  <path class="cls-9" d="m28 49.2-0.3 0.4c-0.3 0.9 0.5 2.1 0.9 2.3l0.4-0.8c-0.6-0.2-0.8-1.1-0.6-1.5l2.8-7.2-0.5-0.4-2.8 7.2h0.1z"/>
  <path class="cls-9" d="m27.9 65.5-0.8 0.5 0.8 0.6 0.5-0.2c-0.2-0.3-0.4-0.7-0.2-1l3.6-9.4h-0.6l-3.3 9.1v0.4z"/>
  <path class="cls-9" d="m28.4 72.1-3.9 10.4 0.5 0.9 3.6-10c0.1-0.4 0.4-1 1-1l2.5-1.3v-1l-3 1.3c-0.4 0.2-0.5 0.3-0.7 0.7z"/>
  <path class="cls-9" d="m91.4 53-3.5-8.9-0.5 0.7 3.5 8.3c0.2 0.8 0 1.5-0.6 1.7l-41.7 22.1v1.2l42-22.7c1-0.4 1-1.7 0.8-2.4z"/>
  <linearGradient id="SVGID_33_" x1="34.03" x2="41.66" y1="29.48" y2="29.48" gradientUnits="userSpaceOnUse">
    <stop stop-color="#FFFFE0" offset="0"/>
    <stop stop-color="#fff" offset=".5056"/>
    <stop stop-color="#ECD496" offset="1"/>
  </linearGradient>
  <path d="m37.9 26.1-0.2 2.6c0 0.8-1.1 1.3-3.7 1.3 2.6 0 2.8 0.7 2.8 0.7 0.6 0.5 0 0.7 0 1.5l0.9 0.8 0.8-0.6c0-1.6 0.6-2.4 3.2-2.4-2.6 0-3.8-0.5-3.8-1.3v-2.6z" fill="url(#SVGID_33_)"/>
  <path class="cls-15" d="m13.1 43.1c0 0.8-0.4 1-0.8 1.3 0.4-0.3 1.1 0.2 1.1 0.6 0-0.9 0.2-0.9 1-0.9-0.8 0-1.3-0.2-1.3-1z"/>
  <path class="cls-16" d="m7.6 58.1c0 0.6-0.2 0.8-0.6 0.9 0.4-0.1 0.7 0.4 0.7 0.9 0-0.5 0.4-0.9 0.8-0.9-0.6-0.1-0.9-0.3-0.9-0.9z"/>
  <path class="cls-17" d="m30.6 71.1c0 0.6-0.4 0.8-0.9 0.9 0.5 0 0.9 0.6 0.9 1.6 0-1 0.6-1.5 1-1.5-0.4-0.1-1-0.4-1-1z"/>
  <linearGradient id="SVGID_34_" x1="40.79" x2="48.42" y1="79.9" y2="79.9" gradientUnits="userSpaceOnUse">
    <stop stop-color="#ECD496" offset="0"/>
    <stop stop-color="#FFFFE0" offset=".5056"/>
    <stop stop-color="#fff" offset="1"/>
  </linearGradient>
  <path d="m45.1 76.9-0.2 2c0 0.6-1.5 1-4.1 1 3 0 3.1 0.5 3.1 0.5 0.5 0.6 0.5 1.5 0.5 2.1l0.7 0.5 0.3-1.1c0-1.3 0.7-2 3-2-2.3 0-3.3-0.4-3.3-1v-2z" fill="url(#SVGID_34_)"/>
  <path class="cls-18" d="m85.5 42.6c0 0.9-0.5 1-1.1 1 0.6 0 1.1 0.8 1.1 2 0-1.2 0.6-2 1.4-1.7-0.8 0-1.4-0.4-1.4-1.3z"/>
  <path class="cls-15" d="m92.9 53.4c0 0.8-0.5 1.4-1.3 1.2 0.8 0.2 1.3 0.8 1 1.8 0.3-1 1.5-1.4 2-0.8-0.5-0.8-1.7-1.4-1.7-2.2z"/>
  <linearGradient id="SVGID_35_" x1="68.73" x2="75.66" y1="11.66" y2="11.66" gradientUnits="userSpaceOnUse">
    <stop stop-color="#ECD496" offset="0"/>
    <stop stop-color="#FFF2D4" offset=".5056"/>
    <stop stop-color="#F7E8C0" offset="1"/>
  </linearGradient>
  <path d="m72.4 8.7c0.2 2.1-0.8 2.7-3.7 2.3 2.7 0.4 3.3 1 3.3 1.6 0.4 0.5-0.1 2.5-0.1 2.5 0.5-2.1 1-3.2 3.8-3.2-2.1-0.5-3.3-0.9-3.3-3.2z" fill="url(#SVGID_35_)"/>
  <linearGradient id="SVGID_36_" x1="79.74" x2="86.33" y1="27.74" y2="27.74" gradientUnits="userSpaceOnUse">
    <stop stop-color="#ECD496" offset="0"/>
    <stop stop-color="#FFF2D4" offset=".5056"/>
    <stop stop-color="#F7E8C0" offset="1"/>
  </linearGradient>
  <path d="m83.2 24.9c0.2 2-0.6 2.2-3.5 2 2.7 0.2 2.9 1 2.9 1 0.6 0.6 0 2.8 0 2.8 0.6-2 1.1-3.1 3.7-2.8-1.9-0.5-3.1-1-3.1-3z" fill="url(#SVGID_36_)"/>
</svg>
