<svg xmlns="http://www.w3.org/2000/svg" width="39" height="39" viewBox="0 0 39 39" fill="none">
<defs>
  <linearGradient id="magicOuter" x1="0.5" y1="0" x2="0.5" y2="1">
    <stop stop-color="#F6752B" offset="0"/>
    <stop stop-color="#F8983D" offset="1"/>
  </linearGradient>
  <radialGradient id="magicInner" cx="0.5" cy="0.4" r="0.7">
    <stop stop-color="#8D41CC" offset="0"/>
    <stop stop-color="#5A278F" offset="0.58"/>
    <stop stop-color="#44206C" offset="1"/>
  </radialGradient>
  <linearGradient id="magicInnerStroke" x1="0.5" y1="0" x2="0.5" y2="1">
    <stop stop-color="#3D1F63" offset="0"/>
    <stop stop-color="#3D1F63" stop-opacity="0.45" offset="1"/>
  </linearGradient>
</defs>
<rect x="1.0" y="1.0" width="37" height="37" rx="5" fill="url(#magicOuter)"/>
<rect x="2.5" y="2.5" width="34" height="34" rx="5" fill="url(#magicInner)" stroke="url(#magicInnerStroke)" stroke-width="1.2"/>
<g transform="translate(-148.27, -148.12)">
<path d="m160 167c-0.43 5.5 4.31 8.65 7.76 8.65 4.68 0 7.62-4.54 7.92-8.65 0.6 2.74-1.56 9.68-8.17 10.02-5.4 0.28-8.7-5.12-7.51-10.02z" fill="#FF917B" stroke="#FF917B" stroke-miterlimit="10" stroke-width=".2"/>
<path d="m167.8 158.6-3.45 8.39c-0.89 2.54 1.63 4.45 3.2 4.45 1.86 0 3.29-2.01 2.7-4.45l-2.45-8.39zm-0.25 6.4c1.24 0 1.6 1.49 1.6 2.09 0 1.3-1 2-1.7 2-1.1 0-1.84-1.1-1.69-2s0.8-2.09 1.79-2.09z" fill="#FF917B"/>
</g>
</svg>

