<svg xmlns="http://www.w3.org/2000/svg" width="36" height="35" viewBox="106 107 36 35" fill="none">
<!-- SVG created with Arrow, by QuiverAI (https://quiver.ai) -->
  <path d="m250 0h-250v250h250v-250z" fill="url(#paint0_linear_213_630)"/>
  <path d="m192.7 250-9.4-8.74 6.9-8.22h40.53l4.47-4.94v-26.48l6.59-16.42 8.18 7.52v-1.95l-7.38-7.63v-31.61l-5.81-6.64v-39.27l5.46-5.45v-33.08l7.73-8.27v-2.31l-8.89 9.2-8.07-8.49v-37.11l-4.01-3.15h-38.18l-7.25-8.02 8.79-8.93h-1.97l-8.52 8.66h-31.17l-7.01 6.68h-37.68l-6.32-6.68h-33.27l-7.63-8.66h-2.09l9.46 9.96-5.57 5.38h-40.6l-4.3 4.57v36.97l-6.78 8.63-8.93-9.28v2.09l8.11 8.89v32.54l5.71 5.71v39.35l-5.71 5.71v32.09l-8.11 8.11v1.96l8.46-9.01 7.25 7.53v36.72l3.95 4.8h39.08l6.97 8.08-8.4 9.19h1.86l7.59-7.98h32.05l5.81-6.32h41.49l5.5 6.32h30.23l8.88 7.98h2zm-42.84-9.72-5.07-6.32h-40.5l-4.3 5.81h-33.8l-6.68-8.53h-39.07l-3.08-3.62v-37.25l-7.18-8.21v-31.09l6.16-5.46v-40.93l-5.81-6.46v-31.5l7.18-8.52v-37.38l3.2-3.59h39.57l7.01-6.82h31.8l5.71 6.68h39.9l5.81-6.68h31.91l7.25 6.55h39.18l2.77 3.33v37.53l8.52 8.9v32.35l-5.81 5.46v41.37l6.32 6.97v30.92l-7.39 8.02v35.24l-3.45 4.19h-41.04l-7.98 9.04h-31.13z" fill="url(#paint1_linear_213_630)"/>
  <path d="m52.68 19.91h-28.79c-2.95 0-4.81 1.86-4.81 4.81v26.66c0 2.95 1.86 4.81 4.81 4.81h27.72c3.17 0 5.22-1.86 5.22-4.81v-26.66c0-2.95-1.61-4.81-4.15-4.81z" fill="url(#paint2_linear_213_630)" stroke="url(#paint3_linear_213_630)" stroke-miterlimit="10" stroke-width="2"/>
  <path d="m50.41 23.01h-24.26c-2.16 0-3.49 1.33-3.49 3.49v22.58c0 2.16 1.33 3.49 3.49 3.49h23.56c2.41 0 3.94-1.33 3.94-3.49v-22.58c0-2.16-1.19-3.49-3.24-3.49z" fill="url(#paint4_radial_213_630)" stroke="url(#paint5_linear_213_630)" stroke-miterlimit="10" stroke-width="2"/>
  <path d="m96.28 19.51h-28.79c-2.68 0-4.28 1.6-4.28 4.28v28.79c0 2.67 1.6 4.27 4.28 4.27h28.79c2.68 0 4.28-1.6 4.28-4.27v-28.79c0-2.68-1.6-4.28-4.28-4.28z" fill="url(#paint6_linear_213_630)" stroke="url(#paint6_linear_213_630)" stroke-miterlimit="10" stroke-width="2"/>
  <path d="m93.85 22.51h-24.26c-2.16 0-3.49 1.33-3.49 3.49v22.58c0 2.16 1.33 3.49 3.49 3.49h23.56c2.41 0 3.94-1.33 3.94-3.49v-22.58c0-2.16-1.19-3.49-3.24-3.49z" fill="url(#paint8_radial_213_630)" stroke="url(#paint9_linear_213_630)" stroke-miterlimit="10" stroke-width="2"/>
  <path d="m137.4 20.28h-25.43c-3.18 0-4.93 1.6-4.93 4.63v26.08c0 2.87 1.75 4.62 4.93 4.62h24.71c3.17 0 4.92-1.75 4.92-4.62v-26.08c0-3.03-1.75-4.63-4.2-4.63z" fill="url(#paint10_linear_213_630)" stroke="url(#paint11_linear_213_630)" stroke-miterlimit="10" stroke-width="2"/>
  <path d="m135.3 23.01h-21.73c-2.42 0-3.65 1.24-3.65 3.49v21.72c0 2.25 1.23 3.49 3.65 3.49h21.06c2.42 0 3.66-1.24 3.66-3.49v-21.72c0-2.25-1.13-3.49-2.99-3.49z" fill="url(#paint12_radial_213_630)" stroke="url(#paint13_linear_213_630)" stroke-miterlimit="10" stroke-width="2"/>
  <path d="m182.1 19.81h-28.79c-2.67 0-4.27 1.6-4.27 4.27v27.79c0 2.68 1.6 4.28 4.27 4.28h28.79c2.68 0 4.28-1.6 4.28-4.28v-27.79c0-2.67-1.6-4.27-4.28-4.27z" fill="url(#paint14_linear_213_630)" stroke="url(#paint14_linear_213_630)" stroke-miterlimit="10" stroke-width="2"/>
  <path d="m179.7 22.51h-23.07c-2.42 0-3.65 1.23-3.65 3.65v22.24c0 2.25 1.23 3.49 3.65 3.49h22.44c2.41 0 3.65-1.24 3.65-3.49v-22.24c0-2.42-1.16-3.65-3.02-3.65z" fill="url(#paint16_radial_213_630)" stroke="url(#paint17_linear_213_630)" stroke-miterlimit="10" stroke-width="2"/>
  <path d="m224.4 20.28h-27.22c-2.68 0-4.28 1.6-4.28 4.28v27.22c0 2.67 1.6 4.27 4.28 4.27h27.22c2.68 0 4.28-1.6 4.28-4.27v-27.22c0-2.68-1.6-4.28-4.28-4.28z" fill="url(#paint18_linear_213_630)" stroke="url(#paint19_linear_213_630)" stroke-miterlimit="10" stroke-width="2"/>
  <path d="m222.5 23.01h-22.44c-2.16 0-3.49 1.33-3.49 3.49v21.72c0 2.16 1.33 3.49 3.49 3.49h22.44c2.16 0 3.49-1.33 3.49-3.49v-21.72c0-2.16-1.33-3.49-3.49-3.49z" fill="url(#paint20_radial_213_630)" stroke="url(#paint21_linear_213_630)" stroke-miterlimit="10" stroke-width="2"/>
  <path d="m52.41 63.08h-29.28c-2.42 0-4.05 1.63-4.05 4.38v27.87c0 3.06 1.63 4.74 4.05 4.74h28.89c2.9 0 4.59-1.68 4.59-4.74v-27.87c0-2.75-1.56-4.38-4.2-4.38z" fill="url(#paint22_linear_213_630)" stroke="url(#paint22_linear_213_630)" stroke-miterlimit="10" stroke-width="2"/>
  <path d="m50.11 66.39h-23.25c-2.24 0-3.47 1.24-3.47 3.58v22.93c0 2.24 1.23 3.48 3.47 3.48h22.44c2.24 0 3.48-1.24 3.48-3.48v-22.93c0-2.34-1.19-3.58-2.67-3.58z" fill="url(#paint24_radial_213_630)" stroke="url(#paint25_linear_213_630)" stroke-miterlimit="10" stroke-width="2"/>
  <path d="m95.33 63.63h-27.22c-2.68 0-4.28 1.6-4.28 4.28v26.71c0 2.68 1.6 4.28 4.28 4.28h26.71c2.68 0 4.28-1.6 4.28-4.28v-26.71c0-2.68-1.6-4.28-3.77-4.28z" fill="url(#paint26_linear_213_630)" stroke="url(#paint26_linear_213_630)" stroke-miterlimit="10" stroke-width="2"/>
  <path d="m92.78 67.21h-22.44c-2.16 0-3.49 1.33-3.49 3.49v20.83c0 2.16 1.33 3.49 3.49 3.49h21.72c2.16 0 3.49-1.33 3.49-3.49v-20.83c0-2.16-1.33-3.49-2.77-3.49z" fill="url(#paint28_radial_213_630)" stroke="url(#paint29_linear_213_630)" stroke-miterlimit="10" stroke-width="2"/>
  <path d="m138.1 63.26h-27.79c-2.68 0-4.28 1.6-4.28 4.28v27.78c0 2.68 1.6 4.28 4.28 4.28h27.79c2.67 0 4.27-1.6 4.27-4.28v-27.78c0-2.68-1.6-4.28-4.27-4.28z" fill="url(#paint30_linear_213_630)" stroke="url(#paint31_linear_213_630)" stroke-miterlimit="10" stroke-width="2"/>
  <path d="m135.6 66.21h-21.83c-2.42 0-3.66 1.24-3.66 3.66v22.44c0 2.41 1.24 3.65 3.66 3.65h21.72c2.42 0 3.66-1.24 3.66-3.65v-22.44c0-2.42-1.48-3.66-3.55-3.66z" fill="url(#paint32_radial_213_630)" stroke="url(#paint33_linear_213_630)" stroke-miterlimit="10" stroke-width="2"/>
  <path d="m181.1 63.73h-26.72c-2.67 0-4.27 1.6-4.27 4.27v26.12c0 2.84 1.6 4.44 4.27 4.44h26.13c2.85 0 4.45-1.6 4.45-4.44v-26.12c0-2.67-1.6-4.27-3.86-4.27z" fill="url(#paint34_linear_213_630)" stroke="url(#paint35_linear_213_630)" stroke-miterlimit="10" stroke-width="2"/>
  <path d="m177.9 66.9h-21.06c-2.16 0-3.49 1.33-3.49 3.49v20.34c0 2.16 1.33 3.49 3.49 3.49h20.34c2.16 0 3.49-1.33 3.49-3.49v-20.34c0-2.16-1.33-3.49-2.77-3.49z" fill="url(#paint36_radial_213_630)" stroke="url(#paint37_linear_213_630)" stroke-miterlimit="10" stroke-width="2"/>
  <path d="m225.3 63.26h-28.79c-2.42 0-4.05 1.63-4.05 4.05v28.79c0 2.42 1.63 4.05 4.05 4.05h28.79c2.42 0 4.05-1.63 4.05-4.05v-28.79c0-2.42-1.63-4.05-4.05-4.05z" fill="url(#paint38_linear_213_630)" stroke="url(#paint39_linear_213_630)" stroke-miterlimit="10" stroke-width="2"/>
  <path d="m222.9 66.21h-22.44c-2.16 0-3.49 1.33-3.49 3.49v22.83c0 2.25 1.33 3.48 3.49 3.48h21.83c2.42 0 3.66-1.23 3.66-3.48v-22.83c0-2.25-1.24-3.49-3.05-3.49z" fill="url(#paint40_radial_213_630)" stroke="url(#paint41_linear_213_630)" stroke-miterlimit="10" stroke-width="2"/>
  <path d="m51.49 108.2h-27.22c-2.16 0-3.49 1.33-3.49 3.49v26.13c0 2.41 1.33 3.65 3.49 3.65h26.13c2.41 0 3.65-1.24 3.65-3.65v-26.13c0-2.16-1.24-3.49-2.56-3.49z" fill="url(#paint42_linear_213_630)" stroke="url(#paint43_linear_213_630)" stroke-miterlimit="10" stroke-width="3"/>
  <path d="m49.07 110.6h-22.44c-1.59 0-2.6 1.01-2.6 2.83v21.82c0 1.82 1.01 2.83 2.6 2.83h21.82c1.82 0 2.83-1.01 2.83-2.83v-21.82c0-1.82-1.01-2.83-2.21-2.83z" fill="url(#paint44_radial_213_630)" stroke="url(#paint45_linear_213_630)" stroke-miterlimit="10" stroke-width="2"/>
  <path d="m96.15 107.4h-28.79c-2.16 0-3.48 1.33-3.48 3.49v27.83c0 2.25 1.32 3.58 3.48 3.58h28.79c2.16 0 3.49-1.33 3.49-3.58v-27.83c0-2.16-1.33-3.49-3.49-3.49z" fill="url(#paint46_linear_213_630)" stroke="url(#paint47_linear_213_630)" stroke-miterlimit="10" stroke-width="2"/>
  <path d="m93.72 110h-23.56c-2.41 0-3.65 1.24-3.65 3.7v21.72c0 2.42 1.24 3.66 3.65 3.66h23.56c2.16 0 3.49-1.24 3.49-3.66v-21.72c0-2.46-1.33-3.7-3.49-3.7z" fill="url(#paint48_radial_213_630)" stroke="url(#paint49_linear_213_630)" stroke-miterlimit="10" stroke-width="2"/>
  <path d="m137.5 108.2h-26.13c-2.42 0-3.65 1.24-3.65 3.66v24.84c0 2.42 1.23 3.65 3.65 3.65h25.35c2.41 0 3.65-1.23 3.65-3.65v-24.84c0-2.42-1.24-3.66-2.87-3.66z" fill="url(#paint50_linear_213_630)" stroke="url(#paint51_linear_213_630)" stroke-miterlimit="10" stroke-width="3"/>
  <path d="m135.6 110.6h-21.56c-2.42 0-3.66 1.01-3.66 2.83v21.82c0 1.82 1.24 2.83 3.66 2.83h21.12c2.41 0 3.65-1.01 3.65-2.83v-21.82c0-1.82-1.35-2.83-3.21-2.83z" fill="url(#paint52_radial_213_630)" stroke="url(#paint53_linear_213_630)" stroke-miterlimit="10" stroke-width="2"/>
  <path d="m181.8 107.7h-28.33c-2.54 0-4.04 1.5-4.04 4.04v26.01c0 2.68 1.5 4.18 4.04 4.18h27.78c2.68 0 4.18-1.5 4.18-4.18v-26.01c0-2.54-1.5-4.04-3.63-4.04z" fill="url(#paint54_linear_213_630)" stroke="url(#paint55_linear_213_630)" stroke-miterlimit="10" stroke-width="2"/>
  <path d="m179.4 110.1h-21.82c-2.42 0-3.66 1.24-3.66 3.66v21.82c0 2.16 1.24 3.49 3.66 3.49h21.72c2.16 0 3.49-1.33 3.49-3.49v-21.82c0-2.42-1.43-3.66-3.39-3.66z" fill="url(#paint56_radial_213_630)" stroke="url(#paint57_linear_213_630)" stroke-miterlimit="10" stroke-width="2"/>
  <path d="m224.3 108.5h-26.72c-2.16 0-3.49 1.33-3.49 3.49v25.35c0 2.42 1.33 3.65 3.49 3.65h26.72c2.16 0 3.49-1.23 3.49-3.65v-25.35c0-2.16-1.33-3.49-3.49-3.49z" fill="url(#paint58_linear_213_630)" stroke="url(#paint59_linear_213_630)" stroke-miterlimit="10" stroke-width="2"/>
  <path d="m222.5 110.9h-22.68c-1.71 0-2.8 1.09-2.8 2.8v21.82c0 1.82 1.09 2.83 2.8 2.83h22.44c1.71 0 2.8-1.01 2.8-2.83v-21.82c0-1.71-1.09-2.8-2.56-2.8z" fill="url(#paint60_radial_213_630)" stroke="url(#paint61_linear_213_630)" stroke-miterlimit="10" stroke-width="2"/>
  <path d="m52.02 149.4h-28.31c-2.42 0-3.75 1.33-3.75 3.75v28.79c0 2.42 1.33 3.75 3.75 3.75h28.21c2.42 0 3.75-1.33 3.75-3.75v-28.79c0-2.42-1.33-3.75-3.65-3.75z" fill="url(#paint62_linear_213_630)" stroke="url(#paint63_linear_213_630)" stroke-miterlimit="10" stroke-width="2"/>
  <path d="m49.68 152.9h-22.43c-1.82 0-2.83 1.01-2.83 2.98v22.44c0 1.92 1.01 2.93 2.83 2.93h21.82c1.82 0 2.83-1.01 2.83-2.93v-22.44c0-1.97-1.16-2.98-2.22-2.98z" fill="url(#paint64_radial_213_630)" stroke="url(#paint65_linear_213_630)" stroke-miterlimit="10" stroke-width="2"/>
  <path d="m95.81 150.5h-27.79c-2.41 0-3.65 1.24-3.65 3.66v26.71c0 2.41 1.24 3.65 3.65 3.65h27.23c2.42 0 3.65-1.24 3.65-3.65v-26.71c0-2.42-1.33-3.66-3.09-3.66z" fill="url(#paint66_linear_213_630)" stroke="url(#paint67_linear_213_630)" stroke-miterlimit="10" stroke-width="2"/>
  <path d="m138.1 150.1h-26.71c-2.46 0-3.91 1.45-3.91 3.91v27.29c0 2.68 1.45 4.13 3.91 4.13h26.12c2.68 0 4.13-1.45 4.13-4.13v-27.29c0-2.46-1.45-3.91-3.54-3.91z" fill="url(#paint68_linear_213_630)" stroke="url(#paint69_linear_213_630)" stroke-miterlimit="10" stroke-width="2"/>
  <path d="m136.5 194.7h-24.84c-2.42 0-3.65 1.24-3.65 3.66v24.34c0 2.42 1.23 3.65 3.65 3.65h25.4c2.42 0 3.66-1.23 3.66-3.65v-24.34c0-2.42-1.5-3.66-4.22-3.66z" fill="url(#paint70_linear_213_630)" stroke="url(#paint71_linear_213_630)" stroke-miterlimit="10" stroke-width="3"/>
  <path d="m134.1 196.8h-20.03c-2.42 0-3.66 1.01-3.66 2.83v21.82c0 1.82 1.24 2.83 3.66 2.83h21.12c1.82 0 2.83-1.01 2.83-2.83v-21.82c0-1.82-1.35-2.83-3.92-2.83z" fill="url(#paint72_radial_213_630)" stroke="url(#paint73_linear_213_630)" stroke-miterlimit="10" stroke-width="2"/>
  <path d="m181.1 193.7h-27.22c-2.41 0-3.74 1.33-3.74 3.75v27.22c0 2.42 1.33 3.75 3.74 3.75h27.22c2.42 0 3.75-1.33 3.75-3.75v-27.22c0-2.42-1.33-3.75-3.75-3.75z" fill="url(#paint74_linear_213_630)" stroke="url(#paint75_linear_213_630)" stroke-miterlimit="10" stroke-width="2"/>
  <path d="m224.8 194.7h-26.72c-2.42 0-3.75 1.33-3.75 3.75v25.35c0 2.42 1.33 3.65 3.75 3.65h25.86c2.41 0 3.65-1.23 3.65-3.65v-25.35c0-2.42-1.33-3.75-2.79-3.75z" fill="url(#paint76_linear_213_630)" stroke="url(#paint77_linear_213_630)" stroke-miterlimit="10" stroke-width="2"/>
  <path d="m222.8 197.2h-22.44c-1.82 0-2.83 1.01-2.83 2.85v21.82c0 1.82 1.01 2.83 2.83 2.83h22.43c1.82 0 2.83-1.01 2.83-2.83v-21.82c0-1.84-1.16-2.85-2.82-2.85z" fill="url(#paint78_radial_213_630)" stroke="url(#paint79_linear_213_630)" stroke-miterlimit="10" stroke-width="2"/>
  <path d="m51.66 195.2h-25.86c-2.16 0-3.49 1.33-3.49 3.49v23.16c0 2.25 1.33 3.58 3.49 3.58h24.84c2.16 0 3.49-1.33 3.49-3.58v-23.16c0-2.16-1.33-3.49-2.47-3.49z" fill="url(#paint80_radial_213_630)" stroke="url(#paint81_linear_213_630)" stroke-miterlimit="10" stroke-width="3"/>
  <path d="m95.55 194.7h-26.72c-2.16 0-3.49 1.33-3.49 3.49v24.74c0 2.42 1.33 3.65 3.49 3.65h26.72c2.16 0 3.49-1.23 3.49-3.65v-24.74c0-2.16-1.33-3.49-3.49-3.49z" fill="url(#paint82_radial_213_630)" stroke="url(#paint83_linear_213_630)" stroke-miterlimit="10" stroke-width="2"/>
  <path d="m181.1 150.8h-26.72c-2.16 0-3.49 1.33-3.49 3.49v26.67c0 2.42 1.33 3.75 3.49 3.75h26.72c2.42 0 3.75-1.33 3.75-3.75v-26.67c0-2.16-1.33-3.49-3.75-3.49z" fill="url(#paint84_linear_213_630)" stroke="url(#paint85_linear_213_630)" stroke-miterlimit="10" stroke-width="2"/>
  <path d="m225.6 150.1h-28.31c-2.42 0-3.75 1.33-3.75 3.75v28.31c0 2.42 1.33 3.75 3.75 3.75h27.83c2.42 0 3.75-1.33 3.75-3.75v-28.31c0-2.42-1.33-3.75-3.27-3.75z" fill="url(#paint86_linear_213_630)" stroke="url(#paint87_linear_213_630)" stroke-miterlimit="10" stroke-width="2"/>
  <g id="magic-board-cell-overlay">
    <g stroke="url(#paint3_linear_213_630)" stroke-width="2.4" fill="none" opacity="0.95">
      <rect x="19" y="20" width="37" height="37" rx="5"/>
      <rect x="63" y="20" width="37" height="37" rx="5"/>
      <rect x="106" y="20" width="37" height="37" rx="5"/>
      <rect x="149" y="20" width="37" height="37" rx="5"/>
      <rect x="193" y="20" width="37" height="37" rx="5"/>
      <rect x="19" y="63" width="37" height="37" rx="5"/>
      <rect x="63" y="63" width="37" height="37" rx="5"/>
      <rect x="106" y="63" width="37" height="37" rx="5"/>
      <rect x="149" y="63" width="37" height="37" rx="5"/>
      <rect x="193" y="63" width="37" height="37" rx="5"/>
      <rect x="20" y="107" width="35" height="35" rx="5"/>
      <rect x="64" y="107" width="35" height="35" rx="5"/>
      <rect x="107" y="107" width="35" height="35" rx="5"/>
      <rect x="150" y="107" width="35" height="35" rx="5"/>
      <rect x="194" y="107" width="35" height="35" rx="5"/>
      <rect x="20" y="149" width="35" height="37" rx="5"/>
      <rect x="64" y="150" width="35" height="35" rx="5"/>
      <rect x="107" y="150" width="35" height="35" rx="5"/>
      <rect x="150" y="150" width="35" height="35" rx="5"/>
      <rect x="194" y="150" width="35" height="35" rx="5"/>
      <rect x="22" y="194" width="33" height="32" rx="5"/>
      <rect x="65" y="194" width="33" height="33" rx="5"/>
      <rect x="108" y="194" width="33" height="32" rx="5"/>
      <rect x="150" y="194" width="35" height="35" rx="5"/>
      <rect x="194" y="194" width="35" height="33" rx="5"/>
    </g>
    <g opacity="0.92">
      <rect x="23" y="23" width="30" height="30" rx="5" fill="url(#paint4_radial_213_630)" stroke="url(#paint5_linear_213_630)" stroke-width="1.8"/>
      <rect x="67" y="23" width="30" height="30" rx="5" fill="url(#paint4_radial_213_630)" stroke="url(#paint5_linear_213_630)" stroke-width="1.8"/>
      <rect x="110" y="23" width="30" height="30" rx="5" fill="url(#paint4_radial_213_630)" stroke="url(#paint5_linear_213_630)" stroke-width="1.8"/>
      <rect x="153" y="23" width="30" height="30" rx="5" fill="url(#paint4_radial_213_630)" stroke="url(#paint5_linear_213_630)" stroke-width="1.8"/>
      <rect x="197" y="23" width="30" height="30" rx="5" fill="url(#paint4_radial_213_630)" stroke="url(#paint5_linear_213_630)" stroke-width="1.8"/>
      <rect x="23" y="67" width="30" height="30" rx="5" fill="url(#paint4_radial_213_630)" stroke="url(#paint5_linear_213_630)" stroke-width="1.8"/>
      <rect x="67" y="67" width="30" height="30" rx="5" fill="url(#paint4_radial_213_630)" stroke="url(#paint5_linear_213_630)" stroke-width="1.8"/>
      <rect x="110" y="67" width="30" height="30" rx="5" fill="url(#paint4_radial_213_630)" stroke="url(#paint5_linear_213_630)" stroke-width="1.8"/>
      <rect x="153" y="67" width="30" height="30" rx="5" fill="url(#paint4_radial_213_630)" stroke="url(#paint5_linear_213_630)" stroke-width="1.8"/>
      <rect x="197" y="67" width="30" height="30" rx="5" fill="url(#paint4_radial_213_630)" stroke="url(#paint5_linear_213_630)" stroke-width="1.8"/>
      <rect x="24" y="111" width="27" height="27" rx="5" fill="url(#paint4_radial_213_630)" stroke="url(#paint5_linear_213_630)" stroke-width="1.8"/>
      <rect x="67" y="110" width="29" height="29" rx="5" fill="url(#paint4_radial_213_630)" stroke="url(#paint5_linear_213_630)" stroke-width="1.8"/>
      <rect x="111" y="111" width="28" height="28" rx="5" fill="url(#paint4_radial_213_630)" stroke="url(#paint5_linear_213_630)" stroke-width="1.8"/>
      <rect x="154" y="110" width="28" height="28" rx="5" fill="url(#paint4_radial_213_630)" stroke="url(#paint5_linear_213_630)" stroke-width="1.8"/>
      <rect x="197" y="111" width="28" height="28" rx="5" fill="url(#paint4_radial_213_630)" stroke="url(#paint5_linear_213_630)" stroke-width="1.8"/>
      <rect x="24" y="153" width="28" height="28" rx="5" fill="url(#paint4_radial_213_630)" stroke="url(#paint5_linear_213_630)" stroke-width="1.8"/>
      <rect x="67" y="153" width="29" height="28" rx="5" fill="url(#paint4_radial_213_630)" stroke="url(#paint5_linear_213_630)" stroke-width="1.8"/>
      <rect x="111" y="152" width="28" height="30" rx="5" fill="url(#paint4_radial_213_630)" stroke="url(#paint5_linear_213_630)" stroke-width="1.8"/>
      <rect x="154" y="153" width="28" height="28" rx="5" fill="url(#paint4_radial_213_630)" stroke="url(#paint5_linear_213_630)" stroke-width="1.8"/>
      <rect x="197" y="152" width="29" height="29" rx="5" fill="url(#paint4_radial_213_630)" stroke="url(#paint5_linear_213_630)" stroke-width="1.8"/>
      <rect x="24" y="198" width="28" height="26" rx="5" fill="url(#paint4_radial_213_630)" stroke="url(#paint5_linear_213_630)" stroke-width="1.8"/>
      <rect x="67" y="197" width="29" height="29" rx="5" fill="url(#paint4_radial_213_630)" stroke="url(#paint5_linear_213_630)" stroke-width="1.8"/>
      <rect x="111" y="197" width="28" height="27" rx="5" fill="url(#paint4_radial_213_630)" stroke="url(#paint5_linear_213_630)" stroke-width="1.8"/>
      <rect x="154" y="197" width="28" height="28" rx="5" fill="url(#paint4_radial_213_630)" stroke="url(#paint5_linear_213_630)" stroke-width="1.8"/>
      <rect x="197" y="197" width="29" height="28" rx="5" fill="url(#paint4_radial_213_630)" stroke="url(#paint5_linear_213_630)" stroke-width="1.8"/>
    </g>
  </g>
  <path d="m30.59 31.66c5.6-4.58 12.04-4.47 15.92 0" stroke="#FF917B" stroke-miterlimit="10" stroke-width="1.2"/>
  <path d="m30.59 43.71c5.6 4.14 12.04 4.2 15.92 0" stroke="#FF917B" stroke-miterlimit="10" stroke-width="1.2"/>
  <path d="m37.84 37.96c0-1.87 1.48-2.48 2.27-2.48s2.17 0.83 2.17 2.26-1.47 2.18-2.17 2.18c-1.01 0-2.27-0.79-2.27-1.96z" fill="#FF917B"/>
  <path d="m124.4 28.82v8.35c0 1.91-0.33 4.01-2.24 4.01-1.92 0-4.08-2.57-4.08-4.01s2.16-2.12 2.16-4.28v-4.07" stroke="#FF917B" stroke-miterlimit="10" stroke-width="1.2"/>
  <path d="m124.2 28.82v8.35c0 1.91 0.51 4.01 2.42 4.01 1.92 0 3.58-2.25 3.58-4.01 0-1.09-2.3-1.84-2.3-3.55v-4.8" stroke="#FF917B" stroke-miterlimit="10" stroke-width="1.2"/>
  <path d="m124.5 43.01v4.56" stroke="#FF917B" stroke-miterlimit="10" stroke-width="1.2"/>
  <path d="m203.6 31.54c-3.38 5.82-1.86 10.51 0 12.76-0.93-3.99-0.48-10.78 6.88-10.78 6.99 0 8.24 5.39 7.49 10.78 2.3-3.49 2.1-7.53 0-11.41-0.1 2.42-0.1 2.18-0.1 2.93-1.5-2.3-3.82-3.49-7.54-3.49s-4.86 1.49-6.73 3.4v-4.19z" fill="#FF917B"/>
  <path d="m210 37.81c-0.64 1.25 0.14 2.23 1.03 2.23 1.16 0 1.69-0.76 1.59-1.65-0.16-1.18-1.86-1.73-2.62-0.58z" fill="#FF917B"/>
  <path d="m201.1 123.7h5.82l2.88-2.8h1.44l3.14 2.8h5.82" stroke="#FF917B" stroke-miterlimit="10" stroke-width="1.2"/>
  <path d="m203.1 120.4c3.49-2.94 4.97-4.44 7.26-4.44s4.23 1.8 7.43 4.44" stroke="#FF917B" stroke-miterlimit="10" stroke-width="3"/>
  <path d="m210.4 124.9v3.03l0.4 5.82h0.53l0.59-5.96v-2.89h-1.52z" fill="#FF917B"/>
  <path d="m30.18 122.8c3.63 1.45 6.93 5.34 8.46 9.97-2.52 0-5.68-0.11-6.23-1.1l-2.23-8.87z" stroke="#FF917B" stroke-miterlimit="10" stroke-width=".8"/>
  <path d="m46.72 123.7c-3.41 1.65-5.9 5.58-7.34 8.8h4.53l2.25-2.72 0.56-6.08z" stroke="#FF917B" stroke-miterlimit="10" stroke-width=".8"/>
  <path d="m33.95 123.3 3.89-7.19 0.07-0.14 0.07-0.15 0.01-0.02v0.01l0.02-0.04 0.02 0.04v-0.01l0.01 0.02 0.07 0.15 0.07 0.14 4.1 7.19" stroke="#FF917B" stroke-miterlimit="10" stroke-width=".8"/>
  <path d="m76.26 73.92c1.43 1.14-1.15 3.56-2.04 6.49-0.89 2.94 0.39 5.73 1.44 7.03l-1.79 2.19" stroke="#FF917B" stroke-miterlimit="10" stroke-width=".8"/>
  <path d="m86.95 74.11c-0.74 0.74 1.93 3.03 2.82 6.3 0.66 2.6-0.45 5.68-1.29 7.03l1.29 1.6" stroke="#FF917B" stroke-miterlimit="10" stroke-width=".8"/>
  <path d="m76.83 81.81c0-3.65 5.29-9.27 5.78-9.79 0.65 0.65 5.61 5.46 6.1 9.47 0.27 2.24-1.65 4.6-2.3 5.34 1-1.57 1.3-3.21 1-5.54-0.35-2.68-4.15-6.58-4.8-7.23-0.74 0.75-4.27 4.03-4.81 7.23s1.03 5.12 1.42 5.77c-1.04-1.05-2.39-2.34-2.39-5.25z" fill="#FF917B" stroke="#FF917B" stroke-miterlimit="10" stroke-width=".2"/>
  <path d="m82.31 79.72c-2.53 0-2.8 3.1-1.55 4.19 1.5 1.34 3.15 0.37 3.75-0.55 0.7-1.09 0.21-3.64-2.2-3.64z" fill="#FF917B"/>
  <path d="m160.7 72.66c2.71 2.25 9.2 3.64 13.2 0-2.42 2.15-3.16 4.57-3.16 7.51 0 2.93 0.14 6.61 3.31 9.24-2.94-2.2-8.61-2.58-13.35 0 2.78-2.3 3.15-4.1 3.15-8.29 0-3.34-0.89-6.11-3.15-8.46z" stroke="#FF917B" stroke-miterlimit="10" stroke-width=".8"/>
  <path d="m168.1 81.19-0.76 1.13 1.2 0.69 0.8-0.99-1.24-0.83z" fill="#FF917B"/>
  <path d="m124.5 115.4v8.72" stroke="#FF917B" stroke-miterlimit="10" stroke-width="2"/>
  <path d="m123.9 116.1c-4.77 0.5-6.39 5.03-6.39 6.89 0 3.95 3.7 6.05 4.69 6.54" stroke="#FF917B" stroke-miterlimit="10" stroke-width=".8"/>
  <path d="m124.7 116.1c4.77 0.5 6.39 5.03 6.39 6.89 0 3.95-3.7 6.05-4.69 6.54" stroke="#FF917B" stroke-miterlimit="10" stroke-width=".8"/>
  <path d="m124.5 122.8v11.62" stroke="#FF917B" stroke-miterlimit="10" stroke-width=".8"/>
  <path d="m72.13 162.1 3.75 0.45c2.11 0.28 3.44 2.2 3.63 6.2-1.2-3.1-2.49-4.34-7.38-6.65z" fill="#FF917B"/>
  <path d="m91.21 161.4-3.95 0.65c-1.92 0.35-3.06 4.15-3.06 6.65 1.71-3.49 2.71-4.83 7.01-7.3z" fill="#FF917B"/>
  <path d="m80.48 166.2 1.19 5.2h-1.19v1.14l1.54 4.33 1.76-4.77-0.27-0.89-0.8-0.1 0.75-4.91h-1.34l-0.45 2.94-1.19-2.94z" fill="#FF917B"/>
  <path d="m82.12 160.2-2.9 0.22 2.4 3.29 0.5 1.29 0.59-1.39 2.36-3.31-2.95-0.1z" fill="#FF917B"/>
  <path d="m160 167c-0.43 5.5 4.31 8.65 7.76 8.65 4.68 0 7.62-4.54 7.92-8.65 0.6 2.74-1.56 9.68-8.17 10.02-5.4 0.28-8.7-5.12-7.51-10.02z" fill="#FF917B" stroke="#FF917B" stroke-miterlimit="10" stroke-width=".2"/>
  <path d="m167.8 158.6-3.45 8.39c-0.89 2.54 1.63 4.45 3.2 4.45 1.86 0 3.29-2.01 2.7-4.45l-2.45-8.39zm-0.25 6.4c1.24 0 1.6 1.49 1.6 2.09 0 1.3-1 2-1.7 2-1.1 0-1.84-1.1-1.69-2s0.8-2.09 1.79-2.09z" fill="#FF917B"/>
  <path d="m203.9 204c2.35-1.25 3.4-1.73 5.11-1.73 2.06 0 3.92 1.44 5.69 1.44 1.38 0 2.17-0.6 2.91-1.14" stroke="#FF917B" stroke-miterlimit="10" stroke-width="1.2"/>
  <path d="m203.1 211.2h2.94" stroke="#FF917B" stroke-miterlimit="10" stroke-width="1.2"/>
  <path d="m216.9 210.9h2.74" stroke="#FF917B" stroke-miterlimit="10" stroke-width="1.2"/>
  <path d="m204.7 211.7c0-4.58 3.33-6.55 5.91-6.55 3.17 0 6 2.57 6 6.2 0 3.9-2.93 6.29-6 6.19-3.2-0.1-5.91-2.29-5.91-5.84z" stroke="#FF917B" stroke-miterlimit="10" stroke-width="1.2"/>
  <path d="m204.2 217c2.29 0.9 3.49 1.4 5.9 1.4 2.26 0 3.67-0.9 5.28-1.6" stroke="#FF917B" stroke-miterlimit="10" stroke-width="1.2"/>
  <path d="m37.91 202.1v6.61c0 2.99 2.16 4.71 4.22 4.56 2.25-0.15 3.59-2.31 3.59-4.27 0-2.2-1.29-3.74-2.9-5.18 2.9 1.09 4.43 3.4 4.29 6.39-0.3 4.24-3.5 5.69-7 5.84-3.49 0.15-6.1-2.53-6.6-4.94-0.99-4.53 1.61-7.78 4.4-9.01z" stroke="#FF917B" stroke-miterlimit="10" stroke-width=".8"/>
  <path d="m38.21 214.5v5.14" stroke="#FF917B" stroke-miterlimit="10" stroke-width="1.2"/>
  <path d="m118.4 205.1v6.5c0 1.56 5.3 4.49 5.8 4.49 0.74 0 6-2.93 6-4.49v-6.5" stroke="#FF917B" stroke-miterlimit="10" stroke-width="1.2"/>
  <path d="m124.2 200.9v9.3" stroke="#FF917B" stroke-miterlimit="10" stroke-width="1.2"/>
<defs>
    <linearGradient id="paint0_linear_213_630" x1="0.5" y1="0" x2="0.5" y2="1">
      <stop stop-color="#0A0A11" offset="0"/>
      <stop stop-color="#1B1929" offset="1"/>
    </linearGradient>
    <linearGradient id="paint1_linear_213_630" x1="0.5" y1="0" x2="0.5" y2="1">
      <stop stop-color="#F6542B" offset="0"/>
      <stop stop-color="#F8983D" stop-opacity="0.14" offset="1"/>
    </linearGradient>
    <linearGradient id="paint2_linear_213_630" x1="0.5" y1="0" x2="0.5" y2="1">
      <stop stop-color="#F6752B" offset="0"/>
      <stop stop-color="#F8983D" offset="1"/>
    </linearGradient>
    <linearGradient id="paint3_linear_213_630" x1="0.5" y1="0" x2="0.5" y2="1">
      <stop stop-color="#FF9233" offset="0"/>
      <stop stop-color="#F8983D" offset="1"/>
    </linearGradient>
    <linearGradient id="paint10_linear_213_630" x1="0.5" y1="0" x2="0.5" y2="1">
      <stop stop-color="#F6752B" offset="0"/>
      <stop stop-color="#F8983D" offset="1"/>
    </linearGradient>
    <linearGradient id="paint11_linear_213_630" x1="0.5" y1="0" x2="0.5" y2="1">
      <stop stop-color="#FF9233" offset="0"/>
      <stop stop-color="#F8983D" offset="1"/>
    </linearGradient>
    <linearGradient id="paint18_linear_213_630" x1="0.5" y1="0" x2="0.5" y2="1">
      <stop stop-color="#F6752B" offset="0"/>
      <stop stop-color="#F8983D" offset="1"/>
    </linearGradient>
    <linearGradient id="paint19_linear_213_630" x1="0.5" y1="0" x2="0.5" y2="1">
      <stop stop-color="#FF9233" offset="0"/>
      <stop stop-color="#F8983D" offset="1"/>
    </linearGradient>
    <linearGradient id="paint6_linear_213_630" x1="0.5" y1="0" x2="0.5" y2="1">
      <stop stop-color="#341A54" offset="0"/>
      <stop stop-color="#472A78" offset="1"/>
    </linearGradient>
    <linearGradient id="paint14_linear_213_630" x1="0.5" y1="0" x2="0.5" y2="1">
      <stop stop-color="#341A54" offset="0"/>
      <stop stop-color="#472A78" offset="1"/>
    </linearGradient>
    <linearGradient id="paint22_linear_213_630" x1="0.5" y1="0" x2="0.5" y2="1">
      <stop stop-color="#341A54" offset="0"/>
      <stop stop-color="#472A78" offset="1"/>
    </linearGradient>
    <linearGradient id="paint26_linear_213_630" x1="0.5" y1="0" x2="0.5" y2="1">
      <stop stop-color="#341A54" offset="0"/>
      <stop stop-color="#472A78" offset="1"/>
    </linearGradient>
    <linearGradient id="paint30_linear_213_630" x1="0.5" y1="0" x2="0.5" y2="1">
      <stop stop-color="#341A54" offset="0"/>
      <stop stop-color="#472A78" offset="1"/>
    </linearGradient>
    <linearGradient id="paint31_linear_213_630" x1="0.5" y1="0" x2="0.5" y2="1">
      <stop stop-color="#341A54" offset="0"/>
      <stop stop-color="#472A78" offset="1"/>
    </linearGradient>
    <linearGradient id="paint34_linear_213_630" x1="0.5" y1="0" x2="0.5" y2="1">
      <stop stop-color="#341A54" offset="0"/>
      <stop stop-color="#472A78" offset="1"/>
    </linearGradient>
    <linearGradient id="paint35_linear_213_630" x1="0.5" y1="0" x2="0.5" y2="1">
      <stop stop-color="#341A54" offset="0"/>
      <stop stop-color="#472A78" offset="1"/>
    </linearGradient>
    <linearGradient id="paint38_linear_213_630" x1="0.5" y1="0" x2="0.5" y2="1">
      <stop stop-color="#341A54" offset="0"/>
      <stop stop-color="#472A78" offset="1"/>
    </linearGradient>
    <linearGradient id="paint39_linear_213_630" x1="0.5" y1="0" x2="0.5" y2="1">
      <stop stop-color="#341A54" offset="0"/>
      <stop stop-color="#472A78" offset="1"/>
    </linearGradient>
    <linearGradient id="paint42_linear_213_630" x1="0.5" y1="0" x2="0.5" y2="1">
      <stop stop-color="#341A54" offset="0"/>
      <stop stop-color="#472A78" offset="1"/>
    </linearGradient>
    <linearGradient id="paint43_linear_213_630" x1="0.5" y1="0" x2="0.5" y2="1">
      <stop stop-color="#341A54" offset="0"/>
      <stop stop-color="#472A78" offset="1"/>
    </linearGradient>
    <linearGradient id="paint46_linear_213_630" x1="0.5" y1="0" x2="0.5" y2="1">
      <stop stop-color="#341A54" offset="0"/>
      <stop stop-color="#472A78" offset="1"/>
    </linearGradient>
    <linearGradient id="paint47_linear_213_630" x1="0.5" y1="0" x2="0.5" y2="1">
      <stop stop-color="#341A54" offset="0"/>
      <stop stop-color="#472A78" offset="1"/>
    </linearGradient>
    <linearGradient id="paint50_linear_213_630" x1="0.5" y1="0" x2="0.5" y2="1">
      <stop stop-color="#341A54" offset="0"/>
      <stop stop-color="#472A78" offset="1"/>
    </linearGradient>
    <linearGradient id="paint51_linear_213_630" x1="0.5" y1="0" x2="0.5" y2="1">
      <stop stop-color="#341A54" offset="0"/>
      <stop stop-color="#472A78" offset="1"/>
    </linearGradient>
    <linearGradient id="paint54_linear_213_630" x1="0.5" y1="0" x2="0.5" y2="1">
      <stop stop-color="#341A54" offset="0"/>
      <stop stop-color="#472A78" offset="1"/>
    </linearGradient>
    <linearGradient id="paint55_linear_213_630" x1="0.5" y1="0" x2="0.5" y2="1">
      <stop stop-color="#341A54" offset="0"/>
      <stop stop-color="#472A78" offset="1"/>
    </linearGradient>
    <linearGradient id="paint58_linear_213_630" x1="0.5" y1="0" x2="0.5" y2="1">
      <stop stop-color="#341A54" offset="0"/>
      <stop stop-color="#472A78" offset="1"/>
    </linearGradient>
    <linearGradient id="paint59_linear_213_630" x1="0.5" y1="0" x2="0.5" y2="1">
      <stop stop-color="#341A54" offset="0"/>
      <stop stop-color="#472A78" offset="1"/>
    </linearGradient>
    <linearGradient id="paint62_linear_213_630" x1="0.5" y1="0" x2="0.5" y2="1">
      <stop stop-color="#341A54" offset="0"/>
      <stop stop-color="#472A78" offset="1"/>
    </linearGradient>
    <linearGradient id="paint63_linear_213_630" x1="0.5" y1="0" x2="0.5" y2="1">
      <stop stop-color="#341A54" offset="0"/>
      <stop stop-color="#472A78" offset="1"/>
    </linearGradient>
    <linearGradient id="paint66_linear_213_630" x1="0.5" y1="0" x2="0.5" y2="1">
      <stop stop-color="#341A54" offset="0"/>
      <stop stop-color="#472A78" offset="1"/>
    </linearGradient>
    <linearGradient id="paint67_linear_213_630" x1="0.5" y1="0" x2="0.5" y2="1">
      <stop stop-color="#341A54" offset="0"/>
      <stop stop-color="#472A78" offset="1"/>
    </linearGradient>
    <linearGradient id="paint68_linear_213_630" x1="0.5" y1="0" x2="0.5" y2="1">
      <stop stop-color="#341A54" offset="0"/>
      <stop stop-color="#472A78" offset="1"/>
    </linearGradient>
    <linearGradient id="paint69_linear_213_630" x1="0.5" y1="0" x2="0.5" y2="1">
      <stop stop-color="#341A54" offset="0"/>
      <stop stop-color="#472A78" offset="1"/>
    </linearGradient>
    <linearGradient id="paint70_linear_213_630" x1="0.5" y1="0" x2="0.5" y2="1">
      <stop stop-color="#341A54" offset="0"/>
      <stop stop-color="#472A78" offset="1"/>
    </linearGradient>
    <linearGradient id="paint71_linear_213_630" x1="0.5" y1="0" x2="0.5" y2="1">
      <stop stop-color="#341A54" offset="0"/>
      <stop stop-color="#472A78" offset="1"/>
    </linearGradient>
    <linearGradient id="paint74_linear_213_630" x1="0.5" y1="0" x2="0.5" y2="1">
      <stop stop-color="#341A54" offset="0"/>
      <stop stop-color="#472A78" offset="1"/>
    </linearGradient>
    <linearGradient id="paint75_linear_213_630" x1="0.5" y1="0" x2="0.5" y2="1">
      <stop stop-color="#341A54" offset="0"/>
      <stop stop-color="#472A78" offset="1"/>
    </linearGradient>
    <linearGradient id="paint76_linear_213_630" x1="0.5" y1="0" x2="0.5" y2="1">
      <stop stop-color="#341A54" offset="0"/>
      <stop stop-color="#472A78" offset="1"/>
    </linearGradient>
    <linearGradient id="paint77_linear_213_630" x1="0.5" y1="0" x2="0.5" y2="1">
      <stop stop-color="#341A54" offset="0"/>
      <stop stop-color="#472A78" offset="1"/>
    </linearGradient>
    <linearGradient id="paint80_linear_213_630" x1="0.5" y1="0" x2="0.5" y2="1">
      <stop stop-color="#341A54" offset="0"/>
      <stop stop-color="#472A78" offset="1"/>
    </linearGradient>
    <linearGradient id="paint81_linear_213_630" x1="0.5" y1="0" x2="0.5" y2="1">
      <stop stop-color="#341A54" offset="0"/>
      <stop stop-color="#472A78" offset="1"/>
    </linearGradient>
    <linearGradient id="paint82_linear_213_630" x1="0.5" y1="0" x2="0.5" y2="1">
      <stop stop-color="#341A54" offset="0"/>
      <stop stop-color="#472A78" offset="1"/>
    </linearGradient>
    <linearGradient id="paint83_linear_213_630" x1="0.5" y1="0" x2="0.5" y2="1">
      <stop stop-color="#341A54" offset="0"/>
      <stop stop-color="#472A78" offset="1"/>
    </linearGradient>
    <linearGradient id="paint84_linear_213_630" x1="0.5" y1="0" x2="0.5" y2="1">
      <stop stop-color="#341A54" offset="0"/>
      <stop stop-color="#472A78" offset="1"/>
    </linearGradient>
    <linearGradient id="paint85_linear_213_630" x1="0.5" y1="0" x2="0.5" y2="1">
      <stop stop-color="#341A54" offset="0"/>
      <stop stop-color="#472A78" offset="1"/>
    </linearGradient>
    <linearGradient id="paint86_linear_213_630" x1="0.5" y1="0" x2="0.5" y2="1">
      <stop stop-color="#341A54" offset="0"/>
      <stop stop-color="#472A78" offset="1"/>
    </linearGradient>
    <linearGradient id="paint87_linear_213_630" x1="0.5" y1="0" x2="0.5" y2="1">
      <stop stop-color="#341A54" offset="0"/>
      <stop stop-color="#472A78" offset="1"/>
    </linearGradient>
    <radialGradient id="paint4_radial_213_630" cx="0.5" cy="0.4" r="0.7">
      <stop stop-color="#8439A6" offset="0"/>
      <stop stop-color="#3A1860" offset="1"/>
    </radialGradient>
    <radialGradient id="paint8_radial_213_630" cx="0.5" cy="0.4" r="0.7">
      <stop stop-color="#8439A6" offset="0"/>
      <stop stop-color="#3A1860" offset="1"/>
    </radialGradient>
    <radialGradient id="paint12_radial_213_630" cx="0.5" cy="0.4" r="0.7">
      <stop stop-color="#8439A6" offset="0"/>
      <stop stop-color="#3A1860" offset="1"/>
    </radialGradient>
    <radialGradient id="paint16_radial_213_630" cx="0.5" cy="0.4" r="0.7">
      <stop stop-color="#8439A6" offset="0"/>
      <stop stop-color="#3A1860" offset="1"/>
    </radialGradient>
    <radialGradient id="paint20_radial_213_630" cx="0.5" cy="0.4" r="0.7">
      <stop stop-color="#8439A6" offset="0"/>
      <stop stop-color="#3A1860" offset="1"/>
    </radialGradient>
    <radialGradient id="paint24_radial_213_630" cx="0.5" cy="0.4" r="0.7">
      <stop stop-color="#8439A6" offset="0"/>
      <stop stop-color="#3A1860" offset="1"/>
    </radialGradient>
    <radialGradient id="paint28_radial_213_630" cx="0.5" cy="0.4" r="0.7">
      <stop stop-color="#8439A6" offset="0"/>
      <stop stop-color="#3A1860" offset="1"/>
    </radialGradient>
    <radialGradient id="paint32_radial_213_630" cx="0.5" cy="0.4" r="0.7">
      <stop stop-color="#8439A6" offset="0"/>
      <stop stop-color="#3A1860" offset="1"/>
    </radialGradient>
    <radialGradient id="paint36_radial_213_630" cx="0.5" cy="0.4" r="0.7">
      <stop stop-color="#8439A6" offset="0"/>
      <stop stop-color="#3A1860" offset="1"/>
    </radialGradient>
    <radialGradient id="paint40_radial_213_630" cx="0.5" cy="0.4" r="0.7">
      <stop stop-color="#8439A6" offset="0"/>
      <stop stop-color="#3A1860" offset="1"/>
    </radialGradient>
    <radialGradient id="paint44_radial_213_630" cx="0.5" cy="0.4" r="0.7">
      <stop stop-color="#8439A6" offset="0"/>
      <stop stop-color="#3A1860" offset="1"/>
    </radialGradient>
    <radialGradient id="paint48_radial_213_630" cx="0.5" cy="0.4" r="0.7">
      <stop stop-color="#8439A6" offset="0"/>
      <stop stop-color="#3A1860" offset="1"/>
    </radialGradient>
    <radialGradient id="paint52_radial_213_630" cx="0.5" cy="0.4" r="0.7">
      <stop stop-color="#8439A6" offset="0"/>
      <stop stop-color="#3A1860" offset="1"/>
    </radialGradient>
    <radialGradient id="paint56_radial_213_630" cx="0.5" cy="0.4" r="0.7">
      <stop stop-color="#8439A6" offset="0"/>
      <stop stop-color="#3A1860" offset="1"/>
    </radialGradient>
    <radialGradient id="paint60_radial_213_630" cx="0.5" cy="0.4" r="0.7">
      <stop stop-color="#8439A6" offset="0"/>
      <stop stop-color="#3A1860" offset="1"/>
    </radialGradient>
    <radialGradient id="paint64_radial_213_630" cx="0.5" cy="0.4" r="0.7">
      <stop stop-color="#8439A6" offset="0"/>
      <stop stop-color="#3A1860" offset="1"/>
    </radialGradient>
    <radialGradient id="paint72_radial_213_630" cx="0.5" cy="0.4" r="0.7">
      <stop stop-color="#8439A6" offset="0"/>
      <stop stop-color="#3A1860" offset="1"/>
    </radialGradient>
    <radialGradient id="paint78_radial_213_630" cx="0.5" cy="0.4" r="0.7">
      <stop stop-color="#8439A6" offset="0"/>
      <stop stop-color="#3A1860" offset="1"/>
    </radialGradient>
    <linearGradient id="paint5_linear_213_630" x1="0.5" y1="0" x2="0.5" y2="1">
      <stop stop-color="#522980" offset="0"/>
      <stop stop-color="#2D174B" offset="1"/>
    </linearGradient>
    <linearGradient id="paint9_linear_213_630" x1="0.5" y1="0" x2="0.5" y2="1">
      <stop stop-color="#522980" offset="0"/>
      <stop stop-color="#2D174B" offset="1"/>
    </linearGradient>
    <linearGradient id="paint13_linear_213_630" x1="0.5" y1="0" x2="0.5" y2="1">
      <stop stop-color="#522980" offset="0"/>
      <stop stop-color="#2D174B" offset="1"/>
    </linearGradient>
    <linearGradient id="paint17_linear_213_630" x1="0.5" y1="0" x2="0.5" y2="1">
      <stop stop-color="#522980" offset="0"/>
      <stop stop-color="#2D174B" offset="1"/>
    </linearGradient>
    <linearGradient id="paint21_linear_213_630" x1="0.5" y1="0" x2="0.5" y2="1">
      <stop stop-color="#522980" offset="0"/>
      <stop stop-color="#2D174B" offset="1"/>
    </linearGradient>
    <linearGradient id="paint25_linear_213_630" x1="0.5" y1="0" x2="0.5" y2="1">
      <stop stop-color="#522980" offset="0"/>
      <stop stop-color="#2D174B" offset="1"/>
    </linearGradient>
    <linearGradient id="paint29_linear_213_630" x1="0.5" y1="0" x2="0.5" y2="1">
      <stop stop-color="#522980" offset="0"/>
      <stop stop-color="#2D174B" offset="1"/>
    </linearGradient>
    <linearGradient id="paint33_linear_213_630" x1="0.5" y1="0" x2="0.5" y2="1">
      <stop stop-color="#522980" offset="0"/>
      <stop stop-color="#2D174B" offset="1"/>
    </linearGradient>
    <linearGradient id="paint37_linear_213_630" x1="0.5" y1="0" x2="0.5" y2="1">
      <stop stop-color="#522980" offset="0"/>
      <stop stop-color="#2D174B" offset="1"/>
    </linearGradient>
    <linearGradient id="paint41_linear_213_630" x1="0.5" y1="0" x2="0.5" y2="1">
      <stop stop-color="#522980" offset="0"/>
      <stop stop-color="#2D174B" offset="1"/>
    </linearGradient>
    <linearGradient id="paint45_linear_213_630" x1="0.5" y1="0" x2="0.5" y2="1">
      <stop stop-color="#522980" offset="0"/>
      <stop stop-color="#2D174B" offset="1"/>
    </linearGradient>
    <linearGradient id="paint49_linear_213_630" x1="0.5" y1="0" x2="0.5" y2="1">
      <stop stop-color="#522980" offset="0"/>
      <stop stop-color="#2D174B" offset="1"/>
    </linearGradient>
    <linearGradient id="paint53_linear_213_630" x1="0.5" y1="0" x2="0.5" y2="1">
      <stop stop-color="#522980" offset="0"/>
      <stop stop-color="#2D174B" offset="1"/>
    </linearGradient>
    <linearGradient id="paint57_linear_213_630" x1="0.5" y1="0" x2="0.5" y2="1">
      <stop stop-color="#522980" offset="0"/>
      <stop stop-color="#2D174B" offset="1"/>
    </linearGradient>
    <linearGradient id="paint61_linear_213_630" x1="0.5" y1="0" x2="0.5" y2="1">
      <stop stop-color="#522980" offset="0"/>
      <stop stop-color="#2D174B" offset="1"/>
    </linearGradient>
    <linearGradient id="paint65_linear_213_630" x1="0.5" y1="0" x2="0.5" y2="1">
      <stop stop-color="#522980" offset="0"/>
      <stop stop-color="#2D174B" offset="1"/>
    </linearGradient>
    <linearGradient id="paint73_linear_213_630" x1="0.5" y1="0" x2="0.5" y2="1">
      <stop stop-color="#522980" offset="0"/>
      <stop stop-color="#2D174B" offset="1"/>
    </linearGradient>
    <linearGradient id="paint79_linear_213_630" x1="0.5" y1="0" x2="0.5" y2="1">
      <stop stop-color="#522980" offset="0"/>
      <stop stop-color="#2D174B" offset="1"/>
    </linearGradient>
</defs>
</svg>
