<svg xmlns="http://www.w3.org/2000/svg" width="39" height="39" viewBox="0 0 39 39" fill="none">
<defs>
  <linearGradient id="magicOuter" x1="0.5" y1="0" x2="0.5" y2="1">
    <stop stop-color="#F6752B" offset="0"/>
    <stop stop-color="#F8983D" offset="1"/>
  </linearGradient>
  <radialGradient id="magicInner" cx="0.5" cy="0.4" r="0.7">
    <stop stop-color="#8D41CC" offset="0"/>
    <stop stop-color="#5A278F" offset="0.58"/>
    <stop stop-color="#44206C" offset="1"/>
  </radialGradient>
  <linearGradient id="magicInnerStroke" x1="0.5" y1="0" x2="0.5" y2="1">
    <stop stop-color="#3D1F63" offset="0"/>
    <stop stop-color="#3D1F63" stop-opacity="0.45" offset="1"/>
  </linearGradient>
</defs>
<rect x="1.5" y="1.5" width="36" height="36" rx="5" fill="url(#magicOuter)"/>
<rect x="5.0" y="5.0" width="29" height="29" rx="5" fill="url(#magicInner)" stroke="url(#magicInnerStroke)" stroke-width="2"/>
<g transform="translate(-147.88, -61.53)">
<path d="m160.7 72.66c2.71 2.25 9.2 3.64 13.2 0-2.42 2.15-3.16 4.57-3.16 7.51 0 2.93 0.14 6.61 3.31 9.24-2.94-2.2-8.61-2.58-13.35 0 2.78-2.3 3.15-4.1 3.15-8.29 0-3.34-0.89-6.11-3.15-8.46z" stroke="#FF917B" stroke-miterlimit="10" stroke-width=".8"/>
<path d="m168.1 81.19-0.76 1.13 1.2 0.69 0.8-0.99-1.24-0.83z" fill="#FF917B"/>
</g>
</svg>
