<svg xmlns="http://www.w3.org/2000/svg" width="39" height="39" viewBox="0 0 39 39" fill="none">
<defs>
  <linearGradient id="magicOuter" x1="0.5" y1="0" x2="0.5" y2="1">
    <stop stop-color="#F6752B" offset="0"/>
    <stop stop-color="#F8983D" offset="1"/>
  </linearGradient>
  <radialGradient id="magicInner" cx="0.5" cy="0.4" r="0.7">
    <stop stop-color="#8D41CC" offset="0"/>
    <stop stop-color="#5A278F" offset="0.58"/>
    <stop stop-color="#44206C" offset="1"/>
  </radialGradient>
  <linearGradient id="magicInnerStroke" x1="0.5" y1="0" x2="0.5" y2="1">
    <stop stop-color="#3D1F63" offset="0"/>
    <stop stop-color="#3D1F63" stop-opacity="0.45" offset="1"/>
  </linearGradient>
</defs>
<rect x="1.5" y="1.5" width="36" height="36" rx="5" fill="url(#magicOuter)"/>
<rect x="5.0" y="5.0" width="29" height="29" rx="5" fill="url(#magicInner)" stroke="url(#magicInnerStroke)" stroke-width="2"/>
<g transform="translate(-62.17, -148.73)">
<path d="m72.13 162.1 3.75 0.45c2.11 0.28 3.44 2.2 3.63 6.2-1.2-3.1-2.49-4.34-7.38-6.65z" fill="#FF917B"/>
<path d="m91.21 161.4-3.95 0.65c-1.92 0.35-3.06 4.15-3.06 6.65 1.71-3.49 2.71-4.83 7.01-7.3z" fill="#FF917B"/>
<path d="m80.48 166.2 1.19 5.2h-1.19v1.14l1.54 4.33 1.76-4.77-0.27-0.89-0.8-0.1 0.75-4.91h-1.34l-0.45 2.94-1.19-2.94z" fill="#FF917B"/>
<path d="m82.12 160.2-2.9 0.22 2.4 3.29 0.5 1.29 0.59-1.39 2.36-3.31-2.95-0.1z" fill="#FF917B"/>
</g>
</svg>
