<svg xmlns="http://www.w3.org/2000/svg" width="39" height="39" viewBox="0 0 39 39" fill="none">
<defs>
  <linearGradient id="magicOuter" x1="0.5" y1="0" x2="0.5" y2="1">
    <stop stop-color="#F6752B" offset="0"/>
    <stop stop-color="#F8983D" offset="1"/>
  </linearGradient>
  <radialGradient id="magicInner" cx="0.5" cy="0.4" r="0.7">
    <stop stop-color="#8D41CC" offset="0"/>
    <stop stop-color="#5A278F" offset="0.58"/>
    <stop stop-color="#44206C" offset="1"/>
  </radialGradient>
  <linearGradient id="magicInnerStroke" x1="0.5" y1="0" x2="0.5" y2="1">
    <stop stop-color="#3D1F63" offset="0"/>
    <stop stop-color="#3D1F63" stop-opacity="0.45" offset="1"/>
  </linearGradient>
</defs>
<rect x="1.0" y="1.0" width="37" height="37" rx="5" fill="url(#magicOuter)"/>
<rect x="2.5" y="2.5" width="34" height="34" rx="5" fill="url(#magicInner)" stroke="url(#magicInnerStroke)" stroke-width="1.2"/>
<g transform="translate(-191.01, -18.42)">
<path d="m203.6 31.54c-3.38 5.82-1.86 10.51 0 12.76-0.93-3.99-0.48-10.78 6.88-10.78 6.99 0 8.24 5.39 7.49 10.78 2.3-3.49 2.1-7.53 0-11.41-0.1 2.42-0.1 2.18-0.1 2.93-1.5-2.3-3.82-3.49-7.54-3.49s-4.86 1.49-6.73 3.4v-4.19z" fill="#FF917B"/>
<path d="m210 37.81c-0.64 1.25 0.14 2.23 1.03 2.23 1.16 0 1.69-0.76 1.59-1.65-0.16-1.18-1.86-1.73-2.62-0.58z" fill="#FF917B"/>
</g>
</svg>

