<svg xmlns="http://www.w3.org/2000/svg" width="39" height="39" viewBox="0 0 39 39" fill="none">
<defs>
  <linearGradient id="magicOuter" x1="0.5" y1="0" x2="0.5" y2="1">
    <stop stop-color="#F6752B" offset="0"/>
    <stop stop-color="#F8983D" offset="1"/>
  </linearGradient>
  <radialGradient id="magicInner" cx="0.5" cy="0.4" r="0.7">
    <stop stop-color="#8D41CC" offset="0"/>
    <stop stop-color="#5A278F" offset="0.58"/>
    <stop stop-color="#44206C" offset="1"/>
  </radialGradient>
  <linearGradient id="magicInnerStroke" x1="0.5" y1="0" x2="0.5" y2="1">
    <stop stop-color="#3D1F63" offset="0"/>
    <stop stop-color="#3D1F63" stop-opacity="0.45" offset="1"/>
  </linearGradient>
</defs>
<rect x="1.5" y="1.5" width="36" height="36" rx="5" fill="url(#magicOuter)"/>
<rect x="5.0" y="5.0" width="29" height="29" rx="5" fill="url(#magicInner)" stroke="url(#magicInnerStroke)" stroke-width="2"/>
<g transform="translate(-104.64, -19.00)">
<path d="m124.4 28.82v8.35c0 1.91-0.33 4.01-2.24 4.01-1.92 0-4.08-2.57-4.08-4.01s2.16-2.12 2.16-4.28v-4.07" stroke="#FF917B" stroke-miterlimit="10" stroke-width="1.2"/>
<path d="m124.2 28.82v8.35c0 1.91 0.51 4.01 2.42 4.01 1.92 0 3.58-2.25 3.58-4.01 0-1.09-2.3-1.84-2.3-3.55v-4.8" stroke="#FF917B" stroke-miterlimit="10" stroke-width="1.2"/>
<path d="m124.5 43.01v4.56" stroke="#FF917B" stroke-miterlimit="10" stroke-width="1.2"/>
</g>
</svg>
