<svg xmlns="http://www.w3.org/2000/svg" width="39" height="39" viewBox="0 0 39 39" fill="none">
<defs>
  <linearGradient id="magicOuter" x1="0.5" y1="0" x2="0.5" y2="1">
    <stop stop-color="#F6752B" offset="0"/>
    <stop stop-color="#F8983D" offset="1"/>
  </linearGradient>
  <radialGradient id="magicInner" cx="0.5" cy="0.4" r="0.7">
    <stop stop-color="#8D41CC" offset="0"/>
    <stop stop-color="#5A278F" offset="0.58"/>
    <stop stop-color="#44206C" offset="1"/>
  </radialGradient>
  <linearGradient id="magicInnerStroke" x1="0.5" y1="0" x2="0.5" y2="1">
    <stop stop-color="#3D1F63" offset="0"/>
    <stop stop-color="#3D1F63" stop-opacity="0.45" offset="1"/>
  </linearGradient>
</defs>
<rect x="1.5" y="1.5" width="36" height="36" rx="5" fill="url(#magicOuter)"/>
<rect x="5.0" y="5.0" width="29" height="29" rx="5" fill="url(#magicInner)" stroke="url(#magicInnerStroke)" stroke-width="2"/>
<g transform="translate(-62, -19)">
<path d="m30.59 31.66c5.6-4.58 12.04-4.47 15.92 0" stroke="#FF917B" stroke-miterlimit="10" stroke-width="1.2"/>
  <path d="m30.59 43.71c5.6 4.14 12.04 4.2 15.92 0" stroke="#FF917B" stroke-miterlimit="10" stroke-width="1.2"/>
  <path d="m37.84 37.96c0-1.87 1.48-2.48 2.27-2.48s2.17 0.83 2.17 2.26-1.47 2.18-2.17 2.18c-1.01 0-2.27-0.79-2.27-1.96z" fill="#FF917B"/>
  <path d="m124.4 28.82v8.35c0 1.91-0.33 4.01-2.24 4.01-1.92 0-4.08-2.57-4.08-4.01s2.16-2.12 2.16-4.28v-4.07" stroke="#FF917B" stroke-miterlimit="10" stroke-width="1.2"/>
  <path d="m124.2 28.82v8.35c0 1.91 0.51 4.01 2.42 4.01 1.92 0 3.58-2.25 3.58-4.01 0-1.09-2.3-1.84-2.3-3.55v-4.8" stroke="#FF917B" stroke-miterlimit="10" stroke-width="1.2"/>
  <path d="m124.5 43.01v4.56" stroke="#FF917B" stroke-miterlimit="10" stroke-width="1.2"/>
  <path d="m203.6 31.54c-3.38 5.82-1.86 10.51 0 12.76-0.93-3.99-0.48-10.78 6.88-10.78 6.99 0 8.24 5.39 7.49 10.78 2.3-3.49 2.1-7.53 0-11.41-0.1 2.42-0.1 2.18-0.1 2.93-1.5-2.3-3.82-3.49-7.54-3.49s-4.86 1.49-6.73 3.4v-4.19z" fill="#FF917B"/>
  <path d="m210 37.81c-0.64 1.25 0.14 2.23 1.03 2.23 1.16 0 1.69-0.76 1.59-1.65-0.16-1.18-1.86-1.73-2.62-0.58z" fill="#FF917B"/>
  <path d="m201.1 123.7h5.82l2.88-2.8h1.44l3.14 2.8h5.82" stroke="#FF917B" stroke-miterlimit="10" stroke-width="1.2"/>
  <path d="m203.1 120.4c3.49-2.94 4.97-4.44 7.26-4.44s4.23 1.8 7.43 4.44" stroke="#FF917B" stroke-miterlimit="10" stroke-width="3"/>
  <path d="m210.4 124.9v3.03l0.4 5.82h0.53l0.59-5.96v-2.89h-1.52z" fill="#FF917B"/>
  <path d="m30.18 122.8c3.63 1.45 6.93 5.34 8.46 9.97-2.52 0-5.68-0.11-6.23-1.1l-2.23-8.87z" stroke="#FF917B" stroke-miterlimit="10" stroke-width=".8"/>
  <path d="m46.72 123.7c-3.41 1.65-5.9 5.58-7.34 8.8h4.53l2.25-2.72 0.56-6.08z" stroke="#FF917B" stroke-miterlimit="10" stroke-width=".8"/>
  <path d="m33.95 123.3 3.89-7.19 0.07-0.14 0.07-0.15 0.01-0.02v0.01l0.02-0.04 0.02 0.04v-0.01l0.01 0.02 0.07 0.15 0.07 0.14 4.1 7.19" stroke="#FF917B" stroke-miterlimit="10" stroke-width=".8"/>
  <path d="m76.26 73.92c1.43 1.14-1.15 3.56-2.04 6.49-0.89 2.94 0.39 5.73 1.44 7.03l-1.79 2.19" stroke="#FF917B" stroke-miterlimit="10" stroke-width=".8"/>
  <path d="m86.95 74.11c-0.74 0.74 1.93 3.03 2.82 6.3 0.66 2.6-0.45 5.68-1.29 7.03l1.29 1.6" stroke="#FF917B" stroke-miterlimit="10" stroke-width=".8"/>
  <path d="m76.83 81.81c0-3.65 5.29-9.27 5.78-9.79 0.65 0.65 5.61 5.46 6.1 9.47 0.27 2.24-1.65 4.6-2.3 5.34 1-1.57 1.3-3.21 1-5.54-0.35-2.68-4.15-6.58-4.8-7.23-0.74 0.75-4.27 4.03-4.81 7.23s1.03 5.12 1.42 5.77c-1.04-1.05-2.39-2.34-2.39-5.25z" fill="#FF917B" stroke="#FF917B" stroke-miterlimit="10" stroke-width=".2"/>
  <path d="m82.31 79.72c-2.53 0-2.8 3.1-1.55 4.19 1.5 1.34 3.15 0.37 3.75-0.55 0.7-1.09 0.21-3.64-2.2-3.64z" fill="#FF917B"/>
  <path d="m160.7 72.66c2.71 2.25 9.2 3.64 13.2 0-2.42 2.15-3.16 4.57-3.16 7.51 0 2.93 0.14 6.61 3.31 9.24-2.94-2.2-8.61-2.58-13.35 0 2.78-2.3 3.15-4.1 3.15-8.29 0-3.34-0.89-6.11-3.15-8.46z" stroke="#FF917B" stroke-miterlimit="10" stroke-width=".8"/>
  <path d="m168.1 81.19-0.76 1.13 1.2 0.69 0.8-0.99-1.24-0.83z" fill="#FF917B"/>
  <path d="m124.5 115.4v8.72" stroke="#FF917B" stroke-miterlimit="10" stroke-width="2"/>
  <path d="m123.9 116.1c-4.77 0.5-6.39 5.03-6.39 6.89 0 3.95 3.7 6.05 4.69 6.54" stroke="#FF917B" stroke-miterlimit="10" stroke-width=".8"/>
  <path d="m124.7 116.1c4.77 0.5 6.39 5.03 6.39 6.89 0 3.95-3.7 6.05-4.69 6.54" stroke="#FF917B" stroke-miterlimit="10" stroke-width=".8"/>
  <path d="m124.5 122.8v11.62" stroke="#FF917B" stroke-miterlimit="10" stroke-width=".8"/>
  <path d="m72.13 162.1 3.75 0.45c2.11 0.28 3.44 2.2 3.63 6.2-1.2-3.1-2.49-4.34-7.38-6.65z" fill="#FF917B"/>
  <path d="m91.21 161.4-3.95 0.65c-1.92 0.35-3.06 4.15-3.06 6.65 1.71-3.49 2.71-4.83 7.01-7.3z" fill="#FF917B"/>
  <path d="m80.48 166.2 1.19 5.2h-1.19v1.14l1.54 4.33 1.76-4.77-0.27-0.89-0.8-0.1 0.75-4.91h-1.34l-0.45 2.94-1.19-2.94z" fill="#FF917B"/>
  <path d="m82.12 160.2-2.9 0.22 2.4 3.29 0.5 1.29 0.59-1.39 2.36-3.31-2.95-0.1z" fill="#FF917B"/>
  <path d="m160 167c-0.43 5.5 4.31 8.65 7.76 8.65 4.68 0 7.62-4.54 7.92-8.65 0.6 2.74-1.56 9.68-8.17 10.02-5.4 0.28-8.7-5.12-7.51-10.02z" fill="#FF917B" stroke="#FF917B" stroke-miterlimit="10" stroke-width=".2"/>
  <path d="m167.8 158.6-3.45 8.39c-0.89 2.54 1.63 4.45 3.2 4.45 1.86 0 3.29-2.01 2.7-4.45l-2.45-8.39zm-0.25 6.4c1.24 0 1.6 1.49 1.6 2.09 0 1.3-1 2-1.7 2-1.1 0-1.84-1.1-1.69-2s0.8-2.09 1.79-2.09z" fill="#FF917B"/>
  <path d="m203.9 204c2.35-1.25 3.4-1.73 5.11-1.73 2.06 0 3.92 1.44 5.69 1.44 1.38 0 2.17-0.6 2.91-1.14" stroke="#FF917B" stroke-miterlimit="10" stroke-width="1.2"/>
  <path d="m203.1 211.2h2.94" stroke="#FF917B" stroke-miterlimit="10" stroke-width="1.2"/>
  <path d="m216.9 210.9h2.74" stroke="#FF917B" stroke-miterlimit="10" stroke-width="1.2"/>
  <path d="m204.7 211.7c0-4.58 3.33-6.55 5.91-6.55 3.17 0 6 2.57 6 6.2 0 3.9-2.93 6.29-6 6.19-3.2-0.1-5.91-2.29-5.91-5.84z" stroke="#FF917B" stroke-miterlimit="10" stroke-width="1.2"/>
  <path d="m204.2 217c2.29 0.9 3.49 1.4 5.9 1.4 2.26 0 3.67-0.9 5.28-1.6" stroke="#FF917B" stroke-miterlimit="10" stroke-width="1.2"/>
  <path d="m37.91 202.1v6.61c0 2.99 2.16 4.71 4.22 4.56 2.25-0.15 3.59-2.31 3.59-4.27 0-2.2-1.29-3.74-2.9-5.18 2.9 1.09 4.43 3.4 4.29 6.39-0.3 4.24-3.5 5.69-7 5.84-3.49 0.15-6.1-2.53-6.6-4.94-0.99-4.53 1.61-7.78 4.4-9.01z" stroke="#FF917B" stroke-miterlimit="10" stroke-width=".8"/>
  <path d="m38.21 214.5v5.14" stroke="#FF917B" stroke-miterlimit="10" stroke-width="1.2"/>
  <path d="m118.4 205.1v6.5c0 1.56 5.3 4.49 5.8 4.49 0.74 0 6-2.93 6-4.49v-6.5" stroke="#FF917B" stroke-miterlimit="10" stroke-width="1.2"/>
  <path d="m124.2 200.9v9.3" stroke="#FF917B" stroke-miterlimit="10" stroke-width="1.2"/>
</g>
</svg>
