<svg xmlns="http://www.w3.org/2000/svg" width="39" height="39" viewBox="0 0 39 39" fill="none">
<defs>
  <linearGradient id="magicOuter" x1="0.5" y1="0" x2="0.5" y2="1">
    <stop stop-color="#F6752B" offset="0"/>
    <stop stop-color="#F8983D" offset="1"/>
  </linearGradient>
  <radialGradient id="magicInner" cx="0.5" cy="0.4" r="0.7">
    <stop stop-color="#8D41CC" offset="0"/>
    <stop stop-color="#5A278F" offset="0.58"/>
    <stop stop-color="#44206C" offset="1"/>
  </radialGradient>
  <linearGradient id="magicInnerStroke" x1="0.5" y1="0" x2="0.5" y2="1">
    <stop stop-color="#3D1F63" offset="0"/>
    <stop stop-color="#3D1F63" stop-opacity="0.45" offset="1"/>
  </linearGradient>
</defs>
<rect x="1.5" y="1.5" width="36" height="36" rx="5" fill="url(#magicOuter)"/>
<rect x="5.0" y="5.0" width="29" height="29" rx="5" fill="url(#magicInner)" stroke="url(#magicInnerStroke)" stroke-width="2"/>
<g transform="translate(-19.05, -18.05)">
<path d="m30.59 31.66c5.6-4.58 12.04-4.47 15.92 0" stroke="#FF917B" stroke-miterlimit="10" stroke-width="1.2"/>
<path d="m30.59 43.71c5.6 4.14 12.04 4.2 15.92 0" stroke="#FF917B" stroke-miterlimit="10" stroke-width="1.2"/>
<path d="m37.84 37.96c0-1.87 1.48-2.48 2.27-2.48s2.17 0.83 2.17 2.26-1.47 2.18-2.17 2.18c-1.01 0-2.27-0.79-2.27-1.96z" fill="#FF917B"/>
</g>
</svg>
