<svg xmlns="http://www.w3.org/2000/svg" width="39" height="39" viewBox="0 0 39 39" fill="none">
<defs>
  <linearGradient id="magicOuter" x1="0.5" y1="0" x2="0.5" y2="1">
    <stop stop-color="#F6752B" offset="0"/>
    <stop stop-color="#F8983D" offset="1"/>
  </linearGradient>
  <radialGradient id="magicInner" cx="0.5" cy="0.4" r="0.7">
    <stop stop-color="#8D41CC" offset="0"/>
    <stop stop-color="#5A278F" offset="0.58"/>
    <stop stop-color="#44206C" offset="1"/>
  </radialGradient>
  <linearGradient id="magicInnerStroke" x1="0.5" y1="0" x2="0.5" y2="1">
    <stop stop-color="#3D1F63" offset="0"/>
    <stop stop-color="#3D1F63" stop-opacity="0.45" offset="1"/>
  </linearGradient>
</defs>
<rect x="1.5" y="1.5" width="36" height="36" rx="5" fill="url(#magicOuter)"/>
<rect x="5.0" y="5.0" width="29" height="29" rx="5" fill="url(#magicInner)" stroke="url(#magicInnerStroke)" stroke-width="2"/>
<g transform="translate(-62.42, -61.12)">
<path d="m76.26 73.92c1.43 1.14-1.15 3.56-2.04 6.49-0.89 2.94 0.39 5.73 1.44 7.03l-1.79 2.19" stroke="#FF917B" stroke-miterlimit="10" stroke-width=".8"/>
<path d="m86.95 74.11c-0.74 0.74 1.93 3.03 2.82 6.3 0.66 2.6-0.45 5.68-1.29 7.03l1.29 1.6" stroke="#FF917B" stroke-miterlimit="10" stroke-width=".8"/>
<path d="m76.83 81.81c0-3.65 5.29-9.27 5.78-9.79 0.65 0.65 5.61 5.46 6.1 9.47 0.27 2.24-1.65 4.6-2.3 5.34 1-1.57 1.3-3.21 1-5.54-0.35-2.68-4.15-6.58-4.8-7.23-0.74 0.75-4.27 4.03-4.81 7.23s1.03 5.12 1.42 5.77c-1.04-1.05-2.39-2.34-2.39-5.25z" fill="#FF917B" stroke="#FF917B" stroke-miterlimit="10" stroke-width=".2"/>
<path d="m82.31 79.72c-2.53 0-2.8 3.1-1.55 4.19 1.5 1.34 3.15 0.37 3.75-0.55 0.7-1.09 0.21-3.64-2.2-3.64z" fill="#FF917B"/>
</g>
</svg>
