<svg xmlns="http://www.w3.org/2000/svg" width="39" height="39" viewBox="0 0 39 39" fill="none">
<defs>
  <linearGradient id="magicOuter" x1="0.5" y1="0" x2="0.5" y2="1">
    <stop stop-color="#F6752B" offset="0"/>
    <stop stop-color="#F8983D" offset="1"/>
  </linearGradient>
  <radialGradient id="magicInner" cx="0.5" cy="0.4" r="0.7">
    <stop stop-color="#8D41CC" offset="0"/>
    <stop stop-color="#5A278F" offset="0.58"/>
    <stop stop-color="#44206C" offset="1"/>
  </radialGradient>
  <linearGradient id="magicInnerStroke" x1="0.5" y1="0" x2="0.5" y2="1">
    <stop stop-color="#3D1F63" offset="0"/>
    <stop stop-color="#3D1F63" stop-opacity="0.45" offset="1"/>
  </linearGradient>
</defs>
<rect x="1.0" y="1.0" width="37" height="37" rx="5" fill="url(#magicOuter)"/>
<rect x="2.5" y="2.5" width="34" height="34" rx="5" fill="url(#magicInner)" stroke="url(#magicInnerStroke)" stroke-width="1.2"/>
<g transform="translate(-18.95, -104.97)">
<path d="m30.18 122.8c3.63 1.45 6.93 5.34 8.46 9.97-2.52 0-5.68-0.11-6.23-1.1l-2.23-8.87z" stroke="#FF917B" stroke-miterlimit="10" stroke-width=".8"/>
<path d="m46.72 123.7c-3.41 1.65-5.9 5.58-7.34 8.8h4.53l2.25-2.72 0.56-6.08z" stroke="#FF917B" stroke-miterlimit="10" stroke-width=".8"/>
<path d="m33.95 123.3 3.89-7.19 0.07-0.14 0.07-0.15 0.01-0.02v0.01l0.02-0.04 0.02 0.04v-0.01l0.01 0.02 0.07 0.15 0.07 0.14 4.1 7.19" stroke="#FF917B" stroke-miterlimit="10" stroke-width=".8"/>
</g>
</svg>

