<svg xmlns="http://www.w3.org/2000/svg" width="39" height="39" viewBox="0 0 39 39" fill="none">
<defs>
  <linearGradient id="magicOuter" x1="0.5" y1="0" x2="0.5" y2="1">
    <stop stop-color="#F6752B" offset="0"/>
    <stop stop-color="#F8983D" offset="1"/>
  </linearGradient>
  <radialGradient id="magicInner" cx="0.5" cy="0.4" r="0.7">
    <stop stop-color="#8D41CC" offset="0"/>
    <stop stop-color="#5A278F" offset="0.58"/>
    <stop stop-color="#44206C" offset="1"/>
  </radialGradient>
  <linearGradient id="magicInnerStroke" x1="0.5" y1="0" x2="0.5" y2="1">
    <stop stop-color="#3D1F63" offset="0"/>
    <stop stop-color="#3D1F63" stop-opacity="0.45" offset="1"/>
  </linearGradient>
</defs>
<rect x="1.0" y="1.0" width="37" height="37" rx="5" fill="url(#magicOuter)"/>
<rect x="2.5" y="2.5" width="34" height="34" rx="5" fill="url(#magicInner)" stroke="url(#magicInnerStroke)" stroke-width="1.2"/>
<g transform="translate(-191.87, -190.63)">
<path d="m203.9 204c2.35-1.25 3.4-1.73 5.11-1.73 2.06 0 3.92 1.44 5.69 1.44 1.38 0 2.17-0.6 2.91-1.14" stroke="#FF917B" stroke-miterlimit="10" stroke-width="1.2"/>
<path d="m203.1 211.2h2.94" stroke="#FF917B" stroke-miterlimit="10" stroke-width="1.2"/>
<path d="m216.9 210.9h2.74" stroke="#FF917B" stroke-miterlimit="10" stroke-width="1.2"/>
<path d="m204.7 211.7c0-4.58 3.33-6.55 5.91-6.55 3.17 0 6 2.57 6 6.2 0 3.9-2.93 6.29-6 6.19-3.2-0.1-5.91-2.29-5.91-5.84z" stroke="#FF917B" stroke-miterlimit="10" stroke-width="1.2"/>
<path d="m204.2 217c2.29 0.9 3.49 1.4 5.9 1.4 2.26 0 3.67-0.9 5.28-1.6" stroke="#FF917B" stroke-miterlimit="10" stroke-width="1.2"/>
</g>
</svg>

